G04 #@! TF.FileFunction,Soldermask,Top*
%FSLAX46Y46*%
G04 Gerber Fmt 4.6, Leading zero omitted, Abs format (unit mm)*
G04 Created by KiCad (PCBNEW 4.0.4-stable) date 2018 February 08, Thursday 23:41:36*
%MOMM*%
%LPD*%
G01*
G04 APERTURE LIST*
%ADD10C,0.100000*%
%ADD11O,1.924000X2.940000*%
%ADD12C,4.337000*%
%ADD13C,1.924000*%
%ADD14C,2.000000*%
%ADD15R,2.000000X2.000000*%
%ADD16R,2.200000X2.200000*%
%ADD17C,2.200000*%
%ADD18R,1.924000X1.924000*%
%ADD19O,2.000000X2.000000*%
%ADD20O,2.940000X2.432000*%
G04 APERTURE END LIST*
D10*
D11*
X207264000Y-40640000D03*
X209804000Y-40640000D03*
X212344000Y-40640000D03*
X214884000Y-40640000D03*
X217424000Y-40640000D03*
X219964000Y-40640000D03*
X222504000Y-40640000D03*
X225044000Y-40640000D03*
X230124000Y-88900000D03*
X227584000Y-88900000D03*
X225044000Y-88900000D03*
X222504000Y-88900000D03*
X212344000Y-88900000D03*
X207264000Y-88900000D03*
X204724000Y-88900000D03*
X214884000Y-88900000D03*
X217424000Y-88900000D03*
X219964000Y-88900000D03*
X202184000Y-88900000D03*
X199644000Y-88900000D03*
X197104000Y-88900000D03*
X189484000Y-88900000D03*
X192024000Y-88900000D03*
X194564000Y-88900000D03*
X184404000Y-88900000D03*
X181864000Y-88900000D03*
X179324000Y-88900000D03*
X174244000Y-88900000D03*
X171704000Y-88900000D03*
X202184000Y-40640000D03*
X199644000Y-40640000D03*
X197104000Y-40640000D03*
X194564000Y-40640000D03*
X192024000Y-40640000D03*
X189484000Y-40640000D03*
X186944000Y-40640000D03*
X184404000Y-40640000D03*
X180340000Y-40640000D03*
X177800000Y-40640000D03*
X175260000Y-40640000D03*
X172720000Y-40640000D03*
X170180000Y-40640000D03*
X167640000Y-40640000D03*
X165100000Y-40640000D03*
X162560000Y-40640000D03*
X176784000Y-88900000D03*
D12*
X235204000Y-88900000D03*
X228854000Y-40640000D03*
X153924000Y-40640000D03*
X152654000Y-88900000D03*
D13*
X232664000Y-43180000D03*
X235204000Y-43180000D03*
X232664000Y-45720000D03*
X235204000Y-45720000D03*
X232664000Y-48260000D03*
X235204000Y-48260000D03*
X232664000Y-50800000D03*
X235204000Y-50800000D03*
X232664000Y-40640000D03*
X235204000Y-40640000D03*
X235204000Y-53340000D03*
X232664000Y-53340000D03*
X232664000Y-55880000D03*
X235204000Y-55880000D03*
X232664000Y-58420000D03*
X235204000Y-58420000D03*
X232664000Y-60960000D03*
X235204000Y-60960000D03*
X232664000Y-63500000D03*
X235204000Y-63500000D03*
X232664000Y-66040000D03*
X235204000Y-66040000D03*
X232664000Y-68580000D03*
X235204000Y-68580000D03*
X232664000Y-71120000D03*
X235204000Y-71120000D03*
X232664000Y-73660000D03*
X235204000Y-73660000D03*
X232664000Y-76200000D03*
X235204000Y-76200000D03*
X232664000Y-78740000D03*
X235204000Y-78740000D03*
X232664000Y-81280000D03*
X235204000Y-81280000D03*
X232664000Y-83820000D03*
X235204000Y-83820000D03*
D14*
X173990000Y-80010000D03*
X173990000Y-75010000D03*
D15*
X179070000Y-77470000D03*
D14*
X179070000Y-74970000D03*
D16*
X180340000Y-50800000D03*
D17*
X182880000Y-50800000D03*
D13*
X189930000Y-54610000D03*
X189930000Y-57150000D03*
X189930000Y-59690000D03*
X189930000Y-62230000D03*
X189930000Y-64770000D03*
X189930000Y-67310000D03*
X189930000Y-69850000D03*
X189930000Y-72390000D03*
X189930000Y-74930000D03*
X189930000Y-77470000D03*
X212790000Y-54610000D03*
X212790000Y-57150000D03*
X212790000Y-59690000D03*
X212790000Y-62230000D03*
X212790000Y-64770000D03*
X212790000Y-67310000D03*
X212790000Y-69850000D03*
X212790000Y-72390000D03*
X212790000Y-74930000D03*
X212790000Y-77470000D03*
X220980000Y-67310000D03*
X220980000Y-69810000D03*
D18*
X220980000Y-64810000D03*
D13*
X220980000Y-76200000D03*
X220980000Y-78700000D03*
D18*
X220980000Y-73700000D03*
D13*
X163830000Y-61230000D03*
D18*
X163830000Y-63730000D03*
D13*
X163830000Y-53340000D03*
X163830000Y-50840000D03*
D18*
X163830000Y-55840000D03*
D13*
X220980000Y-54610000D03*
X220980000Y-57110000D03*
D18*
X220980000Y-52110000D03*
D14*
X199390000Y-64770000D03*
D19*
X207010000Y-64770000D03*
D14*
X207010000Y-69850000D03*
D19*
X199390000Y-69850000D03*
D14*
X185420000Y-62230000D03*
D19*
X185420000Y-54610000D03*
D20*
X184150000Y-77470000D03*
X184150000Y-80010000D03*
X184150000Y-74930000D03*
D15*
X180340000Y-66040000D03*
D19*
X172720000Y-58420000D03*
X180340000Y-63500000D03*
X172720000Y-60960000D03*
X180340000Y-60960000D03*
X172720000Y-63500000D03*
X180340000Y-58420000D03*
X172720000Y-66040000D03*
M02*
