G04 #@! TF.FileFunction,Copper,L1,Top,Signal*
%FSLAX46Y46*%
G04 Gerber Fmt 4.6, Leading zero omitted, Abs format (unit mm)*
G04 Created by KiCad (PCBNEW 4.0.4-stable) date 2018 February 08, Thursday 23:41:36*
%MOMM*%
%LPD*%
G01*
G04 APERTURE LIST*
%ADD10C,0.100000*%
%ADD11O,1.524000X2.540000*%
%ADD12C,3.937000*%
%ADD13C,1.524000*%
%ADD14C,1.600000*%
%ADD15R,1.600000X1.600000*%
%ADD16R,1.800000X1.800000*%
%ADD17C,1.800000*%
%ADD18R,1.524000X1.524000*%
%ADD19O,1.600000X1.600000*%
%ADD20O,2.540000X2.032000*%
%ADD21C,0.762000*%
%ADD22C,1.270000*%
%ADD23C,0.254000*%
G04 APERTURE END LIST*
D10*
D11*
X207264000Y-40640000D03*
X209804000Y-40640000D03*
X212344000Y-40640000D03*
X214884000Y-40640000D03*
X217424000Y-40640000D03*
X219964000Y-40640000D03*
X222504000Y-40640000D03*
X225044000Y-40640000D03*
X230124000Y-88900000D03*
X227584000Y-88900000D03*
X225044000Y-88900000D03*
X222504000Y-88900000D03*
X212344000Y-88900000D03*
X207264000Y-88900000D03*
X204724000Y-88900000D03*
X214884000Y-88900000D03*
X217424000Y-88900000D03*
X219964000Y-88900000D03*
X202184000Y-88900000D03*
X199644000Y-88900000D03*
X197104000Y-88900000D03*
X189484000Y-88900000D03*
X192024000Y-88900000D03*
X194564000Y-88900000D03*
X184404000Y-88900000D03*
X181864000Y-88900000D03*
X179324000Y-88900000D03*
X174244000Y-88900000D03*
X171704000Y-88900000D03*
X202184000Y-40640000D03*
X199644000Y-40640000D03*
X197104000Y-40640000D03*
X194564000Y-40640000D03*
X192024000Y-40640000D03*
X189484000Y-40640000D03*
X186944000Y-40640000D03*
X184404000Y-40640000D03*
X180340000Y-40640000D03*
X177800000Y-40640000D03*
X175260000Y-40640000D03*
X172720000Y-40640000D03*
X170180000Y-40640000D03*
X167640000Y-40640000D03*
X165100000Y-40640000D03*
X162560000Y-40640000D03*
X176784000Y-88900000D03*
D12*
X235204000Y-88900000D03*
X228854000Y-40640000D03*
X153924000Y-40640000D03*
X152654000Y-88900000D03*
D13*
X232664000Y-43180000D03*
X235204000Y-43180000D03*
X232664000Y-45720000D03*
X235204000Y-45720000D03*
X232664000Y-48260000D03*
X235204000Y-48260000D03*
X232664000Y-50800000D03*
X235204000Y-50800000D03*
X232664000Y-40640000D03*
X235204000Y-40640000D03*
X235204000Y-53340000D03*
X232664000Y-53340000D03*
X232664000Y-55880000D03*
X235204000Y-55880000D03*
X232664000Y-58420000D03*
X235204000Y-58420000D03*
X232664000Y-60960000D03*
X235204000Y-60960000D03*
X232664000Y-63500000D03*
X235204000Y-63500000D03*
X232664000Y-66040000D03*
X235204000Y-66040000D03*
X232664000Y-68580000D03*
X235204000Y-68580000D03*
X232664000Y-71120000D03*
X235204000Y-71120000D03*
X232664000Y-73660000D03*
X235204000Y-73660000D03*
X232664000Y-76200000D03*
X235204000Y-76200000D03*
X232664000Y-78740000D03*
X235204000Y-78740000D03*
X232664000Y-81280000D03*
X235204000Y-81280000D03*
X232664000Y-83820000D03*
X235204000Y-83820000D03*
D14*
X173990000Y-80010000D03*
X173990000Y-75010000D03*
D15*
X179070000Y-77470000D03*
D14*
X179070000Y-74970000D03*
D16*
X180340000Y-50800000D03*
D17*
X182880000Y-50800000D03*
D13*
X189930000Y-54610000D03*
X189930000Y-57150000D03*
X189930000Y-59690000D03*
X189930000Y-62230000D03*
X189930000Y-64770000D03*
X189930000Y-67310000D03*
X189930000Y-69850000D03*
X189930000Y-72390000D03*
X189930000Y-74930000D03*
X189930000Y-77470000D03*
X212790000Y-54610000D03*
X212790000Y-57150000D03*
X212790000Y-59690000D03*
X212790000Y-62230000D03*
X212790000Y-64770000D03*
X212790000Y-67310000D03*
X212790000Y-69850000D03*
X212790000Y-72390000D03*
X212790000Y-74930000D03*
X212790000Y-77470000D03*
X220980000Y-67310000D03*
X220980000Y-69810000D03*
D18*
X220980000Y-64810000D03*
D13*
X220980000Y-76200000D03*
X220980000Y-78700000D03*
D18*
X220980000Y-73700000D03*
D13*
X163830000Y-61230000D03*
D18*
X163830000Y-63730000D03*
D13*
X163830000Y-53340000D03*
X163830000Y-50840000D03*
D18*
X163830000Y-55840000D03*
D13*
X220980000Y-54610000D03*
X220980000Y-57110000D03*
D18*
X220980000Y-52110000D03*
D14*
X199390000Y-64770000D03*
D19*
X207010000Y-64770000D03*
D14*
X207010000Y-69850000D03*
D19*
X199390000Y-69850000D03*
D14*
X185420000Y-62230000D03*
D19*
X185420000Y-54610000D03*
D20*
X184150000Y-77470000D03*
X184150000Y-80010000D03*
X184150000Y-74930000D03*
D15*
X180340000Y-66040000D03*
D19*
X172720000Y-58420000D03*
X180340000Y-63500000D03*
X172720000Y-60960000D03*
X180340000Y-60960000D03*
X172720000Y-63500000D03*
X180340000Y-58420000D03*
X172720000Y-66040000D03*
D21*
X215265000Y-47625000D03*
X218440000Y-47625000D03*
X176530000Y-82550000D03*
X216535000Y-50800000D03*
D22*
X173990000Y-80010000D02*
X184150000Y-80010000D01*
X184150000Y-80010000D02*
X184150000Y-88646000D01*
X184150000Y-88646000D02*
X184404000Y-88900000D01*
X179070000Y-77470000D02*
X184150000Y-77470000D01*
X184150000Y-77470000D02*
X189930000Y-77470000D01*
D23*
X185420000Y-52070000D02*
X185420000Y-54610000D01*
X184150000Y-50800000D02*
X185420000Y-52070000D01*
X182880000Y-50800000D02*
X184150000Y-50800000D01*
X218440000Y-47625000D02*
X215265000Y-47625000D01*
X185420000Y-62230000D02*
X189930000Y-62230000D01*
X199390000Y-64770000D02*
X199390000Y-69850000D01*
X189930000Y-64770000D02*
X199390000Y-64770000D01*
X189484000Y-88900000D02*
X189484000Y-88011000D01*
X189484000Y-88011000D02*
X193040000Y-84455000D01*
X193040000Y-84455000D02*
X217170000Y-84455000D01*
X217170000Y-84455000D02*
X218440000Y-83185000D01*
X218440000Y-83185000D02*
X218440000Y-77470000D01*
X218440000Y-77470000D02*
X219075000Y-76835000D01*
X219075000Y-76835000D02*
X219075000Y-69215000D01*
X219075000Y-69215000D02*
X220980000Y-67310000D01*
D22*
X175260000Y-83820000D02*
X176530000Y-82550000D01*
X176784000Y-88900000D02*
X176784000Y-85344000D01*
X176784000Y-85344000D02*
X175260000Y-83820000D01*
X170180000Y-66040000D02*
X172720000Y-66040000D01*
X170180000Y-83820000D02*
X175260000Y-83820000D01*
X170180000Y-66040000D02*
X170180000Y-83820000D01*
D23*
X192024000Y-88900000D02*
X192024000Y-87376000D01*
X192024000Y-87376000D02*
X194310000Y-85090000D01*
X219075000Y-78105000D02*
X220980000Y-76200000D01*
X219075000Y-83185000D02*
X219075000Y-78105000D01*
X217170000Y-85090000D02*
X219075000Y-83185000D01*
X194310000Y-85090000D02*
X217170000Y-85090000D01*
D22*
X163830000Y-61230000D02*
X172450000Y-61230000D01*
X172450000Y-61230000D02*
X172720000Y-60960000D01*
X163830000Y-63730000D02*
X172490000Y-63730000D01*
X172490000Y-63730000D02*
X172720000Y-63500000D01*
D23*
X170180000Y-40640000D02*
X170180000Y-46990000D01*
X170180000Y-46990000D02*
X163830000Y-53340000D01*
X207264000Y-40640000D02*
X207264000Y-49149000D01*
X207264000Y-49149000D02*
X210820000Y-52705000D01*
X217805000Y-54610000D02*
X220980000Y-54610000D01*
X215900000Y-52705000D02*
X217805000Y-54610000D01*
X210820000Y-52705000D02*
X215900000Y-52705000D01*
X209804000Y-40640000D02*
X209804000Y-49149000D01*
X211455000Y-50800000D02*
X216535000Y-50800000D01*
X209804000Y-49149000D02*
X211455000Y-50800000D01*
X180340000Y-46990000D02*
X177800000Y-49530000D01*
X180340000Y-40640000D02*
X180340000Y-46990000D01*
X177800000Y-52070000D02*
X177800000Y-58420000D01*
X177800000Y-49530000D02*
X177800000Y-52070000D01*
X177800000Y-58420000D02*
X180340000Y-60960000D01*
X180340000Y-60960000D02*
X180340000Y-63500000D01*
G36*
X152468252Y-38420270D02*
X152251323Y-38787718D01*
X153924000Y-40460395D01*
X155596677Y-38787718D01*
X155379748Y-38420270D01*
X154654160Y-38127000D01*
X228106270Y-38127000D01*
X227398252Y-38420270D01*
X227181323Y-38787718D01*
X228854000Y-40460395D01*
X230526677Y-38787718D01*
X230309748Y-38420270D01*
X229584160Y-38127000D01*
X236447394Y-38127000D01*
X237373000Y-39052606D01*
X237373000Y-51000000D01*
X237383006Y-51049410D01*
X237410197Y-51089803D01*
X239873000Y-53552606D01*
X239873000Y-86447394D01*
X237804298Y-88516096D01*
X237802955Y-88359784D01*
X237423730Y-87444252D01*
X237056282Y-87227323D01*
X235383605Y-88900000D01*
X237056282Y-90572677D01*
X237373000Y-90385697D01*
X237373000Y-91373000D01*
X236048299Y-91373000D01*
X236659748Y-91119730D01*
X236876677Y-90752282D01*
X235204000Y-89079605D01*
X233531323Y-90752282D01*
X233748252Y-91119730D01*
X234374874Y-91373000D01*
X153498299Y-91373000D01*
X154109748Y-91119730D01*
X154326677Y-90752282D01*
X152654000Y-89079605D01*
X150981323Y-90752282D01*
X151198252Y-91119730D01*
X151824874Y-91373000D01*
X150127000Y-91373000D01*
X150127000Y-89613931D01*
X150434270Y-90355748D01*
X150801718Y-90572677D01*
X152474395Y-88900000D01*
X152833605Y-88900000D01*
X154506282Y-90572677D01*
X154873730Y-90355748D01*
X155261853Y-89395482D01*
X155252955Y-88359784D01*
X154873730Y-87444252D01*
X154506282Y-87227323D01*
X152833605Y-88900000D01*
X152474395Y-88900000D01*
X150801718Y-87227323D01*
X150434270Y-87444252D01*
X150127000Y-88204477D01*
X150127000Y-87047718D01*
X150981323Y-87047718D01*
X152654000Y-88720395D01*
X154326677Y-87047718D01*
X154109748Y-86680270D01*
X153149482Y-86292147D01*
X152113784Y-86301045D01*
X151198252Y-86680270D01*
X150981323Y-87047718D01*
X150127000Y-87047718D01*
X150127000Y-62968000D01*
X162420560Y-62968000D01*
X162420560Y-64492000D01*
X162464838Y-64727317D01*
X162603910Y-64943441D01*
X162816110Y-65088431D01*
X163068000Y-65139440D01*
X164592000Y-65139440D01*
X164827317Y-65095162D01*
X164975203Y-65000000D01*
X169494454Y-65000000D01*
X169281974Y-65141974D01*
X169006673Y-65553992D01*
X168910000Y-66040000D01*
X168910000Y-83820000D01*
X169006673Y-84306008D01*
X169281974Y-84718026D01*
X169693992Y-84993327D01*
X170180000Y-85090000D01*
X174733948Y-85090000D01*
X175514000Y-85870051D01*
X175514000Y-87789150D01*
X175231828Y-87366851D01*
X174778609Y-87064019D01*
X174244000Y-86957679D01*
X173709391Y-87064019D01*
X173256172Y-87366851D01*
X172974000Y-87789150D01*
X172691828Y-87366851D01*
X172238609Y-87064019D01*
X171704000Y-86957679D01*
X171169391Y-87064019D01*
X170716172Y-87366851D01*
X170413340Y-87820070D01*
X170307000Y-88354679D01*
X170307000Y-89445321D01*
X170413340Y-89979930D01*
X170716172Y-90433149D01*
X171169391Y-90735981D01*
X171704000Y-90842321D01*
X172238609Y-90735981D01*
X172691828Y-90433149D01*
X172974000Y-90010850D01*
X173256172Y-90433149D01*
X173709391Y-90735981D01*
X174244000Y-90842321D01*
X174778609Y-90735981D01*
X175231828Y-90433149D01*
X175514000Y-90010850D01*
X175796172Y-90433149D01*
X176249391Y-90735981D01*
X176784000Y-90842321D01*
X177318609Y-90735981D01*
X177771828Y-90433149D01*
X178063330Y-89996887D01*
X178081941Y-90059941D01*
X178425974Y-90485630D01*
X178906723Y-90747260D01*
X178980930Y-90762220D01*
X179197000Y-90639720D01*
X179197000Y-89027000D01*
X179451000Y-89027000D01*
X179451000Y-90639720D01*
X179667070Y-90762220D01*
X179741277Y-90747260D01*
X180222026Y-90485630D01*
X180566059Y-90059941D01*
X180594000Y-89965277D01*
X180621941Y-90059941D01*
X180965974Y-90485630D01*
X181446723Y-90747260D01*
X181520930Y-90762220D01*
X181737000Y-90639720D01*
X181737000Y-89027000D01*
X179451000Y-89027000D01*
X179197000Y-89027000D01*
X179177000Y-89027000D01*
X179177000Y-88773000D01*
X179197000Y-88773000D01*
X179197000Y-87160280D01*
X179451000Y-87160280D01*
X179451000Y-88773000D01*
X181737000Y-88773000D01*
X181737000Y-87160280D01*
X181520930Y-87037780D01*
X181446723Y-87052740D01*
X180965974Y-87314370D01*
X180621941Y-87740059D01*
X180594000Y-87834723D01*
X180566059Y-87740059D01*
X180222026Y-87314370D01*
X179741277Y-87052740D01*
X179667070Y-87037780D01*
X179451000Y-87160280D01*
X179197000Y-87160280D01*
X178980930Y-87037780D01*
X178906723Y-87052740D01*
X178425974Y-87314370D01*
X178081941Y-87740059D01*
X178063330Y-87803113D01*
X178054000Y-87789150D01*
X178054000Y-85344000D01*
X177957327Y-84857992D01*
X177682026Y-84445974D01*
X177682023Y-84445972D01*
X177056051Y-83820000D01*
X177428025Y-83448026D01*
X177703327Y-83036008D01*
X177800000Y-82550000D01*
X177703327Y-82063992D01*
X177428025Y-81651975D01*
X177016008Y-81376673D01*
X176530000Y-81280000D01*
X176043992Y-81376673D01*
X175631974Y-81651975D01*
X174733948Y-82550000D01*
X171450000Y-82550000D01*
X171450000Y-80294187D01*
X172554752Y-80294187D01*
X172772757Y-80821800D01*
X173176077Y-81225824D01*
X173703309Y-81444750D01*
X174274187Y-81445248D01*
X174674118Y-81280000D01*
X176530000Y-81280000D01*
X182844748Y-81280000D01*
X182880000Y-81303554D01*
X182880000Y-87460345D01*
X182762026Y-87314370D01*
X182281277Y-87052740D01*
X182207070Y-87037780D01*
X181991000Y-87160280D01*
X181991000Y-88773000D01*
X182011000Y-88773000D01*
X182011000Y-89027000D01*
X181991000Y-89027000D01*
X181991000Y-90639720D01*
X182207070Y-90762220D01*
X182281277Y-90747260D01*
X182762026Y-90485630D01*
X183106059Y-90059941D01*
X183124670Y-89996887D01*
X183416172Y-90433149D01*
X183869391Y-90735981D01*
X184404000Y-90842321D01*
X184938609Y-90735981D01*
X185391828Y-90433149D01*
X185694660Y-89979930D01*
X185801000Y-89445321D01*
X185801000Y-88354679D01*
X188087000Y-88354679D01*
X188087000Y-89445321D01*
X188193340Y-89979930D01*
X188496172Y-90433149D01*
X188949391Y-90735981D01*
X189484000Y-90842321D01*
X190018609Y-90735981D01*
X190471828Y-90433149D01*
X190754000Y-90010850D01*
X191036172Y-90433149D01*
X191489391Y-90735981D01*
X192024000Y-90842321D01*
X192558609Y-90735981D01*
X193011828Y-90433149D01*
X193294000Y-90010850D01*
X193576172Y-90433149D01*
X194029391Y-90735981D01*
X194564000Y-90842321D01*
X195098609Y-90735981D01*
X195551828Y-90433149D01*
X195834000Y-90010850D01*
X196116172Y-90433149D01*
X196569391Y-90735981D01*
X197104000Y-90842321D01*
X197638609Y-90735981D01*
X198091828Y-90433149D01*
X198374000Y-90010850D01*
X198656172Y-90433149D01*
X199109391Y-90735981D01*
X199644000Y-90842321D01*
X200178609Y-90735981D01*
X200631828Y-90433149D01*
X200914000Y-90010850D01*
X201196172Y-90433149D01*
X201649391Y-90735981D01*
X202184000Y-90842321D01*
X202718609Y-90735981D01*
X203171828Y-90433149D01*
X203454000Y-90010850D01*
X203736172Y-90433149D01*
X204189391Y-90735981D01*
X204724000Y-90842321D01*
X205258609Y-90735981D01*
X205711828Y-90433149D01*
X205994000Y-90010850D01*
X206276172Y-90433149D01*
X206729391Y-90735981D01*
X207264000Y-90842321D01*
X207798609Y-90735981D01*
X208251828Y-90433149D01*
X208554660Y-89979930D01*
X208661000Y-89445321D01*
X208661000Y-88354679D01*
X210947000Y-88354679D01*
X210947000Y-89445321D01*
X211053340Y-89979930D01*
X211356172Y-90433149D01*
X211809391Y-90735981D01*
X212344000Y-90842321D01*
X212878609Y-90735981D01*
X213331828Y-90433149D01*
X213614000Y-90010850D01*
X213896172Y-90433149D01*
X214349391Y-90735981D01*
X214884000Y-90842321D01*
X215418609Y-90735981D01*
X215871828Y-90433149D01*
X216154000Y-90010850D01*
X216436172Y-90433149D01*
X216889391Y-90735981D01*
X217424000Y-90842321D01*
X217958609Y-90735981D01*
X218411828Y-90433149D01*
X218694000Y-90010850D01*
X218976172Y-90433149D01*
X219429391Y-90735981D01*
X219964000Y-90842321D01*
X220498609Y-90735981D01*
X220951828Y-90433149D01*
X221234000Y-90010850D01*
X221516172Y-90433149D01*
X221969391Y-90735981D01*
X222504000Y-90842321D01*
X223038609Y-90735981D01*
X223491828Y-90433149D01*
X223774000Y-90010850D01*
X224056172Y-90433149D01*
X224509391Y-90735981D01*
X225044000Y-90842321D01*
X225578609Y-90735981D01*
X226031828Y-90433149D01*
X226314000Y-90010850D01*
X226596172Y-90433149D01*
X227049391Y-90735981D01*
X227584000Y-90842321D01*
X228118609Y-90735981D01*
X228571828Y-90433149D01*
X228854000Y-90010850D01*
X229136172Y-90433149D01*
X229589391Y-90735981D01*
X230124000Y-90842321D01*
X230658609Y-90735981D01*
X231111828Y-90433149D01*
X231414660Y-89979930D01*
X231521000Y-89445321D01*
X231521000Y-88404518D01*
X232596147Y-88404518D01*
X232605045Y-89440216D01*
X232984270Y-90355748D01*
X233351718Y-90572677D01*
X235024395Y-88900000D01*
X233351718Y-87227323D01*
X232984270Y-87444252D01*
X232596147Y-88404518D01*
X231521000Y-88404518D01*
X231521000Y-88354679D01*
X231414660Y-87820070D01*
X231111828Y-87366851D01*
X230658609Y-87064019D01*
X230576659Y-87047718D01*
X233531323Y-87047718D01*
X235204000Y-88720395D01*
X236876677Y-87047718D01*
X236659748Y-86680270D01*
X235699482Y-86292147D01*
X234663784Y-86301045D01*
X233748252Y-86680270D01*
X233531323Y-87047718D01*
X230576659Y-87047718D01*
X230124000Y-86957679D01*
X229589391Y-87064019D01*
X229136172Y-87366851D01*
X228854000Y-87789150D01*
X228571828Y-87366851D01*
X228118609Y-87064019D01*
X227584000Y-86957679D01*
X227049391Y-87064019D01*
X226596172Y-87366851D01*
X226314000Y-87789150D01*
X226031828Y-87366851D01*
X225578609Y-87064019D01*
X225044000Y-86957679D01*
X224509391Y-87064019D01*
X224056172Y-87366851D01*
X223774000Y-87789150D01*
X223491828Y-87366851D01*
X223038609Y-87064019D01*
X222504000Y-86957679D01*
X221969391Y-87064019D01*
X221516172Y-87366851D01*
X221234000Y-87789150D01*
X220951828Y-87366851D01*
X220498609Y-87064019D01*
X219964000Y-86957679D01*
X219429391Y-87064019D01*
X218976172Y-87366851D01*
X218694000Y-87789150D01*
X218411828Y-87366851D01*
X217958609Y-87064019D01*
X217424000Y-86957679D01*
X216889391Y-87064019D01*
X216436172Y-87366851D01*
X216154000Y-87789150D01*
X215871828Y-87366851D01*
X215418609Y-87064019D01*
X214884000Y-86957679D01*
X214349391Y-87064019D01*
X213896172Y-87366851D01*
X213614000Y-87789150D01*
X213331828Y-87366851D01*
X212878609Y-87064019D01*
X212344000Y-86957679D01*
X211809391Y-87064019D01*
X211356172Y-87366851D01*
X211053340Y-87820070D01*
X210947000Y-88354679D01*
X208661000Y-88354679D01*
X208554660Y-87820070D01*
X208251828Y-87366851D01*
X207798609Y-87064019D01*
X207264000Y-86957679D01*
X206729391Y-87064019D01*
X206276172Y-87366851D01*
X205994000Y-87789150D01*
X205711828Y-87366851D01*
X205258609Y-87064019D01*
X204724000Y-86957679D01*
X204189391Y-87064019D01*
X203736172Y-87366851D01*
X203454000Y-87789150D01*
X203171828Y-87366851D01*
X202718609Y-87064019D01*
X202184000Y-86957679D01*
X201649391Y-87064019D01*
X201196172Y-87366851D01*
X200914000Y-87789150D01*
X200631828Y-87366851D01*
X200178609Y-87064019D01*
X199644000Y-86957679D01*
X199109391Y-87064019D01*
X198656172Y-87366851D01*
X198374000Y-87789150D01*
X198091828Y-87366851D01*
X197638609Y-87064019D01*
X197104000Y-86957679D01*
X196569391Y-87064019D01*
X196116172Y-87366851D01*
X195834000Y-87789150D01*
X195551828Y-87366851D01*
X195098609Y-87064019D01*
X194564000Y-86957679D01*
X194029391Y-87064019D01*
X193576172Y-87366851D01*
X193294000Y-87789150D01*
X193051462Y-87426168D01*
X194625631Y-85852000D01*
X217170000Y-85852000D01*
X217461605Y-85793996D01*
X217708815Y-85628815D01*
X218537417Y-84800213D01*
X231863392Y-84800213D01*
X231932857Y-85042397D01*
X232456302Y-85229144D01*
X233011368Y-85201362D01*
X233395143Y-85042397D01*
X233464608Y-84800213D01*
X234403392Y-84800213D01*
X234472857Y-85042397D01*
X234996302Y-85229144D01*
X235551368Y-85201362D01*
X235935143Y-85042397D01*
X236004608Y-84800213D01*
X235204000Y-83999605D01*
X234403392Y-84800213D01*
X233464608Y-84800213D01*
X232664000Y-83999605D01*
X231863392Y-84800213D01*
X218537417Y-84800213D01*
X219613815Y-83723815D01*
X219634405Y-83693000D01*
X219688325Y-83612302D01*
X231254856Y-83612302D01*
X231282638Y-84167368D01*
X231441603Y-84551143D01*
X231683787Y-84620608D01*
X232484395Y-83820000D01*
X232843605Y-83820000D01*
X233644213Y-84620608D01*
X233886397Y-84551143D01*
X233930453Y-84427656D01*
X233981603Y-84551143D01*
X234223787Y-84620608D01*
X235024395Y-83820000D01*
X235383605Y-83820000D01*
X236184213Y-84620608D01*
X236426397Y-84551143D01*
X236613144Y-84027698D01*
X236585362Y-83472632D01*
X236426397Y-83088857D01*
X236184213Y-83019392D01*
X235383605Y-83820000D01*
X235024395Y-83820000D01*
X234223787Y-83019392D01*
X233981603Y-83088857D01*
X233937547Y-83212344D01*
X233886397Y-83088857D01*
X233644213Y-83019392D01*
X232843605Y-83820000D01*
X232484395Y-83820000D01*
X231683787Y-83019392D01*
X231441603Y-83088857D01*
X231254856Y-83612302D01*
X219688325Y-83612302D01*
X219778996Y-83476605D01*
X219837000Y-83185000D01*
X219837000Y-79532386D01*
X220187630Y-79883629D01*
X220700900Y-80096757D01*
X221256661Y-80097242D01*
X221770303Y-79885010D01*
X222163629Y-79492370D01*
X222376757Y-78979100D01*
X222377242Y-78423339D01*
X222165010Y-77909697D01*
X221772370Y-77516371D01*
X221612772Y-77450100D01*
X221770303Y-77385010D01*
X222163629Y-76992370D01*
X222376757Y-76479100D01*
X222377242Y-75923339D01*
X222165010Y-75409697D01*
X221852858Y-75097000D01*
X221868310Y-75097000D01*
X222101699Y-75000327D01*
X222280327Y-74821698D01*
X222377000Y-74588309D01*
X222377000Y-73985750D01*
X222218250Y-73827000D01*
X221107000Y-73827000D01*
X221107000Y-73847000D01*
X220853000Y-73847000D01*
X220853000Y-73827000D01*
X220833000Y-73827000D01*
X220833000Y-73573000D01*
X220853000Y-73573000D01*
X220853000Y-72461750D01*
X221107000Y-72461750D01*
X221107000Y-73573000D01*
X222218250Y-73573000D01*
X222377000Y-73414250D01*
X222377000Y-72811691D01*
X222280327Y-72578302D01*
X222101699Y-72399673D01*
X221868310Y-72303000D01*
X221265750Y-72303000D01*
X221107000Y-72461750D01*
X220853000Y-72461750D01*
X220694250Y-72303000D01*
X220091690Y-72303000D01*
X219858301Y-72399673D01*
X219837000Y-72420974D01*
X219837000Y-70642386D01*
X220187630Y-70993629D01*
X220700900Y-71206757D01*
X221256661Y-71207242D01*
X221770303Y-70995010D01*
X222163629Y-70602370D01*
X222376757Y-70089100D01*
X222377242Y-69533339D01*
X222165010Y-69019697D01*
X221772370Y-68626371D01*
X221612772Y-68560100D01*
X221770303Y-68495010D01*
X222163629Y-68102370D01*
X222376757Y-67589100D01*
X222377242Y-67033339D01*
X222165010Y-66519697D01*
X221852858Y-66207000D01*
X221868310Y-66207000D01*
X222101699Y-66110327D01*
X222280327Y-65931698D01*
X222377000Y-65698309D01*
X222377000Y-65095750D01*
X222218250Y-64937000D01*
X221107000Y-64937000D01*
X221107000Y-64957000D01*
X220853000Y-64957000D01*
X220853000Y-64937000D01*
X219741750Y-64937000D01*
X219583000Y-65095750D01*
X219583000Y-65698309D01*
X219679673Y-65931698D01*
X219858301Y-66110327D01*
X220091690Y-66207000D01*
X220107544Y-66207000D01*
X219796371Y-66517630D01*
X219583243Y-67030900D01*
X219582758Y-67586661D01*
X219595316Y-67617054D01*
X218536185Y-68676185D01*
X218371004Y-68923395D01*
X218313000Y-69215000D01*
X218313000Y-76519369D01*
X217901185Y-76931185D01*
X217736004Y-77178395D01*
X217678000Y-77470000D01*
X217678000Y-82869369D01*
X216854370Y-83693000D01*
X193040000Y-83693000D01*
X192748395Y-83751004D01*
X192501184Y-83916185D01*
X189453655Y-86963715D01*
X188949391Y-87064019D01*
X188496172Y-87366851D01*
X188193340Y-87820070D01*
X188087000Y-88354679D01*
X185801000Y-88354679D01*
X185694660Y-87820070D01*
X185420000Y-87409013D01*
X185420000Y-81303554D01*
X185608754Y-81177433D01*
X185966646Y-80641810D01*
X186092321Y-80010000D01*
X185966646Y-79378190D01*
X185608754Y-78842567D01*
X185455252Y-78740000D01*
X189345635Y-78740000D01*
X189650900Y-78866757D01*
X190206661Y-78867242D01*
X190720303Y-78655010D01*
X191113629Y-78262370D01*
X191326757Y-77749100D01*
X191326759Y-77746661D01*
X211392758Y-77746661D01*
X211604990Y-78260303D01*
X211997630Y-78653629D01*
X212510900Y-78866757D01*
X213066661Y-78867242D01*
X213580303Y-78655010D01*
X213973629Y-78262370D01*
X214186757Y-77749100D01*
X214187242Y-77193339D01*
X213975010Y-76679697D01*
X213582370Y-76286371D01*
X213390273Y-76206605D01*
X213521143Y-76152397D01*
X213590608Y-75910213D01*
X212790000Y-75109605D01*
X211989392Y-75910213D01*
X212058857Y-76152397D01*
X212199318Y-76202509D01*
X211999697Y-76284990D01*
X211606371Y-76677630D01*
X211393243Y-77190900D01*
X211392758Y-77746661D01*
X191326759Y-77746661D01*
X191327242Y-77193339D01*
X191115010Y-76679697D01*
X190722370Y-76286371D01*
X190530273Y-76206605D01*
X190661143Y-76152397D01*
X190730608Y-75910213D01*
X189930000Y-75109605D01*
X189129392Y-75910213D01*
X189198857Y-76152397D01*
X189332286Y-76200000D01*
X185455252Y-76200000D01*
X185434219Y-76185946D01*
X185661236Y-76007630D01*
X185977926Y-75444477D01*
X186009975Y-75312944D01*
X185890836Y-75057000D01*
X184277000Y-75057000D01*
X184277000Y-75077000D01*
X184023000Y-75077000D01*
X184023000Y-75057000D01*
X182409164Y-75057000D01*
X182290025Y-75312944D01*
X182322074Y-75444477D01*
X182638764Y-76007630D01*
X182865781Y-76185946D01*
X182844748Y-76200000D01*
X180306928Y-76200000D01*
X180121890Y-76073569D01*
X179883799Y-76025354D01*
X179898139Y-75977745D01*
X179070000Y-75149605D01*
X178241861Y-75977745D01*
X178256145Y-76025167D01*
X178034683Y-76066838D01*
X177818559Y-76205910D01*
X177673569Y-76418110D01*
X177622560Y-76670000D01*
X177622560Y-78270000D01*
X177666838Y-78505317D01*
X177805910Y-78721441D01*
X177833072Y-78740000D01*
X174673453Y-78740000D01*
X174276691Y-78575250D01*
X173705813Y-78574752D01*
X173178200Y-78792757D01*
X172774176Y-79196077D01*
X172555250Y-79723309D01*
X172554752Y-80294187D01*
X171450000Y-80294187D01*
X171450000Y-76017745D01*
X173161861Y-76017745D01*
X173235995Y-76263864D01*
X173773223Y-76456965D01*
X174343454Y-76429778D01*
X174744005Y-76263864D01*
X174818139Y-76017745D01*
X173990000Y-75189605D01*
X173161861Y-76017745D01*
X171450000Y-76017745D01*
X171450000Y-74793223D01*
X172543035Y-74793223D01*
X172570222Y-75363454D01*
X172736136Y-75764005D01*
X172982255Y-75838139D01*
X173810395Y-75010000D01*
X174169605Y-75010000D01*
X174997745Y-75838139D01*
X175243864Y-75764005D01*
X175436965Y-75226777D01*
X175414388Y-74753223D01*
X177623035Y-74753223D01*
X177650222Y-75323454D01*
X177816136Y-75724005D01*
X178062255Y-75798139D01*
X178890395Y-74970000D01*
X179249605Y-74970000D01*
X180077745Y-75798139D01*
X180323864Y-75724005D01*
X180516965Y-75186777D01*
X180489778Y-74616546D01*
X180460995Y-74547056D01*
X182290025Y-74547056D01*
X182409164Y-74803000D01*
X184023000Y-74803000D01*
X184023000Y-73279000D01*
X184277000Y-73279000D01*
X184277000Y-74803000D01*
X185890836Y-74803000D01*
X185928399Y-74722302D01*
X188520856Y-74722302D01*
X188548638Y-75277368D01*
X188707603Y-75661143D01*
X188949787Y-75730608D01*
X189750395Y-74930000D01*
X190109605Y-74930000D01*
X190910213Y-75730608D01*
X191152397Y-75661143D01*
X191339144Y-75137698D01*
X191318353Y-74722302D01*
X211380856Y-74722302D01*
X211408638Y-75277368D01*
X211567603Y-75661143D01*
X211809787Y-75730608D01*
X212610395Y-74930000D01*
X212969605Y-74930000D01*
X213770213Y-75730608D01*
X214012397Y-75661143D01*
X214199144Y-75137698D01*
X214171362Y-74582632D01*
X214012397Y-74198857D01*
X213770213Y-74129392D01*
X212969605Y-74930000D01*
X212610395Y-74930000D01*
X211809787Y-74129392D01*
X211567603Y-74198857D01*
X211380856Y-74722302D01*
X191318353Y-74722302D01*
X191311362Y-74582632D01*
X191152397Y-74198857D01*
X190910213Y-74129392D01*
X190109605Y-74930000D01*
X189750395Y-74930000D01*
X188949787Y-74129392D01*
X188707603Y-74198857D01*
X188520856Y-74722302D01*
X185928399Y-74722302D01*
X186009975Y-74547056D01*
X185977926Y-74415523D01*
X185661236Y-73852370D01*
X185153143Y-73453276D01*
X184531000Y-73279000D01*
X184277000Y-73279000D01*
X184023000Y-73279000D01*
X183769000Y-73279000D01*
X183146857Y-73453276D01*
X182638764Y-73852370D01*
X182322074Y-74415523D01*
X182290025Y-74547056D01*
X180460995Y-74547056D01*
X180323864Y-74215995D01*
X180077745Y-74141861D01*
X179249605Y-74970000D01*
X178890395Y-74970000D01*
X178062255Y-74141861D01*
X177816136Y-74215995D01*
X177623035Y-74753223D01*
X175414388Y-74753223D01*
X175409778Y-74656546D01*
X175243864Y-74255995D01*
X174997745Y-74181861D01*
X174169605Y-75010000D01*
X173810395Y-75010000D01*
X172982255Y-74181861D01*
X172736136Y-74255995D01*
X172543035Y-74793223D01*
X171450000Y-74793223D01*
X171450000Y-74002255D01*
X173161861Y-74002255D01*
X173990000Y-74830395D01*
X174818139Y-74002255D01*
X174806091Y-73962255D01*
X178241861Y-73962255D01*
X179070000Y-74790395D01*
X179898139Y-73962255D01*
X179824005Y-73716136D01*
X179286777Y-73523035D01*
X178716546Y-73550222D01*
X178315995Y-73716136D01*
X178241861Y-73962255D01*
X174806091Y-73962255D01*
X174744005Y-73756136D01*
X174206777Y-73563035D01*
X173636546Y-73590222D01*
X173235995Y-73756136D01*
X173161861Y-74002255D01*
X171450000Y-74002255D01*
X171450000Y-67310000D01*
X172059275Y-67310000D01*
X172142736Y-67365767D01*
X172691887Y-67475000D01*
X172748113Y-67475000D01*
X173297264Y-67365767D01*
X173762811Y-67054698D01*
X174073880Y-66589151D01*
X174183113Y-66040000D01*
X174073880Y-65490849D01*
X173762811Y-65025302D01*
X173380725Y-64770000D01*
X173762811Y-64514698D01*
X174073880Y-64049151D01*
X174183113Y-63500000D01*
X174073880Y-62950849D01*
X173762811Y-62485302D01*
X173380725Y-62230000D01*
X173762811Y-61974698D01*
X174073880Y-61509151D01*
X174183113Y-60960000D01*
X174073880Y-60410849D01*
X173762811Y-59945302D01*
X173358297Y-59675014D01*
X173575134Y-59572389D01*
X173951041Y-59157423D01*
X174111904Y-58769039D01*
X173989915Y-58547000D01*
X172847000Y-58547000D01*
X172847000Y-58567000D01*
X172593000Y-58567000D01*
X172593000Y-58547000D01*
X171450085Y-58547000D01*
X171328096Y-58769039D01*
X171488959Y-59157423D01*
X171864866Y-59572389D01*
X172081703Y-59675014D01*
X171677189Y-59945302D01*
X171667368Y-59960000D01*
X164414365Y-59960000D01*
X164109100Y-59833243D01*
X163553339Y-59832758D01*
X163039697Y-60044990D01*
X162646371Y-60437630D01*
X162433243Y-60950900D01*
X162432758Y-61506661D01*
X162644990Y-62020303D01*
X162964217Y-62340088D01*
X162832683Y-62364838D01*
X162616559Y-62503910D01*
X162471569Y-62716110D01*
X162420560Y-62968000D01*
X150127000Y-62968000D01*
X150127000Y-58070961D01*
X171328096Y-58070961D01*
X171450085Y-58293000D01*
X172593000Y-58293000D01*
X172593000Y-57149371D01*
X172847000Y-57149371D01*
X172847000Y-58293000D01*
X173989915Y-58293000D01*
X174111904Y-58070961D01*
X173951041Y-57682577D01*
X173575134Y-57267611D01*
X173069041Y-57028086D01*
X172847000Y-57149371D01*
X172593000Y-57149371D01*
X172370959Y-57028086D01*
X171864866Y-57267611D01*
X171488959Y-57682577D01*
X171328096Y-58070961D01*
X150127000Y-58070961D01*
X150127000Y-56125750D01*
X162433000Y-56125750D01*
X162433000Y-56728309D01*
X162529673Y-56961698D01*
X162708301Y-57140327D01*
X162941690Y-57237000D01*
X163544250Y-57237000D01*
X163703000Y-57078250D01*
X163703000Y-55967000D01*
X163957000Y-55967000D01*
X163957000Y-57078250D01*
X164115750Y-57237000D01*
X164718310Y-57237000D01*
X164951699Y-57140327D01*
X165130327Y-56961698D01*
X165227000Y-56728309D01*
X165227000Y-56125750D01*
X165068250Y-55967000D01*
X163957000Y-55967000D01*
X163703000Y-55967000D01*
X162591750Y-55967000D01*
X162433000Y-56125750D01*
X150127000Y-56125750D01*
X150127000Y-51116661D01*
X162432758Y-51116661D01*
X162644990Y-51630303D01*
X163037630Y-52023629D01*
X163197228Y-52089900D01*
X163039697Y-52154990D01*
X162646371Y-52547630D01*
X162433243Y-53060900D01*
X162432758Y-53616661D01*
X162644990Y-54130303D01*
X162957142Y-54443000D01*
X162941690Y-54443000D01*
X162708301Y-54539673D01*
X162529673Y-54718302D01*
X162433000Y-54951691D01*
X162433000Y-55554250D01*
X162591750Y-55713000D01*
X163703000Y-55713000D01*
X163703000Y-55693000D01*
X163957000Y-55693000D01*
X163957000Y-55713000D01*
X165068250Y-55713000D01*
X165227000Y-55554250D01*
X165227000Y-54951691D01*
X165130327Y-54718302D01*
X164951699Y-54539673D01*
X164718310Y-54443000D01*
X164702456Y-54443000D01*
X165013629Y-54132370D01*
X165226757Y-53619100D01*
X165227242Y-53063339D01*
X165214684Y-53032946D01*
X170718815Y-47528815D01*
X170883996Y-47281605D01*
X170942000Y-46990000D01*
X170942000Y-42324043D01*
X171167828Y-42173149D01*
X171450000Y-41750850D01*
X171732172Y-42173149D01*
X172185391Y-42475981D01*
X172720000Y-42582321D01*
X173254609Y-42475981D01*
X173707828Y-42173149D01*
X173990000Y-41750850D01*
X174272172Y-42173149D01*
X174725391Y-42475981D01*
X175260000Y-42582321D01*
X175794609Y-42475981D01*
X176247828Y-42173149D01*
X176530000Y-41750850D01*
X176812172Y-42173149D01*
X177265391Y-42475981D01*
X177800000Y-42582321D01*
X178334609Y-42475981D01*
X178787828Y-42173149D01*
X179070000Y-41750850D01*
X179352172Y-42173149D01*
X179578000Y-42324043D01*
X179578000Y-46674369D01*
X177261185Y-48991185D01*
X177096004Y-49238395D01*
X177038000Y-49530000D01*
X177038000Y-58420000D01*
X177096004Y-58711605D01*
X177261185Y-58958815D01*
X178940843Y-60638473D01*
X178876887Y-60960000D01*
X178986120Y-61509151D01*
X179297189Y-61974698D01*
X179578000Y-62162330D01*
X179578000Y-62297670D01*
X179297189Y-62485302D01*
X178986120Y-62950849D01*
X178876887Y-63500000D01*
X178986120Y-64049151D01*
X179297189Y-64514698D01*
X179441465Y-64611101D01*
X179304683Y-64636838D01*
X179088559Y-64775910D01*
X178943569Y-64988110D01*
X178892560Y-65240000D01*
X178892560Y-66840000D01*
X178936838Y-67075317D01*
X179075910Y-67291441D01*
X179288110Y-67436431D01*
X179540000Y-67487440D01*
X181140000Y-67487440D01*
X181375317Y-67443162D01*
X181591441Y-67304090D01*
X181736431Y-67091890D01*
X181787440Y-66840000D01*
X181787440Y-65240000D01*
X181743162Y-65004683D01*
X181604090Y-64788559D01*
X181391890Y-64643569D01*
X181236911Y-64612185D01*
X181382811Y-64514698D01*
X181693880Y-64049151D01*
X181803113Y-63500000D01*
X181693880Y-62950849D01*
X181402112Y-62514187D01*
X183984752Y-62514187D01*
X184202757Y-63041800D01*
X184606077Y-63445824D01*
X185133309Y-63664750D01*
X185704187Y-63665248D01*
X186231800Y-63447243D01*
X186635824Y-63043923D01*
X186657384Y-62992000D01*
X188733295Y-62992000D01*
X188744990Y-63020303D01*
X189137630Y-63413629D01*
X189345512Y-63499949D01*
X189139697Y-63584990D01*
X188746371Y-63977630D01*
X188533243Y-64490900D01*
X188532758Y-65046661D01*
X188744990Y-65560303D01*
X189137630Y-65953629D01*
X189345512Y-66039949D01*
X189139697Y-66124990D01*
X188746371Y-66517630D01*
X188533243Y-67030900D01*
X188532758Y-67586661D01*
X188744990Y-68100303D01*
X189137630Y-68493629D01*
X189345512Y-68579949D01*
X189139697Y-68664990D01*
X188746371Y-69057630D01*
X188533243Y-69570900D01*
X188532758Y-70126661D01*
X188744990Y-70640303D01*
X189137630Y-71033629D01*
X189345512Y-71119949D01*
X189139697Y-71204990D01*
X188746371Y-71597630D01*
X188533243Y-72110900D01*
X188532758Y-72666661D01*
X188744990Y-73180303D01*
X189137630Y-73573629D01*
X189329727Y-73653395D01*
X189198857Y-73707603D01*
X189129392Y-73949787D01*
X189930000Y-74750395D01*
X190730608Y-73949787D01*
X190661143Y-73707603D01*
X190520682Y-73657491D01*
X190720303Y-73575010D01*
X191113629Y-73182370D01*
X191326757Y-72669100D01*
X191327242Y-72113339D01*
X191115010Y-71599697D01*
X190722370Y-71206371D01*
X190514488Y-71120051D01*
X190720303Y-71035010D01*
X191113629Y-70642370D01*
X191326757Y-70129100D01*
X191327242Y-69573339D01*
X191115010Y-69059697D01*
X190722370Y-68666371D01*
X190514488Y-68580051D01*
X190720303Y-68495010D01*
X191113629Y-68102370D01*
X191326757Y-67589100D01*
X191327242Y-67033339D01*
X191115010Y-66519697D01*
X190722370Y-66126371D01*
X190514488Y-66040051D01*
X190720303Y-65955010D01*
X191113629Y-65562370D01*
X191126240Y-65532000D01*
X198152180Y-65532000D01*
X198172757Y-65581800D01*
X198576077Y-65985824D01*
X198628000Y-66007384D01*
X198628000Y-68647670D01*
X198347189Y-68835302D01*
X198036120Y-69300849D01*
X197926887Y-69850000D01*
X198036120Y-70399151D01*
X198347189Y-70864698D01*
X198812736Y-71175767D01*
X199361887Y-71285000D01*
X199418113Y-71285000D01*
X199967264Y-71175767D01*
X200432811Y-70864698D01*
X200437456Y-70857745D01*
X206181861Y-70857745D01*
X206255995Y-71103864D01*
X206793223Y-71296965D01*
X207363454Y-71269778D01*
X207764005Y-71103864D01*
X207838139Y-70857745D01*
X207010000Y-70029605D01*
X206181861Y-70857745D01*
X200437456Y-70857745D01*
X200743880Y-70399151D01*
X200853113Y-69850000D01*
X200809994Y-69633223D01*
X205563035Y-69633223D01*
X205590222Y-70203454D01*
X205756136Y-70604005D01*
X206002255Y-70678139D01*
X206830395Y-69850000D01*
X207189605Y-69850000D01*
X208017745Y-70678139D01*
X208263864Y-70604005D01*
X208456965Y-70066777D01*
X208429778Y-69496546D01*
X208263864Y-69095995D01*
X208017745Y-69021861D01*
X207189605Y-69850000D01*
X206830395Y-69850000D01*
X206002255Y-69021861D01*
X205756136Y-69095995D01*
X205563035Y-69633223D01*
X200809994Y-69633223D01*
X200743880Y-69300849D01*
X200437457Y-68842255D01*
X206181861Y-68842255D01*
X207010000Y-69670395D01*
X207838139Y-68842255D01*
X207764005Y-68596136D01*
X207226777Y-68403035D01*
X206656546Y-68430222D01*
X206255995Y-68596136D01*
X206181861Y-68842255D01*
X200437457Y-68842255D01*
X200432811Y-68835302D01*
X200152000Y-68647670D01*
X200152000Y-66007820D01*
X200201800Y-65987243D01*
X200605824Y-65583923D01*
X200824750Y-65056691D01*
X200825000Y-64770000D01*
X205546887Y-64770000D01*
X205656120Y-65319151D01*
X205967189Y-65784698D01*
X206432736Y-66095767D01*
X206981887Y-66205000D01*
X207038113Y-66205000D01*
X207587264Y-66095767D01*
X208052811Y-65784698D01*
X208363880Y-65319151D01*
X208473113Y-64770000D01*
X208363880Y-64220849D01*
X208052811Y-63755302D01*
X207587264Y-63444233D01*
X207038113Y-63335000D01*
X206981887Y-63335000D01*
X206432736Y-63444233D01*
X205967189Y-63755302D01*
X205656120Y-64220849D01*
X205546887Y-64770000D01*
X200825000Y-64770000D01*
X200825248Y-64485813D01*
X200607243Y-63958200D01*
X200203923Y-63554176D01*
X199676691Y-63335250D01*
X199105813Y-63334752D01*
X198578200Y-63552757D01*
X198174176Y-63956077D01*
X198152616Y-64008000D01*
X191126705Y-64008000D01*
X191115010Y-63979697D01*
X190722370Y-63586371D01*
X190514488Y-63500051D01*
X190720303Y-63415010D01*
X191113629Y-63022370D01*
X191326757Y-62509100D01*
X191327242Y-61953339D01*
X191115010Y-61439697D01*
X190722370Y-61046371D01*
X190514488Y-60960051D01*
X190720303Y-60875010D01*
X191113629Y-60482370D01*
X191326757Y-59969100D01*
X191327242Y-59413339D01*
X191115010Y-58899697D01*
X190722370Y-58506371D01*
X190514488Y-58420051D01*
X190720303Y-58335010D01*
X191113629Y-57942370D01*
X191326757Y-57429100D01*
X191326759Y-57426661D01*
X211392758Y-57426661D01*
X211604990Y-57940303D01*
X211997630Y-58333629D01*
X212205512Y-58419949D01*
X211999697Y-58504990D01*
X211606371Y-58897630D01*
X211393243Y-59410900D01*
X211392758Y-59966661D01*
X211604990Y-60480303D01*
X211997630Y-60873629D01*
X212205512Y-60959949D01*
X211999697Y-61044990D01*
X211606371Y-61437630D01*
X211393243Y-61950900D01*
X211392758Y-62506661D01*
X211604990Y-63020303D01*
X211997630Y-63413629D01*
X212205512Y-63499949D01*
X211999697Y-63584990D01*
X211606371Y-63977630D01*
X211393243Y-64490900D01*
X211392758Y-65046661D01*
X211604990Y-65560303D01*
X211997630Y-65953629D01*
X212205512Y-66039949D01*
X211999697Y-66124990D01*
X211606371Y-66517630D01*
X211393243Y-67030900D01*
X211392758Y-67586661D01*
X211604990Y-68100303D01*
X211997630Y-68493629D01*
X212205512Y-68579949D01*
X211999697Y-68664990D01*
X211606371Y-69057630D01*
X211393243Y-69570900D01*
X211392758Y-70126661D01*
X211604990Y-70640303D01*
X211997630Y-71033629D01*
X212205512Y-71119949D01*
X211999697Y-71204990D01*
X211606371Y-71597630D01*
X211393243Y-72110900D01*
X211392758Y-72666661D01*
X211604990Y-73180303D01*
X211997630Y-73573629D01*
X212189727Y-73653395D01*
X212058857Y-73707603D01*
X211989392Y-73949787D01*
X212790000Y-74750395D01*
X213590608Y-73949787D01*
X213521143Y-73707603D01*
X213380682Y-73657491D01*
X213580303Y-73575010D01*
X213973629Y-73182370D01*
X214186757Y-72669100D01*
X214187242Y-72113339D01*
X213975010Y-71599697D01*
X213582370Y-71206371D01*
X213374488Y-71120051D01*
X213580303Y-71035010D01*
X213973629Y-70642370D01*
X214186757Y-70129100D01*
X214187242Y-69573339D01*
X213975010Y-69059697D01*
X213582370Y-68666371D01*
X213374488Y-68580051D01*
X213580303Y-68495010D01*
X213973629Y-68102370D01*
X214186757Y-67589100D01*
X214187242Y-67033339D01*
X213975010Y-66519697D01*
X213582370Y-66126371D01*
X213374488Y-66040051D01*
X213580303Y-65955010D01*
X213973629Y-65562370D01*
X214186757Y-65049100D01*
X214187242Y-64493339D01*
X213975010Y-63979697D01*
X213917106Y-63921691D01*
X219583000Y-63921691D01*
X219583000Y-64524250D01*
X219741750Y-64683000D01*
X220853000Y-64683000D01*
X220853000Y-63571750D01*
X221107000Y-63571750D01*
X221107000Y-64683000D01*
X222218250Y-64683000D01*
X222377000Y-64524250D01*
X222377000Y-63921691D01*
X222280327Y-63688302D01*
X222101699Y-63509673D01*
X221868310Y-63413000D01*
X221265750Y-63413000D01*
X221107000Y-63571750D01*
X220853000Y-63571750D01*
X220694250Y-63413000D01*
X220091690Y-63413000D01*
X219858301Y-63509673D01*
X219679673Y-63688302D01*
X219583000Y-63921691D01*
X213917106Y-63921691D01*
X213582370Y-63586371D01*
X213374488Y-63500051D01*
X213580303Y-63415010D01*
X213973629Y-63022370D01*
X214186757Y-62509100D01*
X214187242Y-61953339D01*
X213975010Y-61439697D01*
X213582370Y-61046371D01*
X213374488Y-60960051D01*
X213580303Y-60875010D01*
X213973629Y-60482370D01*
X214186757Y-59969100D01*
X214187242Y-59413339D01*
X213975010Y-58899697D01*
X213582370Y-58506371D01*
X213374488Y-58420051D01*
X213580303Y-58335010D01*
X213973629Y-57942370D01*
X214186757Y-57429100D01*
X214187242Y-56873339D01*
X213975010Y-56359697D01*
X213582370Y-55966371D01*
X213390273Y-55886605D01*
X213521143Y-55832397D01*
X213590608Y-55590213D01*
X212790000Y-54789605D01*
X211989392Y-55590213D01*
X212058857Y-55832397D01*
X212199318Y-55882509D01*
X211999697Y-55964990D01*
X211606371Y-56357630D01*
X211393243Y-56870900D01*
X211392758Y-57426661D01*
X191326759Y-57426661D01*
X191327242Y-56873339D01*
X191115010Y-56359697D01*
X190722370Y-55966371D01*
X190514488Y-55880051D01*
X190720303Y-55795010D01*
X191113629Y-55402370D01*
X191326757Y-54889100D01*
X191327181Y-54402302D01*
X211380856Y-54402302D01*
X211408638Y-54957368D01*
X211567603Y-55341143D01*
X211809787Y-55410608D01*
X212610395Y-54610000D01*
X212969605Y-54610000D01*
X213770213Y-55410608D01*
X214012397Y-55341143D01*
X214199144Y-54817698D01*
X214171362Y-54262632D01*
X214012397Y-53878857D01*
X213770213Y-53809392D01*
X212969605Y-54610000D01*
X212610395Y-54610000D01*
X211809787Y-53809392D01*
X211567603Y-53878857D01*
X211380856Y-54402302D01*
X191327181Y-54402302D01*
X191327242Y-54333339D01*
X191115010Y-53819697D01*
X190722370Y-53426371D01*
X190209100Y-53213243D01*
X189653339Y-53212758D01*
X189139697Y-53424990D01*
X188746371Y-53817630D01*
X188533243Y-54330900D01*
X188532758Y-54886661D01*
X188744990Y-55400303D01*
X189137630Y-55793629D01*
X189345512Y-55879949D01*
X189139697Y-55964990D01*
X188746371Y-56357630D01*
X188533243Y-56870900D01*
X188532758Y-57426661D01*
X188744990Y-57940303D01*
X189137630Y-58333629D01*
X189345512Y-58419949D01*
X189139697Y-58504990D01*
X188746371Y-58897630D01*
X188533243Y-59410900D01*
X188532758Y-59966661D01*
X188744990Y-60480303D01*
X189137630Y-60873629D01*
X189345512Y-60959949D01*
X189139697Y-61044990D01*
X188746371Y-61437630D01*
X188733760Y-61468000D01*
X186657820Y-61468000D01*
X186637243Y-61418200D01*
X186233923Y-61014176D01*
X185706691Y-60795250D01*
X185135813Y-60794752D01*
X184608200Y-61012757D01*
X184204176Y-61416077D01*
X183985250Y-61943309D01*
X183984752Y-62514187D01*
X181402112Y-62514187D01*
X181382811Y-62485302D01*
X181102000Y-62297670D01*
X181102000Y-62162330D01*
X181382811Y-61974698D01*
X181693880Y-61509151D01*
X181803113Y-60960000D01*
X181693880Y-60410849D01*
X181382811Y-59945302D01*
X181000725Y-59690000D01*
X181382811Y-59434698D01*
X181693880Y-58969151D01*
X181803113Y-58420000D01*
X181693880Y-57870849D01*
X181382811Y-57405302D01*
X180917264Y-57094233D01*
X180368113Y-56985000D01*
X180311887Y-56985000D01*
X179762736Y-57094233D01*
X179297189Y-57405302D01*
X178986120Y-57870849D01*
X178877010Y-58419380D01*
X178562000Y-58104370D01*
X178562000Y-51085750D01*
X178805000Y-51085750D01*
X178805000Y-51826310D01*
X178901673Y-52059699D01*
X179080302Y-52238327D01*
X179313691Y-52335000D01*
X180054250Y-52335000D01*
X180213000Y-52176250D01*
X180213000Y-50927000D01*
X178963750Y-50927000D01*
X178805000Y-51085750D01*
X178562000Y-51085750D01*
X178562000Y-49845630D01*
X178633940Y-49773690D01*
X178805000Y-49773690D01*
X178805000Y-50514250D01*
X178963750Y-50673000D01*
X180213000Y-50673000D01*
X180213000Y-49423750D01*
X180467000Y-49423750D01*
X180467000Y-50673000D01*
X180487000Y-50673000D01*
X180487000Y-50927000D01*
X180467000Y-50927000D01*
X180467000Y-52176250D01*
X180625750Y-52335000D01*
X181366309Y-52335000D01*
X181599698Y-52238327D01*
X181778327Y-52059699D01*
X181834119Y-51925006D01*
X182009357Y-52100551D01*
X182573330Y-52334733D01*
X183183991Y-52335265D01*
X183748371Y-52102068D01*
X184061678Y-51789308D01*
X184658000Y-52385631D01*
X184658000Y-53398341D01*
X184405302Y-53567189D01*
X184094233Y-54032736D01*
X183985000Y-54581887D01*
X183985000Y-54638113D01*
X184094233Y-55187264D01*
X184405302Y-55652811D01*
X184870849Y-55963880D01*
X185420000Y-56073113D01*
X185969151Y-55963880D01*
X186434698Y-55652811D01*
X186745767Y-55187264D01*
X186855000Y-54638113D01*
X186855000Y-54581887D01*
X186745767Y-54032736D01*
X186434698Y-53567189D01*
X186182000Y-53398341D01*
X186182000Y-52070000D01*
X186123996Y-51778395D01*
X186046106Y-51661825D01*
X185958815Y-51531184D01*
X184688815Y-50261185D01*
X184648124Y-50233996D01*
X184441605Y-50096004D01*
X184232827Y-50054475D01*
X184182068Y-49931629D01*
X183750643Y-49499449D01*
X183186670Y-49265267D01*
X182576009Y-49264735D01*
X182011629Y-49497932D01*
X181834159Y-49675092D01*
X181778327Y-49540301D01*
X181599698Y-49361673D01*
X181366309Y-49265000D01*
X180625750Y-49265000D01*
X180467000Y-49423750D01*
X180213000Y-49423750D01*
X180054250Y-49265000D01*
X179313691Y-49265000D01*
X179080302Y-49361673D01*
X178901673Y-49540301D01*
X178805000Y-49773690D01*
X178633940Y-49773690D01*
X180878815Y-47528816D01*
X181043996Y-47281605D01*
X181102000Y-46990000D01*
X181102000Y-42324043D01*
X181327828Y-42173149D01*
X181630660Y-41719930D01*
X181737000Y-41185321D01*
X181737000Y-40094679D01*
X183007000Y-40094679D01*
X183007000Y-41185321D01*
X183113340Y-41719930D01*
X183416172Y-42173149D01*
X183869391Y-42475981D01*
X184404000Y-42582321D01*
X184938609Y-42475981D01*
X185391828Y-42173149D01*
X185674000Y-41750850D01*
X185956172Y-42173149D01*
X186409391Y-42475981D01*
X186944000Y-42582321D01*
X187478609Y-42475981D01*
X187931828Y-42173149D01*
X188214000Y-41750850D01*
X188496172Y-42173149D01*
X188949391Y-42475981D01*
X189484000Y-42582321D01*
X190018609Y-42475981D01*
X190471828Y-42173149D01*
X190754000Y-41750850D01*
X191036172Y-42173149D01*
X191489391Y-42475981D01*
X192024000Y-42582321D01*
X192558609Y-42475981D01*
X193011828Y-42173149D01*
X193294000Y-41750850D01*
X193576172Y-42173149D01*
X194029391Y-42475981D01*
X194564000Y-42582321D01*
X195098609Y-42475981D01*
X195551828Y-42173149D01*
X195834000Y-41750850D01*
X196116172Y-42173149D01*
X196569391Y-42475981D01*
X197104000Y-42582321D01*
X197638609Y-42475981D01*
X198091828Y-42173149D01*
X198374000Y-41750850D01*
X198656172Y-42173149D01*
X199109391Y-42475981D01*
X199644000Y-42582321D01*
X200178609Y-42475981D01*
X200631828Y-42173149D01*
X200914000Y-41750850D01*
X201196172Y-42173149D01*
X201649391Y-42475981D01*
X202184000Y-42582321D01*
X202718609Y-42475981D01*
X203171828Y-42173149D01*
X203474660Y-41719930D01*
X203581000Y-41185321D01*
X203581000Y-40094679D01*
X205867000Y-40094679D01*
X205867000Y-41185321D01*
X205973340Y-41719930D01*
X206276172Y-42173149D01*
X206502000Y-42324043D01*
X206502000Y-49149000D01*
X206560004Y-49440605D01*
X206703252Y-49654990D01*
X206725185Y-49687815D01*
X210281184Y-53243815D01*
X210437482Y-53348250D01*
X210528395Y-53408996D01*
X210820000Y-53467000D01*
X212036084Y-53467000D01*
X211989392Y-53629787D01*
X212790000Y-54430395D01*
X213590608Y-53629787D01*
X213543916Y-53467000D01*
X215584370Y-53467000D01*
X217266185Y-55148815D01*
X217513395Y-55313996D01*
X217805000Y-55372000D01*
X219783295Y-55372000D01*
X219794990Y-55400303D01*
X220187630Y-55793629D01*
X220347228Y-55859900D01*
X220189697Y-55924990D01*
X219796371Y-56317630D01*
X219583243Y-56830900D01*
X219582758Y-57386661D01*
X219794990Y-57900303D01*
X220187630Y-58293629D01*
X220700900Y-58506757D01*
X221256661Y-58507242D01*
X221770303Y-58295010D01*
X222163629Y-57902370D01*
X222376757Y-57389100D01*
X222377242Y-56833339D01*
X222165010Y-56319697D01*
X221772370Y-55926371D01*
X221612772Y-55860100D01*
X221770303Y-55795010D01*
X222163629Y-55402370D01*
X222376757Y-54889100D01*
X222377242Y-54333339D01*
X222165010Y-53819697D01*
X221852858Y-53507000D01*
X221868310Y-53507000D01*
X222101699Y-53410327D01*
X222280327Y-53231698D01*
X222377000Y-52998309D01*
X222377000Y-52395750D01*
X222218250Y-52237000D01*
X221107000Y-52237000D01*
X221107000Y-52257000D01*
X220853000Y-52257000D01*
X220853000Y-52237000D01*
X219741750Y-52237000D01*
X219583000Y-52395750D01*
X219583000Y-52998309D01*
X219679673Y-53231698D01*
X219858301Y-53410327D01*
X220091690Y-53507000D01*
X220107544Y-53507000D01*
X219796371Y-53817630D01*
X219783760Y-53848000D01*
X218120630Y-53848000D01*
X216438815Y-52166185D01*
X216424127Y-52156371D01*
X216191605Y-52001004D01*
X215900000Y-51943000D01*
X211135631Y-51943000D01*
X208026000Y-48833370D01*
X208026000Y-42324043D01*
X208251828Y-42173149D01*
X208534000Y-41750850D01*
X208816172Y-42173149D01*
X209042000Y-42324043D01*
X209042000Y-49149000D01*
X209100004Y-49440605D01*
X209243252Y-49654990D01*
X209265185Y-49687815D01*
X210916185Y-51338816D01*
X211163396Y-51503997D01*
X211455000Y-51562000D01*
X215860082Y-51562000D01*
X215958731Y-51660821D01*
X216332018Y-51815824D01*
X216736208Y-51816176D01*
X217109766Y-51661825D01*
X217395821Y-51376269D01*
X217460007Y-51221691D01*
X219583000Y-51221691D01*
X219583000Y-51824250D01*
X219741750Y-51983000D01*
X220853000Y-51983000D01*
X220853000Y-50871750D01*
X221107000Y-50871750D01*
X221107000Y-51983000D01*
X222218250Y-51983000D01*
X222377000Y-51824250D01*
X222377000Y-51221691D01*
X222280327Y-50988302D01*
X222101699Y-50809673D01*
X221868310Y-50713000D01*
X221265750Y-50713000D01*
X221107000Y-50871750D01*
X220853000Y-50871750D01*
X220694250Y-50713000D01*
X220091690Y-50713000D01*
X219858301Y-50809673D01*
X219679673Y-50988302D01*
X219583000Y-51221691D01*
X217460007Y-51221691D01*
X217550824Y-51002982D01*
X217551176Y-50598792D01*
X217396825Y-50225234D01*
X217111269Y-49939179D01*
X216737982Y-49784176D01*
X216333792Y-49783824D01*
X215960234Y-49938175D01*
X215860235Y-50038000D01*
X211770631Y-50038000D01*
X210566000Y-48833370D01*
X210566000Y-47826208D01*
X214248824Y-47826208D01*
X214403175Y-48199766D01*
X214688731Y-48485821D01*
X215062018Y-48640824D01*
X215466208Y-48641176D01*
X215839766Y-48486825D01*
X215939765Y-48387000D01*
X217765082Y-48387000D01*
X217863731Y-48485821D01*
X218237018Y-48640824D01*
X218641208Y-48641176D01*
X219014766Y-48486825D01*
X219300821Y-48201269D01*
X219455824Y-47827982D01*
X219456176Y-47423792D01*
X219301825Y-47050234D01*
X219016269Y-46764179D01*
X218642982Y-46609176D01*
X218238792Y-46608824D01*
X217865234Y-46763175D01*
X217765235Y-46863000D01*
X215939918Y-46863000D01*
X215841269Y-46764179D01*
X215467982Y-46609176D01*
X215063792Y-46608824D01*
X214690234Y-46763175D01*
X214404179Y-47048731D01*
X214249176Y-47422018D01*
X214248824Y-47826208D01*
X210566000Y-47826208D01*
X210566000Y-42324043D01*
X210791828Y-42173149D01*
X211074000Y-41750850D01*
X211356172Y-42173149D01*
X211809391Y-42475981D01*
X212344000Y-42582321D01*
X212878609Y-42475981D01*
X213331828Y-42173149D01*
X213614000Y-41750850D01*
X213896172Y-42173149D01*
X214349391Y-42475981D01*
X214884000Y-42582321D01*
X215418609Y-42475981D01*
X215871828Y-42173149D01*
X216154000Y-41750850D01*
X216436172Y-42173149D01*
X216889391Y-42475981D01*
X217424000Y-42582321D01*
X217958609Y-42475981D01*
X218411828Y-42173149D01*
X218694000Y-41750850D01*
X218976172Y-42173149D01*
X219429391Y-42475981D01*
X219964000Y-42582321D01*
X220498609Y-42475981D01*
X220951828Y-42173149D01*
X221234000Y-41750850D01*
X221516172Y-42173149D01*
X221969391Y-42475981D01*
X222504000Y-42582321D01*
X223038609Y-42475981D01*
X223491828Y-42173149D01*
X223774000Y-41750850D01*
X224056172Y-42173149D01*
X224509391Y-42475981D01*
X225044000Y-42582321D01*
X225496658Y-42492282D01*
X227181323Y-42492282D01*
X227398252Y-42859730D01*
X228358518Y-43247853D01*
X229394216Y-43238955D01*
X230309748Y-42859730D01*
X230526677Y-42492282D01*
X228854000Y-40819605D01*
X227181323Y-42492282D01*
X225496658Y-42492282D01*
X225578609Y-42475981D01*
X226031828Y-42173149D01*
X226334660Y-41719930D01*
X226381358Y-41485163D01*
X226634270Y-42095748D01*
X227001718Y-42312677D01*
X228674395Y-40640000D01*
X229033605Y-40640000D01*
X230706282Y-42312677D01*
X231073730Y-42095748D01*
X231410090Y-41263551D01*
X231478990Y-41430303D01*
X231871630Y-41823629D01*
X232079512Y-41909949D01*
X231873697Y-41994990D01*
X231480371Y-42387630D01*
X231267243Y-42900900D01*
X231266758Y-43456661D01*
X231478990Y-43970303D01*
X231871630Y-44363629D01*
X232079512Y-44449949D01*
X231873697Y-44534990D01*
X231480371Y-44927630D01*
X231267243Y-45440900D01*
X231266758Y-45996661D01*
X231478990Y-46510303D01*
X231871630Y-46903629D01*
X232079512Y-46989949D01*
X231873697Y-47074990D01*
X231480371Y-47467630D01*
X231267243Y-47980900D01*
X231266758Y-48536661D01*
X231478990Y-49050303D01*
X231871630Y-49443629D01*
X232079512Y-49529949D01*
X231873697Y-49614990D01*
X231480371Y-50007630D01*
X231267243Y-50520900D01*
X231266758Y-51076661D01*
X231478990Y-51590303D01*
X231871630Y-51983629D01*
X232079512Y-52069949D01*
X231873697Y-52154990D01*
X231480371Y-52547630D01*
X231267243Y-53060900D01*
X231266758Y-53616661D01*
X231478990Y-54130303D01*
X231871630Y-54523629D01*
X232079512Y-54609949D01*
X231873697Y-54694990D01*
X231480371Y-55087630D01*
X231267243Y-55600900D01*
X231266758Y-56156661D01*
X231478990Y-56670303D01*
X231871630Y-57063629D01*
X232079512Y-57149949D01*
X231873697Y-57234990D01*
X231480371Y-57627630D01*
X231267243Y-58140900D01*
X231266758Y-58696661D01*
X231478990Y-59210303D01*
X231871630Y-59603629D01*
X232079512Y-59689949D01*
X231873697Y-59774990D01*
X231480371Y-60167630D01*
X231267243Y-60680900D01*
X231266758Y-61236661D01*
X231478990Y-61750303D01*
X231871630Y-62143629D01*
X232079512Y-62229949D01*
X231873697Y-62314990D01*
X231480371Y-62707630D01*
X231267243Y-63220900D01*
X231266758Y-63776661D01*
X231478990Y-64290303D01*
X231871630Y-64683629D01*
X232079512Y-64769949D01*
X231873697Y-64854990D01*
X231480371Y-65247630D01*
X231267243Y-65760900D01*
X231266758Y-66316661D01*
X231478990Y-66830303D01*
X231871630Y-67223629D01*
X232079512Y-67309949D01*
X231873697Y-67394990D01*
X231480371Y-67787630D01*
X231267243Y-68300900D01*
X231266758Y-68856661D01*
X231478990Y-69370303D01*
X231871630Y-69763629D01*
X232079512Y-69849949D01*
X231873697Y-69934990D01*
X231480371Y-70327630D01*
X231267243Y-70840900D01*
X231266758Y-71396661D01*
X231478990Y-71910303D01*
X231871630Y-72303629D01*
X232079512Y-72389949D01*
X231873697Y-72474990D01*
X231480371Y-72867630D01*
X231267243Y-73380900D01*
X231266758Y-73936661D01*
X231478990Y-74450303D01*
X231871630Y-74843629D01*
X232079512Y-74929949D01*
X231873697Y-75014990D01*
X231480371Y-75407630D01*
X231267243Y-75920900D01*
X231266758Y-76476661D01*
X231478990Y-76990303D01*
X231871630Y-77383629D01*
X232079512Y-77469949D01*
X231873697Y-77554990D01*
X231480371Y-77947630D01*
X231267243Y-78460900D01*
X231266758Y-79016661D01*
X231478990Y-79530303D01*
X231871630Y-79923629D01*
X232079512Y-80009949D01*
X231873697Y-80094990D01*
X231480371Y-80487630D01*
X231267243Y-81000900D01*
X231266758Y-81556661D01*
X231478990Y-82070303D01*
X231871630Y-82463629D01*
X232063727Y-82543395D01*
X231932857Y-82597603D01*
X231863392Y-82839787D01*
X232664000Y-83640395D01*
X233464608Y-82839787D01*
X233395143Y-82597603D01*
X233254682Y-82547491D01*
X233454303Y-82465010D01*
X233847629Y-82072370D01*
X233933949Y-81864488D01*
X234018990Y-82070303D01*
X234411630Y-82463629D01*
X234603727Y-82543395D01*
X234472857Y-82597603D01*
X234403392Y-82839787D01*
X235204000Y-83640395D01*
X236004608Y-82839787D01*
X235935143Y-82597603D01*
X235794682Y-82547491D01*
X235994303Y-82465010D01*
X236387629Y-82072370D01*
X236600757Y-81559100D01*
X236601242Y-81003339D01*
X236389010Y-80489697D01*
X235996370Y-80096371D01*
X235788488Y-80010051D01*
X235994303Y-79925010D01*
X236387629Y-79532370D01*
X236600757Y-79019100D01*
X236601242Y-78463339D01*
X236389010Y-77949697D01*
X235996370Y-77556371D01*
X235788488Y-77470051D01*
X235994303Y-77385010D01*
X236387629Y-76992370D01*
X236600757Y-76479100D01*
X236601242Y-75923339D01*
X236389010Y-75409697D01*
X235996370Y-75016371D01*
X235788488Y-74930051D01*
X235994303Y-74845010D01*
X236387629Y-74452370D01*
X236600757Y-73939100D01*
X236601242Y-73383339D01*
X236389010Y-72869697D01*
X235996370Y-72476371D01*
X235788488Y-72390051D01*
X235994303Y-72305010D01*
X236387629Y-71912370D01*
X236600757Y-71399100D01*
X236601242Y-70843339D01*
X236389010Y-70329697D01*
X235996370Y-69936371D01*
X235788488Y-69850051D01*
X235994303Y-69765010D01*
X236387629Y-69372370D01*
X236600757Y-68859100D01*
X236601242Y-68303339D01*
X236389010Y-67789697D01*
X235996370Y-67396371D01*
X235788488Y-67310051D01*
X235994303Y-67225010D01*
X236387629Y-66832370D01*
X236600757Y-66319100D01*
X236601242Y-65763339D01*
X236389010Y-65249697D01*
X235996370Y-64856371D01*
X235788488Y-64770051D01*
X235994303Y-64685010D01*
X236387629Y-64292370D01*
X236600757Y-63779100D01*
X236601242Y-63223339D01*
X236389010Y-62709697D01*
X235996370Y-62316371D01*
X235788488Y-62230051D01*
X235994303Y-62145010D01*
X236387629Y-61752370D01*
X236600757Y-61239100D01*
X236601242Y-60683339D01*
X236389010Y-60169697D01*
X235996370Y-59776371D01*
X235788488Y-59690051D01*
X235994303Y-59605010D01*
X236387629Y-59212370D01*
X236600757Y-58699100D01*
X236601242Y-58143339D01*
X236389010Y-57629697D01*
X235996370Y-57236371D01*
X235788488Y-57150051D01*
X235994303Y-57065010D01*
X236387629Y-56672370D01*
X236600757Y-56159100D01*
X236601242Y-55603339D01*
X236389010Y-55089697D01*
X235996370Y-54696371D01*
X235788488Y-54610051D01*
X235994303Y-54525010D01*
X236387629Y-54132370D01*
X236600757Y-53619100D01*
X236601242Y-53063339D01*
X236389010Y-52549697D01*
X235996370Y-52156371D01*
X235788488Y-52070051D01*
X235994303Y-51985010D01*
X236387629Y-51592370D01*
X236600757Y-51079100D01*
X236601242Y-50523339D01*
X236389010Y-50009697D01*
X235996370Y-49616371D01*
X235788488Y-49530051D01*
X235994303Y-49445010D01*
X236387629Y-49052370D01*
X236600757Y-48539100D01*
X236601242Y-47983339D01*
X236389010Y-47469697D01*
X235996370Y-47076371D01*
X235788488Y-46990051D01*
X235994303Y-46905010D01*
X236387629Y-46512370D01*
X236600757Y-45999100D01*
X236601242Y-45443339D01*
X236389010Y-44929697D01*
X235996370Y-44536371D01*
X235788488Y-44450051D01*
X235994303Y-44365010D01*
X236387629Y-43972370D01*
X236600757Y-43459100D01*
X236601242Y-42903339D01*
X236389010Y-42389697D01*
X235996370Y-41996371D01*
X235788488Y-41910051D01*
X235994303Y-41825010D01*
X236387629Y-41432370D01*
X236600757Y-40919100D01*
X236601242Y-40363339D01*
X236389010Y-39849697D01*
X235996370Y-39456371D01*
X235483100Y-39243243D01*
X234927339Y-39242758D01*
X234413697Y-39454990D01*
X234020371Y-39847630D01*
X233934051Y-40055512D01*
X233849010Y-39849697D01*
X233456370Y-39456371D01*
X232943100Y-39243243D01*
X232387339Y-39242758D01*
X231873697Y-39454990D01*
X231480371Y-39847630D01*
X231414359Y-40006605D01*
X231073730Y-39184252D01*
X230706282Y-38967323D01*
X229033605Y-40640000D01*
X228674395Y-40640000D01*
X227001718Y-38967323D01*
X226634270Y-39184252D01*
X226383378Y-39804992D01*
X226334660Y-39560070D01*
X226031828Y-39106851D01*
X225578609Y-38804019D01*
X225044000Y-38697679D01*
X224509391Y-38804019D01*
X224056172Y-39106851D01*
X223774000Y-39529150D01*
X223491828Y-39106851D01*
X223038609Y-38804019D01*
X222504000Y-38697679D01*
X221969391Y-38804019D01*
X221516172Y-39106851D01*
X221234000Y-39529150D01*
X220951828Y-39106851D01*
X220498609Y-38804019D01*
X219964000Y-38697679D01*
X219429391Y-38804019D01*
X218976172Y-39106851D01*
X218694000Y-39529150D01*
X218411828Y-39106851D01*
X217958609Y-38804019D01*
X217424000Y-38697679D01*
X216889391Y-38804019D01*
X216436172Y-39106851D01*
X216154000Y-39529150D01*
X215871828Y-39106851D01*
X215418609Y-38804019D01*
X214884000Y-38697679D01*
X214349391Y-38804019D01*
X213896172Y-39106851D01*
X213614000Y-39529150D01*
X213331828Y-39106851D01*
X212878609Y-38804019D01*
X212344000Y-38697679D01*
X211809391Y-38804019D01*
X211356172Y-39106851D01*
X211074000Y-39529150D01*
X210791828Y-39106851D01*
X210338609Y-38804019D01*
X209804000Y-38697679D01*
X209269391Y-38804019D01*
X208816172Y-39106851D01*
X208534000Y-39529150D01*
X208251828Y-39106851D01*
X207798609Y-38804019D01*
X207264000Y-38697679D01*
X206729391Y-38804019D01*
X206276172Y-39106851D01*
X205973340Y-39560070D01*
X205867000Y-40094679D01*
X203581000Y-40094679D01*
X203474660Y-39560070D01*
X203171828Y-39106851D01*
X202718609Y-38804019D01*
X202184000Y-38697679D01*
X201649391Y-38804019D01*
X201196172Y-39106851D01*
X200914000Y-39529150D01*
X200631828Y-39106851D01*
X200178609Y-38804019D01*
X199644000Y-38697679D01*
X199109391Y-38804019D01*
X198656172Y-39106851D01*
X198374000Y-39529150D01*
X198091828Y-39106851D01*
X197638609Y-38804019D01*
X197104000Y-38697679D01*
X196569391Y-38804019D01*
X196116172Y-39106851D01*
X195834000Y-39529150D01*
X195551828Y-39106851D01*
X195098609Y-38804019D01*
X194564000Y-38697679D01*
X194029391Y-38804019D01*
X193576172Y-39106851D01*
X193294000Y-39529150D01*
X193011828Y-39106851D01*
X192558609Y-38804019D01*
X192024000Y-38697679D01*
X191489391Y-38804019D01*
X191036172Y-39106851D01*
X190754000Y-39529150D01*
X190471828Y-39106851D01*
X190018609Y-38804019D01*
X189484000Y-38697679D01*
X188949391Y-38804019D01*
X188496172Y-39106851D01*
X188214000Y-39529150D01*
X187931828Y-39106851D01*
X187478609Y-38804019D01*
X186944000Y-38697679D01*
X186409391Y-38804019D01*
X185956172Y-39106851D01*
X185674000Y-39529150D01*
X185391828Y-39106851D01*
X184938609Y-38804019D01*
X184404000Y-38697679D01*
X183869391Y-38804019D01*
X183416172Y-39106851D01*
X183113340Y-39560070D01*
X183007000Y-40094679D01*
X181737000Y-40094679D01*
X181630660Y-39560070D01*
X181327828Y-39106851D01*
X180874609Y-38804019D01*
X180340000Y-38697679D01*
X179805391Y-38804019D01*
X179352172Y-39106851D01*
X179070000Y-39529150D01*
X178787828Y-39106851D01*
X178334609Y-38804019D01*
X177800000Y-38697679D01*
X177265391Y-38804019D01*
X176812172Y-39106851D01*
X176530000Y-39529150D01*
X176247828Y-39106851D01*
X175794609Y-38804019D01*
X175260000Y-38697679D01*
X174725391Y-38804019D01*
X174272172Y-39106851D01*
X173990000Y-39529150D01*
X173707828Y-39106851D01*
X173254609Y-38804019D01*
X172720000Y-38697679D01*
X172185391Y-38804019D01*
X171732172Y-39106851D01*
X171450000Y-39529150D01*
X171167828Y-39106851D01*
X170714609Y-38804019D01*
X170180000Y-38697679D01*
X169645391Y-38804019D01*
X169192172Y-39106851D01*
X168910000Y-39529150D01*
X168627828Y-39106851D01*
X168174609Y-38804019D01*
X167640000Y-38697679D01*
X167105391Y-38804019D01*
X166652172Y-39106851D01*
X166360670Y-39543113D01*
X166342059Y-39480059D01*
X165998026Y-39054370D01*
X165517277Y-38792740D01*
X165443070Y-38777780D01*
X165227000Y-38900280D01*
X165227000Y-40513000D01*
X165247000Y-40513000D01*
X165247000Y-40767000D01*
X165227000Y-40767000D01*
X165227000Y-42379720D01*
X165443070Y-42502220D01*
X165517277Y-42487260D01*
X165998026Y-42225630D01*
X166342059Y-41799941D01*
X166360670Y-41736887D01*
X166652172Y-42173149D01*
X167105391Y-42475981D01*
X167640000Y-42582321D01*
X168174609Y-42475981D01*
X168627828Y-42173149D01*
X168910000Y-41750850D01*
X169192172Y-42173149D01*
X169418000Y-42324043D01*
X169418000Y-46674370D01*
X165226978Y-50865392D01*
X165227242Y-50563339D01*
X165015010Y-50049697D01*
X164622370Y-49656371D01*
X164109100Y-49443243D01*
X163553339Y-49442758D01*
X163039697Y-49654990D01*
X162646371Y-50047630D01*
X162433243Y-50560900D01*
X162432758Y-51116661D01*
X150127000Y-51116661D01*
X150127000Y-42492282D01*
X152251323Y-42492282D01*
X152468252Y-42859730D01*
X153428518Y-43247853D01*
X154464216Y-43238955D01*
X155379748Y-42859730D01*
X155596677Y-42492282D01*
X153924000Y-40819605D01*
X152251323Y-42492282D01*
X150127000Y-42492282D01*
X150127000Y-40144518D01*
X151316147Y-40144518D01*
X151325045Y-41180216D01*
X151704270Y-42095748D01*
X152071718Y-42312677D01*
X153744395Y-40640000D01*
X154103605Y-40640000D01*
X155776282Y-42312677D01*
X156143730Y-42095748D01*
X156531853Y-41135482D01*
X156522955Y-40099784D01*
X156520841Y-40094679D01*
X161163000Y-40094679D01*
X161163000Y-41185321D01*
X161269340Y-41719930D01*
X161572172Y-42173149D01*
X162025391Y-42475981D01*
X162560000Y-42582321D01*
X163094609Y-42475981D01*
X163547828Y-42173149D01*
X163839330Y-41736887D01*
X163857941Y-41799941D01*
X164201974Y-42225630D01*
X164682723Y-42487260D01*
X164756930Y-42502220D01*
X164973000Y-42379720D01*
X164973000Y-40767000D01*
X164953000Y-40767000D01*
X164953000Y-40513000D01*
X164973000Y-40513000D01*
X164973000Y-38900280D01*
X164756930Y-38777780D01*
X164682723Y-38792740D01*
X164201974Y-39054370D01*
X163857941Y-39480059D01*
X163839330Y-39543113D01*
X163547828Y-39106851D01*
X163094609Y-38804019D01*
X162560000Y-38697679D01*
X162025391Y-38804019D01*
X161572172Y-39106851D01*
X161269340Y-39560070D01*
X161163000Y-40094679D01*
X156520841Y-40094679D01*
X156143730Y-39184252D01*
X155776282Y-38967323D01*
X154103605Y-40640000D01*
X153744395Y-40640000D01*
X152071718Y-38967323D01*
X151704270Y-39184252D01*
X151316147Y-40144518D01*
X150127000Y-40144518D01*
X150127000Y-38127000D01*
X153176270Y-38127000D01*
X152468252Y-38420270D01*
X152468252Y-38420270D01*
G37*
X152468252Y-38420270D02*
X152251323Y-38787718D01*
X153924000Y-40460395D01*
X155596677Y-38787718D01*
X155379748Y-38420270D01*
X154654160Y-38127000D01*
X228106270Y-38127000D01*
X227398252Y-38420270D01*
X227181323Y-38787718D01*
X228854000Y-40460395D01*
X230526677Y-38787718D01*
X230309748Y-38420270D01*
X229584160Y-38127000D01*
X236447394Y-38127000D01*
X237373000Y-39052606D01*
X237373000Y-51000000D01*
X237383006Y-51049410D01*
X237410197Y-51089803D01*
X239873000Y-53552606D01*
X239873000Y-86447394D01*
X237804298Y-88516096D01*
X237802955Y-88359784D01*
X237423730Y-87444252D01*
X237056282Y-87227323D01*
X235383605Y-88900000D01*
X237056282Y-90572677D01*
X237373000Y-90385697D01*
X237373000Y-91373000D01*
X236048299Y-91373000D01*
X236659748Y-91119730D01*
X236876677Y-90752282D01*
X235204000Y-89079605D01*
X233531323Y-90752282D01*
X233748252Y-91119730D01*
X234374874Y-91373000D01*
X153498299Y-91373000D01*
X154109748Y-91119730D01*
X154326677Y-90752282D01*
X152654000Y-89079605D01*
X150981323Y-90752282D01*
X151198252Y-91119730D01*
X151824874Y-91373000D01*
X150127000Y-91373000D01*
X150127000Y-89613931D01*
X150434270Y-90355748D01*
X150801718Y-90572677D01*
X152474395Y-88900000D01*
X152833605Y-88900000D01*
X154506282Y-90572677D01*
X154873730Y-90355748D01*
X155261853Y-89395482D01*
X155252955Y-88359784D01*
X154873730Y-87444252D01*
X154506282Y-87227323D01*
X152833605Y-88900000D01*
X152474395Y-88900000D01*
X150801718Y-87227323D01*
X150434270Y-87444252D01*
X150127000Y-88204477D01*
X150127000Y-87047718D01*
X150981323Y-87047718D01*
X152654000Y-88720395D01*
X154326677Y-87047718D01*
X154109748Y-86680270D01*
X153149482Y-86292147D01*
X152113784Y-86301045D01*
X151198252Y-86680270D01*
X150981323Y-87047718D01*
X150127000Y-87047718D01*
X150127000Y-62968000D01*
X162420560Y-62968000D01*
X162420560Y-64492000D01*
X162464838Y-64727317D01*
X162603910Y-64943441D01*
X162816110Y-65088431D01*
X163068000Y-65139440D01*
X164592000Y-65139440D01*
X164827317Y-65095162D01*
X164975203Y-65000000D01*
X169494454Y-65000000D01*
X169281974Y-65141974D01*
X169006673Y-65553992D01*
X168910000Y-66040000D01*
X168910000Y-83820000D01*
X169006673Y-84306008D01*
X169281974Y-84718026D01*
X169693992Y-84993327D01*
X170180000Y-85090000D01*
X174733948Y-85090000D01*
X175514000Y-85870051D01*
X175514000Y-87789150D01*
X175231828Y-87366851D01*
X174778609Y-87064019D01*
X174244000Y-86957679D01*
X173709391Y-87064019D01*
X173256172Y-87366851D01*
X172974000Y-87789150D01*
X172691828Y-87366851D01*
X172238609Y-87064019D01*
X171704000Y-86957679D01*
X171169391Y-87064019D01*
X170716172Y-87366851D01*
X170413340Y-87820070D01*
X170307000Y-88354679D01*
X170307000Y-89445321D01*
X170413340Y-89979930D01*
X170716172Y-90433149D01*
X171169391Y-90735981D01*
X171704000Y-90842321D01*
X172238609Y-90735981D01*
X172691828Y-90433149D01*
X172974000Y-90010850D01*
X173256172Y-90433149D01*
X173709391Y-90735981D01*
X174244000Y-90842321D01*
X174778609Y-90735981D01*
X175231828Y-90433149D01*
X175514000Y-90010850D01*
X175796172Y-90433149D01*
X176249391Y-90735981D01*
X176784000Y-90842321D01*
X177318609Y-90735981D01*
X177771828Y-90433149D01*
X178063330Y-89996887D01*
X178081941Y-90059941D01*
X178425974Y-90485630D01*
X178906723Y-90747260D01*
X178980930Y-90762220D01*
X179197000Y-90639720D01*
X179197000Y-89027000D01*
X179451000Y-89027000D01*
X179451000Y-90639720D01*
X179667070Y-90762220D01*
X179741277Y-90747260D01*
X180222026Y-90485630D01*
X180566059Y-90059941D01*
X180594000Y-89965277D01*
X180621941Y-90059941D01*
X180965974Y-90485630D01*
X181446723Y-90747260D01*
X181520930Y-90762220D01*
X181737000Y-90639720D01*
X181737000Y-89027000D01*
X179451000Y-89027000D01*
X179197000Y-89027000D01*
X179177000Y-89027000D01*
X179177000Y-88773000D01*
X179197000Y-88773000D01*
X179197000Y-87160280D01*
X179451000Y-87160280D01*
X179451000Y-88773000D01*
X181737000Y-88773000D01*
X181737000Y-87160280D01*
X181520930Y-87037780D01*
X181446723Y-87052740D01*
X180965974Y-87314370D01*
X180621941Y-87740059D01*
X180594000Y-87834723D01*
X180566059Y-87740059D01*
X180222026Y-87314370D01*
X179741277Y-87052740D01*
X179667070Y-87037780D01*
X179451000Y-87160280D01*
X179197000Y-87160280D01*
X178980930Y-87037780D01*
X178906723Y-87052740D01*
X178425974Y-87314370D01*
X178081941Y-87740059D01*
X178063330Y-87803113D01*
X178054000Y-87789150D01*
X178054000Y-85344000D01*
X177957327Y-84857992D01*
X177682026Y-84445974D01*
X177682023Y-84445972D01*
X177056051Y-83820000D01*
X177428025Y-83448026D01*
X177703327Y-83036008D01*
X177800000Y-82550000D01*
X177703327Y-82063992D01*
X177428025Y-81651975D01*
X177016008Y-81376673D01*
X176530000Y-81280000D01*
X176043992Y-81376673D01*
X175631974Y-81651975D01*
X174733948Y-82550000D01*
X171450000Y-82550000D01*
X171450000Y-80294187D01*
X172554752Y-80294187D01*
X172772757Y-80821800D01*
X173176077Y-81225824D01*
X173703309Y-81444750D01*
X174274187Y-81445248D01*
X174674118Y-81280000D01*
X176530000Y-81280000D01*
X182844748Y-81280000D01*
X182880000Y-81303554D01*
X182880000Y-87460345D01*
X182762026Y-87314370D01*
X182281277Y-87052740D01*
X182207070Y-87037780D01*
X181991000Y-87160280D01*
X181991000Y-88773000D01*
X182011000Y-88773000D01*
X182011000Y-89027000D01*
X181991000Y-89027000D01*
X181991000Y-90639720D01*
X182207070Y-90762220D01*
X182281277Y-90747260D01*
X182762026Y-90485630D01*
X183106059Y-90059941D01*
X183124670Y-89996887D01*
X183416172Y-90433149D01*
X183869391Y-90735981D01*
X184404000Y-90842321D01*
X184938609Y-90735981D01*
X185391828Y-90433149D01*
X185694660Y-89979930D01*
X185801000Y-89445321D01*
X185801000Y-88354679D01*
X188087000Y-88354679D01*
X188087000Y-89445321D01*
X188193340Y-89979930D01*
X188496172Y-90433149D01*
X188949391Y-90735981D01*
X189484000Y-90842321D01*
X190018609Y-90735981D01*
X190471828Y-90433149D01*
X190754000Y-90010850D01*
X191036172Y-90433149D01*
X191489391Y-90735981D01*
X192024000Y-90842321D01*
X192558609Y-90735981D01*
X193011828Y-90433149D01*
X193294000Y-90010850D01*
X193576172Y-90433149D01*
X194029391Y-90735981D01*
X194564000Y-90842321D01*
X195098609Y-90735981D01*
X195551828Y-90433149D01*
X195834000Y-90010850D01*
X196116172Y-90433149D01*
X196569391Y-90735981D01*
X197104000Y-90842321D01*
X197638609Y-90735981D01*
X198091828Y-90433149D01*
X198374000Y-90010850D01*
X198656172Y-90433149D01*
X199109391Y-90735981D01*
X199644000Y-90842321D01*
X200178609Y-90735981D01*
X200631828Y-90433149D01*
X200914000Y-90010850D01*
X201196172Y-90433149D01*
X201649391Y-90735981D01*
X202184000Y-90842321D01*
X202718609Y-90735981D01*
X203171828Y-90433149D01*
X203454000Y-90010850D01*
X203736172Y-90433149D01*
X204189391Y-90735981D01*
X204724000Y-90842321D01*
X205258609Y-90735981D01*
X205711828Y-90433149D01*
X205994000Y-90010850D01*
X206276172Y-90433149D01*
X206729391Y-90735981D01*
X207264000Y-90842321D01*
X207798609Y-90735981D01*
X208251828Y-90433149D01*
X208554660Y-89979930D01*
X208661000Y-89445321D01*
X208661000Y-88354679D01*
X210947000Y-88354679D01*
X210947000Y-89445321D01*
X211053340Y-89979930D01*
X211356172Y-90433149D01*
X211809391Y-90735981D01*
X212344000Y-90842321D01*
X212878609Y-90735981D01*
X213331828Y-90433149D01*
X213614000Y-90010850D01*
X213896172Y-90433149D01*
X214349391Y-90735981D01*
X214884000Y-90842321D01*
X215418609Y-90735981D01*
X215871828Y-90433149D01*
X216154000Y-90010850D01*
X216436172Y-90433149D01*
X216889391Y-90735981D01*
X217424000Y-90842321D01*
X217958609Y-90735981D01*
X218411828Y-90433149D01*
X218694000Y-90010850D01*
X218976172Y-90433149D01*
X219429391Y-90735981D01*
X219964000Y-90842321D01*
X220498609Y-90735981D01*
X220951828Y-90433149D01*
X221234000Y-90010850D01*
X221516172Y-90433149D01*
X221969391Y-90735981D01*
X222504000Y-90842321D01*
X223038609Y-90735981D01*
X223491828Y-90433149D01*
X223774000Y-90010850D01*
X224056172Y-90433149D01*
X224509391Y-90735981D01*
X225044000Y-90842321D01*
X225578609Y-90735981D01*
X226031828Y-90433149D01*
X226314000Y-90010850D01*
X226596172Y-90433149D01*
X227049391Y-90735981D01*
X227584000Y-90842321D01*
X228118609Y-90735981D01*
X228571828Y-90433149D01*
X228854000Y-90010850D01*
X229136172Y-90433149D01*
X229589391Y-90735981D01*
X230124000Y-90842321D01*
X230658609Y-90735981D01*
X231111828Y-90433149D01*
X231414660Y-89979930D01*
X231521000Y-89445321D01*
X231521000Y-88404518D01*
X232596147Y-88404518D01*
X232605045Y-89440216D01*
X232984270Y-90355748D01*
X233351718Y-90572677D01*
X235024395Y-88900000D01*
X233351718Y-87227323D01*
X232984270Y-87444252D01*
X232596147Y-88404518D01*
X231521000Y-88404518D01*
X231521000Y-88354679D01*
X231414660Y-87820070D01*
X231111828Y-87366851D01*
X230658609Y-87064019D01*
X230576659Y-87047718D01*
X233531323Y-87047718D01*
X235204000Y-88720395D01*
X236876677Y-87047718D01*
X236659748Y-86680270D01*
X235699482Y-86292147D01*
X234663784Y-86301045D01*
X233748252Y-86680270D01*
X233531323Y-87047718D01*
X230576659Y-87047718D01*
X230124000Y-86957679D01*
X229589391Y-87064019D01*
X229136172Y-87366851D01*
X228854000Y-87789150D01*
X228571828Y-87366851D01*
X228118609Y-87064019D01*
X227584000Y-86957679D01*
X227049391Y-87064019D01*
X226596172Y-87366851D01*
X226314000Y-87789150D01*
X226031828Y-87366851D01*
X225578609Y-87064019D01*
X225044000Y-86957679D01*
X224509391Y-87064019D01*
X224056172Y-87366851D01*
X223774000Y-87789150D01*
X223491828Y-87366851D01*
X223038609Y-87064019D01*
X222504000Y-86957679D01*
X221969391Y-87064019D01*
X221516172Y-87366851D01*
X221234000Y-87789150D01*
X220951828Y-87366851D01*
X220498609Y-87064019D01*
X219964000Y-86957679D01*
X219429391Y-87064019D01*
X218976172Y-87366851D01*
X218694000Y-87789150D01*
X218411828Y-87366851D01*
X217958609Y-87064019D01*
X217424000Y-86957679D01*
X216889391Y-87064019D01*
X216436172Y-87366851D01*
X216154000Y-87789150D01*
X215871828Y-87366851D01*
X215418609Y-87064019D01*
X214884000Y-86957679D01*
X214349391Y-87064019D01*
X213896172Y-87366851D01*
X213614000Y-87789150D01*
X213331828Y-87366851D01*
X212878609Y-87064019D01*
X212344000Y-86957679D01*
X211809391Y-87064019D01*
X211356172Y-87366851D01*
X211053340Y-87820070D01*
X210947000Y-88354679D01*
X208661000Y-88354679D01*
X208554660Y-87820070D01*
X208251828Y-87366851D01*
X207798609Y-87064019D01*
X207264000Y-86957679D01*
X206729391Y-87064019D01*
X206276172Y-87366851D01*
X205994000Y-87789150D01*
X205711828Y-87366851D01*
X205258609Y-87064019D01*
X204724000Y-86957679D01*
X204189391Y-87064019D01*
X203736172Y-87366851D01*
X203454000Y-87789150D01*
X203171828Y-87366851D01*
X202718609Y-87064019D01*
X202184000Y-86957679D01*
X201649391Y-87064019D01*
X201196172Y-87366851D01*
X200914000Y-87789150D01*
X200631828Y-87366851D01*
X200178609Y-87064019D01*
X199644000Y-86957679D01*
X199109391Y-87064019D01*
X198656172Y-87366851D01*
X198374000Y-87789150D01*
X198091828Y-87366851D01*
X197638609Y-87064019D01*
X197104000Y-86957679D01*
X196569391Y-87064019D01*
X196116172Y-87366851D01*
X195834000Y-87789150D01*
X195551828Y-87366851D01*
X195098609Y-87064019D01*
X194564000Y-86957679D01*
X194029391Y-87064019D01*
X193576172Y-87366851D01*
X193294000Y-87789150D01*
X193051462Y-87426168D01*
X194625631Y-85852000D01*
X217170000Y-85852000D01*
X217461605Y-85793996D01*
X217708815Y-85628815D01*
X218537417Y-84800213D01*
X231863392Y-84800213D01*
X231932857Y-85042397D01*
X232456302Y-85229144D01*
X233011368Y-85201362D01*
X233395143Y-85042397D01*
X233464608Y-84800213D01*
X234403392Y-84800213D01*
X234472857Y-85042397D01*
X234996302Y-85229144D01*
X235551368Y-85201362D01*
X235935143Y-85042397D01*
X236004608Y-84800213D01*
X235204000Y-83999605D01*
X234403392Y-84800213D01*
X233464608Y-84800213D01*
X232664000Y-83999605D01*
X231863392Y-84800213D01*
X218537417Y-84800213D01*
X219613815Y-83723815D01*
X219634405Y-83693000D01*
X219688325Y-83612302D01*
X231254856Y-83612302D01*
X231282638Y-84167368D01*
X231441603Y-84551143D01*
X231683787Y-84620608D01*
X232484395Y-83820000D01*
X232843605Y-83820000D01*
X233644213Y-84620608D01*
X233886397Y-84551143D01*
X233930453Y-84427656D01*
X233981603Y-84551143D01*
X234223787Y-84620608D01*
X235024395Y-83820000D01*
X235383605Y-83820000D01*
X236184213Y-84620608D01*
X236426397Y-84551143D01*
X236613144Y-84027698D01*
X236585362Y-83472632D01*
X236426397Y-83088857D01*
X236184213Y-83019392D01*
X235383605Y-83820000D01*
X235024395Y-83820000D01*
X234223787Y-83019392D01*
X233981603Y-83088857D01*
X233937547Y-83212344D01*
X233886397Y-83088857D01*
X233644213Y-83019392D01*
X232843605Y-83820000D01*
X232484395Y-83820000D01*
X231683787Y-83019392D01*
X231441603Y-83088857D01*
X231254856Y-83612302D01*
X219688325Y-83612302D01*
X219778996Y-83476605D01*
X219837000Y-83185000D01*
X219837000Y-79532386D01*
X220187630Y-79883629D01*
X220700900Y-80096757D01*
X221256661Y-80097242D01*
X221770303Y-79885010D01*
X222163629Y-79492370D01*
X222376757Y-78979100D01*
X222377242Y-78423339D01*
X222165010Y-77909697D01*
X221772370Y-77516371D01*
X221612772Y-77450100D01*
X221770303Y-77385010D01*
X222163629Y-76992370D01*
X222376757Y-76479100D01*
X222377242Y-75923339D01*
X222165010Y-75409697D01*
X221852858Y-75097000D01*
X221868310Y-75097000D01*
X222101699Y-75000327D01*
X222280327Y-74821698D01*
X222377000Y-74588309D01*
X222377000Y-73985750D01*
X222218250Y-73827000D01*
X221107000Y-73827000D01*
X221107000Y-73847000D01*
X220853000Y-73847000D01*
X220853000Y-73827000D01*
X220833000Y-73827000D01*
X220833000Y-73573000D01*
X220853000Y-73573000D01*
X220853000Y-72461750D01*
X221107000Y-72461750D01*
X221107000Y-73573000D01*
X222218250Y-73573000D01*
X222377000Y-73414250D01*
X222377000Y-72811691D01*
X222280327Y-72578302D01*
X222101699Y-72399673D01*
X221868310Y-72303000D01*
X221265750Y-72303000D01*
X221107000Y-72461750D01*
X220853000Y-72461750D01*
X220694250Y-72303000D01*
X220091690Y-72303000D01*
X219858301Y-72399673D01*
X219837000Y-72420974D01*
X219837000Y-70642386D01*
X220187630Y-70993629D01*
X220700900Y-71206757D01*
X221256661Y-71207242D01*
X221770303Y-70995010D01*
X222163629Y-70602370D01*
X222376757Y-70089100D01*
X222377242Y-69533339D01*
X222165010Y-69019697D01*
X221772370Y-68626371D01*
X221612772Y-68560100D01*
X221770303Y-68495010D01*
X222163629Y-68102370D01*
X222376757Y-67589100D01*
X222377242Y-67033339D01*
X222165010Y-66519697D01*
X221852858Y-66207000D01*
X221868310Y-66207000D01*
X222101699Y-66110327D01*
X222280327Y-65931698D01*
X222377000Y-65698309D01*
X222377000Y-65095750D01*
X222218250Y-64937000D01*
X221107000Y-64937000D01*
X221107000Y-64957000D01*
X220853000Y-64957000D01*
X220853000Y-64937000D01*
X219741750Y-64937000D01*
X219583000Y-65095750D01*
X219583000Y-65698309D01*
X219679673Y-65931698D01*
X219858301Y-66110327D01*
X220091690Y-66207000D01*
X220107544Y-66207000D01*
X219796371Y-66517630D01*
X219583243Y-67030900D01*
X219582758Y-67586661D01*
X219595316Y-67617054D01*
X218536185Y-68676185D01*
X218371004Y-68923395D01*
X218313000Y-69215000D01*
X218313000Y-76519369D01*
X217901185Y-76931185D01*
X217736004Y-77178395D01*
X217678000Y-77470000D01*
X217678000Y-82869369D01*
X216854370Y-83693000D01*
X193040000Y-83693000D01*
X192748395Y-83751004D01*
X192501184Y-83916185D01*
X189453655Y-86963715D01*
X188949391Y-87064019D01*
X188496172Y-87366851D01*
X188193340Y-87820070D01*
X188087000Y-88354679D01*
X185801000Y-88354679D01*
X185694660Y-87820070D01*
X185420000Y-87409013D01*
X185420000Y-81303554D01*
X185608754Y-81177433D01*
X185966646Y-80641810D01*
X186092321Y-80010000D01*
X185966646Y-79378190D01*
X185608754Y-78842567D01*
X185455252Y-78740000D01*
X189345635Y-78740000D01*
X189650900Y-78866757D01*
X190206661Y-78867242D01*
X190720303Y-78655010D01*
X191113629Y-78262370D01*
X191326757Y-77749100D01*
X191326759Y-77746661D01*
X211392758Y-77746661D01*
X211604990Y-78260303D01*
X211997630Y-78653629D01*
X212510900Y-78866757D01*
X213066661Y-78867242D01*
X213580303Y-78655010D01*
X213973629Y-78262370D01*
X214186757Y-77749100D01*
X214187242Y-77193339D01*
X213975010Y-76679697D01*
X213582370Y-76286371D01*
X213390273Y-76206605D01*
X213521143Y-76152397D01*
X213590608Y-75910213D01*
X212790000Y-75109605D01*
X211989392Y-75910213D01*
X212058857Y-76152397D01*
X212199318Y-76202509D01*
X211999697Y-76284990D01*
X211606371Y-76677630D01*
X211393243Y-77190900D01*
X211392758Y-77746661D01*
X191326759Y-77746661D01*
X191327242Y-77193339D01*
X191115010Y-76679697D01*
X190722370Y-76286371D01*
X190530273Y-76206605D01*
X190661143Y-76152397D01*
X190730608Y-75910213D01*
X189930000Y-75109605D01*
X189129392Y-75910213D01*
X189198857Y-76152397D01*
X189332286Y-76200000D01*
X185455252Y-76200000D01*
X185434219Y-76185946D01*
X185661236Y-76007630D01*
X185977926Y-75444477D01*
X186009975Y-75312944D01*
X185890836Y-75057000D01*
X184277000Y-75057000D01*
X184277000Y-75077000D01*
X184023000Y-75077000D01*
X184023000Y-75057000D01*
X182409164Y-75057000D01*
X182290025Y-75312944D01*
X182322074Y-75444477D01*
X182638764Y-76007630D01*
X182865781Y-76185946D01*
X182844748Y-76200000D01*
X180306928Y-76200000D01*
X180121890Y-76073569D01*
X179883799Y-76025354D01*
X179898139Y-75977745D01*
X179070000Y-75149605D01*
X178241861Y-75977745D01*
X178256145Y-76025167D01*
X178034683Y-76066838D01*
X177818559Y-76205910D01*
X177673569Y-76418110D01*
X177622560Y-76670000D01*
X177622560Y-78270000D01*
X177666838Y-78505317D01*
X177805910Y-78721441D01*
X177833072Y-78740000D01*
X174673453Y-78740000D01*
X174276691Y-78575250D01*
X173705813Y-78574752D01*
X173178200Y-78792757D01*
X172774176Y-79196077D01*
X172555250Y-79723309D01*
X172554752Y-80294187D01*
X171450000Y-80294187D01*
X171450000Y-76017745D01*
X173161861Y-76017745D01*
X173235995Y-76263864D01*
X173773223Y-76456965D01*
X174343454Y-76429778D01*
X174744005Y-76263864D01*
X174818139Y-76017745D01*
X173990000Y-75189605D01*
X173161861Y-76017745D01*
X171450000Y-76017745D01*
X171450000Y-74793223D01*
X172543035Y-74793223D01*
X172570222Y-75363454D01*
X172736136Y-75764005D01*
X172982255Y-75838139D01*
X173810395Y-75010000D01*
X174169605Y-75010000D01*
X174997745Y-75838139D01*
X175243864Y-75764005D01*
X175436965Y-75226777D01*
X175414388Y-74753223D01*
X177623035Y-74753223D01*
X177650222Y-75323454D01*
X177816136Y-75724005D01*
X178062255Y-75798139D01*
X178890395Y-74970000D01*
X179249605Y-74970000D01*
X180077745Y-75798139D01*
X180323864Y-75724005D01*
X180516965Y-75186777D01*
X180489778Y-74616546D01*
X180460995Y-74547056D01*
X182290025Y-74547056D01*
X182409164Y-74803000D01*
X184023000Y-74803000D01*
X184023000Y-73279000D01*
X184277000Y-73279000D01*
X184277000Y-74803000D01*
X185890836Y-74803000D01*
X185928399Y-74722302D01*
X188520856Y-74722302D01*
X188548638Y-75277368D01*
X188707603Y-75661143D01*
X188949787Y-75730608D01*
X189750395Y-74930000D01*
X190109605Y-74930000D01*
X190910213Y-75730608D01*
X191152397Y-75661143D01*
X191339144Y-75137698D01*
X191318353Y-74722302D01*
X211380856Y-74722302D01*
X211408638Y-75277368D01*
X211567603Y-75661143D01*
X211809787Y-75730608D01*
X212610395Y-74930000D01*
X212969605Y-74930000D01*
X213770213Y-75730608D01*
X214012397Y-75661143D01*
X214199144Y-75137698D01*
X214171362Y-74582632D01*
X214012397Y-74198857D01*
X213770213Y-74129392D01*
X212969605Y-74930000D01*
X212610395Y-74930000D01*
X211809787Y-74129392D01*
X211567603Y-74198857D01*
X211380856Y-74722302D01*
X191318353Y-74722302D01*
X191311362Y-74582632D01*
X191152397Y-74198857D01*
X190910213Y-74129392D01*
X190109605Y-74930000D01*
X189750395Y-74930000D01*
X188949787Y-74129392D01*
X188707603Y-74198857D01*
X188520856Y-74722302D01*
X185928399Y-74722302D01*
X186009975Y-74547056D01*
X185977926Y-74415523D01*
X185661236Y-73852370D01*
X185153143Y-73453276D01*
X184531000Y-73279000D01*
X184277000Y-73279000D01*
X184023000Y-73279000D01*
X183769000Y-73279000D01*
X183146857Y-73453276D01*
X182638764Y-73852370D01*
X182322074Y-74415523D01*
X182290025Y-74547056D01*
X180460995Y-74547056D01*
X180323864Y-74215995D01*
X180077745Y-74141861D01*
X179249605Y-74970000D01*
X178890395Y-74970000D01*
X178062255Y-74141861D01*
X177816136Y-74215995D01*
X177623035Y-74753223D01*
X175414388Y-74753223D01*
X175409778Y-74656546D01*
X175243864Y-74255995D01*
X174997745Y-74181861D01*
X174169605Y-75010000D01*
X173810395Y-75010000D01*
X172982255Y-74181861D01*
X172736136Y-74255995D01*
X172543035Y-74793223D01*
X171450000Y-74793223D01*
X171450000Y-74002255D01*
X173161861Y-74002255D01*
X173990000Y-74830395D01*
X174818139Y-74002255D01*
X174806091Y-73962255D01*
X178241861Y-73962255D01*
X179070000Y-74790395D01*
X179898139Y-73962255D01*
X179824005Y-73716136D01*
X179286777Y-73523035D01*
X178716546Y-73550222D01*
X178315995Y-73716136D01*
X178241861Y-73962255D01*
X174806091Y-73962255D01*
X174744005Y-73756136D01*
X174206777Y-73563035D01*
X173636546Y-73590222D01*
X173235995Y-73756136D01*
X173161861Y-74002255D01*
X171450000Y-74002255D01*
X171450000Y-67310000D01*
X172059275Y-67310000D01*
X172142736Y-67365767D01*
X172691887Y-67475000D01*
X172748113Y-67475000D01*
X173297264Y-67365767D01*
X173762811Y-67054698D01*
X174073880Y-66589151D01*
X174183113Y-66040000D01*
X174073880Y-65490849D01*
X173762811Y-65025302D01*
X173380725Y-64770000D01*
X173762811Y-64514698D01*
X174073880Y-64049151D01*
X174183113Y-63500000D01*
X174073880Y-62950849D01*
X173762811Y-62485302D01*
X173380725Y-62230000D01*
X173762811Y-61974698D01*
X174073880Y-61509151D01*
X174183113Y-60960000D01*
X174073880Y-60410849D01*
X173762811Y-59945302D01*
X173358297Y-59675014D01*
X173575134Y-59572389D01*
X173951041Y-59157423D01*
X174111904Y-58769039D01*
X173989915Y-58547000D01*
X172847000Y-58547000D01*
X172847000Y-58567000D01*
X172593000Y-58567000D01*
X172593000Y-58547000D01*
X171450085Y-58547000D01*
X171328096Y-58769039D01*
X171488959Y-59157423D01*
X171864866Y-59572389D01*
X172081703Y-59675014D01*
X171677189Y-59945302D01*
X171667368Y-59960000D01*
X164414365Y-59960000D01*
X164109100Y-59833243D01*
X163553339Y-59832758D01*
X163039697Y-60044990D01*
X162646371Y-60437630D01*
X162433243Y-60950900D01*
X162432758Y-61506661D01*
X162644990Y-62020303D01*
X162964217Y-62340088D01*
X162832683Y-62364838D01*
X162616559Y-62503910D01*
X162471569Y-62716110D01*
X162420560Y-62968000D01*
X150127000Y-62968000D01*
X150127000Y-58070961D01*
X171328096Y-58070961D01*
X171450085Y-58293000D01*
X172593000Y-58293000D01*
X172593000Y-57149371D01*
X172847000Y-57149371D01*
X172847000Y-58293000D01*
X173989915Y-58293000D01*
X174111904Y-58070961D01*
X173951041Y-57682577D01*
X173575134Y-57267611D01*
X173069041Y-57028086D01*
X172847000Y-57149371D01*
X172593000Y-57149371D01*
X172370959Y-57028086D01*
X171864866Y-57267611D01*
X171488959Y-57682577D01*
X171328096Y-58070961D01*
X150127000Y-58070961D01*
X150127000Y-56125750D01*
X162433000Y-56125750D01*
X162433000Y-56728309D01*
X162529673Y-56961698D01*
X162708301Y-57140327D01*
X162941690Y-57237000D01*
X163544250Y-57237000D01*
X163703000Y-57078250D01*
X163703000Y-55967000D01*
X163957000Y-55967000D01*
X163957000Y-57078250D01*
X164115750Y-57237000D01*
X164718310Y-57237000D01*
X164951699Y-57140327D01*
X165130327Y-56961698D01*
X165227000Y-56728309D01*
X165227000Y-56125750D01*
X165068250Y-55967000D01*
X163957000Y-55967000D01*
X163703000Y-55967000D01*
X162591750Y-55967000D01*
X162433000Y-56125750D01*
X150127000Y-56125750D01*
X150127000Y-51116661D01*
X162432758Y-51116661D01*
X162644990Y-51630303D01*
X163037630Y-52023629D01*
X163197228Y-52089900D01*
X163039697Y-52154990D01*
X162646371Y-52547630D01*
X162433243Y-53060900D01*
X162432758Y-53616661D01*
X162644990Y-54130303D01*
X162957142Y-54443000D01*
X162941690Y-54443000D01*
X162708301Y-54539673D01*
X162529673Y-54718302D01*
X162433000Y-54951691D01*
X162433000Y-55554250D01*
X162591750Y-55713000D01*
X163703000Y-55713000D01*
X163703000Y-55693000D01*
X163957000Y-55693000D01*
X163957000Y-55713000D01*
X165068250Y-55713000D01*
X165227000Y-55554250D01*
X165227000Y-54951691D01*
X165130327Y-54718302D01*
X164951699Y-54539673D01*
X164718310Y-54443000D01*
X164702456Y-54443000D01*
X165013629Y-54132370D01*
X165226757Y-53619100D01*
X165227242Y-53063339D01*
X165214684Y-53032946D01*
X170718815Y-47528815D01*
X170883996Y-47281605D01*
X170942000Y-46990000D01*
X170942000Y-42324043D01*
X171167828Y-42173149D01*
X171450000Y-41750850D01*
X171732172Y-42173149D01*
X172185391Y-42475981D01*
X172720000Y-42582321D01*
X173254609Y-42475981D01*
X173707828Y-42173149D01*
X173990000Y-41750850D01*
X174272172Y-42173149D01*
X174725391Y-42475981D01*
X175260000Y-42582321D01*
X175794609Y-42475981D01*
X176247828Y-42173149D01*
X176530000Y-41750850D01*
X176812172Y-42173149D01*
X177265391Y-42475981D01*
X177800000Y-42582321D01*
X178334609Y-42475981D01*
X178787828Y-42173149D01*
X179070000Y-41750850D01*
X179352172Y-42173149D01*
X179578000Y-42324043D01*
X179578000Y-46674369D01*
X177261185Y-48991185D01*
X177096004Y-49238395D01*
X177038000Y-49530000D01*
X177038000Y-58420000D01*
X177096004Y-58711605D01*
X177261185Y-58958815D01*
X178940843Y-60638473D01*
X178876887Y-60960000D01*
X178986120Y-61509151D01*
X179297189Y-61974698D01*
X179578000Y-62162330D01*
X179578000Y-62297670D01*
X179297189Y-62485302D01*
X178986120Y-62950849D01*
X178876887Y-63500000D01*
X178986120Y-64049151D01*
X179297189Y-64514698D01*
X179441465Y-64611101D01*
X179304683Y-64636838D01*
X179088559Y-64775910D01*
X178943569Y-64988110D01*
X178892560Y-65240000D01*
X178892560Y-66840000D01*
X178936838Y-67075317D01*
X179075910Y-67291441D01*
X179288110Y-67436431D01*
X179540000Y-67487440D01*
X181140000Y-67487440D01*
X181375317Y-67443162D01*
X181591441Y-67304090D01*
X181736431Y-67091890D01*
X181787440Y-66840000D01*
X181787440Y-65240000D01*
X181743162Y-65004683D01*
X181604090Y-64788559D01*
X181391890Y-64643569D01*
X181236911Y-64612185D01*
X181382811Y-64514698D01*
X181693880Y-64049151D01*
X181803113Y-63500000D01*
X181693880Y-62950849D01*
X181402112Y-62514187D01*
X183984752Y-62514187D01*
X184202757Y-63041800D01*
X184606077Y-63445824D01*
X185133309Y-63664750D01*
X185704187Y-63665248D01*
X186231800Y-63447243D01*
X186635824Y-63043923D01*
X186657384Y-62992000D01*
X188733295Y-62992000D01*
X188744990Y-63020303D01*
X189137630Y-63413629D01*
X189345512Y-63499949D01*
X189139697Y-63584990D01*
X188746371Y-63977630D01*
X188533243Y-64490900D01*
X188532758Y-65046661D01*
X188744990Y-65560303D01*
X189137630Y-65953629D01*
X189345512Y-66039949D01*
X189139697Y-66124990D01*
X188746371Y-66517630D01*
X188533243Y-67030900D01*
X188532758Y-67586661D01*
X188744990Y-68100303D01*
X189137630Y-68493629D01*
X189345512Y-68579949D01*
X189139697Y-68664990D01*
X188746371Y-69057630D01*
X188533243Y-69570900D01*
X188532758Y-70126661D01*
X188744990Y-70640303D01*
X189137630Y-71033629D01*
X189345512Y-71119949D01*
X189139697Y-71204990D01*
X188746371Y-71597630D01*
X188533243Y-72110900D01*
X188532758Y-72666661D01*
X188744990Y-73180303D01*
X189137630Y-73573629D01*
X189329727Y-73653395D01*
X189198857Y-73707603D01*
X189129392Y-73949787D01*
X189930000Y-74750395D01*
X190730608Y-73949787D01*
X190661143Y-73707603D01*
X190520682Y-73657491D01*
X190720303Y-73575010D01*
X191113629Y-73182370D01*
X191326757Y-72669100D01*
X191327242Y-72113339D01*
X191115010Y-71599697D01*
X190722370Y-71206371D01*
X190514488Y-71120051D01*
X190720303Y-71035010D01*
X191113629Y-70642370D01*
X191326757Y-70129100D01*
X191327242Y-69573339D01*
X191115010Y-69059697D01*
X190722370Y-68666371D01*
X190514488Y-68580051D01*
X190720303Y-68495010D01*
X191113629Y-68102370D01*
X191326757Y-67589100D01*
X191327242Y-67033339D01*
X191115010Y-66519697D01*
X190722370Y-66126371D01*
X190514488Y-66040051D01*
X190720303Y-65955010D01*
X191113629Y-65562370D01*
X191126240Y-65532000D01*
X198152180Y-65532000D01*
X198172757Y-65581800D01*
X198576077Y-65985824D01*
X198628000Y-66007384D01*
X198628000Y-68647670D01*
X198347189Y-68835302D01*
X198036120Y-69300849D01*
X197926887Y-69850000D01*
X198036120Y-70399151D01*
X198347189Y-70864698D01*
X198812736Y-71175767D01*
X199361887Y-71285000D01*
X199418113Y-71285000D01*
X199967264Y-71175767D01*
X200432811Y-70864698D01*
X200437456Y-70857745D01*
X206181861Y-70857745D01*
X206255995Y-71103864D01*
X206793223Y-71296965D01*
X207363454Y-71269778D01*
X207764005Y-71103864D01*
X207838139Y-70857745D01*
X207010000Y-70029605D01*
X206181861Y-70857745D01*
X200437456Y-70857745D01*
X200743880Y-70399151D01*
X200853113Y-69850000D01*
X200809994Y-69633223D01*
X205563035Y-69633223D01*
X205590222Y-70203454D01*
X205756136Y-70604005D01*
X206002255Y-70678139D01*
X206830395Y-69850000D01*
X207189605Y-69850000D01*
X208017745Y-70678139D01*
X208263864Y-70604005D01*
X208456965Y-70066777D01*
X208429778Y-69496546D01*
X208263864Y-69095995D01*
X208017745Y-69021861D01*
X207189605Y-69850000D01*
X206830395Y-69850000D01*
X206002255Y-69021861D01*
X205756136Y-69095995D01*
X205563035Y-69633223D01*
X200809994Y-69633223D01*
X200743880Y-69300849D01*
X200437457Y-68842255D01*
X206181861Y-68842255D01*
X207010000Y-69670395D01*
X207838139Y-68842255D01*
X207764005Y-68596136D01*
X207226777Y-68403035D01*
X206656546Y-68430222D01*
X206255995Y-68596136D01*
X206181861Y-68842255D01*
X200437457Y-68842255D01*
X200432811Y-68835302D01*
X200152000Y-68647670D01*
X200152000Y-66007820D01*
X200201800Y-65987243D01*
X200605824Y-65583923D01*
X200824750Y-65056691D01*
X200825000Y-64770000D01*
X205546887Y-64770000D01*
X205656120Y-65319151D01*
X205967189Y-65784698D01*
X206432736Y-66095767D01*
X206981887Y-66205000D01*
X207038113Y-66205000D01*
X207587264Y-66095767D01*
X208052811Y-65784698D01*
X208363880Y-65319151D01*
X208473113Y-64770000D01*
X208363880Y-64220849D01*
X208052811Y-63755302D01*
X207587264Y-63444233D01*
X207038113Y-63335000D01*
X206981887Y-63335000D01*
X206432736Y-63444233D01*
X205967189Y-63755302D01*
X205656120Y-64220849D01*
X205546887Y-64770000D01*
X200825000Y-64770000D01*
X200825248Y-64485813D01*
X200607243Y-63958200D01*
X200203923Y-63554176D01*
X199676691Y-63335250D01*
X199105813Y-63334752D01*
X198578200Y-63552757D01*
X198174176Y-63956077D01*
X198152616Y-64008000D01*
X191126705Y-64008000D01*
X191115010Y-63979697D01*
X190722370Y-63586371D01*
X190514488Y-63500051D01*
X190720303Y-63415010D01*
X191113629Y-63022370D01*
X191326757Y-62509100D01*
X191327242Y-61953339D01*
X191115010Y-61439697D01*
X190722370Y-61046371D01*
X190514488Y-60960051D01*
X190720303Y-60875010D01*
X191113629Y-60482370D01*
X191326757Y-59969100D01*
X191327242Y-59413339D01*
X191115010Y-58899697D01*
X190722370Y-58506371D01*
X190514488Y-58420051D01*
X190720303Y-58335010D01*
X191113629Y-57942370D01*
X191326757Y-57429100D01*
X191326759Y-57426661D01*
X211392758Y-57426661D01*
X211604990Y-57940303D01*
X211997630Y-58333629D01*
X212205512Y-58419949D01*
X211999697Y-58504990D01*
X211606371Y-58897630D01*
X211393243Y-59410900D01*
X211392758Y-59966661D01*
X211604990Y-60480303D01*
X211997630Y-60873629D01*
X212205512Y-60959949D01*
X211999697Y-61044990D01*
X211606371Y-61437630D01*
X211393243Y-61950900D01*
X211392758Y-62506661D01*
X211604990Y-63020303D01*
X211997630Y-63413629D01*
X212205512Y-63499949D01*
X211999697Y-63584990D01*
X211606371Y-63977630D01*
X211393243Y-64490900D01*
X211392758Y-65046661D01*
X211604990Y-65560303D01*
X211997630Y-65953629D01*
X212205512Y-66039949D01*
X211999697Y-66124990D01*
X211606371Y-66517630D01*
X211393243Y-67030900D01*
X211392758Y-67586661D01*
X211604990Y-68100303D01*
X211997630Y-68493629D01*
X212205512Y-68579949D01*
X211999697Y-68664990D01*
X211606371Y-69057630D01*
X211393243Y-69570900D01*
X211392758Y-70126661D01*
X211604990Y-70640303D01*
X211997630Y-71033629D01*
X212205512Y-71119949D01*
X211999697Y-71204990D01*
X211606371Y-71597630D01*
X211393243Y-72110900D01*
X211392758Y-72666661D01*
X211604990Y-73180303D01*
X211997630Y-73573629D01*
X212189727Y-73653395D01*
X212058857Y-73707603D01*
X211989392Y-73949787D01*
X212790000Y-74750395D01*
X213590608Y-73949787D01*
X213521143Y-73707603D01*
X213380682Y-73657491D01*
X213580303Y-73575010D01*
X213973629Y-73182370D01*
X214186757Y-72669100D01*
X214187242Y-72113339D01*
X213975010Y-71599697D01*
X213582370Y-71206371D01*
X213374488Y-71120051D01*
X213580303Y-71035010D01*
X213973629Y-70642370D01*
X214186757Y-70129100D01*
X214187242Y-69573339D01*
X213975010Y-69059697D01*
X213582370Y-68666371D01*
X213374488Y-68580051D01*
X213580303Y-68495010D01*
X213973629Y-68102370D01*
X214186757Y-67589100D01*
X214187242Y-67033339D01*
X213975010Y-66519697D01*
X213582370Y-66126371D01*
X213374488Y-66040051D01*
X213580303Y-65955010D01*
X213973629Y-65562370D01*
X214186757Y-65049100D01*
X214187242Y-64493339D01*
X213975010Y-63979697D01*
X213917106Y-63921691D01*
X219583000Y-63921691D01*
X219583000Y-64524250D01*
X219741750Y-64683000D01*
X220853000Y-64683000D01*
X220853000Y-63571750D01*
X221107000Y-63571750D01*
X221107000Y-64683000D01*
X222218250Y-64683000D01*
X222377000Y-64524250D01*
X222377000Y-63921691D01*
X222280327Y-63688302D01*
X222101699Y-63509673D01*
X221868310Y-63413000D01*
X221265750Y-63413000D01*
X221107000Y-63571750D01*
X220853000Y-63571750D01*
X220694250Y-63413000D01*
X220091690Y-63413000D01*
X219858301Y-63509673D01*
X219679673Y-63688302D01*
X219583000Y-63921691D01*
X213917106Y-63921691D01*
X213582370Y-63586371D01*
X213374488Y-63500051D01*
X213580303Y-63415010D01*
X213973629Y-63022370D01*
X214186757Y-62509100D01*
X214187242Y-61953339D01*
X213975010Y-61439697D01*
X213582370Y-61046371D01*
X213374488Y-60960051D01*
X213580303Y-60875010D01*
X213973629Y-60482370D01*
X214186757Y-59969100D01*
X214187242Y-59413339D01*
X213975010Y-58899697D01*
X213582370Y-58506371D01*
X213374488Y-58420051D01*
X213580303Y-58335010D01*
X213973629Y-57942370D01*
X214186757Y-57429100D01*
X214187242Y-56873339D01*
X213975010Y-56359697D01*
X213582370Y-55966371D01*
X213390273Y-55886605D01*
X213521143Y-55832397D01*
X213590608Y-55590213D01*
X212790000Y-54789605D01*
X211989392Y-55590213D01*
X212058857Y-55832397D01*
X212199318Y-55882509D01*
X211999697Y-55964990D01*
X211606371Y-56357630D01*
X211393243Y-56870900D01*
X211392758Y-57426661D01*
X191326759Y-57426661D01*
X191327242Y-56873339D01*
X191115010Y-56359697D01*
X190722370Y-55966371D01*
X190514488Y-55880051D01*
X190720303Y-55795010D01*
X191113629Y-55402370D01*
X191326757Y-54889100D01*
X191327181Y-54402302D01*
X211380856Y-54402302D01*
X211408638Y-54957368D01*
X211567603Y-55341143D01*
X211809787Y-55410608D01*
X212610395Y-54610000D01*
X212969605Y-54610000D01*
X213770213Y-55410608D01*
X214012397Y-55341143D01*
X214199144Y-54817698D01*
X214171362Y-54262632D01*
X214012397Y-53878857D01*
X213770213Y-53809392D01*
X212969605Y-54610000D01*
X212610395Y-54610000D01*
X211809787Y-53809392D01*
X211567603Y-53878857D01*
X211380856Y-54402302D01*
X191327181Y-54402302D01*
X191327242Y-54333339D01*
X191115010Y-53819697D01*
X190722370Y-53426371D01*
X190209100Y-53213243D01*
X189653339Y-53212758D01*
X189139697Y-53424990D01*
X188746371Y-53817630D01*
X188533243Y-54330900D01*
X188532758Y-54886661D01*
X188744990Y-55400303D01*
X189137630Y-55793629D01*
X189345512Y-55879949D01*
X189139697Y-55964990D01*
X188746371Y-56357630D01*
X188533243Y-56870900D01*
X188532758Y-57426661D01*
X188744990Y-57940303D01*
X189137630Y-58333629D01*
X189345512Y-58419949D01*
X189139697Y-58504990D01*
X188746371Y-58897630D01*
X188533243Y-59410900D01*
X188532758Y-59966661D01*
X188744990Y-60480303D01*
X189137630Y-60873629D01*
X189345512Y-60959949D01*
X189139697Y-61044990D01*
X188746371Y-61437630D01*
X188733760Y-61468000D01*
X186657820Y-61468000D01*
X186637243Y-61418200D01*
X186233923Y-61014176D01*
X185706691Y-60795250D01*
X185135813Y-60794752D01*
X184608200Y-61012757D01*
X184204176Y-61416077D01*
X183985250Y-61943309D01*
X183984752Y-62514187D01*
X181402112Y-62514187D01*
X181382811Y-62485302D01*
X181102000Y-62297670D01*
X181102000Y-62162330D01*
X181382811Y-61974698D01*
X181693880Y-61509151D01*
X181803113Y-60960000D01*
X181693880Y-60410849D01*
X181382811Y-59945302D01*
X181000725Y-59690000D01*
X181382811Y-59434698D01*
X181693880Y-58969151D01*
X181803113Y-58420000D01*
X181693880Y-57870849D01*
X181382811Y-57405302D01*
X180917264Y-57094233D01*
X180368113Y-56985000D01*
X180311887Y-56985000D01*
X179762736Y-57094233D01*
X179297189Y-57405302D01*
X178986120Y-57870849D01*
X178877010Y-58419380D01*
X178562000Y-58104370D01*
X178562000Y-51085750D01*
X178805000Y-51085750D01*
X178805000Y-51826310D01*
X178901673Y-52059699D01*
X179080302Y-52238327D01*
X179313691Y-52335000D01*
X180054250Y-52335000D01*
X180213000Y-52176250D01*
X180213000Y-50927000D01*
X178963750Y-50927000D01*
X178805000Y-51085750D01*
X178562000Y-51085750D01*
X178562000Y-49845630D01*
X178633940Y-49773690D01*
X178805000Y-49773690D01*
X178805000Y-50514250D01*
X178963750Y-50673000D01*
X180213000Y-50673000D01*
X180213000Y-49423750D01*
X180467000Y-49423750D01*
X180467000Y-50673000D01*
X180487000Y-50673000D01*
X180487000Y-50927000D01*
X180467000Y-50927000D01*
X180467000Y-52176250D01*
X180625750Y-52335000D01*
X181366309Y-52335000D01*
X181599698Y-52238327D01*
X181778327Y-52059699D01*
X181834119Y-51925006D01*
X182009357Y-52100551D01*
X182573330Y-52334733D01*
X183183991Y-52335265D01*
X183748371Y-52102068D01*
X184061678Y-51789308D01*
X184658000Y-52385631D01*
X184658000Y-53398341D01*
X184405302Y-53567189D01*
X184094233Y-54032736D01*
X183985000Y-54581887D01*
X183985000Y-54638113D01*
X184094233Y-55187264D01*
X184405302Y-55652811D01*
X184870849Y-55963880D01*
X185420000Y-56073113D01*
X185969151Y-55963880D01*
X186434698Y-55652811D01*
X186745767Y-55187264D01*
X186855000Y-54638113D01*
X186855000Y-54581887D01*
X186745767Y-54032736D01*
X186434698Y-53567189D01*
X186182000Y-53398341D01*
X186182000Y-52070000D01*
X186123996Y-51778395D01*
X186046106Y-51661825D01*
X185958815Y-51531184D01*
X184688815Y-50261185D01*
X184648124Y-50233996D01*
X184441605Y-50096004D01*
X184232827Y-50054475D01*
X184182068Y-49931629D01*
X183750643Y-49499449D01*
X183186670Y-49265267D01*
X182576009Y-49264735D01*
X182011629Y-49497932D01*
X181834159Y-49675092D01*
X181778327Y-49540301D01*
X181599698Y-49361673D01*
X181366309Y-49265000D01*
X180625750Y-49265000D01*
X180467000Y-49423750D01*
X180213000Y-49423750D01*
X180054250Y-49265000D01*
X179313691Y-49265000D01*
X179080302Y-49361673D01*
X178901673Y-49540301D01*
X178805000Y-49773690D01*
X178633940Y-49773690D01*
X180878815Y-47528816D01*
X181043996Y-47281605D01*
X181102000Y-46990000D01*
X181102000Y-42324043D01*
X181327828Y-42173149D01*
X181630660Y-41719930D01*
X181737000Y-41185321D01*
X181737000Y-40094679D01*
X183007000Y-40094679D01*
X183007000Y-41185321D01*
X183113340Y-41719930D01*
X183416172Y-42173149D01*
X183869391Y-42475981D01*
X184404000Y-42582321D01*
X184938609Y-42475981D01*
X185391828Y-42173149D01*
X185674000Y-41750850D01*
X185956172Y-42173149D01*
X186409391Y-42475981D01*
X186944000Y-42582321D01*
X187478609Y-42475981D01*
X187931828Y-42173149D01*
X188214000Y-41750850D01*
X188496172Y-42173149D01*
X188949391Y-42475981D01*
X189484000Y-42582321D01*
X190018609Y-42475981D01*
X190471828Y-42173149D01*
X190754000Y-41750850D01*
X191036172Y-42173149D01*
X191489391Y-42475981D01*
X192024000Y-42582321D01*
X192558609Y-42475981D01*
X193011828Y-42173149D01*
X193294000Y-41750850D01*
X193576172Y-42173149D01*
X194029391Y-42475981D01*
X194564000Y-42582321D01*
X195098609Y-42475981D01*
X195551828Y-42173149D01*
X195834000Y-41750850D01*
X196116172Y-42173149D01*
X196569391Y-42475981D01*
X197104000Y-42582321D01*
X197638609Y-42475981D01*
X198091828Y-42173149D01*
X198374000Y-41750850D01*
X198656172Y-42173149D01*
X199109391Y-42475981D01*
X199644000Y-42582321D01*
X200178609Y-42475981D01*
X200631828Y-42173149D01*
X200914000Y-41750850D01*
X201196172Y-42173149D01*
X201649391Y-42475981D01*
X202184000Y-42582321D01*
X202718609Y-42475981D01*
X203171828Y-42173149D01*
X203474660Y-41719930D01*
X203581000Y-41185321D01*
X203581000Y-40094679D01*
X205867000Y-40094679D01*
X205867000Y-41185321D01*
X205973340Y-41719930D01*
X206276172Y-42173149D01*
X206502000Y-42324043D01*
X206502000Y-49149000D01*
X206560004Y-49440605D01*
X206703252Y-49654990D01*
X206725185Y-49687815D01*
X210281184Y-53243815D01*
X210437482Y-53348250D01*
X210528395Y-53408996D01*
X210820000Y-53467000D01*
X212036084Y-53467000D01*
X211989392Y-53629787D01*
X212790000Y-54430395D01*
X213590608Y-53629787D01*
X213543916Y-53467000D01*
X215584370Y-53467000D01*
X217266185Y-55148815D01*
X217513395Y-55313996D01*
X217805000Y-55372000D01*
X219783295Y-55372000D01*
X219794990Y-55400303D01*
X220187630Y-55793629D01*
X220347228Y-55859900D01*
X220189697Y-55924990D01*
X219796371Y-56317630D01*
X219583243Y-56830900D01*
X219582758Y-57386661D01*
X219794990Y-57900303D01*
X220187630Y-58293629D01*
X220700900Y-58506757D01*
X221256661Y-58507242D01*
X221770303Y-58295010D01*
X222163629Y-57902370D01*
X222376757Y-57389100D01*
X222377242Y-56833339D01*
X222165010Y-56319697D01*
X221772370Y-55926371D01*
X221612772Y-55860100D01*
X221770303Y-55795010D01*
X222163629Y-55402370D01*
X222376757Y-54889100D01*
X222377242Y-54333339D01*
X222165010Y-53819697D01*
X221852858Y-53507000D01*
X221868310Y-53507000D01*
X222101699Y-53410327D01*
X222280327Y-53231698D01*
X222377000Y-52998309D01*
X222377000Y-52395750D01*
X222218250Y-52237000D01*
X221107000Y-52237000D01*
X221107000Y-52257000D01*
X220853000Y-52257000D01*
X220853000Y-52237000D01*
X219741750Y-52237000D01*
X219583000Y-52395750D01*
X219583000Y-52998309D01*
X219679673Y-53231698D01*
X219858301Y-53410327D01*
X220091690Y-53507000D01*
X220107544Y-53507000D01*
X219796371Y-53817630D01*
X219783760Y-53848000D01*
X218120630Y-53848000D01*
X216438815Y-52166185D01*
X216424127Y-52156371D01*
X216191605Y-52001004D01*
X215900000Y-51943000D01*
X211135631Y-51943000D01*
X208026000Y-48833370D01*
X208026000Y-42324043D01*
X208251828Y-42173149D01*
X208534000Y-41750850D01*
X208816172Y-42173149D01*
X209042000Y-42324043D01*
X209042000Y-49149000D01*
X209100004Y-49440605D01*
X209243252Y-49654990D01*
X209265185Y-49687815D01*
X210916185Y-51338816D01*
X211163396Y-51503997D01*
X211455000Y-51562000D01*
X215860082Y-51562000D01*
X215958731Y-51660821D01*
X216332018Y-51815824D01*
X216736208Y-51816176D01*
X217109766Y-51661825D01*
X217395821Y-51376269D01*
X217460007Y-51221691D01*
X219583000Y-51221691D01*
X219583000Y-51824250D01*
X219741750Y-51983000D01*
X220853000Y-51983000D01*
X220853000Y-50871750D01*
X221107000Y-50871750D01*
X221107000Y-51983000D01*
X222218250Y-51983000D01*
X222377000Y-51824250D01*
X222377000Y-51221691D01*
X222280327Y-50988302D01*
X222101699Y-50809673D01*
X221868310Y-50713000D01*
X221265750Y-50713000D01*
X221107000Y-50871750D01*
X220853000Y-50871750D01*
X220694250Y-50713000D01*
X220091690Y-50713000D01*
X219858301Y-50809673D01*
X219679673Y-50988302D01*
X219583000Y-51221691D01*
X217460007Y-51221691D01*
X217550824Y-51002982D01*
X217551176Y-50598792D01*
X217396825Y-50225234D01*
X217111269Y-49939179D01*
X216737982Y-49784176D01*
X216333792Y-49783824D01*
X215960234Y-49938175D01*
X215860235Y-50038000D01*
X211770631Y-50038000D01*
X210566000Y-48833370D01*
X210566000Y-47826208D01*
X214248824Y-47826208D01*
X214403175Y-48199766D01*
X214688731Y-48485821D01*
X215062018Y-48640824D01*
X215466208Y-48641176D01*
X215839766Y-48486825D01*
X215939765Y-48387000D01*
X217765082Y-48387000D01*
X217863731Y-48485821D01*
X218237018Y-48640824D01*
X218641208Y-48641176D01*
X219014766Y-48486825D01*
X219300821Y-48201269D01*
X219455824Y-47827982D01*
X219456176Y-47423792D01*
X219301825Y-47050234D01*
X219016269Y-46764179D01*
X218642982Y-46609176D01*
X218238792Y-46608824D01*
X217865234Y-46763175D01*
X217765235Y-46863000D01*
X215939918Y-46863000D01*
X215841269Y-46764179D01*
X215467982Y-46609176D01*
X215063792Y-46608824D01*
X214690234Y-46763175D01*
X214404179Y-47048731D01*
X214249176Y-47422018D01*
X214248824Y-47826208D01*
X210566000Y-47826208D01*
X210566000Y-42324043D01*
X210791828Y-42173149D01*
X211074000Y-41750850D01*
X211356172Y-42173149D01*
X211809391Y-42475981D01*
X212344000Y-42582321D01*
X212878609Y-42475981D01*
X213331828Y-42173149D01*
X213614000Y-41750850D01*
X213896172Y-42173149D01*
X214349391Y-42475981D01*
X214884000Y-42582321D01*
X215418609Y-42475981D01*
X215871828Y-42173149D01*
X216154000Y-41750850D01*
X216436172Y-42173149D01*
X216889391Y-42475981D01*
X217424000Y-42582321D01*
X217958609Y-42475981D01*
X218411828Y-42173149D01*
X218694000Y-41750850D01*
X218976172Y-42173149D01*
X219429391Y-42475981D01*
X219964000Y-42582321D01*
X220498609Y-42475981D01*
X220951828Y-42173149D01*
X221234000Y-41750850D01*
X221516172Y-42173149D01*
X221969391Y-42475981D01*
X222504000Y-42582321D01*
X223038609Y-42475981D01*
X223491828Y-42173149D01*
X223774000Y-41750850D01*
X224056172Y-42173149D01*
X224509391Y-42475981D01*
X225044000Y-42582321D01*
X225496658Y-42492282D01*
X227181323Y-42492282D01*
X227398252Y-42859730D01*
X228358518Y-43247853D01*
X229394216Y-43238955D01*
X230309748Y-42859730D01*
X230526677Y-42492282D01*
X228854000Y-40819605D01*
X227181323Y-42492282D01*
X225496658Y-42492282D01*
X225578609Y-42475981D01*
X226031828Y-42173149D01*
X226334660Y-41719930D01*
X226381358Y-41485163D01*
X226634270Y-42095748D01*
X227001718Y-42312677D01*
X228674395Y-40640000D01*
X229033605Y-40640000D01*
X230706282Y-42312677D01*
X231073730Y-42095748D01*
X231410090Y-41263551D01*
X231478990Y-41430303D01*
X231871630Y-41823629D01*
X232079512Y-41909949D01*
X231873697Y-41994990D01*
X231480371Y-42387630D01*
X231267243Y-42900900D01*
X231266758Y-43456661D01*
X231478990Y-43970303D01*
X231871630Y-44363629D01*
X232079512Y-44449949D01*
X231873697Y-44534990D01*
X231480371Y-44927630D01*
X231267243Y-45440900D01*
X231266758Y-45996661D01*
X231478990Y-46510303D01*
X231871630Y-46903629D01*
X232079512Y-46989949D01*
X231873697Y-47074990D01*
X231480371Y-47467630D01*
X231267243Y-47980900D01*
X231266758Y-48536661D01*
X231478990Y-49050303D01*
X231871630Y-49443629D01*
X232079512Y-49529949D01*
X231873697Y-49614990D01*
X231480371Y-50007630D01*
X231267243Y-50520900D01*
X231266758Y-51076661D01*
X231478990Y-51590303D01*
X231871630Y-51983629D01*
X232079512Y-52069949D01*
X231873697Y-52154990D01*
X231480371Y-52547630D01*
X231267243Y-53060900D01*
X231266758Y-53616661D01*
X231478990Y-54130303D01*
X231871630Y-54523629D01*
X232079512Y-54609949D01*
X231873697Y-54694990D01*
X231480371Y-55087630D01*
X231267243Y-55600900D01*
X231266758Y-56156661D01*
X231478990Y-56670303D01*
X231871630Y-57063629D01*
X232079512Y-57149949D01*
X231873697Y-57234990D01*
X231480371Y-57627630D01*
X231267243Y-58140900D01*
X231266758Y-58696661D01*
X231478990Y-59210303D01*
X231871630Y-59603629D01*
X232079512Y-59689949D01*
X231873697Y-59774990D01*
X231480371Y-60167630D01*
X231267243Y-60680900D01*
X231266758Y-61236661D01*
X231478990Y-61750303D01*
X231871630Y-62143629D01*
X232079512Y-62229949D01*
X231873697Y-62314990D01*
X231480371Y-62707630D01*
X231267243Y-63220900D01*
X231266758Y-63776661D01*
X231478990Y-64290303D01*
X231871630Y-64683629D01*
X232079512Y-64769949D01*
X231873697Y-64854990D01*
X231480371Y-65247630D01*
X231267243Y-65760900D01*
X231266758Y-66316661D01*
X231478990Y-66830303D01*
X231871630Y-67223629D01*
X232079512Y-67309949D01*
X231873697Y-67394990D01*
X231480371Y-67787630D01*
X231267243Y-68300900D01*
X231266758Y-68856661D01*
X231478990Y-69370303D01*
X231871630Y-69763629D01*
X232079512Y-69849949D01*
X231873697Y-69934990D01*
X231480371Y-70327630D01*
X231267243Y-70840900D01*
X231266758Y-71396661D01*
X231478990Y-71910303D01*
X231871630Y-72303629D01*
X232079512Y-72389949D01*
X231873697Y-72474990D01*
X231480371Y-72867630D01*
X231267243Y-73380900D01*
X231266758Y-73936661D01*
X231478990Y-74450303D01*
X231871630Y-74843629D01*
X232079512Y-74929949D01*
X231873697Y-75014990D01*
X231480371Y-75407630D01*
X231267243Y-75920900D01*
X231266758Y-76476661D01*
X231478990Y-76990303D01*
X231871630Y-77383629D01*
X232079512Y-77469949D01*
X231873697Y-77554990D01*
X231480371Y-77947630D01*
X231267243Y-78460900D01*
X231266758Y-79016661D01*
X231478990Y-79530303D01*
X231871630Y-79923629D01*
X232079512Y-80009949D01*
X231873697Y-80094990D01*
X231480371Y-80487630D01*
X231267243Y-81000900D01*
X231266758Y-81556661D01*
X231478990Y-82070303D01*
X231871630Y-82463629D01*
X232063727Y-82543395D01*
X231932857Y-82597603D01*
X231863392Y-82839787D01*
X232664000Y-83640395D01*
X233464608Y-82839787D01*
X233395143Y-82597603D01*
X233254682Y-82547491D01*
X233454303Y-82465010D01*
X233847629Y-82072370D01*
X233933949Y-81864488D01*
X234018990Y-82070303D01*
X234411630Y-82463629D01*
X234603727Y-82543395D01*
X234472857Y-82597603D01*
X234403392Y-82839787D01*
X235204000Y-83640395D01*
X236004608Y-82839787D01*
X235935143Y-82597603D01*
X235794682Y-82547491D01*
X235994303Y-82465010D01*
X236387629Y-82072370D01*
X236600757Y-81559100D01*
X236601242Y-81003339D01*
X236389010Y-80489697D01*
X235996370Y-80096371D01*
X235788488Y-80010051D01*
X235994303Y-79925010D01*
X236387629Y-79532370D01*
X236600757Y-79019100D01*
X236601242Y-78463339D01*
X236389010Y-77949697D01*
X235996370Y-77556371D01*
X235788488Y-77470051D01*
X235994303Y-77385010D01*
X236387629Y-76992370D01*
X236600757Y-76479100D01*
X236601242Y-75923339D01*
X236389010Y-75409697D01*
X235996370Y-75016371D01*
X235788488Y-74930051D01*
X235994303Y-74845010D01*
X236387629Y-74452370D01*
X236600757Y-73939100D01*
X236601242Y-73383339D01*
X236389010Y-72869697D01*
X235996370Y-72476371D01*
X235788488Y-72390051D01*
X235994303Y-72305010D01*
X236387629Y-71912370D01*
X236600757Y-71399100D01*
X236601242Y-70843339D01*
X236389010Y-70329697D01*
X235996370Y-69936371D01*
X235788488Y-69850051D01*
X235994303Y-69765010D01*
X236387629Y-69372370D01*
X236600757Y-68859100D01*
X236601242Y-68303339D01*
X236389010Y-67789697D01*
X235996370Y-67396371D01*
X235788488Y-67310051D01*
X235994303Y-67225010D01*
X236387629Y-66832370D01*
X236600757Y-66319100D01*
X236601242Y-65763339D01*
X236389010Y-65249697D01*
X235996370Y-64856371D01*
X235788488Y-64770051D01*
X235994303Y-64685010D01*
X236387629Y-64292370D01*
X236600757Y-63779100D01*
X236601242Y-63223339D01*
X236389010Y-62709697D01*
X235996370Y-62316371D01*
X235788488Y-62230051D01*
X235994303Y-62145010D01*
X236387629Y-61752370D01*
X236600757Y-61239100D01*
X236601242Y-60683339D01*
X236389010Y-60169697D01*
X235996370Y-59776371D01*
X235788488Y-59690051D01*
X235994303Y-59605010D01*
X236387629Y-59212370D01*
X236600757Y-58699100D01*
X236601242Y-58143339D01*
X236389010Y-57629697D01*
X235996370Y-57236371D01*
X235788488Y-57150051D01*
X235994303Y-57065010D01*
X236387629Y-56672370D01*
X236600757Y-56159100D01*
X236601242Y-55603339D01*
X236389010Y-55089697D01*
X235996370Y-54696371D01*
X235788488Y-54610051D01*
X235994303Y-54525010D01*
X236387629Y-54132370D01*
X236600757Y-53619100D01*
X236601242Y-53063339D01*
X236389010Y-52549697D01*
X235996370Y-52156371D01*
X235788488Y-52070051D01*
X235994303Y-51985010D01*
X236387629Y-51592370D01*
X236600757Y-51079100D01*
X236601242Y-50523339D01*
X236389010Y-50009697D01*
X235996370Y-49616371D01*
X235788488Y-49530051D01*
X235994303Y-49445010D01*
X236387629Y-49052370D01*
X236600757Y-48539100D01*
X236601242Y-47983339D01*
X236389010Y-47469697D01*
X235996370Y-47076371D01*
X235788488Y-46990051D01*
X235994303Y-46905010D01*
X236387629Y-46512370D01*
X236600757Y-45999100D01*
X236601242Y-45443339D01*
X236389010Y-44929697D01*
X235996370Y-44536371D01*
X235788488Y-44450051D01*
X235994303Y-44365010D01*
X236387629Y-43972370D01*
X236600757Y-43459100D01*
X236601242Y-42903339D01*
X236389010Y-42389697D01*
X235996370Y-41996371D01*
X235788488Y-41910051D01*
X235994303Y-41825010D01*
X236387629Y-41432370D01*
X236600757Y-40919100D01*
X236601242Y-40363339D01*
X236389010Y-39849697D01*
X235996370Y-39456371D01*
X235483100Y-39243243D01*
X234927339Y-39242758D01*
X234413697Y-39454990D01*
X234020371Y-39847630D01*
X233934051Y-40055512D01*
X233849010Y-39849697D01*
X233456370Y-39456371D01*
X232943100Y-39243243D01*
X232387339Y-39242758D01*
X231873697Y-39454990D01*
X231480371Y-39847630D01*
X231414359Y-40006605D01*
X231073730Y-39184252D01*
X230706282Y-38967323D01*
X229033605Y-40640000D01*
X228674395Y-40640000D01*
X227001718Y-38967323D01*
X226634270Y-39184252D01*
X226383378Y-39804992D01*
X226334660Y-39560070D01*
X226031828Y-39106851D01*
X225578609Y-38804019D01*
X225044000Y-38697679D01*
X224509391Y-38804019D01*
X224056172Y-39106851D01*
X223774000Y-39529150D01*
X223491828Y-39106851D01*
X223038609Y-38804019D01*
X222504000Y-38697679D01*
X221969391Y-38804019D01*
X221516172Y-39106851D01*
X221234000Y-39529150D01*
X220951828Y-39106851D01*
X220498609Y-38804019D01*
X219964000Y-38697679D01*
X219429391Y-38804019D01*
X218976172Y-39106851D01*
X218694000Y-39529150D01*
X218411828Y-39106851D01*
X217958609Y-38804019D01*
X217424000Y-38697679D01*
X216889391Y-38804019D01*
X216436172Y-39106851D01*
X216154000Y-39529150D01*
X215871828Y-39106851D01*
X215418609Y-38804019D01*
X214884000Y-38697679D01*
X214349391Y-38804019D01*
X213896172Y-39106851D01*
X213614000Y-39529150D01*
X213331828Y-39106851D01*
X212878609Y-38804019D01*
X212344000Y-38697679D01*
X211809391Y-38804019D01*
X211356172Y-39106851D01*
X211074000Y-39529150D01*
X210791828Y-39106851D01*
X210338609Y-38804019D01*
X209804000Y-38697679D01*
X209269391Y-38804019D01*
X208816172Y-39106851D01*
X208534000Y-39529150D01*
X208251828Y-39106851D01*
X207798609Y-38804019D01*
X207264000Y-38697679D01*
X206729391Y-38804019D01*
X206276172Y-39106851D01*
X205973340Y-39560070D01*
X205867000Y-40094679D01*
X203581000Y-40094679D01*
X203474660Y-39560070D01*
X203171828Y-39106851D01*
X202718609Y-38804019D01*
X202184000Y-38697679D01*
X201649391Y-38804019D01*
X201196172Y-39106851D01*
X200914000Y-39529150D01*
X200631828Y-39106851D01*
X200178609Y-38804019D01*
X199644000Y-38697679D01*
X199109391Y-38804019D01*
X198656172Y-39106851D01*
X198374000Y-39529150D01*
X198091828Y-39106851D01*
X197638609Y-38804019D01*
X197104000Y-38697679D01*
X196569391Y-38804019D01*
X196116172Y-39106851D01*
X195834000Y-39529150D01*
X195551828Y-39106851D01*
X195098609Y-38804019D01*
X194564000Y-38697679D01*
X194029391Y-38804019D01*
X193576172Y-39106851D01*
X193294000Y-39529150D01*
X193011828Y-39106851D01*
X192558609Y-38804019D01*
X192024000Y-38697679D01*
X191489391Y-38804019D01*
X191036172Y-39106851D01*
X190754000Y-39529150D01*
X190471828Y-39106851D01*
X190018609Y-38804019D01*
X189484000Y-38697679D01*
X188949391Y-38804019D01*
X188496172Y-39106851D01*
X188214000Y-39529150D01*
X187931828Y-39106851D01*
X187478609Y-38804019D01*
X186944000Y-38697679D01*
X186409391Y-38804019D01*
X185956172Y-39106851D01*
X185674000Y-39529150D01*
X185391828Y-39106851D01*
X184938609Y-38804019D01*
X184404000Y-38697679D01*
X183869391Y-38804019D01*
X183416172Y-39106851D01*
X183113340Y-39560070D01*
X183007000Y-40094679D01*
X181737000Y-40094679D01*
X181630660Y-39560070D01*
X181327828Y-39106851D01*
X180874609Y-38804019D01*
X180340000Y-38697679D01*
X179805391Y-38804019D01*
X179352172Y-39106851D01*
X179070000Y-39529150D01*
X178787828Y-39106851D01*
X178334609Y-38804019D01*
X177800000Y-38697679D01*
X177265391Y-38804019D01*
X176812172Y-39106851D01*
X176530000Y-39529150D01*
X176247828Y-39106851D01*
X175794609Y-38804019D01*
X175260000Y-38697679D01*
X174725391Y-38804019D01*
X174272172Y-39106851D01*
X173990000Y-39529150D01*
X173707828Y-39106851D01*
X173254609Y-38804019D01*
X172720000Y-38697679D01*
X172185391Y-38804019D01*
X171732172Y-39106851D01*
X171450000Y-39529150D01*
X171167828Y-39106851D01*
X170714609Y-38804019D01*
X170180000Y-38697679D01*
X169645391Y-38804019D01*
X169192172Y-39106851D01*
X168910000Y-39529150D01*
X168627828Y-39106851D01*
X168174609Y-38804019D01*
X167640000Y-38697679D01*
X167105391Y-38804019D01*
X166652172Y-39106851D01*
X166360670Y-39543113D01*
X166342059Y-39480059D01*
X165998026Y-39054370D01*
X165517277Y-38792740D01*
X165443070Y-38777780D01*
X165227000Y-38900280D01*
X165227000Y-40513000D01*
X165247000Y-40513000D01*
X165247000Y-40767000D01*
X165227000Y-40767000D01*
X165227000Y-42379720D01*
X165443070Y-42502220D01*
X165517277Y-42487260D01*
X165998026Y-42225630D01*
X166342059Y-41799941D01*
X166360670Y-41736887D01*
X166652172Y-42173149D01*
X167105391Y-42475981D01*
X167640000Y-42582321D01*
X168174609Y-42475981D01*
X168627828Y-42173149D01*
X168910000Y-41750850D01*
X169192172Y-42173149D01*
X169418000Y-42324043D01*
X169418000Y-46674370D01*
X165226978Y-50865392D01*
X165227242Y-50563339D01*
X165015010Y-50049697D01*
X164622370Y-49656371D01*
X164109100Y-49443243D01*
X163553339Y-49442758D01*
X163039697Y-49654990D01*
X162646371Y-50047630D01*
X162433243Y-50560900D01*
X162432758Y-51116661D01*
X150127000Y-51116661D01*
X150127000Y-42492282D01*
X152251323Y-42492282D01*
X152468252Y-42859730D01*
X153428518Y-43247853D01*
X154464216Y-43238955D01*
X155379748Y-42859730D01*
X155596677Y-42492282D01*
X153924000Y-40819605D01*
X152251323Y-42492282D01*
X150127000Y-42492282D01*
X150127000Y-40144518D01*
X151316147Y-40144518D01*
X151325045Y-41180216D01*
X151704270Y-42095748D01*
X152071718Y-42312677D01*
X153744395Y-40640000D01*
X154103605Y-40640000D01*
X155776282Y-42312677D01*
X156143730Y-42095748D01*
X156531853Y-41135482D01*
X156522955Y-40099784D01*
X156520841Y-40094679D01*
X161163000Y-40094679D01*
X161163000Y-41185321D01*
X161269340Y-41719930D01*
X161572172Y-42173149D01*
X162025391Y-42475981D01*
X162560000Y-42582321D01*
X163094609Y-42475981D01*
X163547828Y-42173149D01*
X163839330Y-41736887D01*
X163857941Y-41799941D01*
X164201974Y-42225630D01*
X164682723Y-42487260D01*
X164756930Y-42502220D01*
X164973000Y-42379720D01*
X164973000Y-40767000D01*
X164953000Y-40767000D01*
X164953000Y-40513000D01*
X164973000Y-40513000D01*
X164973000Y-38900280D01*
X164756930Y-38777780D01*
X164682723Y-38792740D01*
X164201974Y-39054370D01*
X163857941Y-39480059D01*
X163839330Y-39543113D01*
X163547828Y-39106851D01*
X163094609Y-38804019D01*
X162560000Y-38697679D01*
X162025391Y-38804019D01*
X161572172Y-39106851D01*
X161269340Y-39560070D01*
X161163000Y-40094679D01*
X156520841Y-40094679D01*
X156143730Y-39184252D01*
X155776282Y-38967323D01*
X154103605Y-40640000D01*
X153744395Y-40640000D01*
X152071718Y-38967323D01*
X151704270Y-39184252D01*
X151316147Y-40144518D01*
X150127000Y-40144518D01*
X150127000Y-38127000D01*
X153176270Y-38127000D01*
X152468252Y-38420270D01*
M02*
