G04 #@! TF.FileFunction,Legend,Top*
%FSLAX46Y46*%
G04 Gerber Fmt 4.6, Leading zero omitted, Abs format (unit mm)*
G04 Created by KiCad (PCBNEW 4.0.4-stable) date 2018 February 08, Thursday 23:41:36*
%MOMM*%
%LPD*%
G01*
G04 APERTURE LIST*
%ADD10C,0.100000*%
%ADD11C,0.300000*%
%ADD12C,0.381000*%
%ADD13C,0.120000*%
%ADD14C,0.150000*%
%ADD15C,0.010000*%
%ADD16C,0.304800*%
%ADD17C,0.031750*%
G04 APERTURE END LIST*
D10*
D11*
X155155001Y-85046429D02*
X155226430Y-84975000D01*
X155369287Y-84903571D01*
X155726430Y-84903571D01*
X155869287Y-84975000D01*
X155940716Y-85046429D01*
X156012144Y-85189286D01*
X156012144Y-85332143D01*
X155940716Y-85546429D01*
X155083573Y-86403571D01*
X156012144Y-86403571D01*
X156940715Y-84903571D02*
X157083572Y-84903571D01*
X157226429Y-84975000D01*
X157297858Y-85046429D01*
X157369287Y-85189286D01*
X157440715Y-85475000D01*
X157440715Y-85832143D01*
X157369287Y-86117857D01*
X157297858Y-86260714D01*
X157226429Y-86332143D01*
X157083572Y-86403571D01*
X156940715Y-86403571D01*
X156797858Y-86332143D01*
X156726429Y-86260714D01*
X156655001Y-86117857D01*
X156583572Y-85832143D01*
X156583572Y-85475000D01*
X156655001Y-85189286D01*
X156726429Y-85046429D01*
X156797858Y-84975000D01*
X156940715Y-84903571D01*
X158869286Y-86403571D02*
X158012143Y-86403571D01*
X158440715Y-86403571D02*
X158440715Y-84903571D01*
X158297858Y-85117857D01*
X158155000Y-85260714D01*
X158012143Y-85332143D01*
X159726429Y-85546429D02*
X159583571Y-85475000D01*
X159512143Y-85403571D01*
X159440714Y-85260714D01*
X159440714Y-85189286D01*
X159512143Y-85046429D01*
X159583571Y-84975000D01*
X159726429Y-84903571D01*
X160012143Y-84903571D01*
X160155000Y-84975000D01*
X160226429Y-85046429D01*
X160297857Y-85189286D01*
X160297857Y-85260714D01*
X160226429Y-85403571D01*
X160155000Y-85475000D01*
X160012143Y-85546429D01*
X159726429Y-85546429D01*
X159583571Y-85617857D01*
X159512143Y-85689286D01*
X159440714Y-85832143D01*
X159440714Y-86117857D01*
X159512143Y-86260714D01*
X159583571Y-86332143D01*
X159726429Y-86403571D01*
X160012143Y-86403571D01*
X160155000Y-86332143D01*
X160226429Y-86260714D01*
X160297857Y-86117857D01*
X160297857Y-85832143D01*
X160226429Y-85689286D01*
X160155000Y-85617857D01*
X160012143Y-85546429D01*
X161940714Y-85403571D02*
X162297857Y-86403571D01*
X162654999Y-85403571D01*
X163512142Y-84903571D02*
X163654999Y-84903571D01*
X163797856Y-84975000D01*
X163869285Y-85046429D01*
X163940714Y-85189286D01*
X164012142Y-85475000D01*
X164012142Y-85832143D01*
X163940714Y-86117857D01*
X163869285Y-86260714D01*
X163797856Y-86332143D01*
X163654999Y-86403571D01*
X163512142Y-86403571D01*
X163369285Y-86332143D01*
X163297856Y-86260714D01*
X163226428Y-86117857D01*
X163154999Y-85832143D01*
X163154999Y-85475000D01*
X163226428Y-85189286D01*
X163297856Y-85046429D01*
X163369285Y-84975000D01*
X163512142Y-84903571D01*
X164654999Y-86260714D02*
X164726427Y-86332143D01*
X164654999Y-86403571D01*
X164583570Y-86332143D01*
X164654999Y-86260714D01*
X164654999Y-86403571D01*
X165297856Y-85046429D02*
X165369285Y-84975000D01*
X165512142Y-84903571D01*
X165869285Y-84903571D01*
X166012142Y-84975000D01*
X166083571Y-85046429D01*
X166154999Y-85189286D01*
X166154999Y-85332143D01*
X166083571Y-85546429D01*
X165226428Y-86403571D01*
X166154999Y-86403571D01*
D12*
X237744000Y-91440000D02*
X149860000Y-91440000D01*
X236474000Y-38100000D02*
X149860000Y-38100000D01*
X237744000Y-50800000D02*
X237744000Y-39370000D01*
X237744000Y-39370000D02*
X236474000Y-38100000D01*
X149860000Y-91440000D02*
X149860000Y-38100000D01*
X237744000Y-50800000D02*
X240284000Y-53340000D01*
X240284000Y-53340000D02*
X240284000Y-86360000D01*
X240284000Y-86360000D02*
X237744000Y-88900000D01*
X237744000Y-88900000D02*
X237744000Y-91440000D01*
D13*
X172680000Y-81570000D02*
X172680000Y-73450000D01*
X175300000Y-81570000D02*
X175300000Y-73450000D01*
X172680000Y-81570000D02*
X175300000Y-81570000D01*
X172680000Y-73450000D02*
X175300000Y-73450000D01*
X177890277Y-73914278D02*
G75*
G03X177890000Y-78525580I1179723J-2305722D01*
G01*
X180249723Y-73914278D02*
G75*
G02X180250000Y-78525580I-1179723J-2305722D01*
G01*
X180249723Y-73914278D02*
G75*
G03X177890000Y-73914420I-1179723J-2305722D01*
G01*
X176520000Y-76220000D02*
X181620000Y-76220000D01*
X176520000Y-76180000D02*
X181620000Y-76180000D01*
X176521000Y-76140000D02*
X181619000Y-76140000D01*
X176522000Y-76100000D02*
X181618000Y-76100000D01*
X176524000Y-76060000D02*
X181616000Y-76060000D01*
X176527000Y-76020000D02*
X181613000Y-76020000D01*
X176531000Y-75980000D02*
X181609000Y-75980000D01*
X176535000Y-75940000D02*
X178090000Y-75940000D01*
X180050000Y-75940000D02*
X181605000Y-75940000D01*
X176539000Y-75900000D02*
X178090000Y-75900000D01*
X180050000Y-75900000D02*
X181601000Y-75900000D01*
X176545000Y-75860000D02*
X178090000Y-75860000D01*
X180050000Y-75860000D02*
X181595000Y-75860000D01*
X176551000Y-75820000D02*
X178090000Y-75820000D01*
X180050000Y-75820000D02*
X181589000Y-75820000D01*
X176557000Y-75780000D02*
X178090000Y-75780000D01*
X180050000Y-75780000D02*
X181583000Y-75780000D01*
X176564000Y-75740000D02*
X178090000Y-75740000D01*
X180050000Y-75740000D02*
X181576000Y-75740000D01*
X176572000Y-75700000D02*
X178090000Y-75700000D01*
X180050000Y-75700000D02*
X181568000Y-75700000D01*
X176581000Y-75660000D02*
X178090000Y-75660000D01*
X180050000Y-75660000D02*
X181559000Y-75660000D01*
X176590000Y-75620000D02*
X178090000Y-75620000D01*
X180050000Y-75620000D02*
X181550000Y-75620000D01*
X176600000Y-75580000D02*
X178090000Y-75580000D01*
X180050000Y-75580000D02*
X181540000Y-75580000D01*
X176610000Y-75540000D02*
X178090000Y-75540000D01*
X180050000Y-75540000D02*
X181530000Y-75540000D01*
X176622000Y-75499000D02*
X178090000Y-75499000D01*
X180050000Y-75499000D02*
X181518000Y-75499000D01*
X176634000Y-75459000D02*
X178090000Y-75459000D01*
X180050000Y-75459000D02*
X181506000Y-75459000D01*
X176646000Y-75419000D02*
X178090000Y-75419000D01*
X180050000Y-75419000D02*
X181494000Y-75419000D01*
X176660000Y-75379000D02*
X178090000Y-75379000D01*
X180050000Y-75379000D02*
X181480000Y-75379000D01*
X176674000Y-75339000D02*
X178090000Y-75339000D01*
X180050000Y-75339000D02*
X181466000Y-75339000D01*
X176688000Y-75299000D02*
X178090000Y-75299000D01*
X180050000Y-75299000D02*
X181452000Y-75299000D01*
X176704000Y-75259000D02*
X178090000Y-75259000D01*
X180050000Y-75259000D02*
X181436000Y-75259000D01*
X176720000Y-75219000D02*
X178090000Y-75219000D01*
X180050000Y-75219000D02*
X181420000Y-75219000D01*
X176737000Y-75179000D02*
X178090000Y-75179000D01*
X180050000Y-75179000D02*
X181403000Y-75179000D01*
X176755000Y-75139000D02*
X178090000Y-75139000D01*
X180050000Y-75139000D02*
X181385000Y-75139000D01*
X176774000Y-75099000D02*
X178090000Y-75099000D01*
X180050000Y-75099000D02*
X181366000Y-75099000D01*
X176794000Y-75059000D02*
X178090000Y-75059000D01*
X180050000Y-75059000D02*
X181346000Y-75059000D01*
X176814000Y-75019000D02*
X178090000Y-75019000D01*
X180050000Y-75019000D02*
X181326000Y-75019000D01*
X176836000Y-74979000D02*
X178090000Y-74979000D01*
X180050000Y-74979000D02*
X181304000Y-74979000D01*
X176858000Y-74939000D02*
X178090000Y-74939000D01*
X180050000Y-74939000D02*
X181282000Y-74939000D01*
X176881000Y-74899000D02*
X178090000Y-74899000D01*
X180050000Y-74899000D02*
X181259000Y-74899000D01*
X176905000Y-74859000D02*
X178090000Y-74859000D01*
X180050000Y-74859000D02*
X181235000Y-74859000D01*
X176930000Y-74819000D02*
X178090000Y-74819000D01*
X180050000Y-74819000D02*
X181210000Y-74819000D01*
X176957000Y-74779000D02*
X178090000Y-74779000D01*
X180050000Y-74779000D02*
X181183000Y-74779000D01*
X176984000Y-74739000D02*
X178090000Y-74739000D01*
X180050000Y-74739000D02*
X181156000Y-74739000D01*
X177012000Y-74699000D02*
X178090000Y-74699000D01*
X180050000Y-74699000D02*
X181128000Y-74699000D01*
X177042000Y-74659000D02*
X178090000Y-74659000D01*
X180050000Y-74659000D02*
X181098000Y-74659000D01*
X177073000Y-74619000D02*
X178090000Y-74619000D01*
X180050000Y-74619000D02*
X181067000Y-74619000D01*
X177105000Y-74579000D02*
X178090000Y-74579000D01*
X180050000Y-74579000D02*
X181035000Y-74579000D01*
X177138000Y-74539000D02*
X178090000Y-74539000D01*
X180050000Y-74539000D02*
X181002000Y-74539000D01*
X177173000Y-74499000D02*
X178090000Y-74499000D01*
X180050000Y-74499000D02*
X180967000Y-74499000D01*
X177209000Y-74459000D02*
X178090000Y-74459000D01*
X180050000Y-74459000D02*
X180931000Y-74459000D01*
X177247000Y-74419000D02*
X178090000Y-74419000D01*
X180050000Y-74419000D02*
X180893000Y-74419000D01*
X177287000Y-74379000D02*
X178090000Y-74379000D01*
X180050000Y-74379000D02*
X180853000Y-74379000D01*
X177328000Y-74339000D02*
X178090000Y-74339000D01*
X180050000Y-74339000D02*
X180812000Y-74339000D01*
X177371000Y-74299000D02*
X178090000Y-74299000D01*
X180050000Y-74299000D02*
X180769000Y-74299000D01*
X177416000Y-74259000D02*
X178090000Y-74259000D01*
X180050000Y-74259000D02*
X180724000Y-74259000D01*
X177464000Y-74219000D02*
X178090000Y-74219000D01*
X180050000Y-74219000D02*
X180676000Y-74219000D01*
X177514000Y-74179000D02*
X178090000Y-74179000D01*
X180050000Y-74179000D02*
X180626000Y-74179000D01*
X177566000Y-74139000D02*
X178090000Y-74139000D01*
X180050000Y-74139000D02*
X180574000Y-74139000D01*
X177622000Y-74099000D02*
X178090000Y-74099000D01*
X180050000Y-74099000D02*
X180518000Y-74099000D01*
X177680000Y-74059000D02*
X178090000Y-74059000D01*
X180050000Y-74059000D02*
X180460000Y-74059000D01*
X177743000Y-74019000D02*
X178090000Y-74019000D01*
X180050000Y-74019000D02*
X180397000Y-74019000D01*
X177809000Y-73979000D02*
X180331000Y-73979000D01*
X177881000Y-73939000D02*
X180259000Y-73939000D01*
X177958000Y-73899000D02*
X180182000Y-73899000D01*
X178042000Y-73859000D02*
X180098000Y-73859000D01*
X178136000Y-73819000D02*
X180004000Y-73819000D01*
X178241000Y-73779000D02*
X179899000Y-73779000D01*
X178363000Y-73739000D02*
X179777000Y-73739000D01*
X178511000Y-73699000D02*
X179629000Y-73699000D01*
X178716000Y-73659000D02*
X179424000Y-73659000D01*
X179070000Y-79670000D02*
X179070000Y-78470000D01*
X178420000Y-79070000D02*
X179720000Y-79070000D01*
X184600000Y-50800462D02*
G75*
G03X179050000Y-49255170I-2990000J462D01*
G01*
X184600000Y-50799538D02*
G75*
G02X179050000Y-52344830I-2990000J-462D01*
G01*
X184110000Y-50800000D02*
G75*
G03X184110000Y-50800000I-2500000J0D01*
G01*
X179050000Y-49255000D02*
X179050000Y-52345000D01*
D14*
X187960000Y-52620000D02*
X214760000Y-52620000D01*
X214760000Y-46320000D02*
X214760000Y-83820000D01*
X187960000Y-46320000D02*
X214760000Y-46320000D01*
X187960000Y-83820000D02*
X187960000Y-46320000D01*
X187960000Y-83820000D02*
X214760000Y-83820000D01*
X222680000Y-69810000D02*
X230180000Y-69810000D01*
X222680000Y-67310000D02*
X230180000Y-67310000D01*
X222680000Y-64810000D02*
X230180000Y-64810000D01*
X222680000Y-63810000D02*
X222680000Y-70810000D01*
X231080000Y-63810000D02*
X231080000Y-70810000D01*
X217780000Y-70810000D02*
X231080000Y-70810000D01*
X217780000Y-63810000D02*
X231080000Y-63810000D01*
X217780000Y-63810000D02*
X217780000Y-70810000D01*
X222680000Y-78700000D02*
X230180000Y-78700000D01*
X222680000Y-76200000D02*
X230180000Y-76200000D01*
X222680000Y-73700000D02*
X230180000Y-73700000D01*
X222680000Y-72700000D02*
X222680000Y-79700000D01*
X231080000Y-72700000D02*
X231080000Y-79700000D01*
X217780000Y-79700000D02*
X231080000Y-79700000D01*
X217780000Y-72700000D02*
X231080000Y-72700000D01*
X217780000Y-72700000D02*
X217780000Y-79700000D01*
X162130000Y-61230000D02*
X154630000Y-61230000D01*
X162130000Y-63730000D02*
X154630000Y-63730000D01*
X162130000Y-64730000D02*
X162130000Y-60230000D01*
X153730000Y-64730000D02*
X153730000Y-60230000D01*
X167030000Y-60230000D02*
X153730000Y-60230000D01*
X167030000Y-64730000D02*
X153730000Y-64730000D01*
X167030000Y-64730000D02*
X167030000Y-60230000D01*
X162130000Y-50840000D02*
X154630000Y-50840000D01*
X162130000Y-53340000D02*
X154630000Y-53340000D01*
X162130000Y-55840000D02*
X154630000Y-55840000D01*
X162130000Y-56840000D02*
X162130000Y-49840000D01*
X153730000Y-56840000D02*
X153730000Y-49840000D01*
X167030000Y-49840000D02*
X153730000Y-49840000D01*
X167030000Y-56840000D02*
X153730000Y-56840000D01*
X167030000Y-56840000D02*
X167030000Y-49840000D01*
X222680000Y-57110000D02*
X230180000Y-57110000D01*
X222680000Y-54610000D02*
X230180000Y-54610000D01*
X222680000Y-52110000D02*
X230180000Y-52110000D01*
X222680000Y-51110000D02*
X222680000Y-58110000D01*
X231080000Y-51110000D02*
X231080000Y-58110000D01*
X217780000Y-58110000D02*
X231080000Y-58110000D01*
X217780000Y-51110000D02*
X231080000Y-51110000D01*
X217780000Y-51110000D02*
X217780000Y-58110000D01*
D13*
X199990000Y-63790000D02*
X199990000Y-63460000D01*
X199990000Y-63460000D02*
X206410000Y-63460000D01*
X206410000Y-63460000D02*
X206410000Y-63790000D01*
X199990000Y-65750000D02*
X199990000Y-66080000D01*
X199990000Y-66080000D02*
X206410000Y-66080000D01*
X206410000Y-66080000D02*
X206410000Y-65750000D01*
X206410000Y-70830000D02*
X206410000Y-71160000D01*
X206410000Y-71160000D02*
X199990000Y-71160000D01*
X199990000Y-71160000D02*
X199990000Y-70830000D01*
X206410000Y-68870000D02*
X206410000Y-68540000D01*
X206410000Y-68540000D02*
X199990000Y-68540000D01*
X199990000Y-68540000D02*
X199990000Y-68870000D01*
X184440000Y-61630000D02*
X184110000Y-61630000D01*
X184110000Y-61630000D02*
X184110000Y-55210000D01*
X184110000Y-55210000D02*
X184440000Y-55210000D01*
X186400000Y-61630000D02*
X186730000Y-61630000D01*
X186730000Y-61630000D02*
X186730000Y-55210000D01*
X186730000Y-55210000D02*
X186400000Y-55210000D01*
D14*
X185801000Y-82296000D02*
X182372000Y-82296000D01*
X185801000Y-72644000D02*
X182372000Y-72644000D01*
X186944000Y-82804000D02*
X186944000Y-72136000D01*
X185928000Y-79248000D02*
X187198000Y-79248000D01*
X185928000Y-75692000D02*
X187198000Y-75692000D01*
X185801000Y-72136000D02*
X185801000Y-82804000D01*
X182372000Y-82804000D02*
X182372000Y-72136000D01*
X187198000Y-72136000D02*
X182372000Y-72136000D01*
X187198000Y-82804000D02*
X182372000Y-82804000D01*
X187198000Y-82804000D02*
X187198000Y-72136000D01*
D13*
X175530000Y-67370000D02*
G75*
G02X177530000Y-67370000I1000000J0D01*
G01*
X177530000Y-67370000D02*
X179180000Y-67370000D01*
X179180000Y-67370000D02*
X179180000Y-57090000D01*
X179180000Y-57090000D02*
X173880000Y-57090000D01*
X173880000Y-57090000D02*
X173880000Y-67370000D01*
X173880000Y-67370000D02*
X175530000Y-67370000D01*
X181670000Y-67430000D02*
X181670000Y-57030000D01*
X181670000Y-57030000D02*
X171390000Y-57030000D01*
X171390000Y-57030000D02*
X171390000Y-67430000D01*
X171390000Y-67430000D02*
X181670000Y-67430000D01*
D15*
G36*
X164258128Y-66975390D02*
X164276865Y-66983302D01*
X164287315Y-67002674D01*
X164290145Y-67011550D01*
X164295333Y-67041102D01*
X164299478Y-67087957D01*
X164301959Y-67144021D01*
X164302367Y-67170300D01*
X164295214Y-67277661D01*
X164271530Y-67383250D01*
X164229903Y-67490818D01*
X164168922Y-67604114D01*
X164099479Y-67709620D01*
X164071661Y-67744913D01*
X164027855Y-67795235D01*
X163970479Y-67858108D01*
X163901951Y-67931059D01*
X163824691Y-68011610D01*
X163741115Y-68097287D01*
X163653643Y-68185614D01*
X163564693Y-68274115D01*
X163476683Y-68360315D01*
X163392032Y-68441738D01*
X163313157Y-68515909D01*
X163299616Y-68528430D01*
X163252575Y-68572517D01*
X163213117Y-68610857D01*
X163184635Y-68640047D01*
X163170525Y-68656684D01*
X163169600Y-68658786D01*
X163179478Y-68655351D01*
X163206940Y-68639455D01*
X163248720Y-68613152D01*
X163301556Y-68578494D01*
X163360182Y-68538905D01*
X163522109Y-68428191D01*
X163664924Y-68330650D01*
X163790442Y-68245065D01*
X163900483Y-68170218D01*
X163996862Y-68104893D01*
X164081398Y-68047871D01*
X164155908Y-67997936D01*
X164222208Y-67953870D01*
X164282117Y-67914456D01*
X164337451Y-67878476D01*
X164390029Y-67844714D01*
X164441666Y-67811951D01*
X164494181Y-67778970D01*
X164501095Y-67774648D01*
X164652370Y-67683160D01*
X164785284Y-67609198D01*
X164899857Y-67552755D01*
X164996103Y-67513823D01*
X165074040Y-67492395D01*
X165119097Y-67487800D01*
X165154988Y-67489542D01*
X165173510Y-67497457D01*
X165182605Y-67515573D01*
X165183977Y-67520716D01*
X165187009Y-67547995D01*
X165188039Y-67592690D01*
X165186965Y-67646889D01*
X165185897Y-67669941D01*
X165171299Y-67779100D01*
X165138955Y-67888931D01*
X165088201Y-68000182D01*
X165018369Y-68113602D01*
X164928795Y-68229939D01*
X164818812Y-68349942D01*
X164687755Y-68474360D01*
X164534959Y-68603940D01*
X164359756Y-68739433D01*
X164161483Y-68881585D01*
X164026850Y-68973276D01*
X163963139Y-69016775D01*
X163899769Y-69061582D01*
X163839891Y-69105293D01*
X163786656Y-69145504D01*
X163743215Y-69179808D01*
X163712718Y-69205802D01*
X163698317Y-69221081D01*
X163698300Y-69224016D01*
X163714180Y-69220964D01*
X163748312Y-69209632D01*
X163795634Y-69191828D01*
X163849629Y-69169969D01*
X164077843Y-69076264D01*
X164297494Y-68989308D01*
X164507337Y-68909485D01*
X164706125Y-68837176D01*
X164892612Y-68772765D01*
X165065551Y-68716636D01*
X165223697Y-68669170D01*
X165365803Y-68630752D01*
X165490623Y-68601764D01*
X165596911Y-68582588D01*
X165683420Y-68573609D01*
X165748903Y-68575209D01*
X165771100Y-68579461D01*
X165803027Y-68589256D01*
X165818450Y-68601522D01*
X165823307Y-68624635D01*
X165823589Y-68653514D01*
X165810334Y-68768816D01*
X165771775Y-68882113D01*
X165707908Y-68993408D01*
X165618731Y-69102704D01*
X165504242Y-69210003D01*
X165364438Y-69315308D01*
X165199316Y-69418623D01*
X165070702Y-69488708D01*
X164985075Y-69531773D01*
X164897284Y-69573302D01*
X164804236Y-69614541D01*
X164702837Y-69656733D01*
X164589996Y-69701124D01*
X164462619Y-69748957D01*
X164317613Y-69801477D01*
X164151886Y-69859928D01*
X164123457Y-69869838D01*
X164107608Y-69877828D01*
X164112328Y-69882217D01*
X164132981Y-69882538D01*
X164164930Y-69878326D01*
X164179107Y-69875432D01*
X164230434Y-69864840D01*
X164303084Y-69851143D01*
X164393254Y-69834965D01*
X164497144Y-69816931D01*
X164610951Y-69797669D01*
X164730874Y-69777802D01*
X164853110Y-69757957D01*
X164973859Y-69738760D01*
X165089318Y-69720836D01*
X165195685Y-69704811D01*
X165289160Y-69691310D01*
X165341300Y-69684172D01*
X165458014Y-69670613D01*
X165570706Y-69661210D01*
X165675774Y-69656012D01*
X165769615Y-69655069D01*
X165848628Y-69658431D01*
X165909210Y-69666148D01*
X165942798Y-69675843D01*
X165973465Y-69691018D01*
X165986029Y-69706078D01*
X165985970Y-69730345D01*
X165983561Y-69745171D01*
X165962578Y-69814663D01*
X165924302Y-69891563D01*
X165872600Y-69969229D01*
X165811437Y-70040916D01*
X165714343Y-70127379D01*
X165593419Y-70211972D01*
X165450209Y-70293985D01*
X165286256Y-70372708D01*
X165103103Y-70447432D01*
X164902296Y-70517447D01*
X164685376Y-70582043D01*
X164566600Y-70613287D01*
X164395150Y-70656450D01*
X164839650Y-70664560D01*
X164973256Y-70667308D01*
X165083828Y-70670312D01*
X165173729Y-70673695D01*
X165245324Y-70677580D01*
X165300978Y-70682091D01*
X165343055Y-70687353D01*
X165368779Y-70692242D01*
X165424831Y-70707374D01*
X165473949Y-70724572D01*
X165510827Y-70741612D01*
X165530158Y-70756266D01*
X165531800Y-70760623D01*
X165526599Y-70774954D01*
X165512640Y-70806596D01*
X165492384Y-70850072D01*
X165479574Y-70876792D01*
X165408935Y-70994467D01*
X165318303Y-71096732D01*
X165207434Y-71183826D01*
X165098770Y-71245296D01*
X164944645Y-71310888D01*
X164786303Y-71358946D01*
X164616622Y-71391949D01*
X164562045Y-71400605D01*
X164517413Y-71408673D01*
X164488343Y-71415081D01*
X164480239Y-71418026D01*
X164488343Y-71421386D01*
X164516028Y-71423879D01*
X164557479Y-71425004D01*
X164561308Y-71425020D01*
X164691346Y-71436010D01*
X164818045Y-71466957D01*
X164902418Y-71500650D01*
X164958094Y-71532397D01*
X165011944Y-71572081D01*
X165058569Y-71614813D01*
X165092573Y-71655705D01*
X165107877Y-71686716D01*
X165107477Y-71733403D01*
X165087416Y-71788436D01*
X165050573Y-71848447D01*
X164999824Y-71910067D01*
X164938046Y-71969927D01*
X164868116Y-72024658D01*
X164792912Y-72070892D01*
X164769800Y-72082578D01*
X164690396Y-72116076D01*
X164612784Y-72140474D01*
X164542742Y-72154404D01*
X164486049Y-72156498D01*
X164468907Y-72153836D01*
X164446066Y-72150449D01*
X164445199Y-72156366D01*
X164466635Y-72171834D01*
X164510702Y-72197099D01*
X164566149Y-72226432D01*
X164662266Y-72283078D01*
X164733240Y-72340617D01*
X164779320Y-72399278D01*
X164795941Y-72437787D01*
X164803577Y-72473092D01*
X164801786Y-72504212D01*
X164788262Y-72535942D01*
X164760699Y-72573082D01*
X164716790Y-72620429D01*
X164699950Y-72637477D01*
X164611308Y-72711902D01*
X164503521Y-72775822D01*
X164374380Y-72830481D01*
X164331631Y-72845101D01*
X164220784Y-72881229D01*
X164289673Y-72920108D01*
X164346654Y-72958034D01*
X164393396Y-73000250D01*
X164425710Y-73042190D01*
X164439405Y-73079289D01*
X164439600Y-73083505D01*
X164429036Y-73128791D01*
X164399952Y-73181704D01*
X164356260Y-73237954D01*
X164301870Y-73293250D01*
X164240694Y-73343303D01*
X164176642Y-73383822D01*
X164156663Y-73393847D01*
X164040479Y-73435640D01*
X163923298Y-73453326D01*
X163843994Y-73451234D01*
X163762738Y-73443007D01*
X163858340Y-73506949D01*
X163925233Y-73555481D01*
X163969335Y-73597814D01*
X163991598Y-73636779D01*
X163992970Y-73675209D01*
X163974404Y-73715934D01*
X163942030Y-73756241D01*
X163884082Y-73809911D01*
X163806197Y-73868209D01*
X163712765Y-73928458D01*
X163608175Y-73987980D01*
X163496817Y-74044098D01*
X163398200Y-74087922D01*
X163379460Y-74096635D01*
X163377965Y-74103673D01*
X163396103Y-74113506D01*
X163416566Y-74122251D01*
X163483902Y-74158188D01*
X163534684Y-74200986D01*
X163563252Y-74244084D01*
X163572115Y-74296438D01*
X163558112Y-74350830D01*
X163523531Y-74405786D01*
X163470662Y-74459829D01*
X163401793Y-74511485D01*
X163319213Y-74559279D01*
X163225212Y-74601735D01*
X163122079Y-74637380D01*
X163012102Y-74664737D01*
X162897572Y-74682332D01*
X162880567Y-74683999D01*
X162788384Y-74692367D01*
X162850460Y-74758003D01*
X162883826Y-74797700D01*
X162909469Y-74836416D01*
X162921417Y-74864076D01*
X162922221Y-74924185D01*
X162898659Y-74982485D01*
X162851755Y-75037961D01*
X162782531Y-75089602D01*
X162692009Y-75136393D01*
X162617150Y-75165502D01*
X162558228Y-75183698D01*
X162501217Y-75195653D01*
X162436402Y-75202999D01*
X162371940Y-75206671D01*
X162309614Y-75209669D01*
X162268772Y-75212977D01*
X162245500Y-75217363D01*
X162235885Y-75223593D01*
X162236014Y-75232436D01*
X162236317Y-75233251D01*
X162242659Y-75258067D01*
X162249167Y-75296117D01*
X162251286Y-75312196D01*
X162248035Y-75380591D01*
X162221641Y-75440504D01*
X162173138Y-75491242D01*
X162103559Y-75532111D01*
X162013937Y-75562416D01*
X161905308Y-75581465D01*
X161842450Y-75586648D01*
X161764483Y-75588882D01*
X161702109Y-75585422D01*
X161646031Y-75575648D01*
X161634180Y-75572734D01*
X161592390Y-75562695D01*
X161561688Y-75556636D01*
X161548921Y-75555845D01*
X161549810Y-75569229D01*
X161556616Y-75598610D01*
X161561600Y-75616392D01*
X161571428Y-75681380D01*
X161558801Y-75735947D01*
X161523019Y-75781451D01*
X161463382Y-75819251D01*
X161455100Y-75823104D01*
X161395592Y-75841304D01*
X161318562Y-75852182D01*
X161230771Y-75855872D01*
X161138977Y-75852508D01*
X161049941Y-75842223D01*
X160970421Y-75825151D01*
X160932781Y-75812759D01*
X160919057Y-75812659D01*
X160910077Y-75828734D01*
X160903567Y-75861757D01*
X160882370Y-75931366D01*
X160843418Y-75988739D01*
X160794446Y-76026225D01*
X160738014Y-76042872D01*
X160668130Y-76043642D01*
X160589958Y-76029941D01*
X160508662Y-76003173D01*
X160429405Y-75964744D01*
X160357350Y-75916059D01*
X160341732Y-75903030D01*
X160292243Y-75848398D01*
X160241879Y-75771255D01*
X160191652Y-75674422D01*
X160142574Y-75560719D01*
X160095656Y-75432966D01*
X160051911Y-75293983D01*
X160012350Y-75146590D01*
X159977985Y-74993606D01*
X159949828Y-74837852D01*
X159942754Y-74791084D01*
X159932490Y-74722124D01*
X159922550Y-74659274D01*
X159913877Y-74608220D01*
X159907411Y-74574644D01*
X159905837Y-74568050D01*
X159899839Y-74548585D01*
X159896504Y-74548771D01*
X159894798Y-74570856D01*
X159894174Y-74593450D01*
X159890543Y-74661777D01*
X159882745Y-74748354D01*
X159871583Y-74847539D01*
X159857857Y-74953688D01*
X159842371Y-75061158D01*
X159825924Y-75164307D01*
X159809319Y-75257490D01*
X159793358Y-75335066D01*
X159782701Y-75378137D01*
X159768443Y-75472472D01*
X159774933Y-75578089D01*
X159802315Y-75695786D01*
X159850733Y-75826364D01*
X159871711Y-75873189D01*
X159885542Y-75900746D01*
X159910532Y-75948240D01*
X159945463Y-76013433D01*
X159989113Y-76094084D01*
X160040262Y-76187953D01*
X160097689Y-76292801D01*
X160160174Y-76406387D01*
X160226496Y-76526471D01*
X160295435Y-76650814D01*
X160295454Y-76650850D01*
X160372693Y-76790062D01*
X160454695Y-76938172D01*
X160540146Y-77092783D01*
X160627731Y-77251500D01*
X160716133Y-77411927D01*
X160804038Y-77571670D01*
X160890129Y-77728333D01*
X160973093Y-77879520D01*
X161051613Y-78022837D01*
X161124373Y-78155888D01*
X161190059Y-78276278D01*
X161247355Y-78381611D01*
X161294946Y-78469492D01*
X161331128Y-78536800D01*
X161422460Y-78708310D01*
X161508932Y-78871884D01*
X161589800Y-79026059D01*
X161664317Y-79169368D01*
X161731738Y-79300348D01*
X161791316Y-79417533D01*
X161842308Y-79519460D01*
X161883966Y-79604663D01*
X161915546Y-79671679D01*
X161936301Y-79719041D01*
X161944633Y-79741876D01*
X161948303Y-79759450D01*
X161942569Y-79767641D01*
X161921891Y-79768789D01*
X161887781Y-79765914D01*
X161831102Y-79753389D01*
X161761307Y-79726996D01*
X161684356Y-79689636D01*
X161606212Y-79644211D01*
X161532835Y-79593621D01*
X161531300Y-79592457D01*
X161493280Y-79561265D01*
X161457691Y-79526472D01*
X161423230Y-79485821D01*
X161388599Y-79437054D01*
X161352495Y-79377915D01*
X161313620Y-79306146D01*
X161270672Y-79219490D01*
X161222352Y-79115690D01*
X161167358Y-78992488D01*
X161110917Y-78862768D01*
X161075644Y-78781762D01*
X161043028Y-78708280D01*
X161014585Y-78645625D01*
X160991831Y-78597100D01*
X160976281Y-78566006D01*
X160970046Y-78555900D01*
X160961006Y-78551724D01*
X160963859Y-78565315D01*
X160969845Y-78585365D01*
X160980774Y-78624738D01*
X160995210Y-78678174D01*
X161011721Y-78740407D01*
X161015767Y-78755815D01*
X161063261Y-78958718D01*
X161094881Y-79144073D01*
X161110645Y-79311541D01*
X161110575Y-79460779D01*
X161094689Y-79591447D01*
X161063008Y-79703205D01*
X161015551Y-79795710D01*
X160952337Y-79868623D01*
X160951429Y-79869424D01*
X160906233Y-79902589D01*
X160851687Y-79933070D01*
X160796189Y-79956958D01*
X160748137Y-79970344D01*
X160731283Y-79971900D01*
X160711863Y-79960565D01*
X160685616Y-79928963D01*
X160654393Y-79880696D01*
X160620048Y-79819370D01*
X160584434Y-79748586D01*
X160549402Y-79671948D01*
X160516806Y-79593060D01*
X160488498Y-79515525D01*
X160475060Y-79473543D01*
X160460288Y-79427968D01*
X160447154Y-79393582D01*
X160437937Y-79376168D01*
X160436303Y-79375118D01*
X160434133Y-79387222D01*
X160432749Y-79421368D01*
X160432163Y-79474213D01*
X160432387Y-79542411D01*
X160433433Y-79622618D01*
X160435090Y-79702365D01*
X160437393Y-79804519D01*
X160438679Y-79884813D01*
X160438823Y-79946771D01*
X160437697Y-79993917D01*
X160435177Y-80029775D01*
X160431135Y-80057870D01*
X160425445Y-80081725D01*
X160420991Y-80096065D01*
X160405079Y-80138451D01*
X160391698Y-80158438D01*
X160378167Y-80158486D01*
X160365991Y-80146525D01*
X160344137Y-80110857D01*
X160316107Y-80050789D01*
X160281977Y-79966539D01*
X160241822Y-79858325D01*
X160195716Y-79726365D01*
X160143735Y-79570879D01*
X160085953Y-79392084D01*
X160022445Y-79190199D01*
X159953285Y-78965443D01*
X159892762Y-78765400D01*
X159803447Y-78470469D01*
X159720074Y-78199933D01*
X159642543Y-77953513D01*
X159570757Y-77730932D01*
X159504616Y-77531913D01*
X159444022Y-77356178D01*
X159388875Y-77203449D01*
X159339079Y-77073450D01*
X159294533Y-76965903D01*
X159255138Y-76880530D01*
X159220798Y-76817054D01*
X159191412Y-76775198D01*
X159181032Y-76764455D01*
X159168549Y-76756187D01*
X159149496Y-76750103D01*
X159119994Y-76745799D01*
X159076163Y-76742870D01*
X159014121Y-76740910D01*
X158943935Y-76739700D01*
X158806376Y-76733918D01*
X158679746Y-76719568D01*
X158558136Y-76695146D01*
X158435636Y-76659149D01*
X158306336Y-76610074D01*
X158164329Y-76546420D01*
X158142220Y-76535837D01*
X157905090Y-76410158D01*
X157679345Y-76266677D01*
X157460650Y-76102490D01*
X157327600Y-75989818D01*
X157151262Y-75823168D01*
X156992177Y-75650491D01*
X156852268Y-75474229D01*
X156733461Y-75296819D01*
X156637680Y-75120700D01*
X156631399Y-75107443D01*
X156588182Y-75011860D01*
X156556282Y-74931240D01*
X156534155Y-74858644D01*
X156520256Y-74787131D01*
X156513041Y-74709762D01*
X156510965Y-74619597D01*
X156511365Y-74568050D01*
X156508092Y-74392330D01*
X159996616Y-74392330D01*
X160004649Y-74412251D01*
X160022825Y-74427629D01*
X160039737Y-74435787D01*
X160065994Y-74441467D01*
X160105656Y-74445046D01*
X160162785Y-74446898D01*
X160236830Y-74447400D01*
X160306367Y-74446478D01*
X160369821Y-74443948D01*
X160421407Y-74440160D01*
X160455341Y-74435467D01*
X160461811Y-74433734D01*
X160480011Y-74423360D01*
X160504858Y-74401884D01*
X160537720Y-74367735D01*
X160579966Y-74319344D01*
X160632966Y-74255141D01*
X160641074Y-74244982D01*
X160759937Y-74244982D01*
X160768987Y-74262873D01*
X160778958Y-74270112D01*
X160797400Y-74275364D01*
X160827846Y-74278917D01*
X160873831Y-74281062D01*
X160938888Y-74282089D01*
X161005991Y-74282300D01*
X161226873Y-74282300D01*
X161251144Y-74259527D01*
X161407041Y-74259527D01*
X161426525Y-74281282D01*
X161448503Y-74286563D01*
X161490189Y-74290471D01*
X161545927Y-74293000D01*
X161610063Y-74294142D01*
X161676942Y-74293890D01*
X161740906Y-74292235D01*
X161796303Y-74289170D01*
X161837475Y-74284687D01*
X161851158Y-74281857D01*
X161884471Y-74266203D01*
X161913021Y-74244904D01*
X162077400Y-74244904D01*
X162089240Y-74265776D01*
X162121678Y-74282007D01*
X162170089Y-74291956D01*
X162216750Y-74294297D01*
X162262675Y-74292932D01*
X162291376Y-74287913D01*
X162311015Y-74276398D01*
X162329756Y-74255548D01*
X162330396Y-74254742D01*
X162349163Y-74228942D01*
X162352448Y-74214802D01*
X162341623Y-74204983D01*
X162339894Y-74203999D01*
X162328407Y-74194460D01*
X162330125Y-74181034D01*
X162346689Y-74157052D01*
X162353598Y-74148304D01*
X162389880Y-74114189D01*
X162420300Y-74104500D01*
X162455041Y-74091932D01*
X162487516Y-74060049D01*
X162508332Y-74032813D01*
X162513929Y-74019812D01*
X162505423Y-74015835D01*
X162497041Y-74015600D01*
X162477026Y-74013176D01*
X162473654Y-74003168D01*
X162487374Y-73981465D01*
X162502850Y-73962483D01*
X162523324Y-73935369D01*
X162534109Y-73915661D01*
X162534600Y-73913025D01*
X162522909Y-73907560D01*
X162491861Y-73903453D01*
X162447489Y-73901407D01*
X162433850Y-73901300D01*
X162333100Y-73901300D01*
X162286270Y-73958450D01*
X162247441Y-73998383D01*
X162215660Y-74015103D01*
X162210140Y-74015600D01*
X162180156Y-74026651D01*
X162148696Y-74056474D01*
X162148381Y-74056875D01*
X162128815Y-74083066D01*
X162124432Y-74095750D01*
X162134209Y-74100978D01*
X162140746Y-74102160D01*
X162153112Y-74106204D01*
X162154620Y-74116071D01*
X162143856Y-74136763D01*
X162121485Y-74170260D01*
X162098184Y-74205739D01*
X162082206Y-74233140D01*
X162077400Y-74244904D01*
X161913021Y-74244904D01*
X161918931Y-74240495D01*
X161947286Y-74211351D01*
X161962282Y-74185389D01*
X161963100Y-74179725D01*
X161951665Y-74172591D01*
X161921942Y-74168693D01*
X161880804Y-74167793D01*
X161835125Y-74169650D01*
X161791778Y-74174024D01*
X161757635Y-74180676D01*
X161741597Y-74187453D01*
X161713947Y-74200702D01*
X161682752Y-74205707D01*
X161656987Y-74202283D01*
X161645628Y-74190245D01*
X161645600Y-74189426D01*
X161654135Y-74170449D01*
X161675253Y-74144578D01*
X161681219Y-74138626D01*
X161711777Y-74117526D01*
X161745657Y-74105644D01*
X161775709Y-74103904D01*
X161794780Y-74113227D01*
X161798000Y-74123550D01*
X161809388Y-74134471D01*
X161838976Y-74141340D01*
X161879901Y-74144219D01*
X161925297Y-74143169D01*
X161968302Y-74138253D01*
X162002049Y-74129532D01*
X162016074Y-74121581D01*
X162033314Y-74094709D01*
X162038749Y-74062458D01*
X162032060Y-74034840D01*
X162019211Y-74023308D01*
X161994683Y-74019108D01*
X161950840Y-74016426D01*
X161893247Y-74015160D01*
X161827469Y-74015205D01*
X161759071Y-74016459D01*
X161693620Y-74018817D01*
X161636681Y-74022176D01*
X161593818Y-74026433D01*
X161570598Y-74031484D01*
X161570233Y-74031662D01*
X161547484Y-74048639D01*
X161515116Y-74079458D01*
X161479348Y-74118105D01*
X161471808Y-74126863D01*
X161429106Y-74183197D01*
X161407618Y-74227072D01*
X161407041Y-74259527D01*
X161251144Y-74259527D01*
X161274311Y-74237791D01*
X161321750Y-74193283D01*
X161165459Y-74194743D01*
X161104925Y-74194707D01*
X161053993Y-74193542D01*
X161017836Y-74191447D01*
X161001624Y-74188620D01*
X161001418Y-74188451D01*
X161009918Y-74185156D01*
X161038955Y-74182285D01*
X161083663Y-74180195D01*
X161125958Y-74179339D01*
X161201613Y-74178501D01*
X161256222Y-74177198D01*
X161294134Y-74174541D01*
X161319699Y-74169643D01*
X161337267Y-74161616D01*
X161351187Y-74149570D01*
X161365810Y-74132618D01*
X161368080Y-74129900D01*
X161395196Y-74087549D01*
X161401611Y-74053700D01*
X161397950Y-74021950D01*
X161182278Y-74018454D01*
X161086452Y-74017899D01*
X161011692Y-74019626D01*
X160959436Y-74023570D01*
X160931889Y-74029339D01*
X160906378Y-74046772D01*
X160872194Y-74078874D01*
X160834979Y-74119332D01*
X160800370Y-74161832D01*
X160774007Y-74200060D01*
X160765842Y-74215248D01*
X160759937Y-74244982D01*
X160641074Y-74244982D01*
X160698087Y-74173557D01*
X160776699Y-74073022D01*
X160779375Y-74069575D01*
X160821263Y-74015600D01*
X160606717Y-74015600D01*
X160484769Y-74167131D01*
X160431607Y-74233052D01*
X160391653Y-74281775D01*
X160362207Y-74315898D01*
X160340564Y-74338023D01*
X160324022Y-74350749D01*
X160309878Y-74356674D01*
X160295429Y-74358399D01*
X160285792Y-74358500D01*
X160256654Y-74352801D01*
X160250281Y-74336031D01*
X160266824Y-74308682D01*
X160269618Y-74305525D01*
X160278385Y-74294347D01*
X160277257Y-74287486D01*
X160262254Y-74283893D01*
X160229393Y-74282514D01*
X160181642Y-74282300D01*
X160072649Y-74282300D01*
X160033624Y-74329643D01*
X160006064Y-74366700D01*
X159996616Y-74392330D01*
X156508092Y-74392330D01*
X156507527Y-74362048D01*
X156499957Y-74282331D01*
X158256816Y-74282331D01*
X158266431Y-74288863D01*
X158298028Y-74293226D01*
X158348253Y-74294984D01*
X158354229Y-74295000D01*
X158455875Y-74295000D01*
X158471546Y-74275936D01*
X158906997Y-74275936D01*
X158907086Y-74285551D01*
X158919311Y-74291345D01*
X158948009Y-74294201D01*
X158997515Y-74294998D01*
X159000827Y-74295000D01*
X159101972Y-74295000D01*
X159148379Y-74238457D01*
X159478324Y-74238457D01*
X159481122Y-74255001D01*
X159499130Y-74272016D01*
X159513814Y-74281318D01*
X159533944Y-74287760D01*
X159564012Y-74291836D01*
X159608508Y-74294042D01*
X159671923Y-74294872D01*
X159707081Y-74294929D01*
X159776365Y-74293997D01*
X159840392Y-74291496D01*
X159892951Y-74287779D01*
X159927831Y-74283203D01*
X159932923Y-74282005D01*
X159977506Y-74259124D01*
X160026255Y-74213451D01*
X160035616Y-74202701D01*
X160079632Y-74149599D01*
X160108307Y-74111075D01*
X160123721Y-74083223D01*
X160127952Y-74062135D01*
X160123080Y-74043903D01*
X160121631Y-74041059D01*
X160115544Y-74031472D01*
X160106644Y-74024550D01*
X160091259Y-74019945D01*
X160065717Y-74017310D01*
X160026344Y-74016297D01*
X159969469Y-74016559D01*
X159891417Y-74017748D01*
X159877782Y-74017983D01*
X159648406Y-74021950D01*
X159579009Y-74098150D01*
X159543238Y-74139412D01*
X159512284Y-74178644D01*
X159492048Y-74208301D01*
X159490180Y-74211691D01*
X159478324Y-74238457D01*
X159148379Y-74238457D01*
X159258324Y-74104500D01*
X159470885Y-74104500D01*
X159504788Y-74060050D01*
X159538692Y-74015600D01*
X159108372Y-74015600D01*
X159011342Y-74136236D01*
X158973088Y-74184584D01*
X158940663Y-74227039D01*
X158917491Y-74259019D01*
X158906997Y-74275936D01*
X158471546Y-74275936D01*
X158517212Y-74220386D01*
X158578550Y-74145772D01*
X158730950Y-74140797D01*
X158804335Y-74137569D01*
X158858035Y-74131853D01*
X158897764Y-74121259D01*
X158929235Y-74103400D01*
X158958164Y-74075888D01*
X158990265Y-74036335D01*
X158994660Y-74030589D01*
X159023491Y-73990720D01*
X159029520Y-73979726D01*
X160642300Y-73979726D01*
X160653985Y-73984608D01*
X160685076Y-73987506D01*
X160729623Y-73987969D01*
X160745499Y-73987538D01*
X160797038Y-73985173D01*
X160830013Y-73981070D01*
X160851251Y-73972956D01*
X160867582Y-73958555D01*
X160880477Y-73942575D01*
X160912255Y-73901300D01*
X160803599Y-73901300D01*
X160750251Y-73901827D01*
X160715959Y-73904456D01*
X160694382Y-73910760D01*
X160679182Y-73922309D01*
X160668621Y-73934762D01*
X160650572Y-73960857D01*
X160642348Y-73978962D01*
X160642300Y-73979726D01*
X159029520Y-73979726D01*
X159040357Y-73959966D01*
X159043344Y-73937163D01*
X159030537Y-73921150D01*
X159000020Y-73910765D01*
X158949878Y-73904844D01*
X158878197Y-73902227D01*
X158783062Y-73901750D01*
X158782385Y-73901751D01*
X158553150Y-73902203D01*
X158407100Y-74085932D01*
X158360540Y-74144885D01*
X158319650Y-74197384D01*
X158287007Y-74240060D01*
X158265190Y-74269543D01*
X158256816Y-74282331D01*
X156499957Y-74282331D01*
X156489117Y-74168198D01*
X156455060Y-73977131D01*
X156432463Y-73882192D01*
X156395115Y-73754918D01*
X157086300Y-73754918D01*
X157098362Y-73756957D01*
X157131997Y-73758736D01*
X157183381Y-73760156D01*
X157248687Y-73761114D01*
X157324088Y-73761511D01*
X157337125Y-73761516D01*
X157424746Y-73761253D01*
X157490731Y-73760326D01*
X157538845Y-73758428D01*
X157572847Y-73755255D01*
X157596502Y-73750498D01*
X157602538Y-73748148D01*
X157736367Y-73748148D01*
X157745918Y-73755485D01*
X157779675Y-73759991D01*
X157836588Y-73761527D01*
X157837716Y-73761527D01*
X157943550Y-73761454D01*
X157949137Y-73754413D01*
X158051500Y-73754413D01*
X158063210Y-73757640D01*
X158094398Y-73759966D01*
X158139145Y-73761018D01*
X158156275Y-73761020D01*
X158261050Y-73760440D01*
X158296117Y-73713887D01*
X158628937Y-73713887D01*
X158634487Y-73733912D01*
X158635142Y-73735157D01*
X158641305Y-73744496D01*
X158650744Y-73751332D01*
X158667097Y-73756056D01*
X158693997Y-73759055D01*
X158735082Y-73760719D01*
X158793988Y-73761437D01*
X158874350Y-73761599D01*
X158882238Y-73761600D01*
X159115182Y-73761600D01*
X159127906Y-73745725D01*
X159227793Y-73745725D01*
X159228956Y-73753755D01*
X159246230Y-73758704D01*
X159282976Y-73761120D01*
X159325227Y-73761600D01*
X159432053Y-73761600D01*
X159493127Y-73682225D01*
X159532498Y-73632346D01*
X159561418Y-73599808D01*
X159583942Y-73581104D01*
X159604128Y-73572726D01*
X159621627Y-73571100D01*
X159647045Y-73575042D01*
X159655745Y-73588421D01*
X159647277Y-73613562D01*
X159621191Y-73652792D01*
X159600706Y-73679293D01*
X159535212Y-73761600D01*
X159647431Y-73761035D01*
X159759650Y-73760471D01*
X159832836Y-73665785D01*
X159869759Y-73619708D01*
X159896770Y-73591039D01*
X159918108Y-73576097D01*
X159938014Y-73571199D01*
X159941844Y-73571100D01*
X159970514Y-73573529D01*
X159985236Y-73578669D01*
X159982289Y-73591953D01*
X159967075Y-73619024D01*
X159946077Y-73649575D01*
X159908633Y-73699782D01*
X159885802Y-73732379D01*
X159878451Y-73751115D01*
X159887450Y-73759739D01*
X159913667Y-73762003D01*
X159957971Y-73761655D01*
X159972028Y-73761600D01*
X160079555Y-73761600D01*
X160115745Y-73715946D01*
X160229065Y-73715946D01*
X160235342Y-73735157D01*
X160241510Y-73744503D01*
X160250959Y-73751342D01*
X160267327Y-73756065D01*
X160294255Y-73759063D01*
X160335380Y-73760724D01*
X160394343Y-73761439D01*
X160474783Y-73761599D01*
X160482051Y-73761600D01*
X160714608Y-73761600D01*
X160723523Y-73750323D01*
X160833097Y-73750323D01*
X160844019Y-73758717D01*
X160869353Y-73761526D01*
X160908874Y-73761652D01*
X160925729Y-73761600D01*
X161032253Y-73761600D01*
X161093327Y-73682225D01*
X161124986Y-73642232D01*
X161152925Y-73608973D01*
X161171853Y-73588705D01*
X161173827Y-73586975D01*
X161197461Y-73575964D01*
X161227012Y-73571543D01*
X161252649Y-73573978D01*
X161264536Y-73583535D01*
X161264600Y-73584512D01*
X161257075Y-73600108D01*
X161237116Y-73629465D01*
X161208646Y-73666913D01*
X161200891Y-73676587D01*
X161137183Y-73755250D01*
X161234694Y-73758996D01*
X161283504Y-73760047D01*
X161323206Y-73759395D01*
X161346287Y-73757192D01*
X161347964Y-73756694D01*
X161363204Y-73744008D01*
X161388677Y-73716338D01*
X161419838Y-73679357D01*
X161452141Y-73638739D01*
X161481040Y-73600157D01*
X161501988Y-73569285D01*
X161509625Y-73554936D01*
X161507280Y-73527050D01*
X161492935Y-73507335D01*
X161482123Y-73498201D01*
X161468176Y-73491688D01*
X161447132Y-73487440D01*
X161415030Y-73485098D01*
X161367909Y-73484307D01*
X161301808Y-73484708D01*
X161249669Y-73485398D01*
X161031491Y-73488550D01*
X160938008Y-73602850D01*
X160889041Y-73662607D01*
X160855383Y-73705170D01*
X160836810Y-73733441D01*
X160833097Y-73750323D01*
X160723523Y-73750323D01*
X160814954Y-73634674D01*
X160853228Y-73585739D01*
X160885435Y-73543570D01*
X160908427Y-73512364D01*
X160919052Y-73496316D01*
X160919335Y-73495642D01*
X160908992Y-73491353D01*
X160877845Y-73487993D01*
X160830474Y-73485563D01*
X160771457Y-73484062D01*
X160705375Y-73483488D01*
X160636807Y-73483842D01*
X160570332Y-73485123D01*
X160510529Y-73487330D01*
X160461977Y-73490463D01*
X160429256Y-73494521D01*
X160423966Y-73495712D01*
X160383430Y-73515166D01*
X160338877Y-73553892D01*
X160288496Y-73613652D01*
X160254696Y-73660365D01*
X160234472Y-73693304D01*
X160229065Y-73715946D01*
X160115745Y-73715946D01*
X160157578Y-73663175D01*
X160201166Y-73604303D01*
X160226414Y-73559884D01*
X160234074Y-73527613D01*
X160224892Y-73505186D01*
X160212010Y-73495708D01*
X160192127Y-73491948D01*
X160148995Y-73488785D01*
X160084760Y-73486286D01*
X160001567Y-73484518D01*
X159901562Y-73483546D01*
X159812721Y-73483383D01*
X159437320Y-73483844D01*
X159337253Y-73606847D01*
X159298143Y-73655253D01*
X159264599Y-73697394D01*
X159240072Y-73728889D01*
X159228017Y-73745356D01*
X159227793Y-73745725D01*
X159127906Y-73745725D01*
X159214436Y-73637775D01*
X159276193Y-73560569D01*
X159323623Y-73500877D01*
X159358430Y-73456512D01*
X159382320Y-73425287D01*
X159396996Y-73405015D01*
X159402522Y-73396475D01*
X159401352Y-73388418D01*
X159384030Y-73383465D01*
X159347189Y-73381062D01*
X159305917Y-73380600D01*
X159199935Y-73380600D01*
X159158926Y-73433957D01*
X159117918Y-73487314D01*
X159005997Y-73483771D01*
X158927881Y-73482767D01*
X158869443Y-73486400D01*
X158825163Y-73496105D01*
X158789519Y-73513318D01*
X158756994Y-73539476D01*
X158744565Y-73551790D01*
X158707643Y-73592592D01*
X158671755Y-73636665D01*
X158656920Y-73656861D01*
X158635668Y-73690888D01*
X158628937Y-73713887D01*
X158296117Y-73713887D01*
X158323698Y-73677272D01*
X158356855Y-73636667D01*
X158388448Y-73603771D01*
X158412684Y-73584488D01*
X158416599Y-73582602D01*
X158444718Y-73576677D01*
X158488369Y-73572524D01*
X158534004Y-73571100D01*
X158581503Y-73570151D01*
X158611159Y-73565825D01*
X158630504Y-73555899D01*
X158647070Y-73538154D01*
X158647478Y-73537637D01*
X158665488Y-73511973D01*
X158673743Y-73494748D01*
X158673800Y-73494013D01*
X158661800Y-73490607D01*
X158628601Y-73487657D01*
X158578402Y-73485373D01*
X158515403Y-73483964D01*
X158465635Y-73483611D01*
X158257471Y-73483371D01*
X158154485Y-73615299D01*
X158116282Y-73664754D01*
X158084493Y-73706888D01*
X158062033Y-73737763D01*
X158051817Y-73753441D01*
X158051500Y-73754413D01*
X157949137Y-73754413D01*
X158048325Y-73629414D01*
X158087069Y-73580046D01*
X158119342Y-73537894D01*
X158142208Y-73506870D01*
X158152732Y-73490886D01*
X158153100Y-73489787D01*
X158141388Y-73486325D01*
X158110198Y-73483725D01*
X158065449Y-73482406D01*
X158048325Y-73482324D01*
X157943550Y-73482448D01*
X157842200Y-73608572D01*
X157803480Y-73657347D01*
X157770848Y-73699566D01*
X157747506Y-73731006D01*
X157736658Y-73747442D01*
X157736367Y-73748148D01*
X157602538Y-73748148D01*
X157613571Y-73743853D01*
X157623134Y-73738232D01*
X157656968Y-73710052D01*
X157687348Y-73674894D01*
X157709230Y-73639815D01*
X157717568Y-73611870D01*
X157716984Y-73606970D01*
X157723424Y-73585518D01*
X157747400Y-73570809D01*
X157772765Y-73553908D01*
X157803834Y-73524718D01*
X157834772Y-73489952D01*
X157859744Y-73456320D01*
X157860546Y-73454749D01*
X157977094Y-73454749D01*
X157994603Y-73463575D01*
X158032930Y-73466734D01*
X158086919Y-73465798D01*
X158135947Y-73463123D01*
X158167015Y-73457970D01*
X158187564Y-73447843D01*
X158205033Y-73430245D01*
X158209590Y-73424638D01*
X158239693Y-73386950D01*
X158132714Y-73383277D01*
X158080123Y-73381922D01*
X158046334Y-73383274D01*
X158024780Y-73388848D01*
X158008890Y-73400159D01*
X157995307Y-73414982D01*
X157978097Y-73438978D01*
X157977094Y-73454749D01*
X157860546Y-73454749D01*
X157872919Y-73430535D01*
X157873700Y-73425505D01*
X157871116Y-73410290D01*
X157861288Y-73398899D01*
X157841104Y-73390799D01*
X157807451Y-73385454D01*
X157757214Y-73382331D01*
X157687281Y-73380894D01*
X157612155Y-73380600D01*
X157381090Y-73380600D01*
X157233695Y-73564418D01*
X157187168Y-73622785D01*
X157146677Y-73674236D01*
X157114710Y-73715555D01*
X157093756Y-73743526D01*
X157086300Y-73754918D01*
X156395115Y-73754918D01*
X156374274Y-73683900D01*
X156305130Y-73498768D01*
X156226383Y-73329699D01*
X156139385Y-73179594D01*
X156045490Y-73051353D01*
X156044694Y-73050400D01*
X155992271Y-73001668D01*
X155939250Y-72966889D01*
X158223323Y-72966889D01*
X158228254Y-73022543D01*
X158254772Y-73069632D01*
X158301235Y-73104129D01*
X158326065Y-73113820D01*
X158346065Y-73116091D01*
X158388726Y-73118080D01*
X158451310Y-73119751D01*
X158531081Y-73121066D01*
X158625299Y-73121988D01*
X158731229Y-73122481D01*
X158846131Y-73122506D01*
X158940500Y-73122176D01*
X159078700Y-73121391D01*
X159193936Y-73120508D01*
X159288645Y-73119430D01*
X159365264Y-73118060D01*
X159426227Y-73116299D01*
X159473973Y-73114050D01*
X159510937Y-73111215D01*
X159539555Y-73107696D01*
X159562264Y-73103394D01*
X159581500Y-73098214D01*
X159587843Y-73096181D01*
X159638936Y-73075569D01*
X159690102Y-73049277D01*
X159711091Y-73036157D01*
X159748200Y-73005178D01*
X159794487Y-72958416D01*
X159831194Y-72917050D01*
X160119652Y-72917050D01*
X160883096Y-72929750D01*
X160813773Y-73018650D01*
X160782805Y-73059355D01*
X160758906Y-73092658D01*
X160745682Y-73113447D01*
X160744174Y-73117289D01*
X160756238Y-73119789D01*
X160790349Y-73121792D01*
X160843162Y-73123233D01*
X160911328Y-73124047D01*
X160991498Y-73124169D01*
X161070615Y-73123639D01*
X161397331Y-73120250D01*
X161458214Y-73042494D01*
X162073430Y-73042494D01*
X162077386Y-73056714D01*
X162092815Y-73082578D01*
X162118779Y-73101511D01*
X162158590Y-73114407D01*
X162215560Y-73122163D01*
X162292998Y-73125673D01*
X162334112Y-73126102D01*
X162495574Y-73126600D01*
X162510205Y-73109018D01*
X162741829Y-73109018D01*
X162743161Y-73115657D01*
X162755128Y-73120445D01*
X162780872Y-73123657D01*
X162823537Y-73125566D01*
X162886265Y-73126448D01*
X162943433Y-73126600D01*
X163151784Y-73126600D01*
X163234317Y-73021825D01*
X163277696Y-72966631D01*
X163323545Y-72908093D01*
X163364382Y-72855771D01*
X163378672Y-72837390D01*
X163411421Y-72798616D01*
X163441989Y-72768291D01*
X163464646Y-72751985D01*
X163467650Y-72750915D01*
X163499988Y-72746862D01*
X163540980Y-72746916D01*
X163582514Y-72750346D01*
X163616480Y-72756416D01*
X163634766Y-72764395D01*
X163635815Y-72766117D01*
X163629891Y-72780390D01*
X163610518Y-72810732D01*
X163580249Y-72853489D01*
X163541640Y-72905005D01*
X163512989Y-72941830D01*
X163469999Y-72996987D01*
X163433196Y-73045509D01*
X163405237Y-73083790D01*
X163388775Y-73108223D01*
X163385500Y-73114987D01*
X163397548Y-73118992D01*
X163431092Y-73122348D01*
X163482231Y-73124838D01*
X163547066Y-73126245D01*
X163591875Y-73126478D01*
X163798250Y-73126357D01*
X163960175Y-72921283D01*
X164020446Y-72843966D01*
X164065578Y-72783051D01*
X164096926Y-72735625D01*
X164115843Y-72698772D01*
X164123684Y-72669577D01*
X164121802Y-72645127D01*
X164111552Y-72622507D01*
X164104100Y-72611502D01*
X164096018Y-72602945D01*
X164083610Y-72596444D01*
X164063339Y-72591587D01*
X164031667Y-72587964D01*
X163985059Y-72585164D01*
X163919977Y-72582777D01*
X163837099Y-72580500D01*
X163588097Y-72574150D01*
X163670948Y-72469414D01*
X163705069Y-72425711D01*
X163732364Y-72389664D01*
X163749540Y-72365692D01*
X163753800Y-72358289D01*
X163741800Y-72356154D01*
X163708605Y-72354322D01*
X163658417Y-72352922D01*
X163595439Y-72352083D01*
X163545997Y-72351900D01*
X163338195Y-72351900D01*
X163043385Y-72721668D01*
X162976378Y-72805951D01*
X162914353Y-72884423D01*
X162859111Y-72954774D01*
X162812450Y-73014692D01*
X162776170Y-73061866D01*
X162752071Y-73093984D01*
X162741952Y-73108735D01*
X162741829Y-73109018D01*
X162510205Y-73109018D01*
X162559537Y-73049740D01*
X162598415Y-73000709D01*
X162619318Y-72968482D01*
X162622645Y-72952329D01*
X162613975Y-72950303D01*
X162594843Y-72950906D01*
X162574943Y-72950303D01*
X162556139Y-72946005D01*
X162550537Y-72933787D01*
X162559118Y-72910827D01*
X162582859Y-72874304D01*
X162617150Y-72828601D01*
X162649042Y-72788163D01*
X162671813Y-72763777D01*
X162691779Y-72751324D01*
X162715257Y-72746684D01*
X162744150Y-72745791D01*
X162775870Y-72744607D01*
X162798832Y-72739269D01*
X162819334Y-72725764D01*
X162843672Y-72700079D01*
X162874433Y-72662776D01*
X162941216Y-72580500D01*
X162883958Y-72580500D01*
X162849827Y-72578888D01*
X162829340Y-72574812D01*
X162826700Y-72572379D01*
X162834115Y-72559493D01*
X162853975Y-72531795D01*
X162882701Y-72494181D01*
X162898657Y-72473954D01*
X162932052Y-72431978D01*
X162960211Y-72396460D01*
X162978780Y-72372900D01*
X162982762Y-72367775D01*
X162982384Y-72361796D01*
X162968908Y-72357462D01*
X162939591Y-72354558D01*
X162891692Y-72352874D01*
X162822468Y-72352198D01*
X162780630Y-72352170D01*
X162566350Y-72352440D01*
X162477183Y-72463295D01*
X162438124Y-72511414D01*
X162410218Y-72543256D01*
X162388752Y-72562381D01*
X162369015Y-72572348D01*
X162346296Y-72576716D01*
X162324783Y-72578439D01*
X162291161Y-72581971D01*
X162266666Y-72590092D01*
X162244113Y-72607345D01*
X162216319Y-72638276D01*
X162201225Y-72656598D01*
X162172226Y-72693045D01*
X162150853Y-72721695D01*
X162141111Y-72737140D01*
X162140900Y-72738033D01*
X162152177Y-72742773D01*
X162180346Y-72745408D01*
X162191700Y-72745600D01*
X162223525Y-72747160D01*
X162241212Y-72751057D01*
X162242500Y-72752627D01*
X162235094Y-72765032D01*
X162215285Y-72792270D01*
X162186681Y-72829457D01*
X162171884Y-72848159D01*
X162122351Y-72913982D01*
X162090398Y-72966178D01*
X162074574Y-73007949D01*
X162073430Y-73042494D01*
X161458214Y-73042494D01*
X161473840Y-73022539D01*
X161550350Y-72924829D01*
X161659809Y-72924114D01*
X161769269Y-72923400D01*
X161987107Y-72650350D01*
X161884762Y-72644000D01*
X161782416Y-72637650D01*
X162044208Y-72310840D01*
X162106962Y-72232309D01*
X162164318Y-72160163D01*
X162214419Y-72096769D01*
X162255404Y-72044495D01*
X162285415Y-72005706D01*
X162302594Y-71982772D01*
X162306000Y-71977465D01*
X162293816Y-71975823D01*
X162259331Y-71974332D01*
X162205644Y-71973043D01*
X162135852Y-71972011D01*
X162053054Y-71971289D01*
X161960349Y-71970930D01*
X161923586Y-71970900D01*
X161541173Y-71970900D01*
X160405669Y-72544842D01*
X160262660Y-72730946D01*
X160119652Y-72917050D01*
X159831194Y-72917050D01*
X159845165Y-72901307D01*
X159895448Y-72839284D01*
X159940549Y-72777783D01*
X159946975Y-72768339D01*
X159971706Y-72717794D01*
X159981947Y-72665731D01*
X159976516Y-72620538D01*
X159969789Y-72606418D01*
X159967825Y-72594070D01*
X159982066Y-72582817D01*
X160016471Y-72569869D01*
X160025868Y-72566909D01*
X160072618Y-72549481D01*
X160115815Y-72528570D01*
X160132959Y-72517954D01*
X160158386Y-72495234D01*
X160194619Y-72456924D01*
X160237756Y-72407805D01*
X160283898Y-72352654D01*
X160329144Y-72296251D01*
X160369593Y-72243374D01*
X160401345Y-72198802D01*
X160420499Y-72167315D01*
X160422274Y-72163485D01*
X160432109Y-72110354D01*
X160418003Y-72057738D01*
X160381177Y-72009638D01*
X160373241Y-72002614D01*
X160334479Y-71969997D01*
X159710514Y-71973623D01*
X159086550Y-71977250D01*
X159010350Y-72012893D01*
X158963884Y-72037322D01*
X158921525Y-72064122D01*
X158897865Y-72082743D01*
X158874989Y-72106328D01*
X158844187Y-72140724D01*
X158809484Y-72181091D01*
X158774902Y-72222589D01*
X158744464Y-72260380D01*
X158722193Y-72289623D01*
X158712112Y-72305480D01*
X158711900Y-72306451D01*
X158724029Y-72308471D01*
X158758138Y-72310279D01*
X158810806Y-72311794D01*
X158878611Y-72312937D01*
X158958135Y-72313627D01*
X159025698Y-72313800D01*
X159339496Y-72313800D01*
X159400485Y-72249857D01*
X159461473Y-72185914D01*
X159591511Y-72189532D01*
X159649984Y-72191369D01*
X159687782Y-72193819D01*
X159709620Y-72198167D01*
X159720215Y-72205696D01*
X159724282Y-72217688D01*
X159725364Y-72225964D01*
X159722924Y-72247954D01*
X159708631Y-72274237D01*
X159679493Y-72309482D01*
X159655514Y-72334937D01*
X159620238Y-72369403D01*
X159587058Y-72395507D01*
X159551674Y-72414413D01*
X159509786Y-72427289D01*
X159457093Y-72435299D01*
X159389293Y-72439610D01*
X159302088Y-72441388D01*
X159261901Y-72441646D01*
X159061150Y-72442493D01*
X158988125Y-72536766D01*
X158956310Y-72579096D01*
X158931510Y-72614489D01*
X158917219Y-72637835D01*
X158915100Y-72643562D01*
X158927361Y-72648455D01*
X158962396Y-72652758D01*
X159017582Y-72656274D01*
X159090295Y-72658806D01*
X159127825Y-72659567D01*
X159205767Y-72660939D01*
X159261964Y-72662473D01*
X159300070Y-72664720D01*
X159323737Y-72668228D01*
X159336617Y-72673548D01*
X159342364Y-72681229D01*
X159344629Y-72691821D01*
X159344683Y-72692200D01*
X159337815Y-72723353D01*
X159310082Y-72767922D01*
X159293883Y-72788641D01*
X159252192Y-72838146D01*
X159218556Y-72871054D01*
X159185805Y-72890746D01*
X159146771Y-72900602D01*
X159094283Y-72904001D01*
X159048450Y-72904350D01*
X158990735Y-72904087D01*
X158953627Y-72902569D01*
X158932332Y-72898703D01*
X158922056Y-72891394D01*
X158918006Y-72879550D01*
X158917212Y-72874404D01*
X158924646Y-72839513D01*
X158948163Y-72807729D01*
X158983352Y-72771000D01*
X158946051Y-72770555D01*
X158922713Y-72770464D01*
X158878217Y-72770457D01*
X158816802Y-72770530D01*
X158742710Y-72770675D01*
X158660182Y-72770887D01*
X158623556Y-72770996D01*
X158338362Y-72771883D01*
X158303233Y-72812716D01*
X158274460Y-72851413D01*
X158247049Y-72896300D01*
X158241621Y-72906695D01*
X158223323Y-72966889D01*
X155939250Y-72966889D01*
X155918497Y-72953277D01*
X155827399Y-72906700D01*
X155723001Y-72863411D01*
X155609328Y-72824885D01*
X155490405Y-72792596D01*
X155370257Y-72768017D01*
X155252910Y-72752623D01*
X155225750Y-72750468D01*
X155137334Y-72749970D01*
X155032947Y-72758429D01*
X154919950Y-72774773D01*
X154805706Y-72797927D01*
X154697578Y-72826816D01*
X154693156Y-72828177D01*
X154646325Y-72841839D01*
X154609560Y-72850981D01*
X154588889Y-72854163D01*
X154586610Y-72853643D01*
X154589107Y-72839330D01*
X154607311Y-72811574D01*
X154637919Y-72773779D01*
X154677631Y-72729351D01*
X154723145Y-72681695D01*
X154771162Y-72634218D01*
X154818379Y-72590324D01*
X154861495Y-72553419D01*
X154897211Y-72526910D01*
X154911424Y-72518534D01*
X154943076Y-72501949D01*
X154962844Y-72490654D01*
X154966074Y-72488166D01*
X154967369Y-72475022D01*
X154970051Y-72443823D01*
X154972911Y-72409050D01*
X154993598Y-72237312D01*
X155026763Y-72085667D01*
X155073369Y-71951568D01*
X155134380Y-71832467D01*
X155210759Y-71725816D01*
X155246663Y-71685178D01*
X155356077Y-71585595D01*
X155481983Y-71503373D01*
X155624823Y-71438387D01*
X155785038Y-71390511D01*
X155963069Y-71359621D01*
X156159358Y-71345592D01*
X156374346Y-71348299D01*
X156425900Y-71351238D01*
X156608323Y-71370401D01*
X156803657Y-71404191D01*
X157005638Y-71450810D01*
X157208004Y-71508462D01*
X157404492Y-71575351D01*
X157588838Y-71649679D01*
X157754781Y-71729650D01*
X157766074Y-71735698D01*
X157867524Y-71789348D01*
X157952181Y-71830938D01*
X158024814Y-71861835D01*
X158090191Y-71883405D01*
X158153079Y-71897015D01*
X158218248Y-71904033D01*
X158290465Y-71905824D01*
X158354808Y-71904472D01*
X158463883Y-71896819D01*
X158562402Y-71880302D01*
X158658525Y-71852762D01*
X158760412Y-71812039D01*
X158832087Y-71778223D01*
X158982933Y-71692918D01*
X159137933Y-71584342D01*
X159258514Y-71484623D01*
X159727900Y-71484623D01*
X159733979Y-71491597D01*
X159754274Y-71496416D01*
X159791869Y-71499378D01*
X159849848Y-71500781D01*
X159897308Y-71501000D01*
X160066717Y-71501000D01*
X160284375Y-71329550D01*
X160348121Y-71279482D01*
X160404883Y-71235177D01*
X160451732Y-71198898D01*
X160485744Y-71172905D01*
X160503990Y-71159460D01*
X160506249Y-71158100D01*
X160504197Y-71169365D01*
X160495495Y-71200040D01*
X160481538Y-71245442D01*
X160463720Y-71300887D01*
X160463691Y-71300975D01*
X160444409Y-71360008D01*
X160427362Y-71412450D01*
X160414506Y-71452267D01*
X160408103Y-71472425D01*
X160399288Y-71501000D01*
X160746422Y-71501000D01*
X160748074Y-71499713D01*
X161016950Y-71499713D01*
X161177891Y-71500356D01*
X161338833Y-71501000D01*
X161496892Y-71367650D01*
X161654952Y-71234300D01*
X161764576Y-71234300D01*
X161813775Y-71234863D01*
X161851543Y-71236367D01*
X161872094Y-71238535D01*
X161874200Y-71239560D01*
X161869958Y-71252910D01*
X161858542Y-71284591D01*
X161841910Y-71329232D01*
X161829750Y-71361300D01*
X161810763Y-71412171D01*
X161795822Y-71454336D01*
X161786916Y-71482054D01*
X161785300Y-71489389D01*
X161797268Y-71493619D01*
X161830251Y-71497141D01*
X161879869Y-71499669D01*
X161941740Y-71500917D01*
X161963305Y-71501000D01*
X162141310Y-71501000D01*
X162159789Y-71459725D01*
X162169377Y-71436623D01*
X162173808Y-71425491D01*
X162230608Y-71425491D01*
X162243243Y-71467534D01*
X162251418Y-71478438D01*
X162258772Y-71485180D01*
X162269101Y-71490475D01*
X162285205Y-71494458D01*
X162309885Y-71497267D01*
X162345939Y-71499039D01*
X162396168Y-71499911D01*
X162463370Y-71500021D01*
X162550345Y-71499504D01*
X162659893Y-71498499D01*
X162660993Y-71498488D01*
X162771091Y-71497312D01*
X162858760Y-71496066D01*
X162896542Y-71495223D01*
X163156900Y-71495223D01*
X163168784Y-71497445D01*
X163201179Y-71499271D01*
X163249196Y-71500517D01*
X163307945Y-71500999D01*
X163310501Y-71501000D01*
X163464102Y-71501000D01*
X163784530Y-71234300D01*
X163896165Y-71234300D01*
X163945857Y-71234643D01*
X163984171Y-71235561D01*
X164005371Y-71236886D01*
X164007800Y-71237562D01*
X164003475Y-71249573D01*
X163992070Y-71279202D01*
X163975936Y-71320485D01*
X163957426Y-71367457D01*
X163938890Y-71414152D01*
X163922681Y-71454606D01*
X163911151Y-71482853D01*
X163910053Y-71485473D01*
X163912342Y-71491875D01*
X163927579Y-71496150D01*
X163958789Y-71498510D01*
X164008998Y-71499169D01*
X164081230Y-71498339D01*
X164090297Y-71498173D01*
X164277380Y-71494650D01*
X164384439Y-71215250D01*
X164416231Y-71132505D01*
X164446381Y-71054448D01*
X164473247Y-70985304D01*
X164495183Y-70929294D01*
X164510547Y-70890644D01*
X164515316Y-70878991D01*
X164528072Y-70843939D01*
X164533731Y-70818727D01*
X164533068Y-70812316D01*
X164519133Y-70809423D01*
X164483581Y-70806867D01*
X164430193Y-70804782D01*
X164362751Y-70803302D01*
X164285037Y-70802560D01*
X164254710Y-70802500D01*
X163982420Y-70802500D01*
X163569660Y-71145973D01*
X163481955Y-71219087D01*
X163400610Y-71287155D01*
X163327640Y-71348471D01*
X163265058Y-71401331D01*
X163214881Y-71444031D01*
X163179121Y-71474865D01*
X163159795Y-71492130D01*
X163156900Y-71495223D01*
X162896542Y-71495223D01*
X162926974Y-71494544D01*
X162978705Y-71492542D01*
X163016924Y-71489852D01*
X163044604Y-71486270D01*
X163064717Y-71481589D01*
X163080234Y-71475604D01*
X163093376Y-71468551D01*
X163122711Y-71446354D01*
X163158727Y-71412040D01*
X163196956Y-71370835D01*
X163232933Y-71327966D01*
X163262191Y-71288660D01*
X163280265Y-71258143D01*
X163283900Y-71245592D01*
X163271563Y-71217383D01*
X163235366Y-71185935D01*
X163176527Y-71152035D01*
X163096263Y-71116471D01*
X163066523Y-71104970D01*
X162997693Y-71078441D01*
X162950504Y-71057807D01*
X162922508Y-71040908D01*
X162911260Y-71025581D01*
X162914310Y-71009665D01*
X162929213Y-70990998D01*
X162933055Y-70987089D01*
X162955622Y-70967795D01*
X162979339Y-70958464D01*
X163013711Y-70956450D01*
X163039479Y-70957442D01*
X163080710Y-70960529D01*
X163102460Y-70966039D01*
X163110649Y-70976637D01*
X163111441Y-70989825D01*
X163111774Y-71000884D01*
X163116218Y-71008643D01*
X163128577Y-71013687D01*
X163152651Y-71016600D01*
X163192244Y-71017968D01*
X163251157Y-71018374D01*
X163297259Y-71018400D01*
X163484085Y-71018400D01*
X163517342Y-70974797D01*
X163543758Y-70926117D01*
X163548728Y-70880236D01*
X163532047Y-70841587D01*
X163523889Y-70833043D01*
X163514237Y-70825770D01*
X163501196Y-70820047D01*
X163481726Y-70815645D01*
X163452787Y-70812333D01*
X163411341Y-70809882D01*
X163354347Y-70808060D01*
X163278765Y-70806639D01*
X163181557Y-70805388D01*
X163154514Y-70805086D01*
X163035754Y-70804063D01*
X162939212Y-70804299D01*
X162861713Y-70806435D01*
X162800084Y-70811110D01*
X162751149Y-70818966D01*
X162711736Y-70830644D01*
X162678668Y-70846785D01*
X162648772Y-70868028D01*
X162618874Y-70895016D01*
X162596104Y-70917812D01*
X162538385Y-70981888D01*
X162502498Y-71033950D01*
X162488159Y-71074467D01*
X162489762Y-71093378D01*
X162499376Y-71109376D01*
X162519941Y-71125933D01*
X162554497Y-71144607D01*
X162606088Y-71166956D01*
X162677757Y-71194537D01*
X162711613Y-71206978D01*
X162780383Y-71233422D01*
X162826827Y-71255276D01*
X162853175Y-71274450D01*
X162861655Y-71292854D01*
X162854498Y-71312397D01*
X162846422Y-71322456D01*
X162827727Y-71337468D01*
X162801247Y-71345511D01*
X162759496Y-71348440D01*
X162740804Y-71348600D01*
X162696784Y-71348174D01*
X162672960Y-71345408D01*
X162664133Y-71338070D01*
X162665099Y-71323928D01*
X162666815Y-71316850D01*
X162674783Y-71285100D01*
X162296314Y-71285100D01*
X162263057Y-71328702D01*
X162237389Y-71376937D01*
X162230608Y-71425491D01*
X162173808Y-71425491D01*
X162186141Y-71394512D01*
X162208513Y-71337462D01*
X162234930Y-71269544D01*
X162263826Y-71194829D01*
X162293636Y-71117385D01*
X162322795Y-71041284D01*
X162349738Y-70970596D01*
X162372900Y-70909392D01*
X162390715Y-70861741D01*
X162401620Y-70831714D01*
X162403949Y-70824725D01*
X162404580Y-70817466D01*
X162399566Y-70811981D01*
X162385888Y-70808022D01*
X162360530Y-70805344D01*
X162320473Y-70803700D01*
X162262700Y-70802844D01*
X162184193Y-70802530D01*
X162131491Y-70802500D01*
X161852419Y-70802500D01*
X161491834Y-71102051D01*
X161407089Y-71172495D01*
X161326269Y-71239756D01*
X161252008Y-71301639D01*
X161186938Y-71355943D01*
X161133695Y-71400473D01*
X161094910Y-71433029D01*
X161074100Y-71450658D01*
X161016950Y-71499713D01*
X160748074Y-71499713D01*
X161180136Y-71163227D01*
X161271465Y-71091916D01*
X161356448Y-71025209D01*
X161433011Y-70964756D01*
X161499082Y-70912210D01*
X161552591Y-70869223D01*
X161591464Y-70837449D01*
X161613630Y-70818538D01*
X161618083Y-70813977D01*
X161607905Y-70809467D01*
X161576768Y-70805823D01*
X161529105Y-70803387D01*
X161469417Y-70802500D01*
X161316518Y-70802500D01*
X161199904Y-70894575D01*
X161138549Y-70943104D01*
X161067941Y-70999083D01*
X160998674Y-71054107D01*
X160961220Y-71083920D01*
X160914313Y-71120802D01*
X160875138Y-71150666D01*
X160847609Y-71170598D01*
X160835638Y-71177681D01*
X160835481Y-71177618D01*
X160838042Y-71165005D01*
X160847588Y-71132817D01*
X160862736Y-71085463D01*
X160882101Y-71027348D01*
X160889456Y-71005757D01*
X160910371Y-70943499D01*
X160927899Y-70889040D01*
X160940522Y-70847275D01*
X160946720Y-70823098D01*
X160947100Y-70819984D01*
X160942099Y-70812395D01*
X160924726Y-70807269D01*
X160891425Y-70804207D01*
X160838641Y-70802813D01*
X160791525Y-70802614D01*
X160635950Y-70802728D01*
X160429260Y-70967072D01*
X160364611Y-71018327D01*
X160304437Y-71065757D01*
X160252403Y-71106493D01*
X160212175Y-71137669D01*
X160187419Y-71156416D01*
X160184723Y-71158368D01*
X160146874Y-71185318D01*
X160210437Y-71004626D01*
X160232627Y-70940843D01*
X160251442Y-70885425D01*
X160265401Y-70842837D01*
X160273025Y-70817544D01*
X160274000Y-70812837D01*
X160262103Y-70808928D01*
X160229590Y-70806188D01*
X160181228Y-70804842D01*
X160121783Y-70805113D01*
X160112727Y-70805295D01*
X159951455Y-70808850D01*
X159839677Y-71138548D01*
X159810300Y-71225778D01*
X159783811Y-71305538D01*
X159761269Y-71374553D01*
X159743733Y-71429545D01*
X159732261Y-71467237D01*
X159727911Y-71484353D01*
X159727900Y-71484623D01*
X159258514Y-71484623D01*
X159295567Y-71453981D01*
X159454317Y-71303323D01*
X159612664Y-71133855D01*
X159769089Y-70947064D01*
X159922075Y-70744437D01*
X159996975Y-70637400D01*
X160043474Y-70568144D01*
X160090359Y-70496357D01*
X160135512Y-70425489D01*
X160176813Y-70358994D01*
X160212144Y-70300323D01*
X160239388Y-70252929D01*
X160256425Y-70220263D01*
X160261300Y-70206662D01*
X160265130Y-70191302D01*
X160275819Y-70155675D01*
X160292164Y-70103604D01*
X160312961Y-70038909D01*
X160337008Y-69965410D01*
X160342408Y-69949061D01*
X160430291Y-69696934D01*
X160519985Y-69466012D01*
X160611142Y-69256999D01*
X160703416Y-69070599D01*
X160796458Y-68907515D01*
X160889922Y-68768452D01*
X160979542Y-68658401D01*
X161021698Y-68615418D01*
X161067063Y-68574668D01*
X161111223Y-68539488D01*
X161149767Y-68513215D01*
X161178284Y-68499188D01*
X161190547Y-68498777D01*
X161199551Y-68517977D01*
X161200163Y-68555215D01*
X161192906Y-68604745D01*
X161178304Y-68660821D01*
X161174808Y-68671547D01*
X161162338Y-68703969D01*
X161140662Y-68755366D01*
X161111530Y-68821798D01*
X161076692Y-68899324D01*
X161037899Y-68984003D01*
X160998723Y-69068021D01*
X160936456Y-69200789D01*
X160884826Y-69311780D01*
X160843357Y-69402054D01*
X160811571Y-69472675D01*
X160788993Y-69524704D01*
X160775147Y-69559203D01*
X160769554Y-69577234D01*
X160769384Y-69579078D01*
X160775499Y-69572552D01*
X160792311Y-69547604D01*
X160817608Y-69507688D01*
X160849181Y-69456257D01*
X160868278Y-69424550D01*
X161101737Y-69057266D01*
X161354963Y-68701957D01*
X161625618Y-68361639D01*
X161911359Y-68039331D01*
X162071044Y-67873900D01*
X162235067Y-67713181D01*
X162387226Y-67572806D01*
X162529055Y-67451540D01*
X162662088Y-67348146D01*
X162787859Y-67261391D01*
X162907903Y-67190039D01*
X162944784Y-67170551D01*
X163023338Y-67132938D01*
X163083042Y-67111214D01*
X163125390Y-67106063D01*
X163151877Y-67118166D01*
X163163998Y-67148208D01*
X163163246Y-67196870D01*
X163151119Y-67264825D01*
X163126451Y-67346963D01*
X163086130Y-67444805D01*
X163031758Y-67555413D01*
X162964935Y-67675850D01*
X162887260Y-67803177D01*
X162800334Y-67934456D01*
X162739135Y-68021200D01*
X162705427Y-68068733D01*
X162678595Y-68108349D01*
X162661401Y-68135841D01*
X162656553Y-68146954D01*
X162666956Y-68140760D01*
X162691718Y-68120092D01*
X162727054Y-68088251D01*
X162766188Y-68051406D01*
X162839303Y-67982906D01*
X162927871Y-67902541D01*
X163027413Y-67814195D01*
X163133453Y-67721753D01*
X163241513Y-67629098D01*
X163347115Y-67540113D01*
X163445784Y-67458681D01*
X163499800Y-67415060D01*
X163645984Y-67301112D01*
X163778951Y-67203487D01*
X163898044Y-67122586D01*
X164002605Y-67058810D01*
X164091978Y-67012559D01*
X164165506Y-66984234D01*
X164222532Y-66974235D01*
X164222591Y-66974234D01*
X164258128Y-66975390D01*
X164258128Y-66975390D01*
G37*
X164258128Y-66975390D02*
X164276865Y-66983302D01*
X164287315Y-67002674D01*
X164290145Y-67011550D01*
X164295333Y-67041102D01*
X164299478Y-67087957D01*
X164301959Y-67144021D01*
X164302367Y-67170300D01*
X164295214Y-67277661D01*
X164271530Y-67383250D01*
X164229903Y-67490818D01*
X164168922Y-67604114D01*
X164099479Y-67709620D01*
X164071661Y-67744913D01*
X164027855Y-67795235D01*
X163970479Y-67858108D01*
X163901951Y-67931059D01*
X163824691Y-68011610D01*
X163741115Y-68097287D01*
X163653643Y-68185614D01*
X163564693Y-68274115D01*
X163476683Y-68360315D01*
X163392032Y-68441738D01*
X163313157Y-68515909D01*
X163299616Y-68528430D01*
X163252575Y-68572517D01*
X163213117Y-68610857D01*
X163184635Y-68640047D01*
X163170525Y-68656684D01*
X163169600Y-68658786D01*
X163179478Y-68655351D01*
X163206940Y-68639455D01*
X163248720Y-68613152D01*
X163301556Y-68578494D01*
X163360182Y-68538905D01*
X163522109Y-68428191D01*
X163664924Y-68330650D01*
X163790442Y-68245065D01*
X163900483Y-68170218D01*
X163996862Y-68104893D01*
X164081398Y-68047871D01*
X164155908Y-67997936D01*
X164222208Y-67953870D01*
X164282117Y-67914456D01*
X164337451Y-67878476D01*
X164390029Y-67844714D01*
X164441666Y-67811951D01*
X164494181Y-67778970D01*
X164501095Y-67774648D01*
X164652370Y-67683160D01*
X164785284Y-67609198D01*
X164899857Y-67552755D01*
X164996103Y-67513823D01*
X165074040Y-67492395D01*
X165119097Y-67487800D01*
X165154988Y-67489542D01*
X165173510Y-67497457D01*
X165182605Y-67515573D01*
X165183977Y-67520716D01*
X165187009Y-67547995D01*
X165188039Y-67592690D01*
X165186965Y-67646889D01*
X165185897Y-67669941D01*
X165171299Y-67779100D01*
X165138955Y-67888931D01*
X165088201Y-68000182D01*
X165018369Y-68113602D01*
X164928795Y-68229939D01*
X164818812Y-68349942D01*
X164687755Y-68474360D01*
X164534959Y-68603940D01*
X164359756Y-68739433D01*
X164161483Y-68881585D01*
X164026850Y-68973276D01*
X163963139Y-69016775D01*
X163899769Y-69061582D01*
X163839891Y-69105293D01*
X163786656Y-69145504D01*
X163743215Y-69179808D01*
X163712718Y-69205802D01*
X163698317Y-69221081D01*
X163698300Y-69224016D01*
X163714180Y-69220964D01*
X163748312Y-69209632D01*
X163795634Y-69191828D01*
X163849629Y-69169969D01*
X164077843Y-69076264D01*
X164297494Y-68989308D01*
X164507337Y-68909485D01*
X164706125Y-68837176D01*
X164892612Y-68772765D01*
X165065551Y-68716636D01*
X165223697Y-68669170D01*
X165365803Y-68630752D01*
X165490623Y-68601764D01*
X165596911Y-68582588D01*
X165683420Y-68573609D01*
X165748903Y-68575209D01*
X165771100Y-68579461D01*
X165803027Y-68589256D01*
X165818450Y-68601522D01*
X165823307Y-68624635D01*
X165823589Y-68653514D01*
X165810334Y-68768816D01*
X165771775Y-68882113D01*
X165707908Y-68993408D01*
X165618731Y-69102704D01*
X165504242Y-69210003D01*
X165364438Y-69315308D01*
X165199316Y-69418623D01*
X165070702Y-69488708D01*
X164985075Y-69531773D01*
X164897284Y-69573302D01*
X164804236Y-69614541D01*
X164702837Y-69656733D01*
X164589996Y-69701124D01*
X164462619Y-69748957D01*
X164317613Y-69801477D01*
X164151886Y-69859928D01*
X164123457Y-69869838D01*
X164107608Y-69877828D01*
X164112328Y-69882217D01*
X164132981Y-69882538D01*
X164164930Y-69878326D01*
X164179107Y-69875432D01*
X164230434Y-69864840D01*
X164303084Y-69851143D01*
X164393254Y-69834965D01*
X164497144Y-69816931D01*
X164610951Y-69797669D01*
X164730874Y-69777802D01*
X164853110Y-69757957D01*
X164973859Y-69738760D01*
X165089318Y-69720836D01*
X165195685Y-69704811D01*
X165289160Y-69691310D01*
X165341300Y-69684172D01*
X165458014Y-69670613D01*
X165570706Y-69661210D01*
X165675774Y-69656012D01*
X165769615Y-69655069D01*
X165848628Y-69658431D01*
X165909210Y-69666148D01*
X165942798Y-69675843D01*
X165973465Y-69691018D01*
X165986029Y-69706078D01*
X165985970Y-69730345D01*
X165983561Y-69745171D01*
X165962578Y-69814663D01*
X165924302Y-69891563D01*
X165872600Y-69969229D01*
X165811437Y-70040916D01*
X165714343Y-70127379D01*
X165593419Y-70211972D01*
X165450209Y-70293985D01*
X165286256Y-70372708D01*
X165103103Y-70447432D01*
X164902296Y-70517447D01*
X164685376Y-70582043D01*
X164566600Y-70613287D01*
X164395150Y-70656450D01*
X164839650Y-70664560D01*
X164973256Y-70667308D01*
X165083828Y-70670312D01*
X165173729Y-70673695D01*
X165245324Y-70677580D01*
X165300978Y-70682091D01*
X165343055Y-70687353D01*
X165368779Y-70692242D01*
X165424831Y-70707374D01*
X165473949Y-70724572D01*
X165510827Y-70741612D01*
X165530158Y-70756266D01*
X165531800Y-70760623D01*
X165526599Y-70774954D01*
X165512640Y-70806596D01*
X165492384Y-70850072D01*
X165479574Y-70876792D01*
X165408935Y-70994467D01*
X165318303Y-71096732D01*
X165207434Y-71183826D01*
X165098770Y-71245296D01*
X164944645Y-71310888D01*
X164786303Y-71358946D01*
X164616622Y-71391949D01*
X164562045Y-71400605D01*
X164517413Y-71408673D01*
X164488343Y-71415081D01*
X164480239Y-71418026D01*
X164488343Y-71421386D01*
X164516028Y-71423879D01*
X164557479Y-71425004D01*
X164561308Y-71425020D01*
X164691346Y-71436010D01*
X164818045Y-71466957D01*
X164902418Y-71500650D01*
X164958094Y-71532397D01*
X165011944Y-71572081D01*
X165058569Y-71614813D01*
X165092573Y-71655705D01*
X165107877Y-71686716D01*
X165107477Y-71733403D01*
X165087416Y-71788436D01*
X165050573Y-71848447D01*
X164999824Y-71910067D01*
X164938046Y-71969927D01*
X164868116Y-72024658D01*
X164792912Y-72070892D01*
X164769800Y-72082578D01*
X164690396Y-72116076D01*
X164612784Y-72140474D01*
X164542742Y-72154404D01*
X164486049Y-72156498D01*
X164468907Y-72153836D01*
X164446066Y-72150449D01*
X164445199Y-72156366D01*
X164466635Y-72171834D01*
X164510702Y-72197099D01*
X164566149Y-72226432D01*
X164662266Y-72283078D01*
X164733240Y-72340617D01*
X164779320Y-72399278D01*
X164795941Y-72437787D01*
X164803577Y-72473092D01*
X164801786Y-72504212D01*
X164788262Y-72535942D01*
X164760699Y-72573082D01*
X164716790Y-72620429D01*
X164699950Y-72637477D01*
X164611308Y-72711902D01*
X164503521Y-72775822D01*
X164374380Y-72830481D01*
X164331631Y-72845101D01*
X164220784Y-72881229D01*
X164289673Y-72920108D01*
X164346654Y-72958034D01*
X164393396Y-73000250D01*
X164425710Y-73042190D01*
X164439405Y-73079289D01*
X164439600Y-73083505D01*
X164429036Y-73128791D01*
X164399952Y-73181704D01*
X164356260Y-73237954D01*
X164301870Y-73293250D01*
X164240694Y-73343303D01*
X164176642Y-73383822D01*
X164156663Y-73393847D01*
X164040479Y-73435640D01*
X163923298Y-73453326D01*
X163843994Y-73451234D01*
X163762738Y-73443007D01*
X163858340Y-73506949D01*
X163925233Y-73555481D01*
X163969335Y-73597814D01*
X163991598Y-73636779D01*
X163992970Y-73675209D01*
X163974404Y-73715934D01*
X163942030Y-73756241D01*
X163884082Y-73809911D01*
X163806197Y-73868209D01*
X163712765Y-73928458D01*
X163608175Y-73987980D01*
X163496817Y-74044098D01*
X163398200Y-74087922D01*
X163379460Y-74096635D01*
X163377965Y-74103673D01*
X163396103Y-74113506D01*
X163416566Y-74122251D01*
X163483902Y-74158188D01*
X163534684Y-74200986D01*
X163563252Y-74244084D01*
X163572115Y-74296438D01*
X163558112Y-74350830D01*
X163523531Y-74405786D01*
X163470662Y-74459829D01*
X163401793Y-74511485D01*
X163319213Y-74559279D01*
X163225212Y-74601735D01*
X163122079Y-74637380D01*
X163012102Y-74664737D01*
X162897572Y-74682332D01*
X162880567Y-74683999D01*
X162788384Y-74692367D01*
X162850460Y-74758003D01*
X162883826Y-74797700D01*
X162909469Y-74836416D01*
X162921417Y-74864076D01*
X162922221Y-74924185D01*
X162898659Y-74982485D01*
X162851755Y-75037961D01*
X162782531Y-75089602D01*
X162692009Y-75136393D01*
X162617150Y-75165502D01*
X162558228Y-75183698D01*
X162501217Y-75195653D01*
X162436402Y-75202999D01*
X162371940Y-75206671D01*
X162309614Y-75209669D01*
X162268772Y-75212977D01*
X162245500Y-75217363D01*
X162235885Y-75223593D01*
X162236014Y-75232436D01*
X162236317Y-75233251D01*
X162242659Y-75258067D01*
X162249167Y-75296117D01*
X162251286Y-75312196D01*
X162248035Y-75380591D01*
X162221641Y-75440504D01*
X162173138Y-75491242D01*
X162103559Y-75532111D01*
X162013937Y-75562416D01*
X161905308Y-75581465D01*
X161842450Y-75586648D01*
X161764483Y-75588882D01*
X161702109Y-75585422D01*
X161646031Y-75575648D01*
X161634180Y-75572734D01*
X161592390Y-75562695D01*
X161561688Y-75556636D01*
X161548921Y-75555845D01*
X161549810Y-75569229D01*
X161556616Y-75598610D01*
X161561600Y-75616392D01*
X161571428Y-75681380D01*
X161558801Y-75735947D01*
X161523019Y-75781451D01*
X161463382Y-75819251D01*
X161455100Y-75823104D01*
X161395592Y-75841304D01*
X161318562Y-75852182D01*
X161230771Y-75855872D01*
X161138977Y-75852508D01*
X161049941Y-75842223D01*
X160970421Y-75825151D01*
X160932781Y-75812759D01*
X160919057Y-75812659D01*
X160910077Y-75828734D01*
X160903567Y-75861757D01*
X160882370Y-75931366D01*
X160843418Y-75988739D01*
X160794446Y-76026225D01*
X160738014Y-76042872D01*
X160668130Y-76043642D01*
X160589958Y-76029941D01*
X160508662Y-76003173D01*
X160429405Y-75964744D01*
X160357350Y-75916059D01*
X160341732Y-75903030D01*
X160292243Y-75848398D01*
X160241879Y-75771255D01*
X160191652Y-75674422D01*
X160142574Y-75560719D01*
X160095656Y-75432966D01*
X160051911Y-75293983D01*
X160012350Y-75146590D01*
X159977985Y-74993606D01*
X159949828Y-74837852D01*
X159942754Y-74791084D01*
X159932490Y-74722124D01*
X159922550Y-74659274D01*
X159913877Y-74608220D01*
X159907411Y-74574644D01*
X159905837Y-74568050D01*
X159899839Y-74548585D01*
X159896504Y-74548771D01*
X159894798Y-74570856D01*
X159894174Y-74593450D01*
X159890543Y-74661777D01*
X159882745Y-74748354D01*
X159871583Y-74847539D01*
X159857857Y-74953688D01*
X159842371Y-75061158D01*
X159825924Y-75164307D01*
X159809319Y-75257490D01*
X159793358Y-75335066D01*
X159782701Y-75378137D01*
X159768443Y-75472472D01*
X159774933Y-75578089D01*
X159802315Y-75695786D01*
X159850733Y-75826364D01*
X159871711Y-75873189D01*
X159885542Y-75900746D01*
X159910532Y-75948240D01*
X159945463Y-76013433D01*
X159989113Y-76094084D01*
X160040262Y-76187953D01*
X160097689Y-76292801D01*
X160160174Y-76406387D01*
X160226496Y-76526471D01*
X160295435Y-76650814D01*
X160295454Y-76650850D01*
X160372693Y-76790062D01*
X160454695Y-76938172D01*
X160540146Y-77092783D01*
X160627731Y-77251500D01*
X160716133Y-77411927D01*
X160804038Y-77571670D01*
X160890129Y-77728333D01*
X160973093Y-77879520D01*
X161051613Y-78022837D01*
X161124373Y-78155888D01*
X161190059Y-78276278D01*
X161247355Y-78381611D01*
X161294946Y-78469492D01*
X161331128Y-78536800D01*
X161422460Y-78708310D01*
X161508932Y-78871884D01*
X161589800Y-79026059D01*
X161664317Y-79169368D01*
X161731738Y-79300348D01*
X161791316Y-79417533D01*
X161842308Y-79519460D01*
X161883966Y-79604663D01*
X161915546Y-79671679D01*
X161936301Y-79719041D01*
X161944633Y-79741876D01*
X161948303Y-79759450D01*
X161942569Y-79767641D01*
X161921891Y-79768789D01*
X161887781Y-79765914D01*
X161831102Y-79753389D01*
X161761307Y-79726996D01*
X161684356Y-79689636D01*
X161606212Y-79644211D01*
X161532835Y-79593621D01*
X161531300Y-79592457D01*
X161493280Y-79561265D01*
X161457691Y-79526472D01*
X161423230Y-79485821D01*
X161388599Y-79437054D01*
X161352495Y-79377915D01*
X161313620Y-79306146D01*
X161270672Y-79219490D01*
X161222352Y-79115690D01*
X161167358Y-78992488D01*
X161110917Y-78862768D01*
X161075644Y-78781762D01*
X161043028Y-78708280D01*
X161014585Y-78645625D01*
X160991831Y-78597100D01*
X160976281Y-78566006D01*
X160970046Y-78555900D01*
X160961006Y-78551724D01*
X160963859Y-78565315D01*
X160969845Y-78585365D01*
X160980774Y-78624738D01*
X160995210Y-78678174D01*
X161011721Y-78740407D01*
X161015767Y-78755815D01*
X161063261Y-78958718D01*
X161094881Y-79144073D01*
X161110645Y-79311541D01*
X161110575Y-79460779D01*
X161094689Y-79591447D01*
X161063008Y-79703205D01*
X161015551Y-79795710D01*
X160952337Y-79868623D01*
X160951429Y-79869424D01*
X160906233Y-79902589D01*
X160851687Y-79933070D01*
X160796189Y-79956958D01*
X160748137Y-79970344D01*
X160731283Y-79971900D01*
X160711863Y-79960565D01*
X160685616Y-79928963D01*
X160654393Y-79880696D01*
X160620048Y-79819370D01*
X160584434Y-79748586D01*
X160549402Y-79671948D01*
X160516806Y-79593060D01*
X160488498Y-79515525D01*
X160475060Y-79473543D01*
X160460288Y-79427968D01*
X160447154Y-79393582D01*
X160437937Y-79376168D01*
X160436303Y-79375118D01*
X160434133Y-79387222D01*
X160432749Y-79421368D01*
X160432163Y-79474213D01*
X160432387Y-79542411D01*
X160433433Y-79622618D01*
X160435090Y-79702365D01*
X160437393Y-79804519D01*
X160438679Y-79884813D01*
X160438823Y-79946771D01*
X160437697Y-79993917D01*
X160435177Y-80029775D01*
X160431135Y-80057870D01*
X160425445Y-80081725D01*
X160420991Y-80096065D01*
X160405079Y-80138451D01*
X160391698Y-80158438D01*
X160378167Y-80158486D01*
X160365991Y-80146525D01*
X160344137Y-80110857D01*
X160316107Y-80050789D01*
X160281977Y-79966539D01*
X160241822Y-79858325D01*
X160195716Y-79726365D01*
X160143735Y-79570879D01*
X160085953Y-79392084D01*
X160022445Y-79190199D01*
X159953285Y-78965443D01*
X159892762Y-78765400D01*
X159803447Y-78470469D01*
X159720074Y-78199933D01*
X159642543Y-77953513D01*
X159570757Y-77730932D01*
X159504616Y-77531913D01*
X159444022Y-77356178D01*
X159388875Y-77203449D01*
X159339079Y-77073450D01*
X159294533Y-76965903D01*
X159255138Y-76880530D01*
X159220798Y-76817054D01*
X159191412Y-76775198D01*
X159181032Y-76764455D01*
X159168549Y-76756187D01*
X159149496Y-76750103D01*
X159119994Y-76745799D01*
X159076163Y-76742870D01*
X159014121Y-76740910D01*
X158943935Y-76739700D01*
X158806376Y-76733918D01*
X158679746Y-76719568D01*
X158558136Y-76695146D01*
X158435636Y-76659149D01*
X158306336Y-76610074D01*
X158164329Y-76546420D01*
X158142220Y-76535837D01*
X157905090Y-76410158D01*
X157679345Y-76266677D01*
X157460650Y-76102490D01*
X157327600Y-75989818D01*
X157151262Y-75823168D01*
X156992177Y-75650491D01*
X156852268Y-75474229D01*
X156733461Y-75296819D01*
X156637680Y-75120700D01*
X156631399Y-75107443D01*
X156588182Y-75011860D01*
X156556282Y-74931240D01*
X156534155Y-74858644D01*
X156520256Y-74787131D01*
X156513041Y-74709762D01*
X156510965Y-74619597D01*
X156511365Y-74568050D01*
X156508092Y-74392330D01*
X159996616Y-74392330D01*
X160004649Y-74412251D01*
X160022825Y-74427629D01*
X160039737Y-74435787D01*
X160065994Y-74441467D01*
X160105656Y-74445046D01*
X160162785Y-74446898D01*
X160236830Y-74447400D01*
X160306367Y-74446478D01*
X160369821Y-74443948D01*
X160421407Y-74440160D01*
X160455341Y-74435467D01*
X160461811Y-74433734D01*
X160480011Y-74423360D01*
X160504858Y-74401884D01*
X160537720Y-74367735D01*
X160579966Y-74319344D01*
X160632966Y-74255141D01*
X160641074Y-74244982D01*
X160759937Y-74244982D01*
X160768987Y-74262873D01*
X160778958Y-74270112D01*
X160797400Y-74275364D01*
X160827846Y-74278917D01*
X160873831Y-74281062D01*
X160938888Y-74282089D01*
X161005991Y-74282300D01*
X161226873Y-74282300D01*
X161251144Y-74259527D01*
X161407041Y-74259527D01*
X161426525Y-74281282D01*
X161448503Y-74286563D01*
X161490189Y-74290471D01*
X161545927Y-74293000D01*
X161610063Y-74294142D01*
X161676942Y-74293890D01*
X161740906Y-74292235D01*
X161796303Y-74289170D01*
X161837475Y-74284687D01*
X161851158Y-74281857D01*
X161884471Y-74266203D01*
X161913021Y-74244904D01*
X162077400Y-74244904D01*
X162089240Y-74265776D01*
X162121678Y-74282007D01*
X162170089Y-74291956D01*
X162216750Y-74294297D01*
X162262675Y-74292932D01*
X162291376Y-74287913D01*
X162311015Y-74276398D01*
X162329756Y-74255548D01*
X162330396Y-74254742D01*
X162349163Y-74228942D01*
X162352448Y-74214802D01*
X162341623Y-74204983D01*
X162339894Y-74203999D01*
X162328407Y-74194460D01*
X162330125Y-74181034D01*
X162346689Y-74157052D01*
X162353598Y-74148304D01*
X162389880Y-74114189D01*
X162420300Y-74104500D01*
X162455041Y-74091932D01*
X162487516Y-74060049D01*
X162508332Y-74032813D01*
X162513929Y-74019812D01*
X162505423Y-74015835D01*
X162497041Y-74015600D01*
X162477026Y-74013176D01*
X162473654Y-74003168D01*
X162487374Y-73981465D01*
X162502850Y-73962483D01*
X162523324Y-73935369D01*
X162534109Y-73915661D01*
X162534600Y-73913025D01*
X162522909Y-73907560D01*
X162491861Y-73903453D01*
X162447489Y-73901407D01*
X162433850Y-73901300D01*
X162333100Y-73901300D01*
X162286270Y-73958450D01*
X162247441Y-73998383D01*
X162215660Y-74015103D01*
X162210140Y-74015600D01*
X162180156Y-74026651D01*
X162148696Y-74056474D01*
X162148381Y-74056875D01*
X162128815Y-74083066D01*
X162124432Y-74095750D01*
X162134209Y-74100978D01*
X162140746Y-74102160D01*
X162153112Y-74106204D01*
X162154620Y-74116071D01*
X162143856Y-74136763D01*
X162121485Y-74170260D01*
X162098184Y-74205739D01*
X162082206Y-74233140D01*
X162077400Y-74244904D01*
X161913021Y-74244904D01*
X161918931Y-74240495D01*
X161947286Y-74211351D01*
X161962282Y-74185389D01*
X161963100Y-74179725D01*
X161951665Y-74172591D01*
X161921942Y-74168693D01*
X161880804Y-74167793D01*
X161835125Y-74169650D01*
X161791778Y-74174024D01*
X161757635Y-74180676D01*
X161741597Y-74187453D01*
X161713947Y-74200702D01*
X161682752Y-74205707D01*
X161656987Y-74202283D01*
X161645628Y-74190245D01*
X161645600Y-74189426D01*
X161654135Y-74170449D01*
X161675253Y-74144578D01*
X161681219Y-74138626D01*
X161711777Y-74117526D01*
X161745657Y-74105644D01*
X161775709Y-74103904D01*
X161794780Y-74113227D01*
X161798000Y-74123550D01*
X161809388Y-74134471D01*
X161838976Y-74141340D01*
X161879901Y-74144219D01*
X161925297Y-74143169D01*
X161968302Y-74138253D01*
X162002049Y-74129532D01*
X162016074Y-74121581D01*
X162033314Y-74094709D01*
X162038749Y-74062458D01*
X162032060Y-74034840D01*
X162019211Y-74023308D01*
X161994683Y-74019108D01*
X161950840Y-74016426D01*
X161893247Y-74015160D01*
X161827469Y-74015205D01*
X161759071Y-74016459D01*
X161693620Y-74018817D01*
X161636681Y-74022176D01*
X161593818Y-74026433D01*
X161570598Y-74031484D01*
X161570233Y-74031662D01*
X161547484Y-74048639D01*
X161515116Y-74079458D01*
X161479348Y-74118105D01*
X161471808Y-74126863D01*
X161429106Y-74183197D01*
X161407618Y-74227072D01*
X161407041Y-74259527D01*
X161251144Y-74259527D01*
X161274311Y-74237791D01*
X161321750Y-74193283D01*
X161165459Y-74194743D01*
X161104925Y-74194707D01*
X161053993Y-74193542D01*
X161017836Y-74191447D01*
X161001624Y-74188620D01*
X161001418Y-74188451D01*
X161009918Y-74185156D01*
X161038955Y-74182285D01*
X161083663Y-74180195D01*
X161125958Y-74179339D01*
X161201613Y-74178501D01*
X161256222Y-74177198D01*
X161294134Y-74174541D01*
X161319699Y-74169643D01*
X161337267Y-74161616D01*
X161351187Y-74149570D01*
X161365810Y-74132618D01*
X161368080Y-74129900D01*
X161395196Y-74087549D01*
X161401611Y-74053700D01*
X161397950Y-74021950D01*
X161182278Y-74018454D01*
X161086452Y-74017899D01*
X161011692Y-74019626D01*
X160959436Y-74023570D01*
X160931889Y-74029339D01*
X160906378Y-74046772D01*
X160872194Y-74078874D01*
X160834979Y-74119332D01*
X160800370Y-74161832D01*
X160774007Y-74200060D01*
X160765842Y-74215248D01*
X160759937Y-74244982D01*
X160641074Y-74244982D01*
X160698087Y-74173557D01*
X160776699Y-74073022D01*
X160779375Y-74069575D01*
X160821263Y-74015600D01*
X160606717Y-74015600D01*
X160484769Y-74167131D01*
X160431607Y-74233052D01*
X160391653Y-74281775D01*
X160362207Y-74315898D01*
X160340564Y-74338023D01*
X160324022Y-74350749D01*
X160309878Y-74356674D01*
X160295429Y-74358399D01*
X160285792Y-74358500D01*
X160256654Y-74352801D01*
X160250281Y-74336031D01*
X160266824Y-74308682D01*
X160269618Y-74305525D01*
X160278385Y-74294347D01*
X160277257Y-74287486D01*
X160262254Y-74283893D01*
X160229393Y-74282514D01*
X160181642Y-74282300D01*
X160072649Y-74282300D01*
X160033624Y-74329643D01*
X160006064Y-74366700D01*
X159996616Y-74392330D01*
X156508092Y-74392330D01*
X156507527Y-74362048D01*
X156499957Y-74282331D01*
X158256816Y-74282331D01*
X158266431Y-74288863D01*
X158298028Y-74293226D01*
X158348253Y-74294984D01*
X158354229Y-74295000D01*
X158455875Y-74295000D01*
X158471546Y-74275936D01*
X158906997Y-74275936D01*
X158907086Y-74285551D01*
X158919311Y-74291345D01*
X158948009Y-74294201D01*
X158997515Y-74294998D01*
X159000827Y-74295000D01*
X159101972Y-74295000D01*
X159148379Y-74238457D01*
X159478324Y-74238457D01*
X159481122Y-74255001D01*
X159499130Y-74272016D01*
X159513814Y-74281318D01*
X159533944Y-74287760D01*
X159564012Y-74291836D01*
X159608508Y-74294042D01*
X159671923Y-74294872D01*
X159707081Y-74294929D01*
X159776365Y-74293997D01*
X159840392Y-74291496D01*
X159892951Y-74287779D01*
X159927831Y-74283203D01*
X159932923Y-74282005D01*
X159977506Y-74259124D01*
X160026255Y-74213451D01*
X160035616Y-74202701D01*
X160079632Y-74149599D01*
X160108307Y-74111075D01*
X160123721Y-74083223D01*
X160127952Y-74062135D01*
X160123080Y-74043903D01*
X160121631Y-74041059D01*
X160115544Y-74031472D01*
X160106644Y-74024550D01*
X160091259Y-74019945D01*
X160065717Y-74017310D01*
X160026344Y-74016297D01*
X159969469Y-74016559D01*
X159891417Y-74017748D01*
X159877782Y-74017983D01*
X159648406Y-74021950D01*
X159579009Y-74098150D01*
X159543238Y-74139412D01*
X159512284Y-74178644D01*
X159492048Y-74208301D01*
X159490180Y-74211691D01*
X159478324Y-74238457D01*
X159148379Y-74238457D01*
X159258324Y-74104500D01*
X159470885Y-74104500D01*
X159504788Y-74060050D01*
X159538692Y-74015600D01*
X159108372Y-74015600D01*
X159011342Y-74136236D01*
X158973088Y-74184584D01*
X158940663Y-74227039D01*
X158917491Y-74259019D01*
X158906997Y-74275936D01*
X158471546Y-74275936D01*
X158517212Y-74220386D01*
X158578550Y-74145772D01*
X158730950Y-74140797D01*
X158804335Y-74137569D01*
X158858035Y-74131853D01*
X158897764Y-74121259D01*
X158929235Y-74103400D01*
X158958164Y-74075888D01*
X158990265Y-74036335D01*
X158994660Y-74030589D01*
X159023491Y-73990720D01*
X159029520Y-73979726D01*
X160642300Y-73979726D01*
X160653985Y-73984608D01*
X160685076Y-73987506D01*
X160729623Y-73987969D01*
X160745499Y-73987538D01*
X160797038Y-73985173D01*
X160830013Y-73981070D01*
X160851251Y-73972956D01*
X160867582Y-73958555D01*
X160880477Y-73942575D01*
X160912255Y-73901300D01*
X160803599Y-73901300D01*
X160750251Y-73901827D01*
X160715959Y-73904456D01*
X160694382Y-73910760D01*
X160679182Y-73922309D01*
X160668621Y-73934762D01*
X160650572Y-73960857D01*
X160642348Y-73978962D01*
X160642300Y-73979726D01*
X159029520Y-73979726D01*
X159040357Y-73959966D01*
X159043344Y-73937163D01*
X159030537Y-73921150D01*
X159000020Y-73910765D01*
X158949878Y-73904844D01*
X158878197Y-73902227D01*
X158783062Y-73901750D01*
X158782385Y-73901751D01*
X158553150Y-73902203D01*
X158407100Y-74085932D01*
X158360540Y-74144885D01*
X158319650Y-74197384D01*
X158287007Y-74240060D01*
X158265190Y-74269543D01*
X158256816Y-74282331D01*
X156499957Y-74282331D01*
X156489117Y-74168198D01*
X156455060Y-73977131D01*
X156432463Y-73882192D01*
X156395115Y-73754918D01*
X157086300Y-73754918D01*
X157098362Y-73756957D01*
X157131997Y-73758736D01*
X157183381Y-73760156D01*
X157248687Y-73761114D01*
X157324088Y-73761511D01*
X157337125Y-73761516D01*
X157424746Y-73761253D01*
X157490731Y-73760326D01*
X157538845Y-73758428D01*
X157572847Y-73755255D01*
X157596502Y-73750498D01*
X157602538Y-73748148D01*
X157736367Y-73748148D01*
X157745918Y-73755485D01*
X157779675Y-73759991D01*
X157836588Y-73761527D01*
X157837716Y-73761527D01*
X157943550Y-73761454D01*
X157949137Y-73754413D01*
X158051500Y-73754413D01*
X158063210Y-73757640D01*
X158094398Y-73759966D01*
X158139145Y-73761018D01*
X158156275Y-73761020D01*
X158261050Y-73760440D01*
X158296117Y-73713887D01*
X158628937Y-73713887D01*
X158634487Y-73733912D01*
X158635142Y-73735157D01*
X158641305Y-73744496D01*
X158650744Y-73751332D01*
X158667097Y-73756056D01*
X158693997Y-73759055D01*
X158735082Y-73760719D01*
X158793988Y-73761437D01*
X158874350Y-73761599D01*
X158882238Y-73761600D01*
X159115182Y-73761600D01*
X159127906Y-73745725D01*
X159227793Y-73745725D01*
X159228956Y-73753755D01*
X159246230Y-73758704D01*
X159282976Y-73761120D01*
X159325227Y-73761600D01*
X159432053Y-73761600D01*
X159493127Y-73682225D01*
X159532498Y-73632346D01*
X159561418Y-73599808D01*
X159583942Y-73581104D01*
X159604128Y-73572726D01*
X159621627Y-73571100D01*
X159647045Y-73575042D01*
X159655745Y-73588421D01*
X159647277Y-73613562D01*
X159621191Y-73652792D01*
X159600706Y-73679293D01*
X159535212Y-73761600D01*
X159647431Y-73761035D01*
X159759650Y-73760471D01*
X159832836Y-73665785D01*
X159869759Y-73619708D01*
X159896770Y-73591039D01*
X159918108Y-73576097D01*
X159938014Y-73571199D01*
X159941844Y-73571100D01*
X159970514Y-73573529D01*
X159985236Y-73578669D01*
X159982289Y-73591953D01*
X159967075Y-73619024D01*
X159946077Y-73649575D01*
X159908633Y-73699782D01*
X159885802Y-73732379D01*
X159878451Y-73751115D01*
X159887450Y-73759739D01*
X159913667Y-73762003D01*
X159957971Y-73761655D01*
X159972028Y-73761600D01*
X160079555Y-73761600D01*
X160115745Y-73715946D01*
X160229065Y-73715946D01*
X160235342Y-73735157D01*
X160241510Y-73744503D01*
X160250959Y-73751342D01*
X160267327Y-73756065D01*
X160294255Y-73759063D01*
X160335380Y-73760724D01*
X160394343Y-73761439D01*
X160474783Y-73761599D01*
X160482051Y-73761600D01*
X160714608Y-73761600D01*
X160723523Y-73750323D01*
X160833097Y-73750323D01*
X160844019Y-73758717D01*
X160869353Y-73761526D01*
X160908874Y-73761652D01*
X160925729Y-73761600D01*
X161032253Y-73761600D01*
X161093327Y-73682225D01*
X161124986Y-73642232D01*
X161152925Y-73608973D01*
X161171853Y-73588705D01*
X161173827Y-73586975D01*
X161197461Y-73575964D01*
X161227012Y-73571543D01*
X161252649Y-73573978D01*
X161264536Y-73583535D01*
X161264600Y-73584512D01*
X161257075Y-73600108D01*
X161237116Y-73629465D01*
X161208646Y-73666913D01*
X161200891Y-73676587D01*
X161137183Y-73755250D01*
X161234694Y-73758996D01*
X161283504Y-73760047D01*
X161323206Y-73759395D01*
X161346287Y-73757192D01*
X161347964Y-73756694D01*
X161363204Y-73744008D01*
X161388677Y-73716338D01*
X161419838Y-73679357D01*
X161452141Y-73638739D01*
X161481040Y-73600157D01*
X161501988Y-73569285D01*
X161509625Y-73554936D01*
X161507280Y-73527050D01*
X161492935Y-73507335D01*
X161482123Y-73498201D01*
X161468176Y-73491688D01*
X161447132Y-73487440D01*
X161415030Y-73485098D01*
X161367909Y-73484307D01*
X161301808Y-73484708D01*
X161249669Y-73485398D01*
X161031491Y-73488550D01*
X160938008Y-73602850D01*
X160889041Y-73662607D01*
X160855383Y-73705170D01*
X160836810Y-73733441D01*
X160833097Y-73750323D01*
X160723523Y-73750323D01*
X160814954Y-73634674D01*
X160853228Y-73585739D01*
X160885435Y-73543570D01*
X160908427Y-73512364D01*
X160919052Y-73496316D01*
X160919335Y-73495642D01*
X160908992Y-73491353D01*
X160877845Y-73487993D01*
X160830474Y-73485563D01*
X160771457Y-73484062D01*
X160705375Y-73483488D01*
X160636807Y-73483842D01*
X160570332Y-73485123D01*
X160510529Y-73487330D01*
X160461977Y-73490463D01*
X160429256Y-73494521D01*
X160423966Y-73495712D01*
X160383430Y-73515166D01*
X160338877Y-73553892D01*
X160288496Y-73613652D01*
X160254696Y-73660365D01*
X160234472Y-73693304D01*
X160229065Y-73715946D01*
X160115745Y-73715946D01*
X160157578Y-73663175D01*
X160201166Y-73604303D01*
X160226414Y-73559884D01*
X160234074Y-73527613D01*
X160224892Y-73505186D01*
X160212010Y-73495708D01*
X160192127Y-73491948D01*
X160148995Y-73488785D01*
X160084760Y-73486286D01*
X160001567Y-73484518D01*
X159901562Y-73483546D01*
X159812721Y-73483383D01*
X159437320Y-73483844D01*
X159337253Y-73606847D01*
X159298143Y-73655253D01*
X159264599Y-73697394D01*
X159240072Y-73728889D01*
X159228017Y-73745356D01*
X159227793Y-73745725D01*
X159127906Y-73745725D01*
X159214436Y-73637775D01*
X159276193Y-73560569D01*
X159323623Y-73500877D01*
X159358430Y-73456512D01*
X159382320Y-73425287D01*
X159396996Y-73405015D01*
X159402522Y-73396475D01*
X159401352Y-73388418D01*
X159384030Y-73383465D01*
X159347189Y-73381062D01*
X159305917Y-73380600D01*
X159199935Y-73380600D01*
X159158926Y-73433957D01*
X159117918Y-73487314D01*
X159005997Y-73483771D01*
X158927881Y-73482767D01*
X158869443Y-73486400D01*
X158825163Y-73496105D01*
X158789519Y-73513318D01*
X158756994Y-73539476D01*
X158744565Y-73551790D01*
X158707643Y-73592592D01*
X158671755Y-73636665D01*
X158656920Y-73656861D01*
X158635668Y-73690888D01*
X158628937Y-73713887D01*
X158296117Y-73713887D01*
X158323698Y-73677272D01*
X158356855Y-73636667D01*
X158388448Y-73603771D01*
X158412684Y-73584488D01*
X158416599Y-73582602D01*
X158444718Y-73576677D01*
X158488369Y-73572524D01*
X158534004Y-73571100D01*
X158581503Y-73570151D01*
X158611159Y-73565825D01*
X158630504Y-73555899D01*
X158647070Y-73538154D01*
X158647478Y-73537637D01*
X158665488Y-73511973D01*
X158673743Y-73494748D01*
X158673800Y-73494013D01*
X158661800Y-73490607D01*
X158628601Y-73487657D01*
X158578402Y-73485373D01*
X158515403Y-73483964D01*
X158465635Y-73483611D01*
X158257471Y-73483371D01*
X158154485Y-73615299D01*
X158116282Y-73664754D01*
X158084493Y-73706888D01*
X158062033Y-73737763D01*
X158051817Y-73753441D01*
X158051500Y-73754413D01*
X157949137Y-73754413D01*
X158048325Y-73629414D01*
X158087069Y-73580046D01*
X158119342Y-73537894D01*
X158142208Y-73506870D01*
X158152732Y-73490886D01*
X158153100Y-73489787D01*
X158141388Y-73486325D01*
X158110198Y-73483725D01*
X158065449Y-73482406D01*
X158048325Y-73482324D01*
X157943550Y-73482448D01*
X157842200Y-73608572D01*
X157803480Y-73657347D01*
X157770848Y-73699566D01*
X157747506Y-73731006D01*
X157736658Y-73747442D01*
X157736367Y-73748148D01*
X157602538Y-73748148D01*
X157613571Y-73743853D01*
X157623134Y-73738232D01*
X157656968Y-73710052D01*
X157687348Y-73674894D01*
X157709230Y-73639815D01*
X157717568Y-73611870D01*
X157716984Y-73606970D01*
X157723424Y-73585518D01*
X157747400Y-73570809D01*
X157772765Y-73553908D01*
X157803834Y-73524718D01*
X157834772Y-73489952D01*
X157859744Y-73456320D01*
X157860546Y-73454749D01*
X157977094Y-73454749D01*
X157994603Y-73463575D01*
X158032930Y-73466734D01*
X158086919Y-73465798D01*
X158135947Y-73463123D01*
X158167015Y-73457970D01*
X158187564Y-73447843D01*
X158205033Y-73430245D01*
X158209590Y-73424638D01*
X158239693Y-73386950D01*
X158132714Y-73383277D01*
X158080123Y-73381922D01*
X158046334Y-73383274D01*
X158024780Y-73388848D01*
X158008890Y-73400159D01*
X157995307Y-73414982D01*
X157978097Y-73438978D01*
X157977094Y-73454749D01*
X157860546Y-73454749D01*
X157872919Y-73430535D01*
X157873700Y-73425505D01*
X157871116Y-73410290D01*
X157861288Y-73398899D01*
X157841104Y-73390799D01*
X157807451Y-73385454D01*
X157757214Y-73382331D01*
X157687281Y-73380894D01*
X157612155Y-73380600D01*
X157381090Y-73380600D01*
X157233695Y-73564418D01*
X157187168Y-73622785D01*
X157146677Y-73674236D01*
X157114710Y-73715555D01*
X157093756Y-73743526D01*
X157086300Y-73754918D01*
X156395115Y-73754918D01*
X156374274Y-73683900D01*
X156305130Y-73498768D01*
X156226383Y-73329699D01*
X156139385Y-73179594D01*
X156045490Y-73051353D01*
X156044694Y-73050400D01*
X155992271Y-73001668D01*
X155939250Y-72966889D01*
X158223323Y-72966889D01*
X158228254Y-73022543D01*
X158254772Y-73069632D01*
X158301235Y-73104129D01*
X158326065Y-73113820D01*
X158346065Y-73116091D01*
X158388726Y-73118080D01*
X158451310Y-73119751D01*
X158531081Y-73121066D01*
X158625299Y-73121988D01*
X158731229Y-73122481D01*
X158846131Y-73122506D01*
X158940500Y-73122176D01*
X159078700Y-73121391D01*
X159193936Y-73120508D01*
X159288645Y-73119430D01*
X159365264Y-73118060D01*
X159426227Y-73116299D01*
X159473973Y-73114050D01*
X159510937Y-73111215D01*
X159539555Y-73107696D01*
X159562264Y-73103394D01*
X159581500Y-73098214D01*
X159587843Y-73096181D01*
X159638936Y-73075569D01*
X159690102Y-73049277D01*
X159711091Y-73036157D01*
X159748200Y-73005178D01*
X159794487Y-72958416D01*
X159831194Y-72917050D01*
X160119652Y-72917050D01*
X160883096Y-72929750D01*
X160813773Y-73018650D01*
X160782805Y-73059355D01*
X160758906Y-73092658D01*
X160745682Y-73113447D01*
X160744174Y-73117289D01*
X160756238Y-73119789D01*
X160790349Y-73121792D01*
X160843162Y-73123233D01*
X160911328Y-73124047D01*
X160991498Y-73124169D01*
X161070615Y-73123639D01*
X161397331Y-73120250D01*
X161458214Y-73042494D01*
X162073430Y-73042494D01*
X162077386Y-73056714D01*
X162092815Y-73082578D01*
X162118779Y-73101511D01*
X162158590Y-73114407D01*
X162215560Y-73122163D01*
X162292998Y-73125673D01*
X162334112Y-73126102D01*
X162495574Y-73126600D01*
X162510205Y-73109018D01*
X162741829Y-73109018D01*
X162743161Y-73115657D01*
X162755128Y-73120445D01*
X162780872Y-73123657D01*
X162823537Y-73125566D01*
X162886265Y-73126448D01*
X162943433Y-73126600D01*
X163151784Y-73126600D01*
X163234317Y-73021825D01*
X163277696Y-72966631D01*
X163323545Y-72908093D01*
X163364382Y-72855771D01*
X163378672Y-72837390D01*
X163411421Y-72798616D01*
X163441989Y-72768291D01*
X163464646Y-72751985D01*
X163467650Y-72750915D01*
X163499988Y-72746862D01*
X163540980Y-72746916D01*
X163582514Y-72750346D01*
X163616480Y-72756416D01*
X163634766Y-72764395D01*
X163635815Y-72766117D01*
X163629891Y-72780390D01*
X163610518Y-72810732D01*
X163580249Y-72853489D01*
X163541640Y-72905005D01*
X163512989Y-72941830D01*
X163469999Y-72996987D01*
X163433196Y-73045509D01*
X163405237Y-73083790D01*
X163388775Y-73108223D01*
X163385500Y-73114987D01*
X163397548Y-73118992D01*
X163431092Y-73122348D01*
X163482231Y-73124838D01*
X163547066Y-73126245D01*
X163591875Y-73126478D01*
X163798250Y-73126357D01*
X163960175Y-72921283D01*
X164020446Y-72843966D01*
X164065578Y-72783051D01*
X164096926Y-72735625D01*
X164115843Y-72698772D01*
X164123684Y-72669577D01*
X164121802Y-72645127D01*
X164111552Y-72622507D01*
X164104100Y-72611502D01*
X164096018Y-72602945D01*
X164083610Y-72596444D01*
X164063339Y-72591587D01*
X164031667Y-72587964D01*
X163985059Y-72585164D01*
X163919977Y-72582777D01*
X163837099Y-72580500D01*
X163588097Y-72574150D01*
X163670948Y-72469414D01*
X163705069Y-72425711D01*
X163732364Y-72389664D01*
X163749540Y-72365692D01*
X163753800Y-72358289D01*
X163741800Y-72356154D01*
X163708605Y-72354322D01*
X163658417Y-72352922D01*
X163595439Y-72352083D01*
X163545997Y-72351900D01*
X163338195Y-72351900D01*
X163043385Y-72721668D01*
X162976378Y-72805951D01*
X162914353Y-72884423D01*
X162859111Y-72954774D01*
X162812450Y-73014692D01*
X162776170Y-73061866D01*
X162752071Y-73093984D01*
X162741952Y-73108735D01*
X162741829Y-73109018D01*
X162510205Y-73109018D01*
X162559537Y-73049740D01*
X162598415Y-73000709D01*
X162619318Y-72968482D01*
X162622645Y-72952329D01*
X162613975Y-72950303D01*
X162594843Y-72950906D01*
X162574943Y-72950303D01*
X162556139Y-72946005D01*
X162550537Y-72933787D01*
X162559118Y-72910827D01*
X162582859Y-72874304D01*
X162617150Y-72828601D01*
X162649042Y-72788163D01*
X162671813Y-72763777D01*
X162691779Y-72751324D01*
X162715257Y-72746684D01*
X162744150Y-72745791D01*
X162775870Y-72744607D01*
X162798832Y-72739269D01*
X162819334Y-72725764D01*
X162843672Y-72700079D01*
X162874433Y-72662776D01*
X162941216Y-72580500D01*
X162883958Y-72580500D01*
X162849827Y-72578888D01*
X162829340Y-72574812D01*
X162826700Y-72572379D01*
X162834115Y-72559493D01*
X162853975Y-72531795D01*
X162882701Y-72494181D01*
X162898657Y-72473954D01*
X162932052Y-72431978D01*
X162960211Y-72396460D01*
X162978780Y-72372900D01*
X162982762Y-72367775D01*
X162982384Y-72361796D01*
X162968908Y-72357462D01*
X162939591Y-72354558D01*
X162891692Y-72352874D01*
X162822468Y-72352198D01*
X162780630Y-72352170D01*
X162566350Y-72352440D01*
X162477183Y-72463295D01*
X162438124Y-72511414D01*
X162410218Y-72543256D01*
X162388752Y-72562381D01*
X162369015Y-72572348D01*
X162346296Y-72576716D01*
X162324783Y-72578439D01*
X162291161Y-72581971D01*
X162266666Y-72590092D01*
X162244113Y-72607345D01*
X162216319Y-72638276D01*
X162201225Y-72656598D01*
X162172226Y-72693045D01*
X162150853Y-72721695D01*
X162141111Y-72737140D01*
X162140900Y-72738033D01*
X162152177Y-72742773D01*
X162180346Y-72745408D01*
X162191700Y-72745600D01*
X162223525Y-72747160D01*
X162241212Y-72751057D01*
X162242500Y-72752627D01*
X162235094Y-72765032D01*
X162215285Y-72792270D01*
X162186681Y-72829457D01*
X162171884Y-72848159D01*
X162122351Y-72913982D01*
X162090398Y-72966178D01*
X162074574Y-73007949D01*
X162073430Y-73042494D01*
X161458214Y-73042494D01*
X161473840Y-73022539D01*
X161550350Y-72924829D01*
X161659809Y-72924114D01*
X161769269Y-72923400D01*
X161987107Y-72650350D01*
X161884762Y-72644000D01*
X161782416Y-72637650D01*
X162044208Y-72310840D01*
X162106962Y-72232309D01*
X162164318Y-72160163D01*
X162214419Y-72096769D01*
X162255404Y-72044495D01*
X162285415Y-72005706D01*
X162302594Y-71982772D01*
X162306000Y-71977465D01*
X162293816Y-71975823D01*
X162259331Y-71974332D01*
X162205644Y-71973043D01*
X162135852Y-71972011D01*
X162053054Y-71971289D01*
X161960349Y-71970930D01*
X161923586Y-71970900D01*
X161541173Y-71970900D01*
X160405669Y-72544842D01*
X160262660Y-72730946D01*
X160119652Y-72917050D01*
X159831194Y-72917050D01*
X159845165Y-72901307D01*
X159895448Y-72839284D01*
X159940549Y-72777783D01*
X159946975Y-72768339D01*
X159971706Y-72717794D01*
X159981947Y-72665731D01*
X159976516Y-72620538D01*
X159969789Y-72606418D01*
X159967825Y-72594070D01*
X159982066Y-72582817D01*
X160016471Y-72569869D01*
X160025868Y-72566909D01*
X160072618Y-72549481D01*
X160115815Y-72528570D01*
X160132959Y-72517954D01*
X160158386Y-72495234D01*
X160194619Y-72456924D01*
X160237756Y-72407805D01*
X160283898Y-72352654D01*
X160329144Y-72296251D01*
X160369593Y-72243374D01*
X160401345Y-72198802D01*
X160420499Y-72167315D01*
X160422274Y-72163485D01*
X160432109Y-72110354D01*
X160418003Y-72057738D01*
X160381177Y-72009638D01*
X160373241Y-72002614D01*
X160334479Y-71969997D01*
X159710514Y-71973623D01*
X159086550Y-71977250D01*
X159010350Y-72012893D01*
X158963884Y-72037322D01*
X158921525Y-72064122D01*
X158897865Y-72082743D01*
X158874989Y-72106328D01*
X158844187Y-72140724D01*
X158809484Y-72181091D01*
X158774902Y-72222589D01*
X158744464Y-72260380D01*
X158722193Y-72289623D01*
X158712112Y-72305480D01*
X158711900Y-72306451D01*
X158724029Y-72308471D01*
X158758138Y-72310279D01*
X158810806Y-72311794D01*
X158878611Y-72312937D01*
X158958135Y-72313627D01*
X159025698Y-72313800D01*
X159339496Y-72313800D01*
X159400485Y-72249857D01*
X159461473Y-72185914D01*
X159591511Y-72189532D01*
X159649984Y-72191369D01*
X159687782Y-72193819D01*
X159709620Y-72198167D01*
X159720215Y-72205696D01*
X159724282Y-72217688D01*
X159725364Y-72225964D01*
X159722924Y-72247954D01*
X159708631Y-72274237D01*
X159679493Y-72309482D01*
X159655514Y-72334937D01*
X159620238Y-72369403D01*
X159587058Y-72395507D01*
X159551674Y-72414413D01*
X159509786Y-72427289D01*
X159457093Y-72435299D01*
X159389293Y-72439610D01*
X159302088Y-72441388D01*
X159261901Y-72441646D01*
X159061150Y-72442493D01*
X158988125Y-72536766D01*
X158956310Y-72579096D01*
X158931510Y-72614489D01*
X158917219Y-72637835D01*
X158915100Y-72643562D01*
X158927361Y-72648455D01*
X158962396Y-72652758D01*
X159017582Y-72656274D01*
X159090295Y-72658806D01*
X159127825Y-72659567D01*
X159205767Y-72660939D01*
X159261964Y-72662473D01*
X159300070Y-72664720D01*
X159323737Y-72668228D01*
X159336617Y-72673548D01*
X159342364Y-72681229D01*
X159344629Y-72691821D01*
X159344683Y-72692200D01*
X159337815Y-72723353D01*
X159310082Y-72767922D01*
X159293883Y-72788641D01*
X159252192Y-72838146D01*
X159218556Y-72871054D01*
X159185805Y-72890746D01*
X159146771Y-72900602D01*
X159094283Y-72904001D01*
X159048450Y-72904350D01*
X158990735Y-72904087D01*
X158953627Y-72902569D01*
X158932332Y-72898703D01*
X158922056Y-72891394D01*
X158918006Y-72879550D01*
X158917212Y-72874404D01*
X158924646Y-72839513D01*
X158948163Y-72807729D01*
X158983352Y-72771000D01*
X158946051Y-72770555D01*
X158922713Y-72770464D01*
X158878217Y-72770457D01*
X158816802Y-72770530D01*
X158742710Y-72770675D01*
X158660182Y-72770887D01*
X158623556Y-72770996D01*
X158338362Y-72771883D01*
X158303233Y-72812716D01*
X158274460Y-72851413D01*
X158247049Y-72896300D01*
X158241621Y-72906695D01*
X158223323Y-72966889D01*
X155939250Y-72966889D01*
X155918497Y-72953277D01*
X155827399Y-72906700D01*
X155723001Y-72863411D01*
X155609328Y-72824885D01*
X155490405Y-72792596D01*
X155370257Y-72768017D01*
X155252910Y-72752623D01*
X155225750Y-72750468D01*
X155137334Y-72749970D01*
X155032947Y-72758429D01*
X154919950Y-72774773D01*
X154805706Y-72797927D01*
X154697578Y-72826816D01*
X154693156Y-72828177D01*
X154646325Y-72841839D01*
X154609560Y-72850981D01*
X154588889Y-72854163D01*
X154586610Y-72853643D01*
X154589107Y-72839330D01*
X154607311Y-72811574D01*
X154637919Y-72773779D01*
X154677631Y-72729351D01*
X154723145Y-72681695D01*
X154771162Y-72634218D01*
X154818379Y-72590324D01*
X154861495Y-72553419D01*
X154897211Y-72526910D01*
X154911424Y-72518534D01*
X154943076Y-72501949D01*
X154962844Y-72490654D01*
X154966074Y-72488166D01*
X154967369Y-72475022D01*
X154970051Y-72443823D01*
X154972911Y-72409050D01*
X154993598Y-72237312D01*
X155026763Y-72085667D01*
X155073369Y-71951568D01*
X155134380Y-71832467D01*
X155210759Y-71725816D01*
X155246663Y-71685178D01*
X155356077Y-71585595D01*
X155481983Y-71503373D01*
X155624823Y-71438387D01*
X155785038Y-71390511D01*
X155963069Y-71359621D01*
X156159358Y-71345592D01*
X156374346Y-71348299D01*
X156425900Y-71351238D01*
X156608323Y-71370401D01*
X156803657Y-71404191D01*
X157005638Y-71450810D01*
X157208004Y-71508462D01*
X157404492Y-71575351D01*
X157588838Y-71649679D01*
X157754781Y-71729650D01*
X157766074Y-71735698D01*
X157867524Y-71789348D01*
X157952181Y-71830938D01*
X158024814Y-71861835D01*
X158090191Y-71883405D01*
X158153079Y-71897015D01*
X158218248Y-71904033D01*
X158290465Y-71905824D01*
X158354808Y-71904472D01*
X158463883Y-71896819D01*
X158562402Y-71880302D01*
X158658525Y-71852762D01*
X158760412Y-71812039D01*
X158832087Y-71778223D01*
X158982933Y-71692918D01*
X159137933Y-71584342D01*
X159258514Y-71484623D01*
X159727900Y-71484623D01*
X159733979Y-71491597D01*
X159754274Y-71496416D01*
X159791869Y-71499378D01*
X159849848Y-71500781D01*
X159897308Y-71501000D01*
X160066717Y-71501000D01*
X160284375Y-71329550D01*
X160348121Y-71279482D01*
X160404883Y-71235177D01*
X160451732Y-71198898D01*
X160485744Y-71172905D01*
X160503990Y-71159460D01*
X160506249Y-71158100D01*
X160504197Y-71169365D01*
X160495495Y-71200040D01*
X160481538Y-71245442D01*
X160463720Y-71300887D01*
X160463691Y-71300975D01*
X160444409Y-71360008D01*
X160427362Y-71412450D01*
X160414506Y-71452267D01*
X160408103Y-71472425D01*
X160399288Y-71501000D01*
X160746422Y-71501000D01*
X160748074Y-71499713D01*
X161016950Y-71499713D01*
X161177891Y-71500356D01*
X161338833Y-71501000D01*
X161496892Y-71367650D01*
X161654952Y-71234300D01*
X161764576Y-71234300D01*
X161813775Y-71234863D01*
X161851543Y-71236367D01*
X161872094Y-71238535D01*
X161874200Y-71239560D01*
X161869958Y-71252910D01*
X161858542Y-71284591D01*
X161841910Y-71329232D01*
X161829750Y-71361300D01*
X161810763Y-71412171D01*
X161795822Y-71454336D01*
X161786916Y-71482054D01*
X161785300Y-71489389D01*
X161797268Y-71493619D01*
X161830251Y-71497141D01*
X161879869Y-71499669D01*
X161941740Y-71500917D01*
X161963305Y-71501000D01*
X162141310Y-71501000D01*
X162159789Y-71459725D01*
X162169377Y-71436623D01*
X162173808Y-71425491D01*
X162230608Y-71425491D01*
X162243243Y-71467534D01*
X162251418Y-71478438D01*
X162258772Y-71485180D01*
X162269101Y-71490475D01*
X162285205Y-71494458D01*
X162309885Y-71497267D01*
X162345939Y-71499039D01*
X162396168Y-71499911D01*
X162463370Y-71500021D01*
X162550345Y-71499504D01*
X162659893Y-71498499D01*
X162660993Y-71498488D01*
X162771091Y-71497312D01*
X162858760Y-71496066D01*
X162896542Y-71495223D01*
X163156900Y-71495223D01*
X163168784Y-71497445D01*
X163201179Y-71499271D01*
X163249196Y-71500517D01*
X163307945Y-71500999D01*
X163310501Y-71501000D01*
X163464102Y-71501000D01*
X163784530Y-71234300D01*
X163896165Y-71234300D01*
X163945857Y-71234643D01*
X163984171Y-71235561D01*
X164005371Y-71236886D01*
X164007800Y-71237562D01*
X164003475Y-71249573D01*
X163992070Y-71279202D01*
X163975936Y-71320485D01*
X163957426Y-71367457D01*
X163938890Y-71414152D01*
X163922681Y-71454606D01*
X163911151Y-71482853D01*
X163910053Y-71485473D01*
X163912342Y-71491875D01*
X163927579Y-71496150D01*
X163958789Y-71498510D01*
X164008998Y-71499169D01*
X164081230Y-71498339D01*
X164090297Y-71498173D01*
X164277380Y-71494650D01*
X164384439Y-71215250D01*
X164416231Y-71132505D01*
X164446381Y-71054448D01*
X164473247Y-70985304D01*
X164495183Y-70929294D01*
X164510547Y-70890644D01*
X164515316Y-70878991D01*
X164528072Y-70843939D01*
X164533731Y-70818727D01*
X164533068Y-70812316D01*
X164519133Y-70809423D01*
X164483581Y-70806867D01*
X164430193Y-70804782D01*
X164362751Y-70803302D01*
X164285037Y-70802560D01*
X164254710Y-70802500D01*
X163982420Y-70802500D01*
X163569660Y-71145973D01*
X163481955Y-71219087D01*
X163400610Y-71287155D01*
X163327640Y-71348471D01*
X163265058Y-71401331D01*
X163214881Y-71444031D01*
X163179121Y-71474865D01*
X163159795Y-71492130D01*
X163156900Y-71495223D01*
X162896542Y-71495223D01*
X162926974Y-71494544D01*
X162978705Y-71492542D01*
X163016924Y-71489852D01*
X163044604Y-71486270D01*
X163064717Y-71481589D01*
X163080234Y-71475604D01*
X163093376Y-71468551D01*
X163122711Y-71446354D01*
X163158727Y-71412040D01*
X163196956Y-71370835D01*
X163232933Y-71327966D01*
X163262191Y-71288660D01*
X163280265Y-71258143D01*
X163283900Y-71245592D01*
X163271563Y-71217383D01*
X163235366Y-71185935D01*
X163176527Y-71152035D01*
X163096263Y-71116471D01*
X163066523Y-71104970D01*
X162997693Y-71078441D01*
X162950504Y-71057807D01*
X162922508Y-71040908D01*
X162911260Y-71025581D01*
X162914310Y-71009665D01*
X162929213Y-70990998D01*
X162933055Y-70987089D01*
X162955622Y-70967795D01*
X162979339Y-70958464D01*
X163013711Y-70956450D01*
X163039479Y-70957442D01*
X163080710Y-70960529D01*
X163102460Y-70966039D01*
X163110649Y-70976637D01*
X163111441Y-70989825D01*
X163111774Y-71000884D01*
X163116218Y-71008643D01*
X163128577Y-71013687D01*
X163152651Y-71016600D01*
X163192244Y-71017968D01*
X163251157Y-71018374D01*
X163297259Y-71018400D01*
X163484085Y-71018400D01*
X163517342Y-70974797D01*
X163543758Y-70926117D01*
X163548728Y-70880236D01*
X163532047Y-70841587D01*
X163523889Y-70833043D01*
X163514237Y-70825770D01*
X163501196Y-70820047D01*
X163481726Y-70815645D01*
X163452787Y-70812333D01*
X163411341Y-70809882D01*
X163354347Y-70808060D01*
X163278765Y-70806639D01*
X163181557Y-70805388D01*
X163154514Y-70805086D01*
X163035754Y-70804063D01*
X162939212Y-70804299D01*
X162861713Y-70806435D01*
X162800084Y-70811110D01*
X162751149Y-70818966D01*
X162711736Y-70830644D01*
X162678668Y-70846785D01*
X162648772Y-70868028D01*
X162618874Y-70895016D01*
X162596104Y-70917812D01*
X162538385Y-70981888D01*
X162502498Y-71033950D01*
X162488159Y-71074467D01*
X162489762Y-71093378D01*
X162499376Y-71109376D01*
X162519941Y-71125933D01*
X162554497Y-71144607D01*
X162606088Y-71166956D01*
X162677757Y-71194537D01*
X162711613Y-71206978D01*
X162780383Y-71233422D01*
X162826827Y-71255276D01*
X162853175Y-71274450D01*
X162861655Y-71292854D01*
X162854498Y-71312397D01*
X162846422Y-71322456D01*
X162827727Y-71337468D01*
X162801247Y-71345511D01*
X162759496Y-71348440D01*
X162740804Y-71348600D01*
X162696784Y-71348174D01*
X162672960Y-71345408D01*
X162664133Y-71338070D01*
X162665099Y-71323928D01*
X162666815Y-71316850D01*
X162674783Y-71285100D01*
X162296314Y-71285100D01*
X162263057Y-71328702D01*
X162237389Y-71376937D01*
X162230608Y-71425491D01*
X162173808Y-71425491D01*
X162186141Y-71394512D01*
X162208513Y-71337462D01*
X162234930Y-71269544D01*
X162263826Y-71194829D01*
X162293636Y-71117385D01*
X162322795Y-71041284D01*
X162349738Y-70970596D01*
X162372900Y-70909392D01*
X162390715Y-70861741D01*
X162401620Y-70831714D01*
X162403949Y-70824725D01*
X162404580Y-70817466D01*
X162399566Y-70811981D01*
X162385888Y-70808022D01*
X162360530Y-70805344D01*
X162320473Y-70803700D01*
X162262700Y-70802844D01*
X162184193Y-70802530D01*
X162131491Y-70802500D01*
X161852419Y-70802500D01*
X161491834Y-71102051D01*
X161407089Y-71172495D01*
X161326269Y-71239756D01*
X161252008Y-71301639D01*
X161186938Y-71355943D01*
X161133695Y-71400473D01*
X161094910Y-71433029D01*
X161074100Y-71450658D01*
X161016950Y-71499713D01*
X160748074Y-71499713D01*
X161180136Y-71163227D01*
X161271465Y-71091916D01*
X161356448Y-71025209D01*
X161433011Y-70964756D01*
X161499082Y-70912210D01*
X161552591Y-70869223D01*
X161591464Y-70837449D01*
X161613630Y-70818538D01*
X161618083Y-70813977D01*
X161607905Y-70809467D01*
X161576768Y-70805823D01*
X161529105Y-70803387D01*
X161469417Y-70802500D01*
X161316518Y-70802500D01*
X161199904Y-70894575D01*
X161138549Y-70943104D01*
X161067941Y-70999083D01*
X160998674Y-71054107D01*
X160961220Y-71083920D01*
X160914313Y-71120802D01*
X160875138Y-71150666D01*
X160847609Y-71170598D01*
X160835638Y-71177681D01*
X160835481Y-71177618D01*
X160838042Y-71165005D01*
X160847588Y-71132817D01*
X160862736Y-71085463D01*
X160882101Y-71027348D01*
X160889456Y-71005757D01*
X160910371Y-70943499D01*
X160927899Y-70889040D01*
X160940522Y-70847275D01*
X160946720Y-70823098D01*
X160947100Y-70819984D01*
X160942099Y-70812395D01*
X160924726Y-70807269D01*
X160891425Y-70804207D01*
X160838641Y-70802813D01*
X160791525Y-70802614D01*
X160635950Y-70802728D01*
X160429260Y-70967072D01*
X160364611Y-71018327D01*
X160304437Y-71065757D01*
X160252403Y-71106493D01*
X160212175Y-71137669D01*
X160187419Y-71156416D01*
X160184723Y-71158368D01*
X160146874Y-71185318D01*
X160210437Y-71004626D01*
X160232627Y-70940843D01*
X160251442Y-70885425D01*
X160265401Y-70842837D01*
X160273025Y-70817544D01*
X160274000Y-70812837D01*
X160262103Y-70808928D01*
X160229590Y-70806188D01*
X160181228Y-70804842D01*
X160121783Y-70805113D01*
X160112727Y-70805295D01*
X159951455Y-70808850D01*
X159839677Y-71138548D01*
X159810300Y-71225778D01*
X159783811Y-71305538D01*
X159761269Y-71374553D01*
X159743733Y-71429545D01*
X159732261Y-71467237D01*
X159727911Y-71484353D01*
X159727900Y-71484623D01*
X159258514Y-71484623D01*
X159295567Y-71453981D01*
X159454317Y-71303323D01*
X159612664Y-71133855D01*
X159769089Y-70947064D01*
X159922075Y-70744437D01*
X159996975Y-70637400D01*
X160043474Y-70568144D01*
X160090359Y-70496357D01*
X160135512Y-70425489D01*
X160176813Y-70358994D01*
X160212144Y-70300323D01*
X160239388Y-70252929D01*
X160256425Y-70220263D01*
X160261300Y-70206662D01*
X160265130Y-70191302D01*
X160275819Y-70155675D01*
X160292164Y-70103604D01*
X160312961Y-70038909D01*
X160337008Y-69965410D01*
X160342408Y-69949061D01*
X160430291Y-69696934D01*
X160519985Y-69466012D01*
X160611142Y-69256999D01*
X160703416Y-69070599D01*
X160796458Y-68907515D01*
X160889922Y-68768452D01*
X160979542Y-68658401D01*
X161021698Y-68615418D01*
X161067063Y-68574668D01*
X161111223Y-68539488D01*
X161149767Y-68513215D01*
X161178284Y-68499188D01*
X161190547Y-68498777D01*
X161199551Y-68517977D01*
X161200163Y-68555215D01*
X161192906Y-68604745D01*
X161178304Y-68660821D01*
X161174808Y-68671547D01*
X161162338Y-68703969D01*
X161140662Y-68755366D01*
X161111530Y-68821798D01*
X161076692Y-68899324D01*
X161037899Y-68984003D01*
X160998723Y-69068021D01*
X160936456Y-69200789D01*
X160884826Y-69311780D01*
X160843357Y-69402054D01*
X160811571Y-69472675D01*
X160788993Y-69524704D01*
X160775147Y-69559203D01*
X160769554Y-69577234D01*
X160769384Y-69579078D01*
X160775499Y-69572552D01*
X160792311Y-69547604D01*
X160817608Y-69507688D01*
X160849181Y-69456257D01*
X160868278Y-69424550D01*
X161101737Y-69057266D01*
X161354963Y-68701957D01*
X161625618Y-68361639D01*
X161911359Y-68039331D01*
X162071044Y-67873900D01*
X162235067Y-67713181D01*
X162387226Y-67572806D01*
X162529055Y-67451540D01*
X162662088Y-67348146D01*
X162787859Y-67261391D01*
X162907903Y-67190039D01*
X162944784Y-67170551D01*
X163023338Y-67132938D01*
X163083042Y-67111214D01*
X163125390Y-67106063D01*
X163151877Y-67118166D01*
X163163998Y-67148208D01*
X163163246Y-67196870D01*
X163151119Y-67264825D01*
X163126451Y-67346963D01*
X163086130Y-67444805D01*
X163031758Y-67555413D01*
X162964935Y-67675850D01*
X162887260Y-67803177D01*
X162800334Y-67934456D01*
X162739135Y-68021200D01*
X162705427Y-68068733D01*
X162678595Y-68108349D01*
X162661401Y-68135841D01*
X162656553Y-68146954D01*
X162666956Y-68140760D01*
X162691718Y-68120092D01*
X162727054Y-68088251D01*
X162766188Y-68051406D01*
X162839303Y-67982906D01*
X162927871Y-67902541D01*
X163027413Y-67814195D01*
X163133453Y-67721753D01*
X163241513Y-67629098D01*
X163347115Y-67540113D01*
X163445784Y-67458681D01*
X163499800Y-67415060D01*
X163645984Y-67301112D01*
X163778951Y-67203487D01*
X163898044Y-67122586D01*
X164002605Y-67058810D01*
X164091978Y-67012559D01*
X164165506Y-66984234D01*
X164222532Y-66974235D01*
X164222591Y-66974234D01*
X164258128Y-66975390D01*
G36*
X155695173Y-69082398D02*
X155722861Y-69091059D01*
X155742319Y-69108878D01*
X155760478Y-69142809D01*
X155764460Y-69151897D01*
X155781662Y-69203544D01*
X155789108Y-69259384D01*
X155786716Y-69324548D01*
X155774398Y-69404167D01*
X155759150Y-69474119D01*
X155732151Y-69637618D01*
X155729859Y-69795406D01*
X155752343Y-69947777D01*
X155799667Y-70095023D01*
X155871901Y-70237437D01*
X155964715Y-70369846D01*
X156035867Y-70452249D01*
X156114402Y-70529863D01*
X156203029Y-70604626D01*
X156304454Y-70678475D01*
X156421386Y-70753346D01*
X156556531Y-70831177D01*
X156712598Y-70913905D01*
X156756100Y-70936033D01*
X156880446Y-71000268D01*
X156982865Y-71056482D01*
X157065124Y-71105804D01*
X157128992Y-71149357D01*
X157176237Y-71188269D01*
X157208627Y-71223665D01*
X157209357Y-71224642D01*
X157233737Y-71262693D01*
X157258033Y-71309339D01*
X157280422Y-71359649D01*
X157299079Y-71408690D01*
X157312181Y-71451531D01*
X157317905Y-71483238D01*
X157314428Y-71498880D01*
X157311040Y-71499684D01*
X157293343Y-71495544D01*
X157257026Y-71485333D01*
X157207679Y-71470666D01*
X157160160Y-71456059D01*
X156905620Y-71387950D01*
X156648547Y-71341069D01*
X156393480Y-71316077D01*
X156176198Y-71312669D01*
X155996346Y-71317140D01*
X155968077Y-71210131D01*
X155932261Y-71097101D01*
X155889190Y-71004941D01*
X155836517Y-70929601D01*
X155771891Y-70867029D01*
X155766688Y-70862888D01*
X155675808Y-70785803D01*
X155598373Y-70708619D01*
X155536316Y-70633857D01*
X155491570Y-70564037D01*
X155466067Y-70501679D01*
X155460700Y-70463952D01*
X155467740Y-70429516D01*
X155479861Y-70404062D01*
X155490129Y-70384662D01*
X155489294Y-70367096D01*
X155475489Y-70342723D01*
X155462721Y-70324706D01*
X155391696Y-70210644D01*
X155329847Y-70079198D01*
X155280302Y-69937652D01*
X155256170Y-69843650D01*
X155246739Y-69782352D01*
X155241081Y-69706723D01*
X155239124Y-69623918D01*
X155240800Y-69541095D01*
X155246039Y-69465408D01*
X155254771Y-69404014D01*
X155260674Y-69380100D01*
X155296671Y-69293968D01*
X155346967Y-69217262D01*
X155406780Y-69156861D01*
X155425190Y-69143400D01*
X155481947Y-69114584D01*
X155550843Y-69092989D01*
X155621633Y-69080929D01*
X155684073Y-69080719D01*
X155695173Y-69082398D01*
X155695173Y-69082398D01*
G37*
X155695173Y-69082398D02*
X155722861Y-69091059D01*
X155742319Y-69108878D01*
X155760478Y-69142809D01*
X155764460Y-69151897D01*
X155781662Y-69203544D01*
X155789108Y-69259384D01*
X155786716Y-69324548D01*
X155774398Y-69404167D01*
X155759150Y-69474119D01*
X155732151Y-69637618D01*
X155729859Y-69795406D01*
X155752343Y-69947777D01*
X155799667Y-70095023D01*
X155871901Y-70237437D01*
X155964715Y-70369846D01*
X156035867Y-70452249D01*
X156114402Y-70529863D01*
X156203029Y-70604626D01*
X156304454Y-70678475D01*
X156421386Y-70753346D01*
X156556531Y-70831177D01*
X156712598Y-70913905D01*
X156756100Y-70936033D01*
X156880446Y-71000268D01*
X156982865Y-71056482D01*
X157065124Y-71105804D01*
X157128992Y-71149357D01*
X157176237Y-71188269D01*
X157208627Y-71223665D01*
X157209357Y-71224642D01*
X157233737Y-71262693D01*
X157258033Y-71309339D01*
X157280422Y-71359649D01*
X157299079Y-71408690D01*
X157312181Y-71451531D01*
X157317905Y-71483238D01*
X157314428Y-71498880D01*
X157311040Y-71499684D01*
X157293343Y-71495544D01*
X157257026Y-71485333D01*
X157207679Y-71470666D01*
X157160160Y-71456059D01*
X156905620Y-71387950D01*
X156648547Y-71341069D01*
X156393480Y-71316077D01*
X156176198Y-71312669D01*
X155996346Y-71317140D01*
X155968077Y-71210131D01*
X155932261Y-71097101D01*
X155889190Y-71004941D01*
X155836517Y-70929601D01*
X155771891Y-70867029D01*
X155766688Y-70862888D01*
X155675808Y-70785803D01*
X155598373Y-70708619D01*
X155536316Y-70633857D01*
X155491570Y-70564037D01*
X155466067Y-70501679D01*
X155460700Y-70463952D01*
X155467740Y-70429516D01*
X155479861Y-70404062D01*
X155490129Y-70384662D01*
X155489294Y-70367096D01*
X155475489Y-70342723D01*
X155462721Y-70324706D01*
X155391696Y-70210644D01*
X155329847Y-70079198D01*
X155280302Y-69937652D01*
X155256170Y-69843650D01*
X155246739Y-69782352D01*
X155241081Y-69706723D01*
X155239124Y-69623918D01*
X155240800Y-69541095D01*
X155246039Y-69465408D01*
X155254771Y-69404014D01*
X155260674Y-69380100D01*
X155296671Y-69293968D01*
X155346967Y-69217262D01*
X155406780Y-69156861D01*
X155425190Y-69143400D01*
X155481947Y-69114584D01*
X155550843Y-69092989D01*
X155621633Y-69080929D01*
X155684073Y-69080719D01*
X155695173Y-69082398D01*
G36*
X158781030Y-73995611D02*
X158788100Y-74008036D01*
X158776514Y-74030811D01*
X158745727Y-74047034D01*
X158701693Y-74053672D01*
X158698485Y-74053700D01*
X158671508Y-74052438D01*
X158665658Y-74044896D01*
X158676669Y-74025433D01*
X158676873Y-74025125D01*
X158698241Y-74006306D01*
X158728138Y-73994283D01*
X158758441Y-73990302D01*
X158781030Y-73995611D01*
X158781030Y-73995611D01*
G37*
X158781030Y-73995611D02*
X158788100Y-74008036D01*
X158776514Y-74030811D01*
X158745727Y-74047034D01*
X158701693Y-74053672D01*
X158698485Y-74053700D01*
X158671508Y-74052438D01*
X158665658Y-74044896D01*
X158676669Y-74025433D01*
X158676873Y-74025125D01*
X158698241Y-74006306D01*
X158728138Y-73994283D01*
X158758441Y-73990302D01*
X158781030Y-73995611D01*
G36*
X159865921Y-74106644D02*
X159880031Y-74111898D01*
X159880300Y-74112826D01*
X159873255Y-74127231D01*
X159855614Y-74153276D01*
X159847903Y-74163626D01*
X159820171Y-74192997D01*
X159790970Y-74204847D01*
X159771703Y-74206100D01*
X159742577Y-74203113D01*
X159728217Y-74195784D01*
X159727900Y-74194374D01*
X159735438Y-74177964D01*
X159754195Y-74151635D01*
X159760778Y-74143574D01*
X159792285Y-74114943D01*
X159827279Y-74104814D01*
X159836978Y-74104500D01*
X159865921Y-74106644D01*
X159865921Y-74106644D01*
G37*
X159865921Y-74106644D02*
X159880031Y-74111898D01*
X159880300Y-74112826D01*
X159873255Y-74127231D01*
X159855614Y-74153276D01*
X159847903Y-74163626D01*
X159820171Y-74192997D01*
X159790970Y-74204847D01*
X159771703Y-74206100D01*
X159742577Y-74203113D01*
X159728217Y-74195784D01*
X159727900Y-74194374D01*
X159735438Y-74177964D01*
X159754195Y-74151635D01*
X159760778Y-74143574D01*
X159792285Y-74114943D01*
X159827279Y-74104814D01*
X159836978Y-74104500D01*
X159865921Y-74106644D01*
G36*
X161144482Y-74107356D02*
X161161835Y-74114478D01*
X161163000Y-74117200D01*
X161151639Y-74124732D01*
X161122858Y-74129285D01*
X161105100Y-74129900D01*
X161069801Y-74127484D01*
X161054645Y-74120852D01*
X161055050Y-74117200D01*
X161071701Y-74109082D01*
X161103287Y-74104732D01*
X161112949Y-74104500D01*
X161144482Y-74107356D01*
X161144482Y-74107356D01*
G37*
X161144482Y-74107356D02*
X161161835Y-74114478D01*
X161163000Y-74117200D01*
X161151639Y-74124732D01*
X161122858Y-74129285D01*
X161105100Y-74129900D01*
X161069801Y-74127484D01*
X161054645Y-74120852D01*
X161055050Y-74117200D01*
X161071701Y-74109082D01*
X161103287Y-74104732D01*
X161112949Y-74104500D01*
X161144482Y-74107356D01*
G36*
X157488541Y-73614160D02*
X157498453Y-73627914D01*
X157484699Y-73648770D01*
X157482875Y-73650405D01*
X157458669Y-73663711D01*
X157425296Y-73673841D01*
X157393207Y-73678515D01*
X157372855Y-73675454D01*
X157371861Y-73674628D01*
X157372714Y-73660767D01*
X157389548Y-73641905D01*
X157415233Y-73623582D01*
X157442642Y-73611337D01*
X157456064Y-73609200D01*
X157488541Y-73614160D01*
X157488541Y-73614160D01*
G37*
X157488541Y-73614160D02*
X157498453Y-73627914D01*
X157484699Y-73648770D01*
X157482875Y-73650405D01*
X157458669Y-73663711D01*
X157425296Y-73673841D01*
X157393207Y-73678515D01*
X157372855Y-73675454D01*
X157371861Y-73674628D01*
X157372714Y-73660767D01*
X157389548Y-73641905D01*
X157415233Y-73623582D01*
X157442642Y-73611337D01*
X157456064Y-73609200D01*
X157488541Y-73614160D01*
G36*
X157611475Y-73473079D02*
X157617824Y-73485268D01*
X157600962Y-73504628D01*
X157596068Y-73508693D01*
X157569912Y-73522912D01*
X157538398Y-73531414D01*
X157510191Y-73533042D01*
X157493954Y-73526636D01*
X157492700Y-73522513D01*
X157503422Y-73501317D01*
X157529062Y-73480628D01*
X157559830Y-73466839D01*
X157580828Y-73464945D01*
X157611475Y-73473079D01*
X157611475Y-73473079D01*
G37*
X157611475Y-73473079D02*
X157617824Y-73485268D01*
X157600962Y-73504628D01*
X157596068Y-73508693D01*
X157569912Y-73522912D01*
X157538398Y-73531414D01*
X157510191Y-73533042D01*
X157493954Y-73526636D01*
X157492700Y-73522513D01*
X157503422Y-73501317D01*
X157529062Y-73480628D01*
X157559830Y-73466839D01*
X157580828Y-73464945D01*
X157611475Y-73473079D01*
G36*
X159021323Y-73576607D02*
X159026917Y-73593550D01*
X159010564Y-73622557D01*
X158999501Y-73635863D01*
X158965308Y-73663027D01*
X158926801Y-73676804D01*
X158893156Y-73674262D01*
X158887850Y-73671557D01*
X158879938Y-73659600D01*
X158890088Y-73639867D01*
X158896253Y-73632200D01*
X158929650Y-73596219D01*
X158957468Y-73577443D01*
X158987098Y-73571239D01*
X158993727Y-73571100D01*
X159021323Y-73576607D01*
X159021323Y-73576607D01*
G37*
X159021323Y-73576607D02*
X159026917Y-73593550D01*
X159010564Y-73622557D01*
X158999501Y-73635863D01*
X158965308Y-73663027D01*
X158926801Y-73676804D01*
X158893156Y-73674262D01*
X158887850Y-73671557D01*
X158879938Y-73659600D01*
X158890088Y-73639867D01*
X158896253Y-73632200D01*
X158929650Y-73596219D01*
X158957468Y-73577443D01*
X158987098Y-73571239D01*
X158993727Y-73571100D01*
X159021323Y-73576607D01*
G36*
X160613867Y-73576186D02*
X160621809Y-73592020D01*
X160607647Y-73619464D01*
X160594039Y-73635898D01*
X160566419Y-73658735D01*
X160534083Y-73674620D01*
X160503934Y-73681708D01*
X160482876Y-73678152D01*
X160477200Y-73667138D01*
X160487149Y-73643192D01*
X160511688Y-73614750D01*
X160542849Y-73588995D01*
X160572668Y-73573112D01*
X160583684Y-73571100D01*
X160613867Y-73576186D01*
X160613867Y-73576186D01*
G37*
X160613867Y-73576186D02*
X160621809Y-73592020D01*
X160607647Y-73619464D01*
X160594039Y-73635898D01*
X160566419Y-73658735D01*
X160534083Y-73674620D01*
X160503934Y-73681708D01*
X160482876Y-73678152D01*
X160477200Y-73667138D01*
X160487149Y-73643192D01*
X160511688Y-73614750D01*
X160542849Y-73588995D01*
X160572668Y-73573112D01*
X160583684Y-73571100D01*
X160613867Y-73576186D01*
G36*
X161340471Y-72360003D02*
X161325651Y-72378454D01*
X161298370Y-72411980D01*
X161262321Y-72456055D01*
X161221198Y-72506155D01*
X161214891Y-72513825D01*
X161107808Y-72644000D01*
X160930087Y-72644000D01*
X160866750Y-72643670D01*
X160814139Y-72642765D01*
X160776618Y-72641410D01*
X160758555Y-72639729D01*
X160757658Y-72639067D01*
X160773674Y-72628899D01*
X160807382Y-72610698D01*
X160855247Y-72586155D01*
X160913733Y-72556962D01*
X160979307Y-72524814D01*
X161048432Y-72491401D01*
X161117575Y-72458417D01*
X161183201Y-72427554D01*
X161241774Y-72400504D01*
X161289761Y-72378961D01*
X161323625Y-72364616D01*
X161339834Y-72359163D01*
X161340471Y-72360003D01*
X161340471Y-72360003D01*
G37*
X161340471Y-72360003D02*
X161325651Y-72378454D01*
X161298370Y-72411980D01*
X161262321Y-72456055D01*
X161221198Y-72506155D01*
X161214891Y-72513825D01*
X161107808Y-72644000D01*
X160930087Y-72644000D01*
X160866750Y-72643670D01*
X160814139Y-72642765D01*
X160776618Y-72641410D01*
X160758555Y-72639729D01*
X160757658Y-72639067D01*
X160773674Y-72628899D01*
X160807382Y-72610698D01*
X160855247Y-72586155D01*
X160913733Y-72556962D01*
X160979307Y-72524814D01*
X161048432Y-72491401D01*
X161117575Y-72458417D01*
X161183201Y-72427554D01*
X161241774Y-72400504D01*
X161289761Y-72378961D01*
X161323625Y-72364616D01*
X161339834Y-72359163D01*
X161340471Y-72360003D01*
G36*
X161972587Y-70960447D02*
X161970688Y-70972958D01*
X161962368Y-71001734D01*
X161955519Y-71022596D01*
X161942230Y-71057976D01*
X161928884Y-71075444D01*
X161907792Y-71081312D01*
X161883287Y-71081900D01*
X161831262Y-71081900D01*
X161900356Y-71019751D01*
X161934159Y-70990057D01*
X161959728Y-70968936D01*
X161972169Y-70960406D01*
X161972587Y-70960447D01*
X161972587Y-70960447D01*
G37*
X161972587Y-70960447D02*
X161970688Y-70972958D01*
X161962368Y-71001734D01*
X161955519Y-71022596D01*
X161942230Y-71057976D01*
X161928884Y-71075444D01*
X161907792Y-71081312D01*
X161883287Y-71081900D01*
X161831262Y-71081900D01*
X161900356Y-71019751D01*
X161934159Y-70990057D01*
X161959728Y-70968936D01*
X161972169Y-70960406D01*
X161972587Y-70960447D01*
G36*
X164106353Y-70960352D02*
X164104253Y-70973014D01*
X164095243Y-71001731D01*
X164087739Y-71022762D01*
X164073396Y-71057986D01*
X164059474Y-71075360D01*
X164038241Y-71081091D01*
X164014585Y-71081495D01*
X163963350Y-71081091D01*
X164033200Y-71019086D01*
X164067307Y-70989584D01*
X164093174Y-70968668D01*
X164105885Y-70960285D01*
X164106353Y-70960352D01*
X164106353Y-70960352D01*
G37*
X164106353Y-70960352D02*
X164104253Y-70973014D01*
X164095243Y-71001731D01*
X164087739Y-71022762D01*
X164073396Y-71057986D01*
X164059474Y-71075360D01*
X164038241Y-71081091D01*
X164014585Y-71081495D01*
X163963350Y-71081091D01*
X164033200Y-71019086D01*
X164067307Y-70989584D01*
X164093174Y-70968668D01*
X164105885Y-70960285D01*
X164106353Y-70960352D01*
D16*
X152871715Y-83729286D02*
X152799144Y-83801857D01*
X152581430Y-83874429D01*
X152436287Y-83874429D01*
X152218572Y-83801857D01*
X152073430Y-83656714D01*
X152000858Y-83511571D01*
X151928287Y-83221286D01*
X151928287Y-83003571D01*
X152000858Y-82713286D01*
X152073430Y-82568143D01*
X152218572Y-82423000D01*
X152436287Y-82350429D01*
X152581430Y-82350429D01*
X152799144Y-82423000D01*
X152871715Y-82495571D01*
X153815144Y-82350429D02*
X154105430Y-82350429D01*
X154250572Y-82423000D01*
X154395715Y-82568143D01*
X154468287Y-82858429D01*
X154468287Y-83366429D01*
X154395715Y-83656714D01*
X154250572Y-83801857D01*
X154105430Y-83874429D01*
X153815144Y-83874429D01*
X153670001Y-83801857D01*
X153524858Y-83656714D01*
X153452287Y-83366429D01*
X153452287Y-82858429D01*
X153524858Y-82568143D01*
X153670001Y-82423000D01*
X153815144Y-82350429D01*
X155121429Y-83874429D02*
X155121429Y-82350429D01*
X155992286Y-83874429D01*
X155992286Y-82350429D01*
X156500286Y-82350429D02*
X157371143Y-82350429D01*
X156935714Y-83874429D02*
X156935714Y-82350429D01*
X158750000Y-83874429D02*
X158242000Y-83148714D01*
X157879143Y-83874429D02*
X157879143Y-82350429D01*
X158459715Y-82350429D01*
X158604857Y-82423000D01*
X158677429Y-82495571D01*
X158750000Y-82640714D01*
X158750000Y-82858429D01*
X158677429Y-83003571D01*
X158604857Y-83076143D01*
X158459715Y-83148714D01*
X157879143Y-83148714D01*
X159693429Y-82350429D02*
X159983715Y-82350429D01*
X160128857Y-82423000D01*
X160274000Y-82568143D01*
X160346572Y-82858429D01*
X160346572Y-83366429D01*
X160274000Y-83656714D01*
X160128857Y-83801857D01*
X159983715Y-83874429D01*
X159693429Y-83874429D01*
X159548286Y-83801857D01*
X159403143Y-83656714D01*
X159330572Y-83366429D01*
X159330572Y-82858429D01*
X159403143Y-82568143D01*
X159548286Y-82423000D01*
X159693429Y-82350429D01*
X161725428Y-83874429D02*
X160999714Y-83874429D01*
X160999714Y-82350429D01*
X163322000Y-83801857D02*
X163539714Y-83874429D01*
X163902571Y-83874429D01*
X164047714Y-83801857D01*
X164120285Y-83729286D01*
X164192857Y-83584143D01*
X164192857Y-83439000D01*
X164120285Y-83293857D01*
X164047714Y-83221286D01*
X163902571Y-83148714D01*
X163612285Y-83076143D01*
X163467143Y-83003571D01*
X163394571Y-82931000D01*
X163322000Y-82785857D01*
X163322000Y-82640714D01*
X163394571Y-82495571D01*
X163467143Y-82423000D01*
X163612285Y-82350429D01*
X163975143Y-82350429D01*
X164192857Y-82423000D01*
X164846000Y-83874429D02*
X164846000Y-82350429D01*
X164846000Y-83076143D02*
X165716857Y-83076143D01*
X165716857Y-83874429D02*
X165716857Y-82350429D01*
X166442571Y-83874429D02*
X166442571Y-82350429D01*
X167168285Y-83076143D02*
X167676285Y-83076143D01*
X167893999Y-83874429D02*
X167168285Y-83874429D01*
X167168285Y-82350429D01*
X167893999Y-82350429D01*
X169272856Y-83874429D02*
X168547142Y-83874429D01*
X168547142Y-82350429D01*
X169780856Y-83874429D02*
X169780856Y-82350429D01*
X170143713Y-82350429D01*
X170361428Y-82423000D01*
X170506570Y-82568143D01*
X170579142Y-82713286D01*
X170651713Y-83003571D01*
X170651713Y-83221286D01*
X170579142Y-83511571D01*
X170506570Y-83656714D01*
X170361428Y-83801857D01*
X170143713Y-83874429D01*
X169780856Y-83874429D01*
D14*
X233426096Y-84844000D02*
X233330858Y-84796381D01*
X233188001Y-84796381D01*
X233045143Y-84844000D01*
X232949905Y-84939238D01*
X232902286Y-85034476D01*
X232854667Y-85224952D01*
X232854667Y-85367810D01*
X232902286Y-85558286D01*
X232949905Y-85653524D01*
X233045143Y-85748762D01*
X233188001Y-85796381D01*
X233283239Y-85796381D01*
X233426096Y-85748762D01*
X233473715Y-85701143D01*
X233473715Y-85367810D01*
X233283239Y-85367810D01*
X233902286Y-85796381D02*
X233902286Y-84796381D01*
X234473715Y-85796381D01*
X234473715Y-84796381D01*
X234949905Y-85796381D02*
X234949905Y-84796381D01*
X235188000Y-84796381D01*
X235330858Y-84844000D01*
X235426096Y-84939238D01*
X235473715Y-85034476D01*
X235521334Y-85224952D01*
X235521334Y-85367810D01*
X235473715Y-85558286D01*
X235426096Y-85653524D01*
X235330858Y-85748762D01*
X235188000Y-85796381D01*
X234949905Y-85796381D01*
X233997524Y-38568381D02*
X233521333Y-38568381D01*
X233473714Y-39044571D01*
X233521333Y-38996952D01*
X233616571Y-38949333D01*
X233854667Y-38949333D01*
X233949905Y-38996952D01*
X233997524Y-39044571D01*
X234045143Y-39139810D01*
X234045143Y-39377905D01*
X233997524Y-39473143D01*
X233949905Y-39520762D01*
X233854667Y-39568381D01*
X233616571Y-39568381D01*
X233521333Y-39520762D01*
X233473714Y-39473143D01*
X234330857Y-38568381D02*
X234664190Y-39568381D01*
X234997524Y-38568381D01*
X225448762Y-44878476D02*
X225496381Y-44735619D01*
X225496381Y-44497523D01*
X225448762Y-44402285D01*
X225401143Y-44354666D01*
X225305905Y-44307047D01*
X225210667Y-44307047D01*
X225115429Y-44354666D01*
X225067810Y-44402285D01*
X225020190Y-44497523D01*
X224972571Y-44688000D01*
X224924952Y-44783238D01*
X224877333Y-44830857D01*
X224782095Y-44878476D01*
X224686857Y-44878476D01*
X224591619Y-44830857D01*
X224544000Y-44783238D01*
X224496381Y-44688000D01*
X224496381Y-44449904D01*
X224544000Y-44307047D01*
X225401143Y-43307047D02*
X225448762Y-43354666D01*
X225496381Y-43497523D01*
X225496381Y-43592761D01*
X225448762Y-43735619D01*
X225353524Y-43830857D01*
X225258286Y-43878476D01*
X225067810Y-43926095D01*
X224924952Y-43926095D01*
X224734476Y-43878476D01*
X224639238Y-43830857D01*
X224544000Y-43735619D01*
X224496381Y-43592761D01*
X224496381Y-43497523D01*
X224544000Y-43354666D01*
X224591619Y-43307047D01*
X225496381Y-42402285D02*
X225496381Y-42878476D01*
X224496381Y-42878476D01*
X222908762Y-44902286D02*
X222956381Y-44759429D01*
X222956381Y-44521333D01*
X222908762Y-44426095D01*
X222861143Y-44378476D01*
X222765905Y-44330857D01*
X222670667Y-44330857D01*
X222575429Y-44378476D01*
X222527810Y-44426095D01*
X222480190Y-44521333D01*
X222432571Y-44711810D01*
X222384952Y-44807048D01*
X222337333Y-44854667D01*
X222242095Y-44902286D01*
X222146857Y-44902286D01*
X222051619Y-44854667D01*
X222004000Y-44807048D01*
X221956381Y-44711810D01*
X221956381Y-44473714D01*
X222004000Y-44330857D01*
X222956381Y-43902286D02*
X221956381Y-43902286D01*
X221956381Y-43664191D01*
X222004000Y-43521333D01*
X222099238Y-43426095D01*
X222194476Y-43378476D01*
X222384952Y-43330857D01*
X222527810Y-43330857D01*
X222718286Y-43378476D01*
X222813524Y-43426095D01*
X222908762Y-43521333D01*
X222956381Y-43664191D01*
X222956381Y-43902286D01*
X222670667Y-42949905D02*
X222670667Y-42473714D01*
X222956381Y-43045143D02*
X221956381Y-42711810D01*
X222956381Y-42378476D01*
X220416381Y-44330857D02*
X219940190Y-44664191D01*
X220416381Y-44902286D02*
X219416381Y-44902286D01*
X219416381Y-44521333D01*
X219464000Y-44426095D01*
X219511619Y-44378476D01*
X219606857Y-44330857D01*
X219749714Y-44330857D01*
X219844952Y-44378476D01*
X219892571Y-44426095D01*
X219940190Y-44521333D01*
X219940190Y-44902286D01*
X219416381Y-43997524D02*
X220416381Y-43330857D01*
X219416381Y-43330857D02*
X220416381Y-43997524D01*
X220416381Y-42426095D02*
X220416381Y-42997524D01*
X220416381Y-42711810D02*
X219416381Y-42711810D01*
X219559238Y-42807048D01*
X219654476Y-42902286D01*
X219702095Y-42997524D01*
X216876381Y-44926095D02*
X216876381Y-44354666D01*
X217876381Y-44640381D02*
X216876381Y-44640381D01*
X216876381Y-44116571D02*
X217876381Y-43449904D01*
X216876381Y-43449904D02*
X217876381Y-44116571D01*
X217876381Y-42545142D02*
X217876381Y-43116571D01*
X217876381Y-42830857D02*
X216876381Y-42830857D01*
X217019238Y-42926095D01*
X217114476Y-43021333D01*
X217162095Y-43116571D01*
X215336381Y-44330857D02*
X214860190Y-44664191D01*
X215336381Y-44902286D02*
X214336381Y-44902286D01*
X214336381Y-44521333D01*
X214384000Y-44426095D01*
X214431619Y-44378476D01*
X214526857Y-44330857D01*
X214669714Y-44330857D01*
X214764952Y-44378476D01*
X214812571Y-44426095D01*
X214860190Y-44521333D01*
X214860190Y-44902286D01*
X214336381Y-43997524D02*
X215336381Y-43330857D01*
X214336381Y-43330857D02*
X215336381Y-43997524D01*
X214431619Y-42997524D02*
X214384000Y-42949905D01*
X214336381Y-42854667D01*
X214336381Y-42616571D01*
X214384000Y-42521333D01*
X214431619Y-42473714D01*
X214526857Y-42426095D01*
X214622095Y-42426095D01*
X214764952Y-42473714D01*
X215336381Y-43045143D01*
X215336381Y-42426095D01*
X211796381Y-44926095D02*
X211796381Y-44354666D01*
X212796381Y-44640381D02*
X211796381Y-44640381D01*
X211796381Y-44116571D02*
X212796381Y-43449904D01*
X211796381Y-43449904D02*
X212796381Y-44116571D01*
X211891619Y-43116571D02*
X211844000Y-43068952D01*
X211796381Y-42973714D01*
X211796381Y-42735618D01*
X211844000Y-42640380D01*
X211891619Y-42592761D01*
X211986857Y-42545142D01*
X212082095Y-42545142D01*
X212224952Y-42592761D01*
X212796381Y-43164190D01*
X212796381Y-42545142D01*
X210256381Y-44330857D02*
X209780190Y-44664191D01*
X210256381Y-44902286D02*
X209256381Y-44902286D01*
X209256381Y-44521333D01*
X209304000Y-44426095D01*
X209351619Y-44378476D01*
X209446857Y-44330857D01*
X209589714Y-44330857D01*
X209684952Y-44378476D01*
X209732571Y-44426095D01*
X209780190Y-44521333D01*
X209780190Y-44902286D01*
X209256381Y-43997524D02*
X210256381Y-43330857D01*
X209256381Y-43330857D02*
X210256381Y-43997524D01*
X209256381Y-43045143D02*
X209256381Y-42426095D01*
X209637333Y-42759429D01*
X209637333Y-42616571D01*
X209684952Y-42521333D01*
X209732571Y-42473714D01*
X209827810Y-42426095D01*
X210065905Y-42426095D01*
X210161143Y-42473714D01*
X210208762Y-42521333D01*
X210256381Y-42616571D01*
X210256381Y-42902286D01*
X210208762Y-42997524D01*
X210161143Y-43045143D01*
X206716381Y-44926095D02*
X206716381Y-44354666D01*
X207716381Y-44640381D02*
X206716381Y-44640381D01*
X206716381Y-44116571D02*
X207716381Y-43449904D01*
X206716381Y-43449904D02*
X207716381Y-44116571D01*
X206716381Y-43164190D02*
X206716381Y-42545142D01*
X207097333Y-42878476D01*
X207097333Y-42735618D01*
X207144952Y-42640380D01*
X207192571Y-42592761D01*
X207287810Y-42545142D01*
X207525905Y-42545142D01*
X207621143Y-42592761D01*
X207668762Y-42640380D01*
X207716381Y-42735618D01*
X207716381Y-43021333D01*
X207668762Y-43116571D01*
X207621143Y-43164190D01*
X201636381Y-42719619D02*
X201636381Y-42624380D01*
X201684000Y-42529142D01*
X201731619Y-42481523D01*
X201826857Y-42433904D01*
X202017333Y-42386285D01*
X202255429Y-42386285D01*
X202445905Y-42433904D01*
X202541143Y-42481523D01*
X202588762Y-42529142D01*
X202636381Y-42624380D01*
X202636381Y-42719619D01*
X202588762Y-42814857D01*
X202541143Y-42862476D01*
X202445905Y-42910095D01*
X202255429Y-42957714D01*
X202017333Y-42957714D01*
X201826857Y-42910095D01*
X201731619Y-42862476D01*
X201684000Y-42814857D01*
X201636381Y-42719619D01*
X200096381Y-42386285D02*
X200096381Y-42957714D01*
X200096381Y-42672000D02*
X199096381Y-42672000D01*
X199239238Y-42767238D01*
X199334476Y-42862476D01*
X199382095Y-42957714D01*
X196651619Y-42957714D02*
X196604000Y-42910095D01*
X196556381Y-42814857D01*
X196556381Y-42576761D01*
X196604000Y-42481523D01*
X196651619Y-42433904D01*
X196746857Y-42386285D01*
X196842095Y-42386285D01*
X196984952Y-42433904D01*
X197556381Y-43005333D01*
X197556381Y-42386285D01*
X194016381Y-43005333D02*
X194016381Y-42386285D01*
X194397333Y-42719619D01*
X194397333Y-42576761D01*
X194444952Y-42481523D01*
X194492571Y-42433904D01*
X194587810Y-42386285D01*
X194825905Y-42386285D01*
X194921143Y-42433904D01*
X194968762Y-42481523D01*
X195016381Y-42576761D01*
X195016381Y-42862476D01*
X194968762Y-42957714D01*
X194921143Y-43005333D01*
X191809714Y-42481523D02*
X192476381Y-42481523D01*
X191428762Y-42719619D02*
X192143048Y-42957714D01*
X192143048Y-42338666D01*
X188936381Y-42433904D02*
X188936381Y-42910095D01*
X189412571Y-42957714D01*
X189364952Y-42910095D01*
X189317333Y-42814857D01*
X189317333Y-42576761D01*
X189364952Y-42481523D01*
X189412571Y-42433904D01*
X189507810Y-42386285D01*
X189745905Y-42386285D01*
X189841143Y-42433904D01*
X189888762Y-42481523D01*
X189936381Y-42576761D01*
X189936381Y-42814857D01*
X189888762Y-42910095D01*
X189841143Y-42957714D01*
X186396381Y-42481523D02*
X186396381Y-42672000D01*
X186444000Y-42767238D01*
X186491619Y-42814857D01*
X186634476Y-42910095D01*
X186824952Y-42957714D01*
X187205905Y-42957714D01*
X187301143Y-42910095D01*
X187348762Y-42862476D01*
X187396381Y-42767238D01*
X187396381Y-42576761D01*
X187348762Y-42481523D01*
X187301143Y-42433904D01*
X187205905Y-42386285D01*
X186967810Y-42386285D01*
X186872571Y-42433904D01*
X186824952Y-42481523D01*
X186777333Y-42576761D01*
X186777333Y-42767238D01*
X186824952Y-42862476D01*
X186872571Y-42910095D01*
X186967810Y-42957714D01*
X183856381Y-43005333D02*
X183856381Y-42338666D01*
X184856381Y-42767238D01*
X180220952Y-42767238D02*
X180173333Y-42862476D01*
X180125714Y-42910095D01*
X180030476Y-42957714D01*
X179982857Y-42957714D01*
X179887619Y-42910095D01*
X179840000Y-42862476D01*
X179792381Y-42767238D01*
X179792381Y-42576761D01*
X179840000Y-42481523D01*
X179887619Y-42433904D01*
X179982857Y-42386285D01*
X180030476Y-42386285D01*
X180125714Y-42433904D01*
X180173333Y-42481523D01*
X180220952Y-42576761D01*
X180220952Y-42767238D01*
X180268571Y-42862476D01*
X180316190Y-42910095D01*
X180411429Y-42957714D01*
X180601905Y-42957714D01*
X180697143Y-42910095D01*
X180744762Y-42862476D01*
X180792381Y-42767238D01*
X180792381Y-42576761D01*
X180744762Y-42481523D01*
X180697143Y-42433904D01*
X180601905Y-42386285D01*
X180411429Y-42386285D01*
X180316190Y-42433904D01*
X180268571Y-42481523D01*
X180220952Y-42576761D01*
X178252381Y-42862476D02*
X178252381Y-42672000D01*
X178204762Y-42576761D01*
X178157143Y-42529142D01*
X178014286Y-42433904D01*
X177823810Y-42386285D01*
X177442857Y-42386285D01*
X177347619Y-42433904D01*
X177300000Y-42481523D01*
X177252381Y-42576761D01*
X177252381Y-42767238D01*
X177300000Y-42862476D01*
X177347619Y-42910095D01*
X177442857Y-42957714D01*
X177680952Y-42957714D01*
X177776190Y-42910095D01*
X177823810Y-42862476D01*
X177871429Y-42767238D01*
X177871429Y-42576761D01*
X177823810Y-42481523D01*
X177776190Y-42433904D01*
X177680952Y-42386285D01*
X175712381Y-43370476D02*
X175712381Y-43941905D01*
X175712381Y-43656191D02*
X174712381Y-43656191D01*
X174855238Y-43751429D01*
X174950476Y-43846667D01*
X174998095Y-43941905D01*
X174712381Y-42751429D02*
X174712381Y-42656190D01*
X174760000Y-42560952D01*
X174807619Y-42513333D01*
X174902857Y-42465714D01*
X175093333Y-42418095D01*
X175331429Y-42418095D01*
X175521905Y-42465714D01*
X175617143Y-42513333D01*
X175664762Y-42560952D01*
X175712381Y-42656190D01*
X175712381Y-42751429D01*
X175664762Y-42846667D01*
X175617143Y-42894286D01*
X175521905Y-42941905D01*
X175331429Y-42989524D01*
X175093333Y-42989524D01*
X174902857Y-42941905D01*
X174807619Y-42894286D01*
X174760000Y-42846667D01*
X174712381Y-42751429D01*
X173172381Y-43370476D02*
X173172381Y-43941905D01*
X173172381Y-43656191D02*
X172172381Y-43656191D01*
X172315238Y-43751429D01*
X172410476Y-43846667D01*
X172458095Y-43941905D01*
X173172381Y-42418095D02*
X173172381Y-42989524D01*
X173172381Y-42703810D02*
X172172381Y-42703810D01*
X172315238Y-42799048D01*
X172410476Y-42894286D01*
X172458095Y-42989524D01*
X170632381Y-43370476D02*
X170632381Y-43941905D01*
X170632381Y-43656191D02*
X169632381Y-43656191D01*
X169775238Y-43751429D01*
X169870476Y-43846667D01*
X169918095Y-43941905D01*
X169727619Y-42989524D02*
X169680000Y-42941905D01*
X169632381Y-42846667D01*
X169632381Y-42608571D01*
X169680000Y-42513333D01*
X169727619Y-42465714D01*
X169822857Y-42418095D01*
X169918095Y-42418095D01*
X170060952Y-42465714D01*
X170632381Y-43037143D01*
X170632381Y-42418095D01*
X168092381Y-43370476D02*
X168092381Y-43941905D01*
X168092381Y-43656191D02*
X167092381Y-43656191D01*
X167235238Y-43751429D01*
X167330476Y-43846667D01*
X167378095Y-43941905D01*
X167092381Y-43037143D02*
X167092381Y-42418095D01*
X167473333Y-42751429D01*
X167473333Y-42608571D01*
X167520952Y-42513333D01*
X167568571Y-42465714D01*
X167663810Y-42418095D01*
X167901905Y-42418095D01*
X167997143Y-42465714D01*
X168044762Y-42513333D01*
X168092381Y-42608571D01*
X168092381Y-42894286D01*
X168044762Y-42989524D01*
X167997143Y-43037143D01*
X164600000Y-44449904D02*
X164552381Y-44545142D01*
X164552381Y-44687999D01*
X164600000Y-44830857D01*
X164695238Y-44926095D01*
X164790476Y-44973714D01*
X164980952Y-45021333D01*
X165123810Y-45021333D01*
X165314286Y-44973714D01*
X165409524Y-44926095D01*
X165504762Y-44830857D01*
X165552381Y-44687999D01*
X165552381Y-44592761D01*
X165504762Y-44449904D01*
X165457143Y-44402285D01*
X165123810Y-44402285D01*
X165123810Y-44592761D01*
X165552381Y-43973714D02*
X164552381Y-43973714D01*
X165552381Y-43402285D01*
X164552381Y-43402285D01*
X165552381Y-42926095D02*
X164552381Y-42926095D01*
X164552381Y-42688000D01*
X164600000Y-42545142D01*
X164695238Y-42449904D01*
X164790476Y-42402285D01*
X164980952Y-42354666D01*
X165123810Y-42354666D01*
X165314286Y-42402285D01*
X165409524Y-42449904D01*
X165504762Y-42545142D01*
X165552381Y-42688000D01*
X165552381Y-42926095D01*
X163234667Y-45815048D02*
X163234667Y-45338857D01*
X163520381Y-45910286D02*
X162520381Y-45576953D01*
X163520381Y-45243619D01*
X163520381Y-44338857D02*
X163044190Y-44672191D01*
X163520381Y-44910286D02*
X162520381Y-44910286D01*
X162520381Y-44529333D01*
X162568000Y-44434095D01*
X162615619Y-44386476D01*
X162710857Y-44338857D01*
X162853714Y-44338857D01*
X162948952Y-44386476D01*
X162996571Y-44434095D01*
X163044190Y-44529333D01*
X163044190Y-44910286D01*
X162996571Y-43910286D02*
X162996571Y-43576952D01*
X163520381Y-43434095D02*
X163520381Y-43910286D01*
X162520381Y-43910286D01*
X162520381Y-43434095D01*
X162996571Y-42672190D02*
X162996571Y-43005524D01*
X163520381Y-43005524D02*
X162520381Y-43005524D01*
X162520381Y-42529333D01*
X230290667Y-87042476D02*
X230290667Y-86566285D01*
X230576381Y-87137714D02*
X229576381Y-86804381D01*
X230576381Y-86471047D01*
X230576381Y-85613904D02*
X230576381Y-86185333D01*
X230576381Y-85899619D02*
X229576381Y-85899619D01*
X229719238Y-85994857D01*
X229814476Y-86090095D01*
X229862095Y-86185333D01*
X229576381Y-84709142D02*
X229576381Y-85185333D01*
X230052571Y-85232952D01*
X230004952Y-85185333D01*
X229957333Y-85090095D01*
X229957333Y-84851999D01*
X230004952Y-84756761D01*
X230052571Y-84709142D01*
X230147810Y-84661523D01*
X230385905Y-84661523D01*
X230481143Y-84709142D01*
X230528762Y-84756761D01*
X230576381Y-84851999D01*
X230576381Y-85090095D01*
X230528762Y-85185333D01*
X230481143Y-85232952D01*
X227750667Y-87042476D02*
X227750667Y-86566285D01*
X228036381Y-87137714D02*
X227036381Y-86804381D01*
X228036381Y-86471047D01*
X228036381Y-85613904D02*
X228036381Y-86185333D01*
X228036381Y-85899619D02*
X227036381Y-85899619D01*
X227179238Y-85994857D01*
X227274476Y-86090095D01*
X227322095Y-86185333D01*
X227369714Y-84756761D02*
X228036381Y-84756761D01*
X226988762Y-84994857D02*
X227703048Y-85232952D01*
X227703048Y-84613904D01*
X225210667Y-87042476D02*
X225210667Y-86566285D01*
X225496381Y-87137714D02*
X224496381Y-86804381D01*
X225496381Y-86471047D01*
X225496381Y-85613904D02*
X225496381Y-86185333D01*
X225496381Y-85899619D02*
X224496381Y-85899619D01*
X224639238Y-85994857D01*
X224734476Y-86090095D01*
X224782095Y-86185333D01*
X224496381Y-85280571D02*
X224496381Y-84661523D01*
X224877333Y-84994857D01*
X224877333Y-84851999D01*
X224924952Y-84756761D01*
X224972571Y-84709142D01*
X225067810Y-84661523D01*
X225305905Y-84661523D01*
X225401143Y-84709142D01*
X225448762Y-84756761D01*
X225496381Y-84851999D01*
X225496381Y-85137714D01*
X225448762Y-85232952D01*
X225401143Y-85280571D01*
X222670667Y-87042476D02*
X222670667Y-86566285D01*
X222956381Y-87137714D02*
X221956381Y-86804381D01*
X222956381Y-86471047D01*
X222956381Y-85613904D02*
X222956381Y-86185333D01*
X222956381Y-85899619D02*
X221956381Y-85899619D01*
X222099238Y-85994857D01*
X222194476Y-86090095D01*
X222242095Y-86185333D01*
X222051619Y-85232952D02*
X222004000Y-85185333D01*
X221956381Y-85090095D01*
X221956381Y-84851999D01*
X222004000Y-84756761D01*
X222051619Y-84709142D01*
X222146857Y-84661523D01*
X222242095Y-84661523D01*
X222384952Y-84709142D01*
X222956381Y-85280571D01*
X222956381Y-84661523D01*
X220130667Y-87042476D02*
X220130667Y-86566285D01*
X220416381Y-87137714D02*
X219416381Y-86804381D01*
X220416381Y-86471047D01*
X220416381Y-85613904D02*
X220416381Y-86185333D01*
X220416381Y-85899619D02*
X219416381Y-85899619D01*
X219559238Y-85994857D01*
X219654476Y-86090095D01*
X219702095Y-86185333D01*
X220416381Y-84661523D02*
X220416381Y-85232952D01*
X220416381Y-84947238D02*
X219416381Y-84947238D01*
X219559238Y-85042476D01*
X219654476Y-85137714D01*
X219702095Y-85232952D01*
X217590667Y-87042476D02*
X217590667Y-86566285D01*
X217876381Y-87137714D02*
X216876381Y-86804381D01*
X217876381Y-86471047D01*
X217876381Y-85613904D02*
X217876381Y-86185333D01*
X217876381Y-85899619D02*
X216876381Y-85899619D01*
X217019238Y-85994857D01*
X217114476Y-86090095D01*
X217162095Y-86185333D01*
X216876381Y-84994857D02*
X216876381Y-84899618D01*
X216924000Y-84804380D01*
X216971619Y-84756761D01*
X217066857Y-84709142D01*
X217257333Y-84661523D01*
X217495429Y-84661523D01*
X217685905Y-84709142D01*
X217781143Y-84756761D01*
X217828762Y-84804380D01*
X217876381Y-84899618D01*
X217876381Y-84994857D01*
X217828762Y-85090095D01*
X217781143Y-85137714D01*
X217685905Y-85185333D01*
X217495429Y-85232952D01*
X217257333Y-85232952D01*
X217066857Y-85185333D01*
X216971619Y-85137714D01*
X216924000Y-85090095D01*
X216876381Y-84994857D01*
X215050667Y-87074286D02*
X215050667Y-86598095D01*
X215336381Y-87169524D02*
X214336381Y-86836191D01*
X215336381Y-86502857D01*
X215336381Y-86121905D02*
X215336381Y-85931429D01*
X215288762Y-85836190D01*
X215241143Y-85788571D01*
X215098286Y-85693333D01*
X214907810Y-85645714D01*
X214526857Y-85645714D01*
X214431619Y-85693333D01*
X214384000Y-85740952D01*
X214336381Y-85836190D01*
X214336381Y-86026667D01*
X214384000Y-86121905D01*
X214431619Y-86169524D01*
X214526857Y-86217143D01*
X214764952Y-86217143D01*
X214860190Y-86169524D01*
X214907810Y-86121905D01*
X214955429Y-86026667D01*
X214955429Y-85836190D01*
X214907810Y-85740952D01*
X214860190Y-85693333D01*
X214764952Y-85645714D01*
X212510667Y-87074286D02*
X212510667Y-86598095D01*
X212796381Y-87169524D02*
X211796381Y-86836191D01*
X212796381Y-86502857D01*
X212224952Y-86026667D02*
X212177333Y-86121905D01*
X212129714Y-86169524D01*
X212034476Y-86217143D01*
X211986857Y-86217143D01*
X211891619Y-86169524D01*
X211844000Y-86121905D01*
X211796381Y-86026667D01*
X211796381Y-85836190D01*
X211844000Y-85740952D01*
X211891619Y-85693333D01*
X211986857Y-85645714D01*
X212034476Y-85645714D01*
X212129714Y-85693333D01*
X212177333Y-85740952D01*
X212224952Y-85836190D01*
X212224952Y-86026667D01*
X212272571Y-86121905D01*
X212320190Y-86169524D01*
X212415429Y-86217143D01*
X212605905Y-86217143D01*
X212701143Y-86169524D01*
X212748762Y-86121905D01*
X212796381Y-86026667D01*
X212796381Y-85836190D01*
X212748762Y-85740952D01*
X212701143Y-85693333D01*
X212605905Y-85645714D01*
X212415429Y-85645714D01*
X212320190Y-85693333D01*
X212272571Y-85740952D01*
X212224952Y-85836190D01*
X207430667Y-87074286D02*
X207430667Y-86598095D01*
X207716381Y-87169524D02*
X206716381Y-86836191D01*
X207716381Y-86502857D01*
X206716381Y-86264762D02*
X206716381Y-85598095D01*
X207716381Y-86026667D01*
X204890667Y-87074286D02*
X204890667Y-86598095D01*
X205176381Y-87169524D02*
X204176381Y-86836191D01*
X205176381Y-86502857D01*
X204176381Y-85740952D02*
X204176381Y-85931429D01*
X204224000Y-86026667D01*
X204271619Y-86074286D01*
X204414476Y-86169524D01*
X204604952Y-86217143D01*
X204985905Y-86217143D01*
X205081143Y-86169524D01*
X205128762Y-86121905D01*
X205176381Y-86026667D01*
X205176381Y-85836190D01*
X205128762Y-85740952D01*
X205081143Y-85693333D01*
X204985905Y-85645714D01*
X204747810Y-85645714D01*
X204652571Y-85693333D01*
X204604952Y-85740952D01*
X204557333Y-85836190D01*
X204557333Y-86026667D01*
X204604952Y-86121905D01*
X204652571Y-86169524D01*
X204747810Y-86217143D01*
X202350667Y-87074286D02*
X202350667Y-86598095D01*
X202636381Y-87169524D02*
X201636381Y-86836191D01*
X202636381Y-86502857D01*
X201636381Y-85693333D02*
X201636381Y-86169524D01*
X202112571Y-86217143D01*
X202064952Y-86169524D01*
X202017333Y-86074286D01*
X202017333Y-85836190D01*
X202064952Y-85740952D01*
X202112571Y-85693333D01*
X202207810Y-85645714D01*
X202445905Y-85645714D01*
X202541143Y-85693333D01*
X202588762Y-85740952D01*
X202636381Y-85836190D01*
X202636381Y-86074286D01*
X202588762Y-86169524D01*
X202541143Y-86217143D01*
X199810667Y-87074286D02*
X199810667Y-86598095D01*
X200096381Y-87169524D02*
X199096381Y-86836191D01*
X200096381Y-86502857D01*
X199429714Y-85740952D02*
X200096381Y-85740952D01*
X199048762Y-85979048D02*
X199763048Y-86217143D01*
X199763048Y-85598095D01*
X197270667Y-87074286D02*
X197270667Y-86598095D01*
X197556381Y-87169524D02*
X196556381Y-86836191D01*
X197556381Y-86502857D01*
X196556381Y-86264762D02*
X196556381Y-85645714D01*
X196937333Y-85979048D01*
X196937333Y-85836190D01*
X196984952Y-85740952D01*
X197032571Y-85693333D01*
X197127810Y-85645714D01*
X197365905Y-85645714D01*
X197461143Y-85693333D01*
X197508762Y-85740952D01*
X197556381Y-85836190D01*
X197556381Y-86121905D01*
X197508762Y-86217143D01*
X197461143Y-86264762D01*
X194730667Y-87074286D02*
X194730667Y-86598095D01*
X195016381Y-87169524D02*
X194016381Y-86836191D01*
X195016381Y-86502857D01*
X194111619Y-86217143D02*
X194064000Y-86169524D01*
X194016381Y-86074286D01*
X194016381Y-85836190D01*
X194064000Y-85740952D01*
X194111619Y-85693333D01*
X194206857Y-85645714D01*
X194302095Y-85645714D01*
X194444952Y-85693333D01*
X195016381Y-86264762D01*
X195016381Y-85645714D01*
X192190667Y-87074286D02*
X192190667Y-86598095D01*
X192476381Y-87169524D02*
X191476381Y-86836191D01*
X192476381Y-86502857D01*
X192476381Y-85645714D02*
X192476381Y-86217143D01*
X192476381Y-85931429D02*
X191476381Y-85931429D01*
X191619238Y-86026667D01*
X191714476Y-86121905D01*
X191762095Y-86217143D01*
X189650667Y-87074286D02*
X189650667Y-86598095D01*
X189936381Y-87169524D02*
X188936381Y-86836191D01*
X189936381Y-86502857D01*
X188936381Y-85979048D02*
X188936381Y-85883809D01*
X188984000Y-85788571D01*
X189031619Y-85740952D01*
X189126857Y-85693333D01*
X189317333Y-85645714D01*
X189555429Y-85645714D01*
X189745905Y-85693333D01*
X189841143Y-85740952D01*
X189888762Y-85788571D01*
X189936381Y-85883809D01*
X189936381Y-85979048D01*
X189888762Y-86074286D01*
X189841143Y-86121905D01*
X189745905Y-86169524D01*
X189555429Y-86217143D01*
X189317333Y-86217143D01*
X189126857Y-86169524D01*
X189031619Y-86121905D01*
X188984000Y-86074286D01*
X188936381Y-85979048D01*
X183856381Y-86820238D02*
X184856381Y-86486905D01*
X183856381Y-86153571D01*
X184856381Y-85820238D02*
X183856381Y-85820238D01*
X184856381Y-85344048D02*
X183856381Y-85344048D01*
X184856381Y-84772619D01*
X183856381Y-84772619D01*
X181364000Y-86486904D02*
X181316381Y-86582142D01*
X181316381Y-86724999D01*
X181364000Y-86867857D01*
X181459238Y-86963095D01*
X181554476Y-87010714D01*
X181744952Y-87058333D01*
X181887810Y-87058333D01*
X182078286Y-87010714D01*
X182173524Y-86963095D01*
X182268762Y-86867857D01*
X182316381Y-86724999D01*
X182316381Y-86629761D01*
X182268762Y-86486904D01*
X182221143Y-86439285D01*
X181887810Y-86439285D01*
X181887810Y-86629761D01*
X182316381Y-86010714D02*
X181316381Y-86010714D01*
X182316381Y-85439285D01*
X181316381Y-85439285D01*
X182316381Y-84963095D02*
X181316381Y-84963095D01*
X181316381Y-84725000D01*
X181364000Y-84582142D01*
X181459238Y-84486904D01*
X181554476Y-84439285D01*
X181744952Y-84391666D01*
X181887810Y-84391666D01*
X182078286Y-84439285D01*
X182173524Y-84486904D01*
X182268762Y-84582142D01*
X182316381Y-84725000D01*
X182316381Y-84963095D01*
X178824000Y-86486904D02*
X178776381Y-86582142D01*
X178776381Y-86724999D01*
X178824000Y-86867857D01*
X178919238Y-86963095D01*
X179014476Y-87010714D01*
X179204952Y-87058333D01*
X179347810Y-87058333D01*
X179538286Y-87010714D01*
X179633524Y-86963095D01*
X179728762Y-86867857D01*
X179776381Y-86724999D01*
X179776381Y-86629761D01*
X179728762Y-86486904D01*
X179681143Y-86439285D01*
X179347810Y-86439285D01*
X179347810Y-86629761D01*
X179776381Y-86010714D02*
X178776381Y-86010714D01*
X179776381Y-85439285D01*
X178776381Y-85439285D01*
X179776381Y-84963095D02*
X178776381Y-84963095D01*
X178776381Y-84725000D01*
X178824000Y-84582142D01*
X178919238Y-84486904D01*
X179014476Y-84439285D01*
X179204952Y-84391666D01*
X179347810Y-84391666D01*
X179538286Y-84439285D01*
X179633524Y-84486904D01*
X179728762Y-84582142D01*
X179776381Y-84725000D01*
X179776381Y-84963095D01*
X176236381Y-86550476D02*
X176236381Y-87026667D01*
X176712571Y-87074286D01*
X176664952Y-87026667D01*
X176617333Y-86931429D01*
X176617333Y-86693333D01*
X176664952Y-86598095D01*
X176712571Y-86550476D01*
X176807810Y-86502857D01*
X177045905Y-86502857D01*
X177141143Y-86550476D01*
X177188762Y-86598095D01*
X177236381Y-86693333D01*
X177236381Y-86931429D01*
X177188762Y-87026667D01*
X177141143Y-87074286D01*
X176236381Y-86217143D02*
X177236381Y-85883810D01*
X176236381Y-85550476D01*
X173696381Y-86963095D02*
X173696381Y-86344047D01*
X174077333Y-86677381D01*
X174077333Y-86534523D01*
X174124952Y-86439285D01*
X174172571Y-86391666D01*
X174267810Y-86344047D01*
X174505905Y-86344047D01*
X174601143Y-86391666D01*
X174648762Y-86439285D01*
X174696381Y-86534523D01*
X174696381Y-86820238D01*
X174648762Y-86915476D01*
X174601143Y-86963095D01*
X173696381Y-86058333D02*
X174696381Y-85725000D01*
X173696381Y-85391666D01*
X173696381Y-85153571D02*
X173696381Y-84534523D01*
X174077333Y-84867857D01*
X174077333Y-84724999D01*
X174124952Y-84629761D01*
X174172571Y-84582142D01*
X174267810Y-84534523D01*
X174505905Y-84534523D01*
X174601143Y-84582142D01*
X174648762Y-84629761D01*
X174696381Y-84724999D01*
X174696381Y-85010714D01*
X174648762Y-85105952D01*
X174601143Y-85153571D01*
X172156381Y-86272619D02*
X171680190Y-86605953D01*
X172156381Y-86844048D02*
X171156381Y-86844048D01*
X171156381Y-86463095D01*
X171204000Y-86367857D01*
X171251619Y-86320238D01*
X171346857Y-86272619D01*
X171489714Y-86272619D01*
X171584952Y-86320238D01*
X171632571Y-86367857D01*
X171680190Y-86463095D01*
X171680190Y-86844048D01*
X172108762Y-85891667D02*
X172156381Y-85748810D01*
X172156381Y-85510714D01*
X172108762Y-85415476D01*
X172061143Y-85367857D01*
X171965905Y-85320238D01*
X171870667Y-85320238D01*
X171775429Y-85367857D01*
X171727810Y-85415476D01*
X171680190Y-85510714D01*
X171632571Y-85701191D01*
X171584952Y-85796429D01*
X171537333Y-85844048D01*
X171442095Y-85891667D01*
X171346857Y-85891667D01*
X171251619Y-85844048D01*
X171204000Y-85796429D01*
X171156381Y-85701191D01*
X171156381Y-85463095D01*
X171204000Y-85320238D01*
X171156381Y-85034524D02*
X171156381Y-84463095D01*
X172156381Y-84748810D02*
X171156381Y-84748810D01*
X170902381Y-79112857D02*
X170902381Y-79017618D01*
X170950000Y-78922380D01*
X170997619Y-78874761D01*
X171092857Y-78827142D01*
X171283333Y-78779523D01*
X171521429Y-78779523D01*
X171711905Y-78827142D01*
X171807143Y-78874761D01*
X171854762Y-78922380D01*
X171902381Y-79017618D01*
X171902381Y-79112857D01*
X171854762Y-79208095D01*
X171807143Y-79255714D01*
X171711905Y-79303333D01*
X171521429Y-79350952D01*
X171283333Y-79350952D01*
X171092857Y-79303333D01*
X170997619Y-79255714D01*
X170950000Y-79208095D01*
X170902381Y-79112857D01*
X171807143Y-78350952D02*
X171854762Y-78303333D01*
X171902381Y-78350952D01*
X171854762Y-78398571D01*
X171807143Y-78350952D01*
X171902381Y-78350952D01*
X171902381Y-77350952D02*
X171902381Y-77922381D01*
X171902381Y-77636667D02*
X170902381Y-77636667D01*
X171045238Y-77731905D01*
X171140476Y-77827143D01*
X171188095Y-77922381D01*
X171235714Y-76493809D02*
X171902381Y-76493809D01*
X171235714Y-76922381D02*
X171759524Y-76922381D01*
X171854762Y-76874762D01*
X171902381Y-76779524D01*
X171902381Y-76636666D01*
X171854762Y-76541428D01*
X171807143Y-76493809D01*
X171378571Y-75684285D02*
X171378571Y-76017619D01*
X171902381Y-76017619D02*
X170902381Y-76017619D01*
X170902381Y-75541428D01*
X177998572Y-80462381D02*
X177427143Y-80462381D01*
X177712857Y-80462381D02*
X177712857Y-79462381D01*
X177617619Y-79605238D01*
X177522381Y-79700476D01*
X177427143Y-79748095D01*
X178617619Y-79462381D02*
X178712858Y-79462381D01*
X178808096Y-79510000D01*
X178855715Y-79557619D01*
X178903334Y-79652857D01*
X178950953Y-79843333D01*
X178950953Y-80081429D01*
X178903334Y-80271905D01*
X178855715Y-80367143D01*
X178808096Y-80414762D01*
X178712858Y-80462381D01*
X178617619Y-80462381D01*
X178522381Y-80414762D01*
X178474762Y-80367143D01*
X178427143Y-80271905D01*
X178379524Y-80081429D01*
X178379524Y-79843333D01*
X178427143Y-79652857D01*
X178474762Y-79557619D01*
X178522381Y-79510000D01*
X178617619Y-79462381D01*
X179808096Y-79795714D02*
X179808096Y-80462381D01*
X179379524Y-79795714D02*
X179379524Y-80319524D01*
X179427143Y-80414762D01*
X179522381Y-80462381D01*
X179665239Y-80462381D01*
X179760477Y-80414762D01*
X179808096Y-80367143D01*
X180617620Y-79938571D02*
X180284286Y-79938571D01*
X180284286Y-80462381D02*
X180284286Y-79462381D01*
X180760477Y-79462381D01*
X177562381Y-46768571D02*
X177895715Y-46768571D01*
X178038572Y-47292381D02*
X177562381Y-47292381D01*
X177562381Y-46292381D01*
X178038572Y-46292381D01*
X178419524Y-47244762D02*
X178562381Y-47292381D01*
X178800477Y-47292381D01*
X178895715Y-47244762D01*
X178943334Y-47197143D01*
X178990953Y-47101905D01*
X178990953Y-47006667D01*
X178943334Y-46911429D01*
X178895715Y-46863810D01*
X178800477Y-46816190D01*
X178610000Y-46768571D01*
X178514762Y-46720952D01*
X178467143Y-46673333D01*
X178419524Y-46578095D01*
X178419524Y-46482857D01*
X178467143Y-46387619D01*
X178514762Y-46340000D01*
X178610000Y-46292381D01*
X178848096Y-46292381D01*
X178990953Y-46340000D01*
X179419524Y-47292381D02*
X179419524Y-46292381D01*
X179800477Y-46292381D01*
X179895715Y-46340000D01*
X179943334Y-46387619D01*
X179990953Y-46482857D01*
X179990953Y-46625714D01*
X179943334Y-46720952D01*
X179895715Y-46768571D01*
X179800477Y-46816190D01*
X179419524Y-46816190D01*
X181181429Y-47292381D02*
X181181429Y-46292381D01*
X181419524Y-46292381D01*
X181562382Y-46340000D01*
X181657620Y-46435238D01*
X181705239Y-46530476D01*
X181752858Y-46720952D01*
X181752858Y-46863810D01*
X181705239Y-47054286D01*
X181657620Y-47149524D01*
X181562382Y-47244762D01*
X181419524Y-47292381D01*
X181181429Y-47292381D01*
X182181429Y-46768571D02*
X182514763Y-46768571D01*
X182657620Y-47292381D02*
X182181429Y-47292381D01*
X182181429Y-46292381D01*
X182657620Y-46292381D01*
X183419525Y-46768571D02*
X183562382Y-46816190D01*
X183610001Y-46863810D01*
X183657620Y-46959048D01*
X183657620Y-47101905D01*
X183610001Y-47197143D01*
X183562382Y-47244762D01*
X183467144Y-47292381D01*
X183086191Y-47292381D01*
X183086191Y-46292381D01*
X183419525Y-46292381D01*
X183514763Y-46340000D01*
X183562382Y-46387619D01*
X183610001Y-46482857D01*
X183610001Y-46578095D01*
X183562382Y-46673333D01*
X183514763Y-46720952D01*
X183419525Y-46768571D01*
X183086191Y-46768571D01*
X184086191Y-46292381D02*
X184086191Y-47101905D01*
X184133810Y-47197143D01*
X184181429Y-47244762D01*
X184276667Y-47292381D01*
X184467144Y-47292381D01*
X184562382Y-47244762D01*
X184610001Y-47197143D01*
X184657620Y-47101905D01*
X184657620Y-46292381D01*
X185657620Y-46340000D02*
X185562382Y-46292381D01*
X185419525Y-46292381D01*
X185276667Y-46340000D01*
X185181429Y-46435238D01*
X185133810Y-46530476D01*
X185086191Y-46720952D01*
X185086191Y-46863810D01*
X185133810Y-47054286D01*
X185181429Y-47149524D01*
X185276667Y-47244762D01*
X185419525Y-47292381D01*
X185514763Y-47292381D01*
X185657620Y-47244762D01*
X185705239Y-47197143D01*
X185705239Y-46863810D01*
X185514763Y-46863810D01*
X199693333Y-82478571D02*
X200026667Y-82478571D01*
X200169524Y-83002381D02*
X199693333Y-83002381D01*
X199693333Y-82002381D01*
X200169524Y-82002381D01*
X200550476Y-82954762D02*
X200693333Y-83002381D01*
X200931429Y-83002381D01*
X201026667Y-82954762D01*
X201074286Y-82907143D01*
X201121905Y-82811905D01*
X201121905Y-82716667D01*
X201074286Y-82621429D01*
X201026667Y-82573810D01*
X200931429Y-82526190D01*
X200740952Y-82478571D01*
X200645714Y-82430952D01*
X200598095Y-82383333D01*
X200550476Y-82288095D01*
X200550476Y-82192857D01*
X200598095Y-82097619D01*
X200645714Y-82050000D01*
X200740952Y-82002381D01*
X200979048Y-82002381D01*
X201121905Y-82050000D01*
X201550476Y-83002381D02*
X201550476Y-82002381D01*
X201931429Y-82002381D01*
X202026667Y-82050000D01*
X202074286Y-82097619D01*
X202121905Y-82192857D01*
X202121905Y-82335714D01*
X202074286Y-82430952D01*
X202026667Y-82478571D01*
X201931429Y-82526190D01*
X201550476Y-82526190D01*
X203074286Y-83002381D02*
X202502857Y-83002381D01*
X202788571Y-83002381D02*
X202788571Y-82002381D01*
X202693333Y-82145238D01*
X202598095Y-82240476D01*
X202502857Y-82288095D01*
D17*
X209259715Y-52242333D02*
X209380667Y-52242333D01*
X209235524Y-52314905D02*
X209320191Y-52060905D01*
X209404858Y-52314905D01*
X209489524Y-52314905D02*
X209489524Y-52060905D01*
X209634667Y-52314905D01*
X209634667Y-52060905D01*
X209719333Y-52060905D02*
X209864476Y-52060905D01*
X209791905Y-52314905D02*
X209791905Y-52060905D01*
D14*
X195598094Y-55808571D02*
X195931428Y-55808571D01*
X196074285Y-56332381D02*
X195598094Y-56332381D01*
X195598094Y-55332381D01*
X196074285Y-55332381D01*
X196455237Y-56284762D02*
X196598094Y-56332381D01*
X196836190Y-56332381D01*
X196931428Y-56284762D01*
X196979047Y-56237143D01*
X197026666Y-56141905D01*
X197026666Y-56046667D01*
X196979047Y-55951429D01*
X196931428Y-55903810D01*
X196836190Y-55856190D01*
X196645713Y-55808571D01*
X196550475Y-55760952D01*
X196502856Y-55713333D01*
X196455237Y-55618095D01*
X196455237Y-55522857D01*
X196502856Y-55427619D01*
X196550475Y-55380000D01*
X196645713Y-55332381D01*
X196883809Y-55332381D01*
X197026666Y-55380000D01*
X197455237Y-56332381D02*
X197455237Y-55332381D01*
X197836190Y-55332381D01*
X197931428Y-55380000D01*
X197979047Y-55427619D01*
X198026666Y-55522857D01*
X198026666Y-55665714D01*
X197979047Y-55760952D01*
X197931428Y-55808571D01*
X197836190Y-55856190D01*
X197455237Y-55856190D01*
X198455237Y-56332381D02*
X198455237Y-55665714D01*
X198455237Y-55856190D02*
X198502856Y-55760952D01*
X198550475Y-55713333D01*
X198645713Y-55665714D01*
X198740952Y-55665714D01*
X199074285Y-55951429D02*
X199836190Y-55951429D01*
X200312380Y-56332381D02*
X200312380Y-55332381D01*
X200550475Y-55332381D01*
X200693333Y-55380000D01*
X200788571Y-55475238D01*
X200836190Y-55570476D01*
X200883809Y-55760952D01*
X200883809Y-55903810D01*
X200836190Y-56094286D01*
X200788571Y-56189524D01*
X200693333Y-56284762D01*
X200550475Y-56332381D01*
X200312380Y-56332381D01*
X201693333Y-56284762D02*
X201598095Y-56332381D01*
X201407618Y-56332381D01*
X201312380Y-56284762D01*
X201264761Y-56189524D01*
X201264761Y-55808571D01*
X201312380Y-55713333D01*
X201407618Y-55665714D01*
X201598095Y-55665714D01*
X201693333Y-55713333D01*
X201740952Y-55808571D01*
X201740952Y-55903810D01*
X201264761Y-55999048D01*
X202074285Y-55665714D02*
X202312380Y-56332381D01*
X202550476Y-55665714D01*
X203312381Y-56284762D02*
X203217143Y-56332381D01*
X203026666Y-56332381D01*
X202931428Y-56284762D01*
X202883809Y-56189524D01*
X202883809Y-55808571D01*
X202931428Y-55713333D01*
X203026666Y-55665714D01*
X203217143Y-55665714D01*
X203312381Y-55713333D01*
X203360000Y-55808571D01*
X203360000Y-55903810D01*
X202883809Y-55999048D01*
X203931428Y-56332381D02*
X203836190Y-56284762D01*
X203788571Y-56189524D01*
X203788571Y-55332381D01*
X204455238Y-56332381D02*
X204360000Y-56284762D01*
X204312381Y-56237143D01*
X204264762Y-56141905D01*
X204264762Y-55856190D01*
X204312381Y-55760952D01*
X204360000Y-55713333D01*
X204455238Y-55665714D01*
X204598096Y-55665714D01*
X204693334Y-55713333D01*
X204740953Y-55760952D01*
X204788572Y-55856190D01*
X204788572Y-56141905D01*
X204740953Y-56237143D01*
X204693334Y-56284762D01*
X204598096Y-56332381D01*
X204455238Y-56332381D01*
X205217143Y-55665714D02*
X205217143Y-56665714D01*
X205217143Y-55713333D02*
X205312381Y-55665714D01*
X205502858Y-55665714D01*
X205598096Y-55713333D01*
X205645715Y-55760952D01*
X205693334Y-55856190D01*
X205693334Y-56141905D01*
X205645715Y-56237143D01*
X205598096Y-56284762D01*
X205502858Y-56332381D01*
X205312381Y-56332381D01*
X205217143Y-56284762D01*
X206502858Y-56284762D02*
X206407620Y-56332381D01*
X206217143Y-56332381D01*
X206121905Y-56284762D01*
X206074286Y-56189524D01*
X206074286Y-55808571D01*
X206121905Y-55713333D01*
X206217143Y-55665714D01*
X206407620Y-55665714D01*
X206502858Y-55713333D01*
X206550477Y-55808571D01*
X206550477Y-55903810D01*
X206074286Y-55999048D01*
X206979048Y-56332381D02*
X206979048Y-55665714D01*
X206979048Y-55856190D02*
X207026667Y-55760952D01*
X207074286Y-55713333D01*
X207169524Y-55665714D01*
X207264763Y-55665714D01*
X216832381Y-70352857D02*
X216356190Y-70686191D01*
X216832381Y-70924286D02*
X215832381Y-70924286D01*
X215832381Y-70543333D01*
X215880000Y-70448095D01*
X215927619Y-70400476D01*
X216022857Y-70352857D01*
X216165714Y-70352857D01*
X216260952Y-70400476D01*
X216308571Y-70448095D01*
X216356190Y-70543333D01*
X216356190Y-70924286D01*
X215832381Y-69924286D02*
X216641905Y-69924286D01*
X216737143Y-69876667D01*
X216784762Y-69829048D01*
X216832381Y-69733810D01*
X216832381Y-69543333D01*
X216784762Y-69448095D01*
X216737143Y-69400476D01*
X216641905Y-69352857D01*
X215832381Y-69352857D01*
X216832381Y-68876667D02*
X215832381Y-68876667D01*
X215832381Y-68638572D01*
X215880000Y-68495714D01*
X215975238Y-68400476D01*
X216070476Y-68352857D01*
X216260952Y-68305238D01*
X216403810Y-68305238D01*
X216594286Y-68352857D01*
X216689524Y-68400476D01*
X216784762Y-68495714D01*
X216832381Y-68638572D01*
X216832381Y-68876667D01*
X216927619Y-68114762D02*
X216927619Y-67352857D01*
X216737143Y-66543333D02*
X216784762Y-66590952D01*
X216832381Y-66733809D01*
X216832381Y-66829047D01*
X216784762Y-66971905D01*
X216689524Y-67067143D01*
X216594286Y-67114762D01*
X216403810Y-67162381D01*
X216260952Y-67162381D01*
X216070476Y-67114762D01*
X215975238Y-67067143D01*
X215880000Y-66971905D01*
X215832381Y-66829047D01*
X215832381Y-66733809D01*
X215880000Y-66590952D01*
X215927619Y-66543333D01*
X215832381Y-65924286D02*
X215832381Y-65733809D01*
X215880000Y-65638571D01*
X215975238Y-65543333D01*
X216165714Y-65495714D01*
X216499048Y-65495714D01*
X216689524Y-65543333D01*
X216784762Y-65638571D01*
X216832381Y-65733809D01*
X216832381Y-65924286D01*
X216784762Y-66019524D01*
X216689524Y-66114762D01*
X216499048Y-66162381D01*
X216165714Y-66162381D01*
X215975238Y-66114762D01*
X215880000Y-66019524D01*
X215832381Y-65924286D01*
X216832381Y-65067143D02*
X215832381Y-65067143D01*
X216832381Y-64495714D01*
X215832381Y-64495714D01*
X216308571Y-79600000D02*
X216308571Y-79266666D01*
X216832381Y-79123809D02*
X216832381Y-79600000D01*
X215832381Y-79600000D01*
X215832381Y-79123809D01*
X216832381Y-78219047D02*
X216832381Y-78695238D01*
X215832381Y-78695238D01*
X216308571Y-77885714D02*
X216308571Y-77552380D01*
X216832381Y-77409523D02*
X216832381Y-77885714D01*
X215832381Y-77885714D01*
X215832381Y-77409523D01*
X216927619Y-77219047D02*
X216927619Y-76457142D01*
X216737143Y-75647618D02*
X216784762Y-75695237D01*
X216832381Y-75838094D01*
X216832381Y-75933332D01*
X216784762Y-76076190D01*
X216689524Y-76171428D01*
X216594286Y-76219047D01*
X216403810Y-76266666D01*
X216260952Y-76266666D01*
X216070476Y-76219047D01*
X215975238Y-76171428D01*
X215880000Y-76076190D01*
X215832381Y-75933332D01*
X215832381Y-75838094D01*
X215880000Y-75695237D01*
X215927619Y-75647618D01*
X215832381Y-75028571D02*
X215832381Y-74838094D01*
X215880000Y-74742856D01*
X215975238Y-74647618D01*
X216165714Y-74599999D01*
X216499048Y-74599999D01*
X216689524Y-74647618D01*
X216784762Y-74742856D01*
X216832381Y-74838094D01*
X216832381Y-75028571D01*
X216784762Y-75123809D01*
X216689524Y-75219047D01*
X216499048Y-75266666D01*
X216165714Y-75266666D01*
X215975238Y-75219047D01*
X215880000Y-75123809D01*
X215832381Y-75028571D01*
X216832381Y-74171428D02*
X215832381Y-74171428D01*
X216832381Y-73599999D01*
X215832381Y-73599999D01*
X168679762Y-64420476D02*
X168727381Y-64277619D01*
X168727381Y-64039523D01*
X168679762Y-63944285D01*
X168632143Y-63896666D01*
X168536905Y-63849047D01*
X168441667Y-63849047D01*
X168346429Y-63896666D01*
X168298810Y-63944285D01*
X168251190Y-64039523D01*
X168203571Y-64230000D01*
X168155952Y-64325238D01*
X168108333Y-64372857D01*
X168013095Y-64420476D01*
X167917857Y-64420476D01*
X167822619Y-64372857D01*
X167775000Y-64325238D01*
X167727381Y-64230000D01*
X167727381Y-63991904D01*
X167775000Y-63849047D01*
X168203571Y-63420476D02*
X168203571Y-63087142D01*
X168727381Y-62944285D02*
X168727381Y-63420476D01*
X167727381Y-63420476D01*
X167727381Y-62944285D01*
X168727381Y-61944285D02*
X168251190Y-62277619D01*
X168727381Y-62515714D02*
X167727381Y-62515714D01*
X167727381Y-62134761D01*
X167775000Y-62039523D01*
X167822619Y-61991904D01*
X167917857Y-61944285D01*
X168060714Y-61944285D01*
X168155952Y-61991904D01*
X168203571Y-62039523D01*
X168251190Y-62134761D01*
X168251190Y-62515714D01*
X167727381Y-61658571D02*
X168727381Y-61325238D01*
X167727381Y-60991904D01*
X167727381Y-60468095D02*
X167727381Y-60277618D01*
X167775000Y-60182380D01*
X167870238Y-60087142D01*
X168060714Y-60039523D01*
X168394048Y-60039523D01*
X168584524Y-60087142D01*
X168679762Y-60182380D01*
X168727381Y-60277618D01*
X168727381Y-60468095D01*
X168679762Y-60563333D01*
X168584524Y-60658571D01*
X168394048Y-60706190D01*
X168060714Y-60706190D01*
X167870238Y-60658571D01*
X167775000Y-60563333D01*
X167727381Y-60468095D01*
X168358571Y-55773333D02*
X168406190Y-55630476D01*
X168453810Y-55582857D01*
X168549048Y-55535238D01*
X168691905Y-55535238D01*
X168787143Y-55582857D01*
X168834762Y-55630476D01*
X168882381Y-55725714D01*
X168882381Y-56106667D01*
X167882381Y-56106667D01*
X167882381Y-55773333D01*
X167930000Y-55678095D01*
X167977619Y-55630476D01*
X168072857Y-55582857D01*
X168168095Y-55582857D01*
X168263333Y-55630476D01*
X168310952Y-55678095D01*
X168358571Y-55773333D01*
X168358571Y-56106667D01*
X167882381Y-55106667D02*
X168691905Y-55106667D01*
X168787143Y-55059048D01*
X168834762Y-55011429D01*
X168882381Y-54916191D01*
X168882381Y-54725714D01*
X168834762Y-54630476D01*
X168787143Y-54582857D01*
X168691905Y-54535238D01*
X167882381Y-54535238D01*
X167882381Y-54154286D02*
X167882381Y-53487619D01*
X168882381Y-54154286D01*
X168882381Y-53487619D01*
X167882381Y-53201905D02*
X167882381Y-52535238D01*
X168882381Y-53201905D01*
X168882381Y-52535238D01*
X168358571Y-52154286D02*
X168358571Y-51820952D01*
X168882381Y-51678095D02*
X168882381Y-52154286D01*
X167882381Y-52154286D01*
X167882381Y-51678095D01*
X168882381Y-50678095D02*
X168406190Y-51011429D01*
X168882381Y-51249524D02*
X167882381Y-51249524D01*
X167882381Y-50868571D01*
X167930000Y-50773333D01*
X167977619Y-50725714D01*
X168072857Y-50678095D01*
X168215714Y-50678095D01*
X168310952Y-50725714D01*
X168358571Y-50773333D01*
X168406190Y-50868571D01*
X168406190Y-51249524D01*
X168834762Y-50297143D02*
X168882381Y-50154286D01*
X168882381Y-49916190D01*
X168834762Y-49820952D01*
X168787143Y-49773333D01*
X168691905Y-49725714D01*
X168596667Y-49725714D01*
X168501429Y-49773333D01*
X168453810Y-49820952D01*
X168406190Y-49916190D01*
X168358571Y-50106667D01*
X168310952Y-50201905D01*
X168263333Y-50249524D01*
X168168095Y-50297143D01*
X168072857Y-50297143D01*
X167977619Y-50249524D01*
X167930000Y-50201905D01*
X167882381Y-50106667D01*
X167882381Y-49868571D01*
X167930000Y-49725714D01*
X216784762Y-58200476D02*
X216832381Y-58057619D01*
X216832381Y-57819523D01*
X216784762Y-57724285D01*
X216737143Y-57676666D01*
X216641905Y-57629047D01*
X216546667Y-57629047D01*
X216451429Y-57676666D01*
X216403810Y-57724285D01*
X216356190Y-57819523D01*
X216308571Y-58010000D01*
X216260952Y-58105238D01*
X216213333Y-58152857D01*
X216118095Y-58200476D01*
X216022857Y-58200476D01*
X215927619Y-58152857D01*
X215880000Y-58105238D01*
X215832381Y-58010000D01*
X215832381Y-57771904D01*
X215880000Y-57629047D01*
X216308571Y-57200476D02*
X216308571Y-56867142D01*
X216832381Y-56724285D02*
X216832381Y-57200476D01*
X215832381Y-57200476D01*
X215832381Y-56724285D01*
X216832381Y-56295714D02*
X215832381Y-56295714D01*
X216832381Y-55724285D01*
X215832381Y-55724285D01*
X216784762Y-55295714D02*
X216832381Y-55152857D01*
X216832381Y-54914761D01*
X216784762Y-54819523D01*
X216737143Y-54771904D01*
X216641905Y-54724285D01*
X216546667Y-54724285D01*
X216451429Y-54771904D01*
X216403810Y-54819523D01*
X216356190Y-54914761D01*
X216308571Y-55105238D01*
X216260952Y-55200476D01*
X216213333Y-55248095D01*
X216118095Y-55295714D01*
X216022857Y-55295714D01*
X215927619Y-55248095D01*
X215880000Y-55200476D01*
X215832381Y-55105238D01*
X215832381Y-54867142D01*
X215880000Y-54724285D01*
X215832381Y-54105238D02*
X215832381Y-53914761D01*
X215880000Y-53819523D01*
X215975238Y-53724285D01*
X216165714Y-53676666D01*
X216499048Y-53676666D01*
X216689524Y-53724285D01*
X216784762Y-53819523D01*
X216832381Y-53914761D01*
X216832381Y-54105238D01*
X216784762Y-54200476D01*
X216689524Y-54295714D01*
X216499048Y-54343333D01*
X216165714Y-54343333D01*
X215975238Y-54295714D01*
X215880000Y-54200476D01*
X215832381Y-54105238D01*
X216832381Y-52676666D02*
X216356190Y-53010000D01*
X216832381Y-53248095D02*
X215832381Y-53248095D01*
X215832381Y-52867142D01*
X215880000Y-52771904D01*
X215927619Y-52724285D01*
X216022857Y-52676666D01*
X216165714Y-52676666D01*
X216260952Y-52724285D01*
X216308571Y-52771904D01*
X216356190Y-52867142D01*
X216356190Y-53248095D01*
X216356190Y-52057619D02*
X216832381Y-52057619D01*
X215832381Y-52390952D02*
X216356190Y-52057619D01*
X215832381Y-51724285D01*
X202985715Y-65222381D02*
X202414286Y-65222381D01*
X202700000Y-65222381D02*
X202700000Y-64222381D01*
X202604762Y-64365238D01*
X202509524Y-64460476D01*
X202414286Y-64508095D01*
X203414286Y-65222381D02*
X203414286Y-64222381D01*
X203985715Y-65222381D02*
X203557143Y-64650952D01*
X203985715Y-64222381D02*
X203414286Y-64793810D01*
X202414286Y-69397619D02*
X202461905Y-69350000D01*
X202557143Y-69302381D01*
X202795239Y-69302381D01*
X202890477Y-69350000D01*
X202938096Y-69397619D01*
X202985715Y-69492857D01*
X202985715Y-69588095D01*
X202938096Y-69730952D01*
X202366667Y-70302381D01*
X202985715Y-70302381D01*
X203414286Y-70302381D02*
X203414286Y-69302381D01*
X203985715Y-70302381D02*
X203557143Y-69730952D01*
X203985715Y-69302381D02*
X203414286Y-69873810D01*
X185872381Y-58634285D02*
X185872381Y-59205714D01*
X185872381Y-58920000D02*
X184872381Y-58920000D01*
X185015238Y-59015238D01*
X185110476Y-59110476D01*
X185158095Y-59205714D01*
X185872381Y-58205714D02*
X184872381Y-58205714D01*
X185872381Y-57634285D02*
X185300952Y-58062857D01*
X184872381Y-57634285D02*
X185443810Y-58205714D01*
X180038810Y-71572381D02*
X179562619Y-71572381D01*
X179562619Y-70572381D01*
X180372143Y-71572381D02*
X180372143Y-70572381D01*
X180610238Y-70572381D01*
X180753096Y-70620000D01*
X180848334Y-70715238D01*
X180895953Y-70810476D01*
X180943572Y-71000952D01*
X180943572Y-71143810D01*
X180895953Y-71334286D01*
X180848334Y-71429524D01*
X180753096Y-71524762D01*
X180610238Y-71572381D01*
X180372143Y-71572381D01*
X181895953Y-71572381D02*
X181324524Y-71572381D01*
X181610238Y-71572381D02*
X181610238Y-70572381D01*
X181515000Y-70715238D01*
X181419762Y-70810476D01*
X181324524Y-70858095D01*
X182848334Y-71572381D02*
X182276905Y-71572381D01*
X182562619Y-71572381D02*
X182562619Y-70572381D01*
X182467381Y-70715238D01*
X182372143Y-70810476D01*
X182276905Y-70858095D01*
X183800715Y-71572381D02*
X183229286Y-71572381D01*
X183515000Y-71572381D02*
X183515000Y-70572381D01*
X183419762Y-70715238D01*
X183324524Y-70810476D01*
X183229286Y-70858095D01*
X184134048Y-70572381D02*
X184800715Y-70572381D01*
X184372143Y-71572381D01*
X185038810Y-70572381D02*
X185372143Y-71572381D01*
X185705477Y-70572381D01*
X185943572Y-70572381D02*
X186562620Y-70572381D01*
X186229286Y-70953333D01*
X186372144Y-70953333D01*
X186467382Y-71000952D01*
X186515001Y-71048571D01*
X186562620Y-71143810D01*
X186562620Y-71381905D01*
X186515001Y-71477143D01*
X186467382Y-71524762D01*
X186372144Y-71572381D01*
X186086429Y-71572381D01*
X185991191Y-71524762D01*
X185943572Y-71477143D01*
X186895953Y-70572381D02*
X187515001Y-70572381D01*
X187181667Y-70953333D01*
X187324525Y-70953333D01*
X187419763Y-71000952D01*
X187467382Y-71048571D01*
X187515001Y-71143810D01*
X187515001Y-71381905D01*
X187467382Y-71477143D01*
X187419763Y-71524762D01*
X187324525Y-71572381D01*
X187038810Y-71572381D01*
X186943572Y-71524762D01*
X186895953Y-71477143D01*
X174053810Y-68822381D02*
X173577619Y-68822381D01*
X173577619Y-67822381D01*
X174244286Y-67822381D02*
X174815715Y-67822381D01*
X174530000Y-68822381D02*
X174530000Y-67822381D01*
X175720477Y-68727143D02*
X175672858Y-68774762D01*
X175530001Y-68822381D01*
X175434763Y-68822381D01*
X175291905Y-68774762D01*
X175196667Y-68679524D01*
X175149048Y-68584286D01*
X175101429Y-68393810D01*
X175101429Y-68250952D01*
X175149048Y-68060476D01*
X175196667Y-67965238D01*
X175291905Y-67870000D01*
X175434763Y-67822381D01*
X175530001Y-67822381D01*
X175672858Y-67870000D01*
X175720477Y-67917619D01*
X176672858Y-68822381D02*
X176101429Y-68822381D01*
X176387143Y-68822381D02*
X176387143Y-67822381D01*
X176291905Y-67965238D01*
X176196667Y-68060476D01*
X176101429Y-68108095D01*
X177530001Y-68155714D02*
X177530001Y-68822381D01*
X177291905Y-67774762D02*
X177053810Y-68489048D01*
X177672858Y-68489048D01*
X178196667Y-68250952D02*
X178101429Y-68203333D01*
X178053810Y-68155714D01*
X178006191Y-68060476D01*
X178006191Y-68012857D01*
X178053810Y-67917619D01*
X178101429Y-67870000D01*
X178196667Y-67822381D01*
X178387144Y-67822381D01*
X178482382Y-67870000D01*
X178530001Y-67917619D01*
X178577620Y-68012857D01*
X178577620Y-68060476D01*
X178530001Y-68155714D01*
X178482382Y-68203333D01*
X178387144Y-68250952D01*
X178196667Y-68250952D01*
X178101429Y-68298571D01*
X178053810Y-68346190D01*
X178006191Y-68441429D01*
X178006191Y-68631905D01*
X178053810Y-68727143D01*
X178101429Y-68774762D01*
X178196667Y-68822381D01*
X178387144Y-68822381D01*
X178482382Y-68774762D01*
X178530001Y-68727143D01*
X178577620Y-68631905D01*
X178577620Y-68441429D01*
X178530001Y-68346190D01*
X178482382Y-68298571D01*
X178387144Y-68250952D01*
X179482382Y-67822381D02*
X179006191Y-67822381D01*
X178958572Y-68298571D01*
X179006191Y-68250952D01*
X179101429Y-68203333D01*
X179339525Y-68203333D01*
X179434763Y-68250952D01*
X179482382Y-68298571D01*
X179530001Y-68393810D01*
X179530001Y-68631905D01*
X179482382Y-68727143D01*
X179434763Y-68774762D01*
X179339525Y-68822381D01*
X179101429Y-68822381D01*
X179006191Y-68774762D01*
X178958572Y-68727143D01*
M02*
