M48
INCH,TZ
T1C0.016
T2C0.030
T3C0.031
T4C0.032
T5C0.035
T6C0.045
T7C0.125
%
G90
G05
T1
X69500Y-32500
X84750Y-18750
X85250Y-20000
X86000Y-18750
T2
X64500Y-20016
X64500Y-21000
X64500Y-21984
X64500Y-24106
X64500Y-25091
X74776Y-21500
X74776Y-22500
X74776Y-23500
X74776Y-24500
X74776Y-25500
X74776Y-26500
X74776Y-27500
X74776Y-28500
X74776Y-29500
X74776Y-30500
X83776Y-21500
X83776Y-22500
X83776Y-23500
X83776Y-24500
X83776Y-25500
X83776Y-26500
X83776Y-27500
X83776Y-28500
X83776Y-29500
X83776Y-30500
X87000Y-20516
X87000Y-21500
X87000Y-22484
X87000Y-25516
X87000Y-26500
X87000Y-27484
X87000Y-29016
X87000Y-30000
X87000Y-30984
T3
X68000Y-23000
X68000Y-24000
X68000Y-25000
X68000Y-26000
X68500Y-29531
X68500Y-31500
X70500Y-29516
X70500Y-30500
X71000Y-23000
X71000Y-24000
X71000Y-25000
X71000Y-26000
X73000Y-21500
X73000Y-24500
X78500Y-25500
X78500Y-27500
X81500Y-25500
X81500Y-27500
T4
X64000Y-16000
X65000Y-16000
X66000Y-16000
X67000Y-16000
X67600Y-35000
X68000Y-16000
X68600Y-35000
X69000Y-16000
X69600Y-35000
X70000Y-16000
X70600Y-35000
X71000Y-16000
X71600Y-35000
X72600Y-16000
X72600Y-35000
X73600Y-16000
X74600Y-16000
X74600Y-35000
X75600Y-16000
X75600Y-35000
X76600Y-16000
X76600Y-35000
X77600Y-16000
X77600Y-35000
X78600Y-16000
X78600Y-35000
X79600Y-16000
X79600Y-35000
X80600Y-35000
X81600Y-16000
X81600Y-35000
X82600Y-16000
X83600Y-16000
X83600Y-35000
X84600Y-16000
X84600Y-35000
X85600Y-16000
X85600Y-35000
X86600Y-16000
X86600Y-35000
X87600Y-16000
X87600Y-35000
X88600Y-16000
X88600Y-35000
X89600Y-35000
X90600Y-35000
X91600Y-16000
X91600Y-17000
X91600Y-18000
X91600Y-19000
X91600Y-20000
X91600Y-21000
X91600Y-22000
X91600Y-23000
X91600Y-24000
X91600Y-25000
X91600Y-26000
X91600Y-27000
X91600Y-28000
X91600Y-29000
X91600Y-30000
X91600Y-31000
X91600Y-32000
X91600Y-33000
X92600Y-16000
X92600Y-17000
X92600Y-18000
X92600Y-19000
X92600Y-20000
X92600Y-21000
X92600Y-22000
X92600Y-23000
X92600Y-24000
X92600Y-25000
X92600Y-26000
X92600Y-27000
X92600Y-28000
X92600Y-29000
X92600Y-30000
X92600Y-31000
X92600Y-32000
X92600Y-33000
T5
X71000Y-20000
X72000Y-20000
T6
X72500Y-29500
X72500Y-30500
X72500Y-31500
T7
X60100Y-35000
X60600Y-16000
X90100Y-16000
X92600Y-35000
T0
M30
